<svg width="360" height="296" viewBox="0 0 360 296" fill="none" xmlns="http://www.w3.org/2000/svg">
<path d="M241.2 362.78L121.752 241.787L76.261 255.289L111.571 401.253L-19.9815 440.297L-154.844 -117.199L-26.7528 -155.221L45.7392 144.446L95.2064 88.8603L163.571 111.48L130.428 -25.5281L280.316 -72.0134L219.426 147.617L534.479 451.353L376.228 499.193L241.33 362.742L241.2 362.78Z" fill="#BFB3EE"/>
<path fill-rule="evenodd" clip-rule="evenodd" d="M90.6046 70.344L141.577 84.5815L107.138 -57.7813L18.4492 -31.459L52.888 110.904L90.6046 70.344Z" fill="#BFB3EE"/>
<path d="M90.6046 70.344L141.577 84.5815L107.138 -57.7813L18.4492 -31.459L52.888 110.904L90.6046 70.344Z" fill="#BFB3EE"/>
</svg>
