<svg width="464" height="304" viewBox="0 0 464 304" fill="none" xmlns="http://www.w3.org/2000/svg">
<path d="M89.0394 -103.299L67.7891 -97.2505L301.761 830.28L323.012 824.231L89.0394 -103.299Z" fill="#D9CFFE"/>
<path d="M48.4711 -91.7508L27.2207 -85.7024L260.934 840.802L282.185 834.753L48.4711 -91.7508Z" fill="#D9CFFE"/>
<path d="M672.543 521.218L499.693 353.313L433.864 372.05L484.96 574.608L294.595 628.79L99.4394 -144.86L284.797 -197.625L389.697 218.231L461.28 141.093L560.208 172.482L512.247 -17.6467L729.145 -82.1554L641.034 222.631L1096.94 644.133L867.936 710.522L672.73 521.165L672.543 521.218Z" fill="#D9CFFE"/>
<path fill-rule="evenodd" clip-rule="evenodd" d="M454.621 115.399L528.382 135.157L478.546 -62.4031L350.207 -25.875L400.042 171.685L454.621 115.399Z" fill="#D9CFFE"/>
<path d="M454.621 115.399L528.382 135.157L478.546 -62.4031L350.207 -25.875L400.042 171.685L454.621 115.399Z" fill="#D9CFFE"/>
</svg>
