<svg width="868" height="458" viewBox="0 0 868 458" fill="none" xmlns="http://www.w3.org/2000/svg">
<path d="M115.039 -112.473L93.7891 -105.888L327.761 904.022L349.012 897.436L115.039 -112.473Z" fill="#D9CFFE"/>
<path d="M74.4711 -99.9L53.2207 -93.3145L286.934 915.478L308.185 908.892L74.4711 -99.9Z" fill="#D9CFFE"/>
<path d="M698.543 567.51L525.693 384.693L459.864 405.093L510.96 625.642L320.595 684.637L125.439 -157.726L310.797 -215.177L415.697 237.613L487.28 153.624L586.208 187.801L538.247 -19.2142L755.145 -89.4523L667.034 242.404L1122.94 701.342L893.936 773.627L698.73 567.452L698.543 567.51Z" fill="#D9CFFE"/>
<path fill-rule="evenodd" clip-rule="evenodd" d="M480.621 125.648L554.382 147.161L504.546 -67.9463L376.207 -28.1738L426.042 186.933L480.621 125.648Z" fill="#D9CFFE"/>
<path d="M480.621 125.648L554.382 147.161L504.546 -67.9463L376.207 -28.1738L426.042 186.933L480.621 125.648Z" fill="#D9CFFE"/>
</svg>
