<svg width="360" height="404" viewBox="0 0 360 404" fill="none" xmlns="http://www.w3.org/2000/svg">
<path d="M241.2 632.78L121.752 511.787L76.261 525.289L111.571 671.253L-19.9815 710.297L-154.844 152.801L-26.7528 114.779L45.7392 414.446L95.2064 358.86L163.571 381.48L130.428 244.472L280.316 197.987L219.426 417.617L534.479 721.353L376.228 769.193L241.33 632.742L241.2 632.78Z" fill="#D9CFFE"/>
<path fill-rule="evenodd" clip-rule="evenodd" d="M90.6046 340.344L141.577 354.581L107.138 212.219L18.4492 238.541L52.888 380.904L90.6046 340.344Z" fill="#D9CFFE"/>
<path d="M90.6046 340.344L141.577 354.581L107.138 212.219L18.4492 238.541L52.888 380.904L90.6046 340.344Z" fill="#D9CFFE"/>
</svg>
