<svg width="24" height="24" viewBox="0 0 24 24" fill="none" xmlns="http://www.w3.org/2000/svg">
<g opacity="0.8" filter="url(#filter0_i_3769_7342)">
<path fill-rule="evenodd" clip-rule="evenodd" d="M12 4C7.58173 4 4 7.58173 4 12C4 16.4183 7.58173 20 12 20C16.4183 20 20 16.4183 20 12C20 7.58173 16.4183 4 12 4ZM2 12C2 6.47715 6.47715 2 12 2C17.5229 2 22 6.47715 22 12C22 17.5229 17.5229 22 12 22C6.47715 22 2 17.5229 2 12ZM14.7488 9.25993L11.835 10.2558C10.9994 10.5619 10.4635 11.1395 10.2682 11.79C10.2645 11.8021 10.2607 11.8143 10.2565 11.8263L9.2598 14.7371L12.165 13.7442C13.0006 13.4381 13.5365 12.8605 13.7318 12.21C13.7367 12.1935 13.7421 12.1772 13.7479 12.161L14.2424 10.7777L14.7488 9.25993ZM16.495 7.4032C16.9148 7.78453 17.0777 8.3496 16.9651 8.912C16.9569 8.95273 16.9463 8.99287 16.9331 9.0322L16.1362 11.4208L16.1293 11.4409L15.6393 12.8116C15.2317 14.1364 14.1817 15.1394 12.8395 15.627L12.8215 15.6334L9.0362 16.9272C9.00953 16.9363 8.98247 16.9443 8.95513 16.9511C8.4518 17.0769 7.90427 16.9594 7.505 16.5968C7.0852 16.2155 6.92233 15.6504 7.03493 15.088C7.0436 15.0447 7.05513 15.0021 7.0694 14.9603L8.3586 11.1953C8.76473 9.86707 9.816 8.86147 11.1605 8.373L11.1785 8.3666L14.9638 7.0728C14.9905 7.06367 15.0175 7.05573 15.0449 7.04887C15.5482 6.92313 16.0957 7.0406 16.495 7.4032Z" fill="#4C3B8A"/>
</g>
<defs>
<filter id="filter0_i_3769_7342" x="0" y="0" width="24.625" height="24.625" filterUnits="userSpaceOnUse" color-interpolation-filters="sRGB">
<feFlood flood-opacity="0" result="BackgroundImageFix"/>
<feBlend mode="normal" in="SourceGraphic" in2="BackgroundImageFix" result="shape"/>
<feColorMatrix in="SourceAlpha" type="matrix" values="0 0 0 0 0 0 0 0 0 0 0 0 0 0 0 0 0 0 127 0" result="hardAlpha"/>
<feOffset dx="0.625" dy="0.625"/>
<feGaussianBlur stdDeviation="0.625"/>
<feComposite in2="hardAlpha" operator="arithmetic" k2="-1" k3="1"/>
<feColorMatrix type="matrix" values="0 0 0 0 1 0 0 0 0 1 0 0 0 0 1 0 0 0 0.3 0"/>
<feBlend mode="normal" in2="shape" result="effect1_innerShadow_3769_7342"/>
</filter>
</defs>
</svg>
