<svg width="24" height="24" viewBox="0 0 24 24" fill="none" xmlns="http://www.w3.org/2000/svg">
<g opacity="0.8" filter="url(#filter0_i_3784_7389)">
<path d="M17.4 8.5H16H8.9V7.1C8.9 5.4 10.3 4 12 4C13.4 4 14.7 5 15 6.4C15.1 6.9 15.6 7.3 16.2 7.2C16.7 7.1 17.1 6.6 17 6C16.5 3.7 14.4 2 12 2C9.2 2 6.9 4.3 6.9 7.1V8.6H6.6C4.6 8.6 3 10.2 3 12.2V18.5C3 20.5 4.6 22.1 6.6 22.1H17.5C19.5 22.1 21.1 20.5 21.1 18.5V12.2C21 10.1 19.4 8.5 17.4 8.5ZM19.2 18.4C19.2 19.3 18.3 20 17.4 20H6.6C5.7 20 5 19.3 5 18.4V12.1C5 11.2 5.7 10.5 6.6 10.5H8H16.2H17.6C18.5 10.5 19.2 11.2 19.2 12.1V18.4Z" fill="#4C3B8A"/>
<path d="M12 15.1003C11.4 15.1003 11 15.5003 11 16.1003V17.7003C11 18.3003 11.4 18.7003 12 18.7003C12.6 18.7003 13 18.3003 13 17.7003V16.1003C13 15.5003 12.6 15.1003 12 15.1003Z" fill="#4C3B8A"/>
</g>
<defs>
<filter id="filter0_i_3784_7389" x="0" y="0" width="24.625" height="24.625" filterUnits="userSpaceOnUse" color-interpolation-filters="sRGB">
<feFlood flood-opacity="0" result="BackgroundImageFix"/>
<feBlend mode="normal" in="SourceGraphic" in2="BackgroundImageFix" result="shape"/>
<feColorMatrix in="SourceAlpha" type="matrix" values="0 0 0 0 0 0 0 0 0 0 0 0 0 0 0 0 0 0 127 0" result="hardAlpha"/>
<feOffset dx="0.625" dy="0.625"/>
<feGaussianBlur stdDeviation="0.625"/>
<feComposite in2="hardAlpha" operator="arithmetic" k2="-1" k3="1"/>
<feColorMatrix type="matrix" values="0 0 0 0 1 0 0 0 0 1 0 0 0 0 1 0 0 0 0.3 0"/>
<feBlend mode="normal" in2="shape" result="effect1_innerShadow_3784_7389"/>
</filter>
</defs>
</svg>
