<svg width="24" height="24" viewBox="0 0 24 24" fill="none" xmlns="http://www.w3.org/2000/svg">
<g opacity="0.7" filter="url(#filter0_i_5901_11686)">
<path d="M11.1997 20H5.49972C4.99972 20 4.49972 19.7 4.29972 19.3C3.99972 18.9 3.99972 18.5 4.19972 18C5.39972 15.2 8.09975 13.3 11.1997 13.3C14.2997 13.3 16.8997 10.7 16.8997 7.6C16.8997 4.5 14.2997 2 11.0997 2C7.99975 2 5.39972 4.6 5.39972 7.7C5.39972 9.5 6.19972 11.1 7.49975 12.1C5.19972 13 3.19972 14.9 2.19972 17.3C1.79972 18.3 1.89972 19.5 2.49972 20.4C3.19972 21.4 4.19972 22 5.39972 22H11.0997C11.6997 22 12.0997 21.6 12.0997 21C12.0997 20.4 11.6997 20 11.1997 20ZM7.39975 7.7C7.39975 5.7 9.09975 4 11.0997 4C13.0997 4 14.7997 5.7 14.7997 7.7C14.7997 9.7 13.0997 11.4 11.0997 11.4C9.09975 11.4 7.39975 9.7 7.39975 7.7Z" fill="#4C3B8A"/>
<path d="M20.9996 16.3H18.3996V13.7C18.3996 13.1 17.9996 12.7 17.3996 12.7C16.7996 12.7 16.3996 13.1 16.3996 13.7V16.3H13.7996C13.1996 16.3 12.7996 16.7 12.7996 17.3C12.7996 17.9 13.1996 18.3 13.7996 18.3H16.3996V20.9C16.3996 21.5 16.7996 21.9 17.3996 21.9C17.9996 21.9 18.3996 21.5 18.3996 20.9V18.3H20.9996C21.5996 18.3 21.9996 17.9 21.9996 17.3C21.9996 16.7 21.5996 16.3 20.9996 16.3Z" fill="#4C3B8A"/>
</g>
<defs>
<filter id="filter0_i_5901_11686" x="0" y="0" width="24.625" height="24.625" filterUnits="userSpaceOnUse" color-interpolation-filters="sRGB">
<feFlood flood-opacity="0" result="BackgroundImageFix"/>
<feBlend mode="normal" in="SourceGraphic" in2="BackgroundImageFix" result="shape"/>
<feColorMatrix in="SourceAlpha" type="matrix" values="0 0 0 0 0 0 0 0 0 0 0 0 0 0 0 0 0 0 127 0" result="hardAlpha"/>
<feOffset dx="0.625" dy="0.625"/>
<feGaussianBlur stdDeviation="0.625"/>
<feComposite in2="hardAlpha" operator="arithmetic" k2="-1" k3="1"/>
<feColorMatrix type="matrix" values="0 0 0 0 1 0 0 0 0 1 0 0 0 0 1 0 0 0 0.3 0"/>
<feBlend mode="normal" in2="shape" result="effect1_innerShadow_5901_11686"/>
</filter>
</defs>
</svg>
