<svg width="24" height="24" viewBox="0 0 24 24" fill="none" xmlns="http://www.w3.org/2000/svg">
<g opacity="0.7" filter="url(#filter0_i_5901_11702)">
<path d="M15.6667 12.5525H20.1872C21.7945 12.5525 23 11.2466 23 9.73973V7.63013C23 6.02283 21.6941 4.81735 20.1872 4.81735H15.6667C14.0593 4.81735 12.8539 6.12329 12.8539 7.63013H3.00913V2.00457C3.00913 1.40183 2.60731 1 2.00457 1C1.40183 1 1 1.40183 1 2.00457V16.4703C1 18.5799 2.70776 20.1872 4.71689 20.1872H12.8539C12.8539 21.7945 14.1598 23 15.6667 23H20.1872C21.7945 23 23 21.6941 23 20.1872V18.0776C23 16.4703 21.6941 15.2649 20.1872 15.2649H15.6667C14.0593 15.2649 12.8539 16.5708 12.8539 18.0776H4.71689C3.71233 18.0776 3.00913 17.274 3.00913 16.3699V9.63927H12.8539C12.8539 11.2466 14.1598 12.5525 15.6667 12.5525ZM14.863 18.1781C14.863 17.6758 15.2649 17.3744 15.6667 17.3744H20.1872C20.6895 17.3744 20.9909 17.7763 20.9909 18.1781V20.2877C20.9909 20.7899 20.5891 21.0913 20.1872 21.0913H15.6667C15.1644 21.0913 14.863 20.6895 14.863 20.2877V18.1781ZM14.863 7.63013C14.863 7.12787 15.2649 6.82647 15.6667 6.82647H20.1872C20.6895 6.82647 20.9909 7.22833 20.9909 7.63013V9.73973C20.9909 10.242 20.5891 10.5434 20.1872 10.5434H15.6667C15.1644 10.5434 14.863 10.1415 14.863 9.73973V7.63013Z" fill="#4C3B8A"/>
</g>
<defs>
<filter id="filter0_i_5901_11702" x="0" y="0" width="24.625" height="24.625" filterUnits="userSpaceOnUse" color-interpolation-filters="sRGB">
<feFlood flood-opacity="0" result="BackgroundImageFix"/>
<feBlend mode="normal" in="SourceGraphic" in2="BackgroundImageFix" result="shape"/>
<feColorMatrix in="SourceAlpha" type="matrix" values="0 0 0 0 0 0 0 0 0 0 0 0 0 0 0 0 0 0 127 0" result="hardAlpha"/>
<feOffset dx="0.625" dy="0.625"/>
<feGaussianBlur stdDeviation="0.625"/>
<feComposite in2="hardAlpha" operator="arithmetic" k2="-1" k3="1"/>
<feColorMatrix type="matrix" values="0 0 0 0 1 0 0 0 0 1 0 0 0 0 1 0 0 0 0.3 0"/>
<feBlend mode="normal" in2="shape" result="effect1_innerShadow_5901_11702"/>
</filter>
</defs>
</svg>
