<svg width="24" height="24" viewBox="0 0 24 24" fill="none" xmlns="http://www.w3.org/2000/svg">
<g opacity="0.7" filter="url(#filter0_i_5901_10979)">
<path d="M18.5 20.7H5.5C3.6 20.7 2 19.2 2 17.2V9.9C2 8 3.5 6.5 5.5 6.5H6.7L7.6 5.3C8.2 4.5 9.2 4 10.2 4H13.7C14.8 4 15.7 4.5 16.4 5.3L17.3 6.5H18.5C20.5 6.5 22 8 22 9.9V17.3C22 19.2 20.5 20.7 18.5 20.7ZM5.5 8.5C4.7 8.5 4 9.1 4 9.9V17.3C4 18.1 4.7 18.8 5.5 18.8H18.6C19.4 18.8 20.1 18.1 20.1 17.3V9.9C20.1 9.1 19.4 8.4 18.6 8.4H17C16.7 8.4 16.4 8.3 16.2 8L15 6.5C14.6 6.2 14.2 6 13.8 6H10.2C9.8 6 9.4 6.2 9.1 6.5L7.9 8.1C7.7 8.3 7.4 8.5 7.1 8.5H5.5Z" fill="#4C3B8A"/>
<path d="M12.0006 17.4997C9.60056 17.4997 7.70056 15.5997 7.70056 13.1997C7.70056 10.7997 9.60056 8.89966 12.0006 8.89966C14.4006 8.89966 16.3006 10.7997 16.3006 13.1997C16.3006 15.4997 14.4006 17.4997 12.0006 17.4997ZM12.0006 10.8997C10.7006 10.8997 9.70056 11.8997 9.70056 13.1997C9.70056 14.4997 10.7006 15.4997 12.0006 15.4997C13.3006 15.4997 14.3006 14.4997 14.3006 13.1997C14.3006 11.8997 13.3006 10.8997 12.0006 10.8997Z" fill="#4C3B8A"/>
</g>
<defs>
<filter id="filter0_i_5901_10979" x="0" y="0" width="24.63" height="24.63" filterUnits="userSpaceOnUse" color-interpolation-filters="sRGB">
<feFlood flood-opacity="0" result="BackgroundImageFix"/>
<feBlend mode="normal" in="SourceGraphic" in2="BackgroundImageFix" result="shape"/>
<feColorMatrix in="SourceAlpha" type="matrix" values="0 0 0 0 0 0 0 0 0 0 0 0 0 0 0 0 0 0 127 0" result="hardAlpha"/>
<feOffset dx="0.63" dy="0.63"/>
<feGaussianBlur stdDeviation="0.625"/>
<feComposite in2="hardAlpha" operator="arithmetic" k2="-1" k3="1"/>
<feColorMatrix type="matrix" values="0 0 0 0 1 0 0 0 0 1 0 0 0 0 1 0 0 0 0.3 0"/>
<feBlend mode="normal" in2="shape" result="effect1_innerShadow_5901_10979"/>
</filter>
</defs>
</svg>
