<svg width="24" height="24" viewBox="0 0 24 24" fill="none" xmlns="http://www.w3.org/2000/svg">
<g opacity="0.7" filter="url(#filter0_i_5901_11002)">
<path d="M20.806 3.4C20.0099 2.5 18.9154 2 17.6219 2H6.27861C3.89055 2 2 3.9 2 6.3V17.8C2 20.1 3.89055 22 6.27861 22H17.7214C20.1095 22 22 20.1 22 17.7V6.3C21.9005 5.2 21.5025 4.2 20.806 3.4ZM19.9105 17.7C19.9105 19 18.9154 20 17.6219 20H6.27861C4.98507 20 3.99005 19 3.99005 17.7V6.3C3.99005 5 4.98507 4 6.27861 4H17.7214C18.4179 4 19.0149 4.3 19.4129 4.8C19.7115 5.2 19.9105 5.7 19.9105 6.3V17.7Z" fill="#4C3B8A"/>
<path d="M6.29956 9.30005H7.29955V10.3C7.29955 10.9 7.69955 11.3 8.29955 11.3C8.89955 11.3 9.29955 10.9 9.29955 10.3V9.30005H10.2995C10.8995 9.30005 11.2995 8.90005 11.2995 8.30005C11.2995 7.70005 10.8995 7.30005 10.2995 7.30005H9.29955V6.30005C9.29955 5.70005 8.89955 5.30005 8.29955 5.30005C7.69955 5.30005 7.29955 5.70005 7.29955 6.30005V7.30005H6.29956C5.69956 7.30005 5.29956 7.70005 5.29956 8.30005C5.29956 8.90005 5.69956 9.30005 6.29956 9.30005Z" fill="#4C3B8A"/>
<path d="M17.6997 14.3H14.3997C13.7997 14.3 13.3997 14.7 13.3997 15.3C13.3997 15.9 13.7997 16.3 14.3997 16.3H17.6997C18.2997 16.3 18.6997 15.9 18.6997 15.3C18.6997 14.7 18.2997 14.3 17.6997 14.3Z" fill="#4C3B8A"/>
<path d="M16.9995 5.60005L5.59956 17C5.19956 17.4001 5.19956 18.0001 5.59956 18.4001C5.79956 18.6 6.09956 18.7 6.29956 18.7C6.49956 18.7 6.79955 18.6 6.99955 18.4001L18.3995 7.00005C18.7995 6.60005 18.7995 6.00005 18.3995 5.60005C17.9995 5.20005 17.3995 5.20005 16.9995 5.60005Z" fill="#4C3B8A"/>
</g>
<defs>
<filter id="filter0_i_5901_11002" x="0" y="0" width="24.625" height="24.625" filterUnits="userSpaceOnUse" color-interpolation-filters="sRGB">
<feFlood flood-opacity="0" result="BackgroundImageFix"/>
<feBlend mode="normal" in="SourceGraphic" in2="BackgroundImageFix" result="shape"/>
<feColorMatrix in="SourceAlpha" type="matrix" values="0 0 0 0 0 0 0 0 0 0 0 0 0 0 0 0 0 0 127 0" result="hardAlpha"/>
<feOffset dx="0.625" dy="0.625"/>
<feGaussianBlur stdDeviation="0.625"/>
<feComposite in2="hardAlpha" operator="arithmetic" k2="-1" k3="1"/>
<feColorMatrix type="matrix" values="0 0 0 0 1 0 0 0 0 1 0 0 0 0 1 0 0 0 0.3 0"/>
<feBlend mode="normal" in2="shape" result="effect1_innerShadow_5901_11002"/>
</filter>
</defs>
</svg>
