<svg width="24" height="24" viewBox="0 0 24 24" fill="none" xmlns="http://www.w3.org/2000/svg">
<g opacity="0.7" filter="url(#filter0_i_5901_11089)">
<path d="M21 19.9999H19.3V14.2C19.3 13.6 18.9 13.2 18.3 13.2C17.7 13.2 17.3 13.6 17.3 14.2V19.9999H15.1V14.2C15.1 13.6 14.7 13.2 14.1 13.2C13.5 13.2 13.1 13.6 13.1 14.2V19.9999H10.9V14.2C10.9 13.6 10.5 13.2 9.9 13.2C9.3 13.2 8.9 13.6 8.9 14.2V19.9999H6.7V14.2C6.7 13.6 6.3 13.2 5.7 13.2C5.1 13.2 4.7 13.6 4.7 14.2V19.9999H3C2.4 19.9999 2 20.4 2 20.9999C2 21.5999 2.4 22 3 22H21C21.6 22 22 21.5999 22 20.9999C22 20.4 21.6 19.9999 21 19.9999Z" fill="#4C3B8A"/>
<path d="M21 6.00005L13.5 2.30005C12.5 1.80005 11.4 1.80005 10.5 2.30005L3 6.00005C2.4 6.30005 2 7.00005 2 7.60005V9.90005C2 10.9 2.8 11.7 3.8 11.7H20.2C21.2 11.7 22 10.9 22 9.90005V7.60005C22 6.90005 21.6 6.30005 21 6.00005ZM20 9.70005H4V7.70005L11.4 4.10005C11.8 3.90005 12.3 3.90005 12.7 4.10005L20 7.80005V9.70005Z" fill="#4C3B8A"/>
</g>
<defs>
<filter id="filter0_i_5901_11089" x="0" y="0" width="24.625" height="24.625" filterUnits="userSpaceOnUse" color-interpolation-filters="sRGB">
<feFlood flood-opacity="0" result="BackgroundImageFix"/>
<feBlend mode="normal" in="SourceGraphic" in2="BackgroundImageFix" result="shape"/>
<feColorMatrix in="SourceAlpha" type="matrix" values="0 0 0 0 0 0 0 0 0 0 0 0 0 0 0 0 0 0 127 0" result="hardAlpha"/>
<feOffset dx="0.625" dy="0.625"/>
<feGaussianBlur stdDeviation="0.625"/>
<feComposite in2="hardAlpha" operator="arithmetic" k2="-1" k3="1"/>
<feColorMatrix type="matrix" values="0 0 0 0 1 0 0 0 0 1 0 0 0 0 1 0 0 0 0.3 0"/>
<feBlend mode="normal" in2="shape" result="effect1_innerShadow_5901_11089"/>
</filter>
</defs>
</svg>
