<svg width="24" height="24" viewBox="0 0 24 24" fill="none" xmlns="http://www.w3.org/2000/svg">
<g opacity="0.7" filter="url(#filter0_i_5901_11513)">
<path fill-rule="evenodd" clip-rule="evenodd" d="M1 5.66667C1 3.11438 3.11438 1 5.66667 1H18.3333C20.8856 1 23 3.11438 23 5.66667V13.7778C23 16.3301 20.8856 18.4445 18.3333 18.4445H10.1111C9.07147 18.4445 8.17947 18.7265 7.48887 19.2445L7.47707 19.2532L2.58817 22.8087C2.28399 23.0299 1.88139 23.0618 1.54622 22.8911C1.21105 22.7205 1 22.3761 1 22V5.66667ZM3 20.0362L6.29505 17.6398C7.38113 16.8276 8.709 16.4445 10.1111 16.4445H18.3333C19.7811 16.4445 21 15.2255 21 13.7778V5.66667C21 4.21895 19.7811 3 18.3333 3H5.66667C4.21895 3 3 4.21895 3 5.66667V20.0362Z" fill="#4C3B8A"/>
<path fill-rule="evenodd" clip-rule="evenodd" d="M6 7C6 6.44771 6.44771 6 7 6H17C17.5523 6 18 6.44771 18 7C18 7.55227 17.5523 8 17 8H7C6.44771 8 6 7.55227 6 7Z" fill="#4C3B8A"/>
<path fill-rule="evenodd" clip-rule="evenodd" d="M6 12C6 11.4477 6.44771 11 7 11H12C12.5523 11 13 11.4477 13 12C13 12.5523 12.5523 13 12 13H7C6.44771 13 6 12.5523 6 12Z" fill="#4C3B8A"/>
</g>
<defs>
<filter id="filter0_i_5901_11513" x="0" y="0" width="24.63" height="24.63" filterUnits="userSpaceOnUse" color-interpolation-filters="sRGB">
<feFlood flood-opacity="0" result="BackgroundImageFix"/>
<feBlend mode="normal" in="SourceGraphic" in2="BackgroundImageFix" result="shape"/>
<feColorMatrix in="SourceAlpha" type="matrix" values="0 0 0 0 0 0 0 0 0 0 0 0 0 0 0 0 0 0 127 0" result="hardAlpha"/>
<feOffset dx="0.63" dy="0.63"/>
<feGaussianBlur stdDeviation="0.625"/>
<feComposite in2="hardAlpha" operator="arithmetic" k2="-1" k3="1"/>
<feColorMatrix type="matrix" values="0 0 0 0 1 0 0 0 0 1 0 0 0 0 1 0 0 0 0.3 0"/>
<feBlend mode="normal" in2="shape" result="effect1_innerShadow_5901_11513"/>
</filter>
</defs>
</svg>
