<svg width="24" height="24" viewBox="0 0 24 24" fill="none" xmlns="http://www.w3.org/2000/svg">
<g opacity="0.7" filter="url(#filter0_i_5901_11179)">
<path d="M12.4 5.2H12.2V4.9C12.2 2.8 10.5 1 8.4 1C6.3 1 4.6 2.8 4.6 4.9V12C3.7 12.4 3 13.4 3 14.5V15.3C3 16.8 4.2 18 5.6 18H11.2C12.6 18 13.8 16.8 13.8 15.3V14.5C13.8 13.4 13.1 12.4 12.2 12V7.2H12.4C16 7.2 19 10.3 19 14.1C19 17 17.4 19.5 14.8 20.5C14.3 20.7 14 21.3 14.3 21.8C14.5 22.2 14.8 22.4 15.2 22.4C15.3 22.4 15.5 22.4 15.6 22.3C18.9 20.9 21 17.7 21 14C21 9.2 17.1 5.2 12.4 5.2ZM6.6 4.9C6.6 3.9 7.4 3 8.4 3C9.4 3 10.2 3.9 10.2 4.9V11.8H6.6V4.9ZM11.8 15.3C11.8 15.7 11.5 16 11.2 16H5.6C5.3 16 5 15.7 5 15.3V14.5C5 14.1 5.3 13.8 5.6 13.8H11.2C11.5 13.8 11.8 14.1 11.8 14.5V15.3Z" fill="#4C3B8A"/>
<path d="M12.4 21H4C3.4 21 3 21.4 3 22C3 22.6 3.4 23 4 23H12.4C13 23 13.4 22.6 13.4 22C13.4 21.4 13 21 12.4 21Z" fill="#4C3B8A"/>
</g>
<defs>
<filter id="filter0_i_5901_11179" x="0" y="0" width="24.625" height="24.625" filterUnits="userSpaceOnUse" color-interpolation-filters="sRGB">
<feFlood flood-opacity="0" result="BackgroundImageFix"/>
<feBlend mode="normal" in="SourceGraphic" in2="BackgroundImageFix" result="shape"/>
<feColorMatrix in="SourceAlpha" type="matrix" values="0 0 0 0 0 0 0 0 0 0 0 0 0 0 0 0 0 0 127 0" result="hardAlpha"/>
<feOffset dx="0.625" dy="0.625"/>
<feGaussianBlur stdDeviation="0.625"/>
<feComposite in2="hardAlpha" operator="arithmetic" k2="-1" k3="1"/>
<feColorMatrix type="matrix" values="0 0 0 0 1 0 0 0 0 1 0 0 0 0 1 0 0 0 0.3 0"/>
<feBlend mode="normal" in2="shape" result="effect1_innerShadow_5901_11179"/>
</filter>
</defs>
</svg>
