<svg width="20" height="20" viewBox="0 0 20 20" fill="none" xmlns="http://www.w3.org/2000/svg">
<g clip-path="url(#clip0_1860_1801)">
<path d="M19.2667 8.25831L16.0417 4.99998C15.9642 4.92187 15.872 4.85988 15.7705 4.81757C15.6689 4.77526 15.56 4.75348 15.45 4.75348C15.34 4.75348 15.2311 4.77526 15.1295 4.81757C15.028 4.85988 14.9358 4.92187 14.8583 4.99998C14.7031 5.15611 14.616 5.36732 14.616 5.58748C14.616 5.80763 14.7031 6.01884 14.8583 6.17498L17.825 9.16664H0.833333C0.61232 9.16664 0.400358 9.25444 0.244078 9.41072C0.0877974 9.567 0 9.77896 0 9.99998C0 10.221 0.0877974 10.433 0.244078 10.5892C0.400358 10.7455 0.61232 10.8333 0.833333 10.8333H17.875L14.8583 13.8416C14.7802 13.9191 14.7182 14.0113 14.6759 14.1128C14.6336 14.2144 14.6118 14.3233 14.6118 14.4333C14.6118 14.5433 14.6336 14.6522 14.6759 14.7538C14.7182 14.8553 14.7802 14.9475 14.8583 15.025C14.9358 15.1031 15.028 15.1651 15.1295 15.2074C15.2311 15.2497 15.34 15.2715 15.45 15.2715C15.56 15.2715 15.6689 15.2497 15.7705 15.2074C15.872 15.1651 15.9642 15.1031 16.0417 15.025L19.2667 11.7916C19.7348 11.3229 19.9978 10.6875 19.9978 10.025C19.9978 9.36248 19.7348 8.72706 19.2667 8.25831Z" fill="#BFB3EE"/>
</g>
<defs>
<clipPath id="clip0_1860_1801">
<rect width="20" height="20" fill="white"/>
</clipPath>
</defs>
</svg>
