<svg width="24" height="24" viewBox="0 0 24 24" fill="none" xmlns="http://www.w3.org/2000/svg">
<path d="M24.0004 22.9996C24.0004 23.2648 23.895 23.5191 23.7075 23.7067C23.52 23.8942 23.2656 23.9996 23.0004 23.9996H1.00039C0.735174 23.9996 0.48082 23.8942 0.293284 23.7067C0.105748 23.5191 0.000390835 23.2648 0.000390835 22.9996C0.000390835 22.7344 0.105748 22.48 0.293284 22.2925C0.48082 22.1049 0.735174 21.9996 1.00039 21.9996H23.0004C23.2656 21.9996 23.52 22.1049 23.7075 22.2925C23.895 22.48 24.0004 22.7344 24.0004 22.9996ZM0.291391 8.55157C0.0759131 8.15189 -0.0239145 7.70007 0.00311126 7.24682C0.030137 6.79356 0.182947 6.35681 0.444391 5.98557C0.871649 5.35868 1.44384 4.84413 2.11239 4.48557L9.61339 0.581567C10.3507 0.198198 11.1694 -0.00195313 12.0004 -0.00195312C12.8314 -0.00195313 13.6501 0.198198 14.3874 0.581567L21.8874 4.48857C22.5559 4.84713 23.1281 5.36168 23.5554 5.98857C23.8168 6.35981 23.9696 6.79656 23.9967 7.24982C24.0237 7.70307 23.9239 8.15489 23.7084 8.55457C23.4764 8.9934 23.1285 9.36017 22.7025 9.61495C22.2765 9.86974 21.7888 10.0028 21.2924 9.99957H21.0004V17.9996H22.0004C22.2656 17.9996 22.52 18.1049 22.7075 18.2925C22.895 18.48 23.0004 18.7344 23.0004 18.9996C23.0004 19.2648 22.895 19.5191 22.7075 19.7067C22.52 19.8942 22.2656 19.9996 22.0004 19.9996H2.00039C1.73517 19.9996 1.48082 19.8942 1.29328 19.7067C1.10575 19.5191 1.00039 19.2648 1.00039 18.9996C1.00039 18.7344 1.10575 18.48 1.29328 18.2925C1.48082 18.1049 1.73517 17.9996 2.00039 17.9996H3.00039V9.99957H2.70839C2.21155 10.0027 1.7234 9.86928 1.29718 9.61393C0.870963 9.35859 0.52305 8.99111 0.291391 8.55157ZM5.00039 17.9996H8.00039V9.99957H5.00039V17.9996ZM10.0004 9.99957V17.9996H14.0004V9.99957H10.0004ZM19.0004 9.99957H16.0004V17.9996H19.0004V9.99957ZM2.06339 7.62457C2.12613 7.74025 2.2195 7.83643 2.33327 7.90257C2.44704 7.96871 2.57682 8.00227 2.70839 7.99957H21.2924C21.424 8.00227 21.5537 7.96871 21.6675 7.90257C21.7813 7.83643 21.8746 7.74025 21.9374 7.62457C21.9831 7.54813 22.0052 7.4599 22.0009 7.37094C21.9967 7.28199 21.9662 7.19627 21.9134 7.12457C21.6711 6.76448 21.3456 6.46811 20.9644 6.26057L13.4644 2.35357C13.0124 2.11899 12.5106 1.99654 12.0014 1.99654C11.4922 1.99654 10.9904 2.11899 10.5384 2.35357L3.03839 6.26057C2.65737 6.46878 2.33192 6.76542 2.08939 7.12557C2.03648 7.19697 2.00579 7.28239 2.00117 7.37115C1.99654 7.4599 2.01819 7.54805 2.06339 7.62457Z" fill="#343434"/>
</svg>
