<svg xmlns="http://www.w3.org/2000/svg" width="24" height="24" viewBox="0 0 24 24" fill="none">
  <g clip-path="url(#clip0_1760_5811)">
    <path d="M19 15H18C17.447 15 17 14.553 17 14C17 13.447 17.447 13 18 13H19C19.553 13 20 13.447 20 14C20 14.553 19.553 15 19 15ZM20 18C20 17.447 19.553 17 19 17H18C17.447 17 17 17.447 17 18C17 18.553 17.447 19 18 19H19C19.553 19 20 18.553 20 18ZM16 6C16 5.447 15.553 5 15 5H14C13.447 5 13 5.447 13 6C13 6.553 13.447 7 14 7H15C15.553 7 16 6.553 16 6ZM20 6C20 5.447 19.553 5 19 5H18C17.447 5 17 5.447 17 6C17 6.553 17.447 7 18 7H19C19.553 7 20 6.553 20 6ZM20 10C20 9.447 19.553 9 19 9H18C17.447 9 17 9.447 17 10C17 10.553 17.447 11 18 11H19C19.553 11 20 10.553 20 10ZM24 19V5C24 2.243 21.757 0 19 0H14C11.243 0 9 2.243 9 5C9 5.553 9.447 6 10 6C10.553 6 11 5.553 11 5C11 3.346 12.346 2 14 2H19C20.654 2 22 3.346 22 5V19C22 20.654 20.654 22 19 22H18C17.447 22 17 22.447 17 23C17 23.553 17.447 24 18 24H19C21.757 24 24 21.757 24 19ZM16 19.5V15.348C16 13.8 15.301 12.366 14.081 11.41L11.081 9.061C9.267 7.643 6.733 7.642 4.919 9.061L1.919 11.409C0.699 12.364 0 13.799 0 15.347V19.499C0 21.98 2.019 23.999 4.5 23.999H11.5C13.981 23.999 16 21.981 16 19.5ZM9.849 10.637L12.849 12.985C13.58 13.558 14 14.42 14 15.348V19.5C14 20.879 12.879 22 11.5 22H4.5C3.121 22 2 20.879 2 19.5V15.348C2 14.419 2.42 13.558 3.151 12.985L6.151 10.638C6.695 10.212 7.347 9.999 8 9.999C8.653 9.999 9.305 10.212 9.849 10.637ZM10 18V16C10 15.448 9.552 15 9 15H7C6.448 15 6 15.448 6 16V18C6 18.552 6.448 19 7 19H9C9.552 19 10 18.552 10 18Z" fill="#8E8E8E"/>
  </g>
  <defs>
    <clipPath id="clip0_1760_5811">
      <rect width="24" height="24" fill="white"/>
    </clipPath>
  </defs>
</svg>