<svg width="16" height="16" viewBox="0 0 16 16" fill="none" xmlns="http://www.w3.org/2000/svg">
<path d="M9.44643 9.44643C8.26786 10.6625 8.18214 12.1786 8.08036 15.5C11.1768 15.5 13.3143 15.4893 14.4179 14.4179C15.4893 13.3143 15.5 11.075 15.5 8.08036C12.1786 8.1875 10.6625 8.26786 9.44643 9.44643ZM0.5 8.08036C0.5 11.075 0.510714 13.3143 1.58214 14.4179C2.68571 15.4893 4.82321 15.5 7.91964 15.5C7.8125 12.1786 7.73214 10.6625 6.55357 9.44643C5.3375 8.26786 3.82143 8.18214 0.5 8.08036ZM7.91964 0.5C4.82857 0.5 2.68571 0.510714 1.58214 1.58214C0.510714 2.68571 0.5 4.925 0.5 7.91964C3.82143 7.8125 5.3375 7.73214 6.55357 6.55357C7.73214 5.3375 7.81786 3.82143 7.91964 0.5ZM9.44643 6.55357C8.26786 5.3375 8.18214 3.82143 8.08036 0.5C11.1768 0.5 13.3143 0.510714 14.4179 1.58214C15.4893 2.68571 15.5 4.925 15.5 7.91964C12.1786 7.8125 10.6625 7.73214 9.44643 6.55357Z" fill="white"/>
</svg>
