<svg width="20" height="20" viewBox="0 0 20 20" fill="none" xmlns="http://www.w3.org/2000/svg">
<path d="M0 10C0 4.47715 4.47715 0 10 0C15.5229 0 20 4.47715 20 10C20 15.5229 15.5229 20 10 20C4.47715 20 0 15.5229 0 10Z" fill="#343434"/>
<path fill-rule="evenodd" clip-rule="evenodd" d="M9.70033 0C9.64997 4.05387 9.37325 6.33233 7.8528 7.85278C6.33233 9.37323 4.05387 9.64997 0 9.70032V10.2997C4.05387 10.35 6.33235 10.6267 7.8528 12.1472C9.37325 13.6677 9.64997 15.9461 9.70033 20H10.2997C10.35 15.9461 10.6268 13.6677 12.1472 12.1472C13.6677 10.6268 15.9461 10.35 20 10.2997V9.70032C15.9461 9.64995 13.6677 9.37323 12.1472 7.85278C10.6268 6.33233 10.35 4.05385 10.2997 0H9.70033Z" fill="white"/>
</svg>
