<svg width="20" height="20" viewBox="0 0 20 20" fill="none" xmlns="http://www.w3.org/2000/svg">
<g clip-path="url(#clip0_4416_17052)">
<path d="M18.9947 6.63437C18.9161 5.60369 18.1294 4.28228 17.3426 3.648C16.4579 2.99889 15.5388 2.39896 14.5891 1.85089C13.6467 1.28794 12.675 0.776269 11.6783 0.318062C11.1459 0.0991766 10.575 -0.00870675 9.99998 0.000926664C9.42482 -0.011252 8.85339 0.0967272 8.32167 0.318062C7.32507 0.776594 6.35342 1.28826 5.41082 1.85089C3.88986 2.77588 2.65732 3.648 2.65732 3.648C2.2489 3.99247 1.90299 4.39937 1.62991 4.85028C1.59859 4.902 1.63638 4.96716 1.69683 4.96716H2.97501C3.00587 4.96716 3.03511 4.95353 3.05535 4.93025C3.20276 4.76066 3.36411 4.60203 3.53842 4.45625C3.53842 4.45625 4.62304 3.69513 5.96151 2.88785C6.79101 2.39683 7.64604 1.95028 8.52304 1.55011C8.99095 1.35694 9.49382 1.26271 9.99998 1.27334C10.5059 1.26493 11.0084 1.35908 11.4769 1.55011C12.354 1.95 13.2091 2.39655 14.0384 2.88785C14.8741 3.36616 15.683 3.88975 16.4615 4.45625C17.1538 5.00978 17.8461 6.163 17.9154 7.06253C17.9154 7.06253 18.0769 8.40028 18.1 9.98481C18.0985 10.9634 18.0446 11.9412 17.9384 12.914C17.7774 13.9326 17.2528 14.8584 16.4615 15.5203C16.4615 15.5203 15.3769 16.3045 14.0384 17.1117C13.209 17.6028 12.3539 18.0493 11.4769 18.4495C11.009 18.6427 10.5061 18.7369 9.99998 18.7262C9.49448 18.7368 8.99207 18.6451 8.52304 18.4564C7.64592 18.0565 6.79086 17.61 5.96151 17.1187C4.62304 16.3345 3.53842 15.5272 3.53842 15.5272C3.39757 15.4146 3.2567 15.2771 3.1209 15.122C3.10066 15.0989 3.07152 15.0854 3.0408 15.0854H1.75789C1.69666 15.0854 1.65898 15.1521 1.69163 15.2039C1.97674 15.6562 2.31703 16.0591 2.65732 16.3335C2.65732 16.3335 3.88986 17.2585 5.41082 18.157C6.35326 18.72 7.32492 19.2317 8.32167 19.6898C8.85467 19.906 9.42557 20.0112 9.99998 19.9991C10.5751 20.0112 11.1466 19.9032 11.6783 19.6819C12.6749 19.2234 13.6465 18.7117 14.5891 18.1491C16.1101 17.2241 17.3426 16.3256 17.3426 16.3256C18.2418 15.5672 18.838 14.5063 19.021 13.3392C19.1416 12.2245 19.2029 11.1041 19.2045 9.98281C19.1783 8.16719 18.9947 6.63437 18.9947 6.63437Z" fill="url(#paint0_linear_4416_17052)"/>
<path d="M6.90655 12.6939H6.28627C6.26552 12.6939 6.25042 12.6737 6.25608 12.6536C6.3598 12.3006 6.46789 11.9011 6.54267 11.4582C6.61933 11.0001 6.65958 10.578 6.67655 10.2011C6.67717 10.1841 6.69099 10.1709 6.70796 10.1709H8.55139C8.56877 10.1709 8.58283 10.185 8.58283 10.2023V12.6624C8.58283 12.6798 8.56877 12.6939 8.55139 12.6939H7.94736C7.92999 12.6939 7.91592 12.6798 7.91592 12.6624V10.7623H7.30958C7.2873 11.0427 7.24971 11.344 7.18811 11.662C7.11646 12.0345 7.03161 12.3724 6.93608 12.6725C6.93233 12.6851 6.91974 12.6939 6.90655 12.6939Z" fill="#EE2F53"/>
<path d="M1.07764 6.52317C1.07764 6.50579 1.09169 6.4917 1.10903 6.4917H2.88626C2.90846 6.4917 2.92348 6.51464 2.91485 6.53532L2.69476 7.06392C2.68895 7.07789 2.67566 7.08423 2.66304 7.08298C2.662 7.08307 2.66095 7.08314 2.65989 7.08314H1.74319V8.98326C1.74319 9.00064 1.72913 9.0147 1.7118 9.0147H1.10903C1.09169 9.0147 1.07764 9.00064 1.07764 8.98326V6.52317Z" fill="#0066B3"/>
<path d="M11.9055 10.2023C11.9055 10.185 11.9196 10.1709 11.937 10.1709H13.7179C13.7401 10.1709 13.7552 10.1938 13.7465 10.2145L13.526 10.7431C13.5201 10.7571 13.5068 10.7634 13.4942 10.7621C13.4931 10.7623 13.4921 10.7623 13.491 10.7623H12.5724V12.6624C12.5724 12.6798 12.5584 12.6939 12.541 12.6939H11.937C11.9196 12.6939 11.9055 12.6798 11.9055 12.6624V10.2023Z" fill="#EE2F53"/>
<path d="M1.10908 10.1709C1.08725 10.1709 1.07208 10.1924 1.07958 10.2126L1.99729 12.6943C1.86779 12.9666 1.72391 13.2531 1.55936 13.5726C1.54859 13.5935 1.5636 13.6188 1.58716 13.6188H2.24002C2.25187 13.6188 2.2628 13.612 2.26816 13.6014C2.75124 12.6184 3.10673 11.747 3.59276 10.2125C3.59939 10.1922 3.58439 10.1709 3.56298 10.1709H2.95661C2.94254 10.1709 2.93011 10.1805 2.92626 10.194C2.73914 10.85 2.56661 11.3635 2.36663 11.8584L1.75014 10.1913C1.74561 10.179 1.73383 10.1709 1.72064 10.1709H1.10908Z" fill="#EE2F53"/>
<path d="M9.01948 10.1709C8.99764 10.1709 8.98248 10.1924 8.98998 10.2126L9.9077 12.6943C9.7782 12.9666 9.63429 13.2531 9.46976 13.5726C9.45898 13.5935 9.47401 13.6188 9.49757 13.6188H10.1504C10.1623 13.6188 10.1732 13.612 10.1785 13.6014C10.6616 12.6184 11.0171 11.747 11.5032 10.2125C11.5098 10.1922 11.4948 10.1709 11.4734 10.1709H10.867C10.8529 10.1709 10.8405 10.1805 10.8367 10.194C10.6495 10.85 10.477 11.3635 10.277 11.8584L9.66054 10.1913C9.65601 10.179 9.64423 10.1709 9.63104 10.1709H9.01948Z" fill="#EE2F53"/>
<path d="M5.7562 12.0984C5.75307 12.0903 5.74682 12.0835 5.7387 12.0798C5.7306 12.076 5.72123 12.076 5.7131 12.0785C5.56826 12.132 5.2967 12.1755 5.10751 12.1755C4.69357 12.1755 4.49629 12.0642 4.49629 11.432C4.49629 10.9265 4.55685 10.6884 5.10751 10.6884C5.2636 10.6884 5.40845 10.7108 5.5926 10.7643C5.6076 10.7686 5.62382 10.7618 5.6307 10.7481C5.69938 10.6194 5.78242 10.4622 5.87607 10.2694C5.88045 10.2607 5.88045 10.2508 5.8767 10.2421C5.87295 10.2334 5.86545 10.2265 5.85607 10.2234C5.61385 10.1463 5.32479 10.1016 5.06445 10.1016C4.19723 10.1016 3.81079 10.5088 3.81079 11.4227C3.81079 12.3496 4.19723 12.763 5.06445 12.763C5.2817 12.763 5.70998 12.7176 5.91664 12.6356C5.93289 12.6287 5.9416 12.6101 5.93538 12.5939L5.7562 12.0984Z" fill="#EE2F53"/>
<path d="M7.83261 8.41872C7.82949 8.41066 7.82324 8.40381 7.81514 8.40009C7.80702 8.39634 7.79764 8.39634 7.78952 8.39884C7.64468 8.45231 7.37311 8.49581 7.18393 8.49581C6.77002 8.49581 6.57271 8.38453 6.57271 7.75228C6.57271 7.24687 6.63327 7.00875 7.18393 7.00875C7.34002 7.00875 7.48486 7.03113 7.66905 7.08459C7.68402 7.08897 7.70027 7.08213 7.70711 7.06844C7.7758 6.93975 7.85883 6.78247 7.95249 6.58975C7.95686 6.58103 7.95686 6.57109 7.95311 6.56238C7.94936 6.55369 7.94186 6.54684 7.93252 6.54375C7.69027 6.46666 7.40121 6.42188 7.14086 6.42188C6.27368 6.42188 5.88721 6.82909 5.88721 7.74297C5.88721 8.66988 6.27368 9.08331 7.14086 9.08331C7.35811 9.08331 7.78643 9.03794 7.99305 8.95587C8.0093 8.94903 8.01805 8.93037 8.0118 8.91422L7.83261 8.41872Z" fill="#0066B3"/>
<path d="M4.25286 6.42188C3.40505 6.42188 3.07495 6.79222 3.07495 7.74284C3.07495 8.70797 3.40505 9.08331 4.25286 9.08331C5.10746 9.08331 5.44065 8.70797 5.44065 7.74284C5.44065 6.79222 5.10746 6.42188 4.25286 6.42188ZM4.25286 8.52941C3.86661 8.52941 3.74627 8.4225 3.74627 7.75228C3.74627 7.03869 3.87771 6.97519 4.25286 6.97519C4.63543 6.97519 4.76933 7.03869 4.76933 7.75228C4.76933 8.4225 4.64652 8.52941 4.25286 8.52941Z" fill="#0066B3"/>
<path d="M16.2306 10.1709H15.627C15.6094 10.1709 15.5955 10.1847 15.5955 10.2023V12.1033C15.4647 12.1397 15.334 12.1573 15.1868 12.1573C14.8208 12.1573 14.7146 12.0543 14.7007 11.6249V10.2023C14.7007 10.1847 14.6869 10.1709 14.6693 10.1709H14.0656C14.048 10.1709 14.0342 10.1847 14.0342 10.2023V10.2061C14.0342 10.2061 14.0342 11.6368 14.0348 11.6387C14.0493 12.4467 14.3423 12.7631 15.0661 12.7631C15.4886 12.7631 15.9602 12.6557 16.2401 12.549C16.2533 12.5446 16.2615 12.5321 16.2615 12.5182V10.2061V10.2023C16.2621 10.1847 16.2482 10.1709 16.2306 10.1709Z" fill="#EE2F53"/>
</g>
<defs>
<linearGradient id="paint0_linear_4416_17052" x1="10.2554" y1="-0.0728" x2="10.2554" y2="19.9728" gradientUnits="userSpaceOnUse">
<stop stop-color="#0F67B1"/>
<stop offset="0.4" stop-color="#0F67B1"/>
<stop offset="0.66" stop-color="#EE2F53"/>
<stop offset="1" stop-color="#EE2F53"/>
</linearGradient>
<clipPath id="clip0_4416_17052">
<rect width="20" height="20" fill="white"/>
</clipPath>
</defs>
</svg>
