<svg width="16" height="16" viewBox="0 0 16 16" fill="none" xmlns="http://www.w3.org/2000/svg">
<rect width="16" height="16" rx="8" fill="#E3DEFF"/>
<path d="M7.05078 11.3438C7.05078 11.125 7.12305 10.9395 7.26758 10.7871C7.41602 10.6348 7.62695 10.5586 7.90039 10.5586C8.17383 10.5586 8.38281 10.6348 8.52734 10.7871C8.67188 10.9395 8.74414 11.125 8.74414 11.3438C8.74414 11.5586 8.67188 11.7441 8.52734 11.9004C8.38281 12.0527 8.17383 12.1289 7.90039 12.1289C7.62695 12.1289 7.41602 12.0527 7.26758 11.9004C7.12305 11.7441 7.05078 11.5586 7.05078 11.3438ZM5.36328 5.67773V5.53125C5.36328 4.87109 5.60742 4.34375 6.0957 3.94922C6.58398 3.55078 7.24219 3.35156 8.07031 3.35156C8.90234 3.35156 9.55664 3.56055 10.0332 3.97852C10.5137 4.39258 10.7539 4.93359 10.7539 5.60156C10.7539 6.12109 10.6055 6.57812 10.3086 6.97266C10.0117 7.36719 9.70117 7.68945 9.37695 7.93945C9.00586 8.23242 8.76953 8.5 8.66797 8.74219C8.56641 8.98047 8.51562 9.23242 8.51562 9.49805V9.55664H7.19141V9.49805C7.19141 9.01367 7.26562 8.62305 7.41406 8.32617C7.5625 8.02539 7.83984 7.70508 8.24609 7.36523C8.60156 7.05664 8.88672 6.78125 9.10156 6.53906C9.31641 6.29297 9.42383 5.98438 9.42383 5.61328C9.42383 5.24609 9.3125 4.95703 9.08984 4.74609C8.86719 4.53125 8.52539 4.42383 8.06445 4.42383C7.61133 4.42383 7.26758 4.52344 7.0332 4.72266C6.79883 4.91797 6.68164 5.18945 6.68164 5.53711V5.67773H5.36328Z" fill="#343434"/>
</svg>
