<svg width="18" height="16" viewBox="0 0 18 16" fill="none" xmlns="http://www.w3.org/2000/svg">
<path d="M14.25 0.5H3.75C2.7558 0.501083 1.80267 0.860601 1.09966 1.4997C0.396661 2.13879 0.00119089 3.00528 0 3.90909L0 12.0909C0.00119089 12.9947 0.396661 13.8612 1.09966 14.5003C1.80267 15.1394 2.7558 15.4989 3.75 15.5H14.25C15.2442 15.4989 16.1973 15.1394 16.9003 14.5003C17.6033 13.8612 17.9988 12.9947 18 12.0909V3.90909C17.9988 3.00528 17.6033 2.13879 16.9003 1.4997C16.1973 0.860601 15.2442 0.501083 14.25 0.5ZM3.75 1.86364H14.25C14.6991 1.86444 15.1376 1.9874 15.5092 2.21668C15.8808 2.44597 16.1684 2.7711 16.335 3.15023L10.5915 8.37227C10.1688 8.75499 9.59656 8.96986 9 8.96986C8.40344 8.96986 7.83118 8.75499 7.4085 8.37227L1.665 3.15023C1.83161 2.7711 2.11921 2.44597 2.49079 2.21668C2.86236 1.9874 3.30091 1.86444 3.75 1.86364ZM14.25 14.1364H3.75C3.15326 14.1364 2.58097 13.9209 2.15901 13.5373C1.73705 13.1537 1.5 12.6334 1.5 12.0909V4.93182L6.348 9.33636C7.05197 9.97472 8.00569 10.3332 9 10.3332C9.99431 10.3332 10.948 9.97472 11.652 9.33636L16.5 4.93182V12.0909C16.5 12.6334 16.2629 13.1537 15.841 13.5373C15.419 13.9209 14.8467 14.1364 14.25 14.1364Z" fill="#343434"/>
</svg>
