<svg width="28" height="28" viewBox="0 0 28 28" fill="none" xmlns="http://www.w3.org/2000/svg">
<g clip-path="url(#clip0_2114_9353)">
<path d="M14.0001 14C14.923 14 15.8253 13.7263 16.5927 13.2135C17.3602 12.7007 17.9583 11.9719 18.3115 11.1192C18.6647 10.2665 18.7571 9.32816 18.5771 8.42291C18.397 7.51767 17.9525 6.68615 17.2999 6.0335C16.6473 5.38086 15.8157 4.9364 14.9105 4.75634C14.0052 4.57627 13.0669 4.66869 12.2142 5.0219C11.3615 5.3751 10.6327 5.97324 10.1199 6.74067C9.60709 7.5081 9.3334 8.41035 9.3334 9.33333C9.3334 10.571 9.82506 11.758 10.7002 12.6332C11.5754 13.5083 12.7624 14 14.0001 14ZM14.0001 7C14.4616 7 14.9127 7.13685 15.2964 7.39324C15.6801 7.64963 15.9792 8.01404 16.1558 8.44041C16.3324 8.86677 16.3786 9.33592 16.2886 9.78854C16.1985 10.2412 15.9763 10.6569 15.65 10.9832C15.3237 11.3096 14.9079 11.5318 14.4553 11.6218C14.0027 11.7119 13.5335 11.6657 13.1071 11.4891C12.6808 11.3124 12.3164 11.0134 12.06 10.6297C11.8036 10.2459 11.6667 9.79482 11.6667 9.33333C11.6667 8.7145 11.9126 8.121 12.3502 7.68342C12.7877 7.24583 13.3812 7 14.0001 7ZM24.1034 10.6832L23.2646 10.4043C23.4155 9.09758 23.2885 7.77367 22.8919 6.51943C22.4953 5.26519 21.8381 4.10896 20.9633 3.12654C20.0885 2.14412 19.0159 1.35772 17.8159 0.818899C16.6159 0.280078 15.3155 0.00101206 14.0001 0C12.6674 0.000514464 11.3504 0.286643 10.1377 0.839108C8.92502 1.39157 7.84481 2.19754 6.96988 3.20271C6.09494 4.20787 5.44561 5.38889 5.06563 6.66618C4.68564 7.94347 4.58384 9.28737 4.76707 10.6073C3.6506 10.8155 2.61821 11.3422 1.7944 12.124C1.2241 12.6662 0.770729 13.3193 0.462157 14.0432C0.153583 14.7671 -0.00366961 15.5464 6.49915e-05 16.3333V21.0875C0.00251685 22.3491 0.412822 23.576 1.16975 24.5852C1.92669 25.5945 2.98966 26.3319 4.20007 26.6875L7.5484 27.7375C8.1108 27.9125 8.69655 28.001 9.28557 28C9.81989 27.9993 10.3517 27.9263 10.8664 27.783L17.6097 25.788C18.2105 25.624 18.8442 25.624 19.4449 25.788L22.2297 26.7213C22.9161 26.8884 23.6314 26.8975 24.3218 26.7479C25.0121 26.5983 25.6595 26.2939 26.2151 25.8577C26.7707 25.4215 27.2201 24.8648 27.5293 24.2297C27.8385 23.5946 27.9994 22.8976 28.0001 22.1912V16.184C27.9974 14.977 27.6215 13.8003 26.9239 12.8153C26.2263 11.8303 25.2411 11.0863 24.1034 10.6832ZM9.05107 4.389C9.70003 3.7374 10.4713 3.22038 11.3206 2.86759C12.1698 2.5148 13.0804 2.33319 14.0001 2.33319C14.9197 2.33319 15.8303 2.5148 16.6796 2.86759C17.5288 3.22038 18.3001 3.7374 18.9491 4.389C20.2583 5.70633 20.9941 7.48745 20.9965 9.34469C20.9989 11.2019 20.2677 12.985 18.9619 14.3057L14.8167 18.3365C14.6004 18.5486 14.3095 18.6674 14.0065 18.6674C13.7035 18.6674 13.4126 18.5486 13.1962 18.3365L9.05107 14.3232C7.73911 13.003 7.00276 11.2173 7.00276 9.35608C7.00276 7.49485 7.73911 5.70921 9.05107 4.389ZM25.6667 22.1912C25.6674 22.5445 25.5875 22.8934 25.4331 23.2112C25.2786 23.529 25.0537 23.8074 24.7754 24.0252C24.5124 24.2366 24.2062 24.3875 23.8783 24.4671C23.5504 24.5468 23.209 24.5532 22.8784 24.486L20.1426 23.5667C19.1077 23.2694 18.011 23.2629 16.9727 23.548L10.2247 25.5407C9.57639 25.7195 8.89024 25.7078 8.2484 25.5068L4.87207 24.4568C4.14133 24.2455 3.49885 23.8029 3.0411 23.1953C2.58334 22.5878 2.33502 21.8482 2.3334 21.0875V16.3333C2.33078 15.8617 2.42464 15.3946 2.60922 14.9606C2.79381 14.5267 3.06521 14.135 3.40673 13.8098C3.94136 13.3003 4.62242 12.9714 5.3539 12.8695C5.82419 14.0352 6.52451 15.0942 7.41307 15.9833L11.5746 20.0118C12.225 20.6487 13.0991 21.0054 14.0094 21.0054C14.9197 21.0054 15.7938 20.6487 16.4442 20.0118L20.6011 15.9717C21.5318 15.0372 22.2528 13.9153 22.7162 12.6805L23.3427 12.8882C24.0222 13.1316 24.6099 13.5788 25.0259 14.1686C25.4418 14.7585 25.6656 15.4623 25.6667 16.184V22.1912Z" fill="#343434"/>
</g>
<defs>
<clipPath id="clip0_2114_9353">
<rect width="28" height="28" fill="white"/>
</clipPath>
</defs>
</svg>
