<svg width="24" height="24" viewBox="0 0 24 24" fill="none" xmlns="http://www.w3.org/2000/svg">
<path d="M0.000976562 18.9996V12.3396C0.000976562 5.86061 4.90498 0.453604 11.165 0.0276043C14.64 -0.202396 18.04 1.0656 20.492 3.5206C22.944 5.9766 24.212 9.37761 23.971 12.8536C23.531 19.2076 17.919 23.9996 10.917 23.9996H4.99998C2.24298 23.9996 0.000976562 21.7566 0.000976562 18.9996ZM11.3 2.0236C6.08498 2.3776 2.00098 6.90861 2.00098 12.3386V18.9986C2.00098 20.6526 3.34698 21.9986 5.00098 21.9986H10.918C16.953 21.9986 21.604 18.0946 21.977 12.7146C22.178 9.81561 21.122 6.9796 19.078 4.9336C17.196 3.0486 14.643 1.9996 11.986 1.9996C11.758 1.9996 11.529 2.0076 11.301 2.0226L11.3 2.0236Z" fill="#4C3B8A"/>
<path d="M13.404 17.4996C13.404 16.6716 12.732 15.9996 11.904 15.9996C11.076 15.9996 10.404 16.6716 10.404 17.4996C10.404 18.3276 11.076 18.9996 11.904 18.9996C12.732 18.9996 13.404 18.3276 13.404 17.4996Z" fill="#4C3B8A"/>
<path d="M13.832 12.4876C13.312 12.7746 12.904 13.4386 12.904 13.9996L12.903 13.9986C12.903 14.5516 12.455 14.9986 11.903 14.9986C11.351 14.9986 10.903 14.5516 10.903 13.9986C10.903 12.7136 11.71 11.3716 12.866 10.7346C13.629 10.3146 14.023 9.4806 13.87 8.6096C13.732 7.8236 13.061 7.1516 12.274 7.0136C11.669 6.9066 11.078 7.0626 10.617 7.4486C10.163 7.8306 9.90303 8.3886 9.90303 8.9806C9.90303 9.5336 9.45503 9.9806 8.90303 9.9806C8.35103 9.9806 7.90303 9.5336 7.90303 8.9806C7.90303 7.7966 8.42403 6.6806 9.33103 5.9176C10.24 5.1556 11.438 4.8396 12.62 5.0436C14.234 5.3266 15.558 6.6516 15.841 8.2646C16.139 9.9646 15.332 11.6616 13.832 12.4876Z" fill="#4C3B8A"/>
</svg>
