<svg width="24" height="18" viewBox="0 0 24 18" fill="none" xmlns="http://www.w3.org/2000/svg">
<path d="M18.7317 11.2478C15.835 11.2478 13.4868 8.89954 13.4868 6.00292C13.4868 3.10629 15.835 0.758041 18.7317 0.758041C21.6284 0.758041 23.9766 3.10629 23.9766 6.00292L24 6.75219C24 12.5455 19.3036 17.2419 13.5102 17.2419V14.2449C15.5116 14.2449 17.3932 13.4655 18.8084 12.0503C19.0808 11.7779 19.3294 11.488 19.5537 11.1835C19.2858 11.2256 19.0114 11.2478 18.7317 11.2478ZM5.24488 11.2478C2.34825 11.2478 0 8.89954 0 6.00292C0 3.10629 2.34825 0.758041 5.24488 0.758041C8.1415 0.758041 10.4898 3.10629 10.4898 6.00292L10.5132 6.75219C10.5132 12.5455 5.8168 17.2419 0.0234146 17.2419V14.2449C2.02471 14.2449 3.9064 13.4655 5.32154 12.0503C5.59399 11.7779 5.84261 11.488 6.06687 11.1835C5.79906 11.2256 5.52459 11.2478 5.24488 11.2478Z" fill="#4C3B8A"/>
</svg>
