<svg width="20" height="20" viewBox="0 0 20 20" fill="none" xmlns="http://www.w3.org/2000/svg">
<g clip-path="url(#clip0_701_2174)">
<path d="M19.7561 18.5768L14.782 13.6027C16.1375 11.9448 16.804 9.82941 16.6435 7.69397C16.4831 5.55852 15.508 3.56644 13.92 2.12976C12.3319 0.693089 10.2525 -0.0782598 8.11167 -0.0247333C5.97088 0.0287933 3.93256 0.9031 2.41832 2.41734C0.904076 3.93158 0.0297698 5.96991 -0.0237567 8.1107C-0.0772832 10.2515 0.694065 12.331 2.13074 13.919C3.56742 15.507 5.5595 16.4821 7.69494 16.6425C9.83038 16.803 11.9458 16.1365 13.6036 14.781L18.5778 19.7552C18.735 19.907 18.9455 19.991 19.164 19.9891C19.3825 19.9872 19.5915 19.8995 19.746 19.745C19.9005 19.5905 19.9881 19.3815 19.99 19.163C19.9919 18.9445 19.9079 18.734 19.7561 18.5768ZM8.33364 14.9993C7.0151 14.9993 5.72617 14.6083 4.62984 13.8758C3.53351 13.1433 2.67903 12.1021 2.17444 10.8839C1.66986 9.66571 1.53784 8.32527 1.79507 7.03206C2.05231 5.73886 2.68724 4.55097 3.61959 3.61862C4.55194 2.68627 5.73983 2.05133 7.03304 1.79409C8.32624 1.53686 9.66669 1.66888 10.8849 2.17347C12.103 2.67805 13.1442 3.53253 13.8768 4.62886C14.6093 5.72519 15.0003 7.01412 15.0003 8.33266C14.9983 10.1002 14.2953 11.7947 13.0455 13.0445C11.7957 14.2943 10.1011 14.9973 8.33364 14.9993Z" fill="#343434"/>
</g>
<defs>
<clipPath id="clip0_701_2174">
<rect width="20" height="20" fill="white"/>
</clipPath>
</defs>
</svg>
