<svg width="24" height="24" viewBox="0 0 24 24" fill="none" xmlns="http://www.w3.org/2000/svg">
<path d="M16.5404 0.0756531C15.5176 0.310654 14.5595 0.774128 13.7761 1.40732C13.077 1.96871 9.05672 6.08123 8.75892 6.53817C8.01444 7.66095 7.57422 9.01874 7.57422 10.1937C7.57422 11.6951 8.31871 13.536 9.34804 14.5674C10.0019 15.2267 10.9082 15.2201 11.4456 14.5608C11.9505 13.9472 11.8922 13.3336 11.2578 12.5699C10.5327 11.6951 10.358 11.2317 10.358 10.1872C10.358 9.42346 10.4939 8.88818 10.8176 8.36596C10.9276 8.18318 12.0735 6.97554 13.3553 5.68303C15.5435 3.47664 15.7312 3.30691 16.1844 3.08497C16.7152 2.82386 17.1684 2.71941 17.7381 2.71941C18.7286 2.71941 19.4731 3.05233 20.2046 3.80955C21.0138 4.65164 21.2339 5.18692 21.2339 6.31623C21.2339 7.50429 20.9879 7.98734 19.6802 9.34513C19.2271 9.8086 18.8063 10.2851 18.748 10.4026C18.4826 10.9314 18.7027 11.7212 19.2141 12.0868C19.5896 12.3479 20.1917 12.3936 20.606 12.1912C20.9556 12.0215 22.4445 10.5071 22.833 9.93263C23.8947 8.3529 24.2507 6.52512 23.8235 4.84747C23.2344 2.53663 21.6677 0.8851 19.3889 0.199681C18.8969 0.0495415 18.6638 0.0234308 17.8676 0.00384712C17.2396 -0.00920868 16.7994 0.010375 16.5404 0.0756531Z" fill="white"/>
<path d="M13.09 9.05787C12.7599 9.22759 12.475 9.56051 12.3714 9.89343C12.2161 10.4352 12.3261 10.8138 12.7922 11.3491C13.4072 12.0541 13.6079 12.485 13.7245 13.3075C13.8539 14.2148 13.6015 15.2201 13.09 15.8598C12.98 15.9969 11.86 17.1328 10.5976 18.3796C8.50658 20.4554 8.26057 20.6774 7.82683 20.8928C6.81692 21.3889 5.62574 21.3824 4.65466 20.8601C4.23387 20.6317 3.41169 19.8157 3.15274 19.3653C2.79021 18.7386 2.67368 17.5505 2.88084 16.7215C3.02974 16.134 3.30811 15.7423 4.27271 14.7501C4.75825 14.254 5.20494 13.7383 5.26968 13.5947C5.35384 13.4054 5.37973 13.2357 5.36031 12.9289C5.32794 12.4327 5.09488 12.0411 4.69351 11.8126C4.3504 11.6168 3.77423 11.6102 3.39227 11.793C3.06211 11.9562 1.56019 13.4837 1.18471 14.0451C0.45964 15.1287 0 16.5387 0 17.7007C0 19.424 0.951649 21.4542 2.24641 22.5117C3.45701 23.4908 4.81651 24 6.26017 24C7.62614 24 8.92738 23.5692 10.0344 22.7401C10.5717 22.3354 14.8574 18.0858 15.2199 17.5962C16.7672 15.4943 16.916 12.8766 15.6083 10.5854C15.2976 10.0305 14.7344 9.33857 14.4366 9.14273C14.074 8.89468 13.472 8.86204 13.09 9.05787Z" fill="white"/>
</svg>
