<svg width="16" height="17" viewBox="0 0 16 17" fill="none" xmlns="http://www.w3.org/2000/svg">
<path d="M0.884795 8.76501L3.25813 10.4983L2.3568 13.2897C2.21114 13.7226 2.20929 14.191 2.35154 14.6251C2.49378 15.0591 2.77249 15.4356 3.14613 15.6983C3.51336 15.9695 3.95839 16.1148 4.4149 16.1125C4.87141 16.1102 5.31496 15.9605 5.67946 15.6857L8.00013 13.9777L10.3215 15.6837C10.688 15.9533 11.1307 16.0998 11.5857 16.102C12.0408 16.1042 12.4848 15.9621 12.854 15.696C13.2232 15.43 13.4985 15.0537 13.6403 14.6213C13.7822 14.1889 13.7833 13.7227 13.6435 13.2897L12.7421 10.4983L15.1155 8.76501C15.4816 8.49735 15.7537 8.12084 15.893 7.68927C16.0324 7.2577 16.0317 6.79313 15.8912 6.36193C15.7508 5.93074 15.4776 5.55496 15.1108 5.28828C14.744 5.0216 14.3023 4.87765 13.8488 4.87701H10.9335L10.0488 2.11968C9.90968 1.68565 9.63631 1.30702 9.26811 1.03839C8.89991 0.769753 8.45591 0.625 8.00013 0.625C7.54435 0.625 7.10035 0.769753 6.73215 1.03839C6.36395 1.30702 6.09058 1.68565 5.95146 2.11968L5.0668 4.87701H2.15413C1.70062 4.87765 1.25892 5.0216 0.892115 5.28828C0.525307 5.55496 0.252156 5.93074 0.111676 6.36193C-0.0288034 6.79313 -0.0294251 7.2577 0.1099 7.68927C0.249224 8.12084 0.521369 8.49735 0.887462 8.76501H0.884795Z" fill="#FD8B21"/>
</svg>
