<svg width="16" height="17" viewBox="0 0 16 17" fill="none" xmlns="http://www.w3.org/2000/svg">
<path d="M15.8906 6.36101C15.7542 5.92694 15.4817 5.54828 15.1135 5.28103C14.7453 5.01378 14.3008 4.87212 13.8459 4.87701H10.9332L10.0486 2.11968C9.90943 1.68565 9.63606 1.30702 9.26786 1.03839C8.89966 0.769753 8.45566 0.625 7.99988 0.625C7.54411 0.625 7.1001 0.769753 6.7319 1.03839C6.36371 1.30702 6.09034 1.68565 5.95122 2.11968L5.06655 4.87701H2.15388C1.70038 4.87765 1.25868 5.0216 0.891871 5.28828C0.525063 5.55496 0.251912 5.93074 0.111432 6.36193C-0.0290475 6.79313 -0.0296693 7.2577 0.109656 7.68927C0.24898 8.12084 0.521125 8.49735 0.887218 8.76501L3.25788 10.4983L2.35655 13.2897C2.21089 13.7226 2.20905 14.191 2.35129 14.6251C2.49353 15.0591 2.77225 15.4356 3.14588 15.6983C3.51312 15.9695 3.95815 16.1148 4.41465 16.1125C4.87116 16.1102 5.31471 15.9605 5.67922 15.6857L7.99988 13.9777L10.3212 15.6837C10.6878 15.9533 11.1304 16.0998 11.5855 16.102C12.0405 16.1042 12.4845 15.9621 12.8537 15.696C13.2229 15.43 13.4982 15.0537 13.6401 14.6213C13.7819 14.1889 13.783 13.7227 13.6432 13.2897L12.7419 10.4983L15.1152 8.76501C15.4855 8.50071 15.7608 8.12421 15.9005 7.69124C16.0401 7.25827 16.0366 6.79185 15.8906 6.36101ZM14.3286 7.68834L11.5659 9.70768C11.4524 9.79045 11.368 9.90696 11.3246 10.0406C11.2813 10.1742 11.2813 10.3181 11.3245 10.4517L12.3746 13.6983C12.4277 13.863 12.4272 14.0403 12.3733 14.2047C12.3193 14.3691 12.2146 14.5121 12.0742 14.6133C11.9338 14.7144 11.7649 14.7684 11.5919 14.7675C11.4189 14.7666 11.2506 14.7109 11.1112 14.6083L8.39455 12.6083C8.28013 12.5243 8.14186 12.479 7.99988 12.479C7.85791 12.479 7.71964 12.5243 7.60522 12.6083L4.88855 14.6083C4.74927 14.7123 4.58051 14.7692 4.40673 14.7707C4.23295 14.7723 4.06318 14.7185 3.92204 14.6171C3.7809 14.5157 3.67572 14.372 3.62175 14.2068C3.56778 14.0416 3.56783 13.8635 3.62188 13.6983L4.67522 10.4517C4.7185 10.3181 4.71846 10.1742 4.67513 10.0406C4.63179 9.90696 4.54736 9.79045 4.43388 9.70768L1.67122 7.68834C1.53209 7.58647 1.42871 7.44324 1.37585 7.2791C1.32298 7.11497 1.32334 6.93833 1.37687 6.77441C1.4304 6.61049 1.53437 6.46768 1.67391 6.36638C1.81346 6.26508 1.98145 6.21046 2.15388 6.21034H5.55388C5.69503 6.21034 5.83253 6.16554 5.94658 6.08239C6.06064 5.99925 6.14536 5.88205 6.18855 5.74768L7.22188 2.52701C7.27493 2.3622 7.37889 2.21847 7.51882 2.11651C7.65875 2.01455 7.82742 1.95961 8.00055 1.95961C8.17369 1.95961 8.34235 2.01455 8.48228 2.11651C8.62221 2.21847 8.72618 2.3622 8.77922 2.52701L9.81255 5.74768C9.85574 5.88205 9.94046 5.99925 10.0545 6.08239C10.1686 6.16554 10.3061 6.21034 10.4472 6.21034H13.8472C14.0197 6.21046 14.1876 6.26508 14.3272 6.36638C14.4667 6.46768 14.5707 6.61049 14.6242 6.77441C14.6778 6.93833 14.6781 7.11497 14.6253 7.2791C14.5724 7.44324 14.469 7.58647 14.3299 7.68834H14.3286Z" fill="#FD8B21"/>
</svg>
