<svg width="16" height="14" viewBox="0 0 16 14" fill="none" xmlns="http://www.w3.org/2000/svg">
<path fill-rule="evenodd" clip-rule="evenodd" d="M11.836 13.1154C12.7307 13.5069 13.0662 12.6868 13.0662 12.6868L15.4333 0.795067C15.4147 -0.00641006 14.3336 0.478204 14.3336 0.478204L1.0813 5.67849C1.0813 5.67849 0.447577 5.90215 0.503494 6.29357C0.559411 6.68499 1.06266 6.87138 1.06266 6.87138L4.39905 7.98972C4.39905 7.98972 5.40555 11.2888 5.61058 11.9226C5.79697 12.5376 5.96472 12.5563 5.96472 12.5563C6.15111 12.6308 6.31886 12.5004 6.31886 12.5004L8.48099 10.5433L11.836 13.1154ZM12.4138 2.90125C12.4138 2.90125 12.8798 2.62167 12.8612 2.90125C12.8612 2.90125 12.9357 2.93853 12.6934 3.19948C12.4697 3.42315 7.1949 8.15745 6.48662 8.79118C6.4307 8.82846 6.39342 8.88437 6.39342 8.95893L6.1884 10.711C6.15112 10.8974 5.90881 10.916 5.85289 10.7483L4.97686 7.87787C4.93958 7.76603 4.97686 7.63556 5.08869 7.56101L12.4138 2.90125Z" fill="white"/>
</svg>
