<svg width="20" height="20" viewBox="0 0 20 20" fill="none" xmlns="http://www.w3.org/2000/svg">
<path fill-rule="evenodd" clip-rule="evenodd" d="M13.836 16.1159C14.7307 16.5074 15.0662 15.6872 15.0662 15.6872L17.4333 3.79556C17.4147 2.99408 16.3336 3.47869 16.3336 3.47869L3.0813 8.67897C3.0813 8.67897 2.44758 8.90264 2.50349 9.29406C2.55941 9.68548 3.06266 9.87187 3.06266 9.87187L6.39905 10.9902C6.39905 10.9902 7.40555 14.2893 7.61058 14.923C7.79697 15.5381 7.96472 15.5568 7.96472 15.5568C8.15111 15.6313 8.31886 15.5009 8.31886 15.5009L10.481 13.5438L13.836 16.1159ZM14.4138 5.90174C14.4138 5.90174 14.8798 5.62216 14.8612 5.90174C14.8612 5.90174 14.9357 5.93902 14.6934 6.19997C14.4697 6.42363 9.1949 11.1579 8.48662 11.7917C8.4307 11.8289 8.39342 11.8849 8.39342 11.9594L8.1884 13.7115C8.15112 13.8979 7.90881 13.9165 7.85289 13.7488L6.97686 10.8784C6.93958 10.7665 6.97686 10.636 7.08869 10.5615L14.4138 5.90174Z" fill="#343434"/>
</svg>
