<svg width="20" height="20" viewBox="0 0 20 20" fill="none" xmlns="http://www.w3.org/2000/svg">
<g clip-path="url(#clip0_4416_17046)">
<path d="M0 9.60038C0 5.075 0 2.81171 1.40526 1.40526C2.81171 0 5.0738 0 9.60038 0H10.3996C14.9262 0 17.1883 0 18.5947 1.40526C20 2.81171 20 5.075 20 9.60038V10.3996C20 14.9262 20 17.1883 18.5947 18.5947C17.1883 20 14.9262 20 10.3996 20H9.60038C5.0738 20 2.81171 20 1.40526 18.5947C0 17.1883 0 14.9262 0 10.3996V9.60038Z" fill="#0077FF"/>
<path d="M10.5345 13.6738C6.73552 13.6738 4.56952 11.0688 4.47852 6.73584H6.38152C6.44452 9.91584 7.84652 11.2638 8.95752 11.5418V6.73584H10.7495V9.47984C11.8465 9.36184 12.9995 8.11184 13.3885 6.73684H15.1805C14.8815 8.43184 13.6315 9.68184 12.7425 10.1948C13.6315 10.6118 15.0555 11.7018 15.5965 13.6748H13.6245C13.2005 12.3548 12.1445 11.3348 10.7495 11.1948V13.6748H10.5345V13.6738Z" fill="white"/>
</g>
<defs>
<clipPath id="clip0_4416_17046">
<rect width="20" height="20" fill="white"/>
</clipPath>
</defs>
</svg>
