<svg width="20" height="12" viewBox="0 0 20 12" fill="none" xmlns="http://www.w3.org/2000/svg">
<path d="M19.8217 10.3454C19.768 10.2553 19.4355 9.53279 17.8353 8.04768C16.1602 6.49257 16.3852 6.74509 18.4029 4.05614C19.6317 2.41852 20.123 1.41844 19.9692 0.990909C19.823 0.583379 18.9192 0.690887 18.9192 0.690887L15.9139 0.708388C15.9139 0.708388 15.6914 0.678386 15.5252 0.777143C15.3639 0.874651 15.2601 1.09967 15.2601 1.09967C15.2601 1.09967 14.7839 2.36726 14.1488 3.44484C12.81 5.71876 12.2737 5.83877 12.0549 5.69751C11.5461 5.36873 11.6736 4.37491 11.6736 3.66986C11.6736 1.46594 12.0074 0.547126 11.0223 0.309609C10.6948 0.230853 10.4548 0.178349 9.61848 0.169598C8.54591 0.158347 7.63709 0.173349 7.1233 0.424617C6.78078 0.59213 6.51701 0.965908 6.67827 0.987159C6.87703 1.01341 7.32707 1.10842 7.56583 1.43344C7.87461 1.85222 7.86335 2.79479 7.86335 2.79479C7.86335 2.79479 8.04087 5.38874 7.44957 5.71126C7.0433 5.93253 6.487 5.48124 5.29317 3.41734C4.68187 2.36101 4.21934 1.19217 4.21934 1.19217C4.21934 1.19217 4.13058 0.974658 3.97182 0.8584C3.77931 0.717139 3.50929 0.672136 3.50929 0.672136L0.651577 0.689637C0.651577 0.689637 0.222795 0.702138 0.0652838 0.888402C-0.0747264 1.05466 0.054033 1.39719 0.054033 1.39719C0.054033 1.39719 2.2917 6.63133 4.82438 9.27028C7.1483 11.6892 9.786 11.5304 9.786 11.5304H10.9811C10.9811 11.5304 11.3424 11.4904 11.5261 11.2917C11.6961 11.1092 11.6899 10.7666 11.6899 10.7666C11.6899 10.7666 11.6661 9.16277 12.4112 8.9265C13.145 8.69398 14.0876 10.4766 15.0864 11.1629C15.8414 11.6817 16.4152 11.5679 16.4152 11.5679L19.0867 11.5304C19.0867 11.5304 20.4843 11.4442 19.8217 10.3454Z" fill="white"/>
</svg>
