<svg width="20" height="20" viewBox="0 0 20 20" fill="none" xmlns="http://www.w3.org/2000/svg">
<g clip-path="url(#clip0_1846_2228)">
<path d="M19.8217 14.3449C19.768 14.2549 19.4355 13.5323 17.8353 12.0472C16.1602 10.4921 16.3852 10.7446 18.4029 8.05565C19.6317 6.41803 20.123 5.41795 19.9692 4.99042C19.823 4.58289 18.9192 4.6904 18.9192 4.6904L15.9139 4.7079C15.9139 4.7079 15.6914 4.6779 15.5252 4.77666C15.3639 4.87416 15.2601 5.09918 15.2601 5.09918C15.2601 5.09918 14.7839 6.36677 14.1488 7.44435C12.81 9.71827 12.2737 9.83828 12.0549 9.69702C11.5461 9.36825 11.6736 8.37442 11.6736 7.66937C11.6736 5.46546 12.0074 4.54664 11.0223 4.30912C10.6948 4.23036 10.4548 4.17786 9.61848 4.16911C8.54591 4.15786 7.63709 4.17286 7.1233 4.42413C6.78078 4.59164 6.51701 4.96542 6.67827 4.98667C6.87703 5.01292 7.32707 5.10793 7.56583 5.43295C7.87461 5.85174 7.86335 6.79431 7.86335 6.79431C7.86335 6.79431 8.04087 9.38825 7.44957 9.71077C7.0433 9.93204 6.487 9.48075 5.29317 7.41685C4.68187 6.36052 4.21934 5.19169 4.21934 5.19169C4.21934 5.19169 4.13058 4.97417 3.97182 4.85791C3.77931 4.71665 3.50929 4.67165 3.50929 4.67165L0.651577 4.68915C0.651577 4.68915 0.222795 4.70165 0.0652838 4.88791C-0.0747264 5.05418 0.054033 5.3967 0.054033 5.3967C0.054033 5.3967 2.2917 10.6308 4.82438 13.2698C7.1483 15.6887 9.786 15.53 9.786 15.53H10.9811C10.9811 15.53 11.3424 15.49 11.5261 15.2912C11.6961 15.1087 11.6899 14.7661 11.6899 14.7661C11.6899 14.7661 11.6661 13.1623 12.4112 12.926C13.145 12.6935 14.0876 14.4761 15.0864 15.1624C15.8414 15.6812 16.4152 15.5675 16.4152 15.5675L19.0867 15.53C19.0867 15.53 20.4843 15.4437 19.8217 14.3449Z" fill="#343434"/>
</g>
<defs>
<clipPath id="clip0_1846_2228">
<rect width="20" height="20" fill="white"/>
</clipPath>
</defs>
</svg>
