<svg width="20" height="14" viewBox="0 0 20 14" fill="none" xmlns="http://www.w3.org/2000/svg">
<path d="M18.7889 2.41936C18.5776 1.60353 17.9583 0.960423 17.173 0.740746C15.7384 0.333008 9.99971 0.333008 9.99971 0.333008C9.99971 0.333008 4.26125 0.333008 2.8266 0.725288C2.05641 0.944732 1.42206 1.60365 1.2108 2.41936C0.833252 3.90944 0.833252 6.99967 0.833252 6.99967C0.833252 6.99967 0.833252 10.1055 1.2108 11.58C1.42228 12.3957 2.0413 13.0388 2.82671 13.2585C4.27635 13.6663 9.99994 13.6663 9.99994 13.6663C9.99994 13.6663 15.7384 13.6663 17.173 13.2741C17.9585 13.0545 18.5776 12.4114 18.7891 11.5957C19.1665 10.1055 19.1665 7.01537 19.1665 7.01537C19.1665 7.01537 19.1816 3.90944 18.7889 2.41936ZM8.17264 9.85454V4.14481L12.9446 6.99967L8.17264 9.85454Z" fill="white"/>
</svg>
