<svg width="20" height="20" viewBox="0 0 20 20" fill="none" xmlns="http://www.w3.org/2000/svg">
<path d="M18.7886 5.41984C18.5773 4.60402 17.9581 3.96091 17.1728 3.74123C15.7382 3.3335 9.99947 3.3335 9.99947 3.3335C9.99947 3.3335 4.261 3.3335 2.82636 3.72578C2.05616 3.94522 1.42182 4.60413 1.21055 5.41984C0.833008 6.90993 0.833008 10.0002 0.833008 10.0002C0.833008 10.0002 0.833008 13.106 1.21055 14.5805C1.42204 15.3962 2.04106 16.0393 2.82647 16.259C4.27611 16.6668 9.99969 16.6668 9.99969 16.6668C9.99969 16.6668 15.7382 16.6668 17.1728 16.2745C17.9582 16.055 18.5773 15.4119 18.7888 14.5962C19.1663 13.106 19.1663 10.0159 19.1663 10.0159C19.1663 10.0159 19.1814 6.90993 18.7886 5.41984ZM8.1724 12.855V7.14529L12.9444 10.0002L8.1724 12.855Z" fill="#343434"/>
</svg>
