<svg width="240" height="240" viewBox="0 0 240 240" fill="none" xmlns="http://www.w3.org/2000/svg">
<rect width="240" height="240" rx="32" fill="#D9CFFE"/>
<path d="M15.7368 214.614L15.7368 51.1451L7.94829 39.7368L1.00002 39.8228L0.999999 203.476L9.00337 214.614L15.7368 214.614Z" fill="#D9CFFE"/>
<path d="M15.7368 214.614L15.7368 51.1451L7.94829 39.7368L1.00002 39.8228L0.999999 203.476L9.00337 214.614L15.7368 214.614ZM15.7368 214.614L6.41078 201.761" stroke="#BFB3EE" stroke-width="1.51037"/>
<path d="M28.5088 214.615L28.5088 51.1456L21.2395 39.7373L14.7544 39.8233L14.7544 203.476L22.2242 214.615L28.5088 214.615Z" fill="#D9CFFE"/>
<path d="M28.5088 214.615L28.5088 51.1456L21.2395 39.7373L14.7544 39.8233L14.7544 203.476L22.2242 214.615L28.5088 214.615ZM28.5088 214.615L19.8045 201.761" stroke="#BFB3EE" stroke-width="1.51037"/>
<path d="M225 214.615L154.457 214.615L146.315 203.303L115.882 154.185L95.0251 154.185L95.0251 214.615L34.7111 214.615L26.5439 203.486L26.6093 40.1157L85.5131 39.7373L93.4389 51.1488L93.8494 101.505L115.93 84.4103L142.833 100.985L142.833 44.2633L139.655 40.5522L208.636 39.7463L216.182 51.151L167.408 129.007L225 214.615Z" fill="#D9CFFE"/>
<path d="M167.408 129.007L225 214.615L154.457 214.615L146.315 203.303L115.882 154.185L95.0251 154.185M167.408 129.007L216.182 51.151L208.636 39.7463L139.655 40.5522L142.833 44.2633L142.833 100.985L115.93 84.4103L93.8494 101.505L93.4389 51.1488L85.5131 39.7373L26.6093 40.1157L26.5439 203.486L34.7111 214.615L95.0251 214.615M167.408 129.007L157.864 115.578M95.0251 214.615L95.0251 154.185M95.0251 214.615L82.0307 196.459M95.0251 154.185L84.155 138.836" stroke="#BFB3EE" stroke-width="1.51037"/>
<path d="M119.859 83.9948L140.323 96.7193L131.67 83.602L111.804 72.5784L119.859 83.9948Z" fill="#D9CFFE"/>
<path d="M140.323 96.7193L140.509 36.4472L132.309 25L91.5015 25L91.386 84.6919L95.8522 91.9892L99.6023 95.6155L119.859 83.9948L111.804 72.5784L131.67 83.602L140.323 96.7193Z" fill="#D9CFFE"/>
<path d="M119.859 83.9948L140.323 96.7193M119.859 83.9948L99.6023 95.6155L95.8522 91.9892L91.386 84.6919L91.5015 25L132.309 25L140.509 36.4472L140.323 96.7193M119.859 83.9948L111.804 72.5784L131.67 83.602L140.323 96.7193" stroke="#BFB3EE" stroke-width="1.51037"/>
<path d="M20.6904 39.647L13.861 39.647L13.861 202.956L20.6904 202.956L20.6904 39.647Z" fill="#E3DEFF" stroke="#BFB3EE" stroke-width="1.51037"/>
<path d="M7.82952 39.563L1.00012 39.563L1.00012 202.872L7.82952 202.872L7.82952 39.563Z" fill="#E3DEFF" stroke="#BFB3EE" stroke-width="1.51037"/>
<path d="M107.795 142.531L146.322 202.873L216.776 202.873L159.257 117.391L207.969 39.6482L139.129 40.4195L139.129 97.0582L112.259 80.5078L85.3808 96.2848L85.3808 39.646L26.7272 39.6482L26.7272 202.873L86.965 202.873L86.965 142.531L107.795 142.531Z" fill="#E3DEFF" stroke="#BFB3EE" stroke-width="1.51037"/>
<path fill-rule="evenodd" clip-rule="evenodd" d="M112.208 72.8399L132.513 84.1665L132.513 25.314L91.9026 25.314L91.9026 84.1665L112.208 72.8399Z" fill="#E3DEFF"/>
<path d="M112.208 72.8399L132.513 84.1665L132.513 25.314L91.9026 25.314L91.9026 84.1665L112.208 72.8399Z" fill="#E3DEFF"/>
<path fill-rule="evenodd" clip-rule="evenodd" d="M112.208 72.8399L132.513 84.1665L132.513 25.314L91.9026 25.314L91.9026 84.1665L112.208 72.8399Z" stroke="#BFB3EE" stroke-width="1.51037"/>
<path d="M112.208 72.8399L132.513 84.1665L132.513 25.314L91.9026 25.314L91.9026 84.1665L112.208 72.8399Z" stroke="#BFB3EE" stroke-width="1.51037"/>
</svg>
