<svg width="359" height="372" viewBox="0 0 359 372" fill="none" xmlns="http://www.w3.org/2000/svg">
<path d="M133.918 365.241L245.044 260.689L210.142 241.187L103.704 346.843L103.692 348.984L133.918 365.241Z" fill="#D9CFFE"/>
<path d="M395.786 297.245L294.318 -69.7271L263.799 -86.7787L2.56262 -18.9459L103.704 346.843L210.142 241.187L360.206 277.742L395.786 297.245Z" fill="#D9CFFE"/>
<path d="M245.044 260.689L395.786 297.245L360.206 277.742L210.142 241.187L245.044 260.689Z" fill="#D9CFFE"/>
<path d="M245.044 260.689L395.786 297.245M245.044 260.689L133.918 365.241L103.692 348.984L103.704 346.843M245.044 260.689L210.142 241.187M395.786 297.245L294.318 -69.7271L263.799 -86.7787L2.56262 -18.9459L103.704 346.843M395.786 297.245L360.206 277.742L210.142 241.187M210.142 241.187L103.704 346.843" stroke="#BFB3EE" stroke-width="3"/>
<path fill-rule="evenodd" clip-rule="evenodd" d="M214.49 243.58L364.673 280.28L263.204 -86.6914L1.89453 -18.8397L103.363 348.132L214.49 243.58Z" fill="#E3DEFF"/>
<path d="M214.49 243.58L364.673 280.28L263.204 -86.6914L1.89453 -18.8397L103.363 348.132L214.49 243.58Z" fill="#E3DEFF"/>
<path fill-rule="evenodd" clip-rule="evenodd" d="M214.49 243.58L364.673 280.28L263.204 -86.6914L1.89453 -18.8397L103.363 348.132L214.49 243.58Z" stroke="#BFB3EE" stroke-width="3"/>
<path d="M214.49 243.58L364.673 280.28L263.204 -86.6914L1.89453 -18.8397L103.363 348.132L214.49 243.58Z" stroke="#BFB3EE" stroke-width="3"/>
</svg>
