<svg width="350" height="298" viewBox="0 0 350 298" fill="none" xmlns="http://www.w3.org/2000/svg">
<path d="M118.09 292.538L215.229 201.297L184.72 184.278L91.6799 276.482L91.6689 278.351L118.09 292.538Z" fill="#D9CFFE"/>
<path d="M346.998 233.198L258.301 -87.0521L231.624 -101.933L3.2689 -42.7361L91.6799 276.482L184.72 184.278L315.896 216.179L346.998 233.198Z" fill="#D9CFFE"/>
<path d="M215.229 201.297L346.998 233.198L315.896 216.179L184.72 184.278L215.229 201.297Z" fill="#D9CFFE"/>
<path d="M215.229 201.297L346.998 233.198M215.229 201.297L118.09 292.538L91.6689 278.351L91.6799 276.482M215.229 201.297L184.72 184.278M346.998 233.198L258.301 -87.0521L231.624 -101.933L3.2689 -42.7361L91.6799 276.482M346.998 233.198L315.896 216.179L184.72 184.278M184.72 184.278L91.6799 276.482" stroke="#BFB3EE" stroke-width="3"/>
<path fill-rule="evenodd" clip-rule="evenodd" d="M188.521 186.366L319.801 218.394L231.104 -101.857L2.68555 -42.6436L91.3824 277.607L188.521 186.366Z" fill="#E3DEFF"/>
<path d="M188.521 186.366L319.801 218.394L231.104 -101.857L2.68555 -42.6436L91.3824 277.607L188.521 186.366Z" fill="#E3DEFF"/>
<path fill-rule="evenodd" clip-rule="evenodd" d="M188.521 186.366L319.801 218.394L231.104 -101.857L2.68555 -42.6436L91.3824 277.607L188.521 186.366Z" stroke="#BFB3EE" stroke-width="3"/>
<path d="M188.521 186.366L319.801 218.394L231.104 -101.857L2.68555 -42.6436L91.3824 277.607L188.521 186.366Z" stroke="#BFB3EE" stroke-width="3"/>
</svg>
