<svg width="618" height="606" viewBox="0 0 618 606" fill="none" xmlns="http://www.w3.org/2000/svg">
<path d="M207.644 595.631L380.509 427.801L326.216 396.496L160.645 566.097L160.625 569.534L207.644 595.631Z" fill="#D9CFFE"/>
<path d="M615 486.48L457.158 -102.593L409.684 -129.965L3.31183 -21.078L160.645 566.097L326.216 396.496L559.653 455.175L615 486.48Z" fill="#D9CFFE"/>
<path d="M380.509 427.801L615 486.48L559.653 455.175L326.216 396.496L380.509 427.801Z" fill="#D9CFFE"/>
<path d="M380.509 427.801L615 486.48M380.509 427.801L207.644 595.631L160.625 569.534L160.645 566.097M380.509 427.801L326.216 396.496M615 486.48L457.158 -102.593L409.684 -129.965L3.31183 -21.078L160.645 566.097M615 486.48L559.653 455.175L326.216 396.496M326.216 396.496L160.645 566.097" stroke="#BFB3EE" stroke-width="3"/>
<path fill-rule="evenodd" clip-rule="evenodd" d="M332.98 400.336L566.601 459.249L408.759 -129.825L2.27344 -20.9075L160.115 568.166L332.98 400.336Z" fill="#E3DEFF"/>
<path d="M332.98 400.336L566.601 459.249L408.759 -129.825L2.27344 -20.9075L160.115 568.166L332.98 400.336Z" fill="#E3DEFF"/>
<path fill-rule="evenodd" clip-rule="evenodd" d="M332.98 400.336L566.601 459.249L408.759 -129.825L2.27344 -20.9075L160.115 568.166L332.98 400.336Z" stroke="#BFB3EE" stroke-width="3"/>
<path d="M332.98 400.336L566.601 459.249L408.759 -129.825L2.27344 -20.9075L160.115 568.166L332.98 400.336Z" stroke="#BFB3EE" stroke-width="3"/>
</svg>
