<svg width="1345" height="115" viewBox="0 0 1345 115" fill="none" xmlns="http://www.w3.org/2000/svg">
<g clip-path="url(#clip0_691_668)">
<path d="M1235.15 57.0426C1235.15 64.6163 1237.03 70.3945 1240.77 74.3772C1244.52 78.2946 1249.59 80.3839 1255.99 80.6451V30.1103C1249.59 30.3714 1244.52 32.4934 1240.77 36.4761C1237.03 40.3935 1235.15 46.237 1235.15 54.0066V57.0426ZM1309.97 54.1045C1309.97 46.4002 1308.13 40.5241 1304.44 36.4761C1300.83 32.3628 1295.69 30.2082 1289.04 30.0123V80.5472C1295.69 80.3513 1300.83 78.3273 1304.44 74.4751C1308.13 70.5577 1309.97 64.7795 1309.97 57.1405V54.1045ZM1255.99 102.974C1239.32 102.191 1226.14 97.8165 1216.45 89.851C1206.76 81.8856 1201.91 71.0147 1201.91 57.2385V54.1045C1201.91 40.3282 1206.76 29.4247 1216.45 21.394C1226.21 13.298 1239.39 8.82555 1255.99 7.97678V-42.3622H1289.04V7.97678C1306.48 8.82555 1319.95 13.2653 1329.45 21.296C1338.94 29.3268 1343.69 40.2956 1343.69 54.2024V57.4343C1343.69 71.1453 1338.91 81.9835 1329.35 89.949C1319.85 97.8491 1306.42 102.191 1289.04 102.974V142.736H1255.99V102.974Z" fill="#4C3B8A"/>
<path d="M1083.98 142.737V10.8175H1116.34L1116.44 22.4719L1116.54 22.374C1119.38 18.4565 1123.61 15.1594 1129.23 12.4824C1134.92 9.74025 1141.51 8.36914 1149 8.36914C1161.54 8.36914 1171.55 12.3192 1179.05 20.2194C1186.6 28.0542 1190.38 39.1863 1190.38 53.6155V56.7494C1190.38 70.7216 1186.51 81.8536 1178.75 90.1455C1171.07 98.4374 1160.99 102.583 1148.52 102.583C1140.96 102.583 1134.66 101.473 1129.62 99.2535C1124.65 97.0336 1120.45 94.1282 1117.02 90.5372V142.737H1083.98ZM1117.02 68.2079C1118.44 71.3418 1120.83 74.084 1124.19 76.4345C1127.55 78.785 1131.59 79.9602 1136.31 79.9602C1143.35 79.9602 1148.55 77.9035 1151.91 73.7902C1155.27 69.6116 1156.95 64.3231 1156.95 57.9246V52.734C1156.95 46.205 1155.27 41.047 1151.91 37.2602C1148.55 33.4081 1143.41 31.482 1136.5 31.482C1131.66 31.482 1127.55 32.6572 1124.19 35.0077C1120.83 37.3581 1118.44 40.1003 1117.02 43.2343V68.2079Z" fill="#4C3B8A"/>
<path d="M1024.96 84.6603C1024.96 79.6982 1026.58 75.5196 1029.81 72.1245C1033.04 68.7294 1037.62 67.0319 1043.57 67.0319C1049.58 67.0319 1054.16 68.7294 1057.33 72.1245C1060.56 75.5196 1062.17 79.7309 1062.17 84.7582C1062.17 89.7856 1060.56 93.9968 1057.33 97.3919C1054.16 100.787 1049.58 102.485 1043.57 102.485C1037.56 102.485 1032.94 100.754 1029.71 97.294C1026.54 93.8336 1024.96 89.6224 1024.96 84.6603Z" fill="#4C3B8A"/>
<path d="M903.148 100.623V10.8163H936.292V53.7121C936.292 56.1279 936.259 58.054 936.195 59.4903C936.195 60.8614 936.13 62.8528 936.001 65.4644H936.485C937.519 62.8528 938.198 61.0573 938.521 60.078C938.908 59.0333 939.974 56.7481 941.719 53.2225L967.884 10.8163H1003.26V100.623H970.016V57.3358C970.016 54.7894 970.016 52.896 970.016 51.6555C970.016 50.3497 970.049 48.391 970.113 45.7793H969.822C968.789 48.3257 968.078 50.0885 967.69 51.0679C967.367 52.0472 966.301 54.3324 964.492 57.9234L938.521 100.623H903.148Z" fill="#4C3B8A"/>
<path d="M822.037 100.623H788.603V10.8164H822.037V100.623ZM853.63 100.623L825.138 59.6863L850.626 41.862L892.781 100.623H853.63ZM805.466 43.429H830.371L851.595 10.8164H887.936L849.85 67.4233H805.466V43.429ZM757.011 100.623H718.344L760.5 41.862L785.502 59.6863L757.011 100.623ZM805.466 43.429V67.4233H760.112L722.22 10.8164H759.046L780.269 43.429H805.466Z" fill="#4C3B8A"/>
<path d="M684.236 127.066V100.623H627.641V127.066H596.727V75.8457H715.053V127.066H684.236ZM640.917 35.5942L640.336 48.9134C640.142 54.0061 639.593 59.3925 638.688 65.0728C637.784 70.7531 636.75 74.6705 635.587 76.8251H605.933C607.613 73.4953 608.969 69.2188 610.003 63.9955C611.037 58.7723 611.683 52.4065 611.941 44.898L613.104 10.8164H702.067V100.623H668.827V35.5942H640.917Z" fill="#4C3B8A"/>
<path d="M485.188 56.9444V53.8105C485.188 39.8383 490.033 28.7389 499.724 20.5123C509.415 12.2204 522.465 8.07446 538.876 8.07446C554.898 8.07446 567.238 12.0572 575.895 20.0226C584.552 27.9881 588.881 38.8916 588.881 52.7332V61.6453H502.147V45.2901H556.901V45.1921C556.901 41.0135 555.447 37.6184 552.54 35.0068C549.697 32.3299 544.949 30.9914 538.294 30.9914C531.769 30.9914 526.762 32.9175 523.273 36.7696C519.849 40.5565 518.137 45.0289 518.137 50.1868V57.1403C518.137 64.4528 519.978 70.0678 523.661 73.9852C527.408 77.9026 532.803 79.8614 539.845 79.8614C544.884 79.8614 549.083 79.0126 552.443 77.315C555.802 75.5522 558.387 73.2017 560.196 70.2637L588.203 77.315C584.972 85.4111 579.513 91.7116 571.825 96.2167C564.137 100.722 553.574 102.974 540.135 102.974C522.627 102.974 509.092 98.8936 499.53 90.7322C489.968 82.5056 485.188 71.243 485.188 56.9444Z" fill="#4C3B8A"/>
<path d="M409.508 35.594L409.315 48.7174C408.862 68.0434 406.052 81.8197 400.884 90.0463C395.715 98.2076 387.801 102.288 377.141 102.288C374.492 102.288 372.134 102.19 370.066 101.994C368.063 101.864 366.448 101.57 365.221 101.113V73.691C365.867 73.8869 366.513 74.0501 367.159 74.1807C367.87 74.246 368.742 74.2787 369.775 74.2787C373.2 74.2787 375.848 72.1567 377.722 67.9128C379.596 63.669 380.629 56.8787 380.823 47.5422L381.792 10.8163H469.593V100.623H436.353V35.594H409.508Z" fill="#4C3B8A"/>
<path d="M290.411 35.5942L290.217 48.7175C289.765 68.0435 286.954 81.8198 281.786 90.0464C276.617 98.2077 268.703 102.288 258.043 102.288C255.394 102.288 253.036 102.19 250.969 101.995C248.966 101.864 247.351 101.57 246.123 101.113V73.6912C246.769 73.887 247.415 74.0503 248.061 74.1808C248.772 74.2461 249.644 74.2788 250.678 74.2788C254.102 74.2788 256.751 72.1568 258.624 67.913C260.498 63.6691 261.532 56.8789 261.726 47.5423L262.695 10.8164H350.495V100.623H317.255V35.5942H290.411Z" fill="#4C3B8A"/>
<path d="M125.568 57.0419V53.9079C125.568 40.1969 130.575 29.1302 140.589 20.7077C150.603 12.22 163.912 7.97607 180.516 7.97607C197.185 7.97607 210.494 12.22 220.443 20.7077C230.457 29.1302 235.464 40.1969 235.464 53.9079V57.0419C235.464 70.8182 230.457 81.9176 220.443 90.34C210.494 98.7625 197.185 102.974 180.516 102.974C163.848 102.974 150.506 98.7625 140.492 90.34C130.543 81.9176 125.568 70.8182 125.568 57.0419ZM159.002 52.7327V58.0212C159.002 64.4197 160.811 69.6429 164.429 73.691C168.112 77.6737 173.474 79.665 180.516 79.665C187.558 79.665 192.888 77.6737 196.506 73.691C200.189 69.6429 202.03 64.3871 202.03 57.9233V52.7327C202.03 46.4648 200.189 41.3722 196.506 37.4547C192.888 33.5373 187.558 31.5786 180.516 31.5786C173.474 31.5786 168.112 33.5373 164.429 37.4547C160.811 41.3722 159.002 46.4648 159.002 52.7327Z" fill="#4C3B8A"/>
<path d="M11.91 8.30835H7.95117V102.973H11.91V8.30835Z" fill="#4C3B8A"/>
<path d="M4.45489 8.25977H0.496094V102.925H4.45489V8.25977Z" fill="#4C3B8A"/>
<path d="M62.4029 67.9474L84.7357 102.926H125.575L92.2335 53.3741L120.471 8.30916L80.5659 8.75622V41.588L64.9905 31.9942L49.4099 41.1396V8.30786L15.4102 8.30916V102.926H50.3282V67.9474H62.4029Z" fill="#4C3B8A"/>
<path fill-rule="evenodd" clip-rule="evenodd" d="M64.9599 27.5494L76.7303 34.115V0H53.1895V34.115L64.9599 27.5494Z" fill="#FD8B21"/>
<path d="M64.9599 27.5494L76.7303 34.115V0H53.1895V34.115L64.9599 27.5494Z" fill="#FD8B21"/>
</g>
<defs>
<clipPath id="clip0_691_668">
<rect width="1345" height="115" fill="white"/>
</clipPath>
</defs>
</svg>
