<svg width="391" height="230" viewBox="0 0 391 230" fill="none" xmlns="http://www.w3.org/2000/svg">
<g clip-path="url(#clip0_3540_23737)">
<path d="M0 0H648C665.673 0 680 14.3269 680 32V418C680 435.673 665.673 450 648 450H0V0Z" fill="white"/>
<rect width="1232.41" height="383.052" transform="matrix(0.976885 -0.213764 0.673568 0.739125 -382 115.446)" fill="white"/>
<rect x="1.055" y="0.335819" width="395.036" height="62.404" rx="14.702" transform="matrix(0.976885 -0.213764 0.673568 0.739125 -380.953 115.485)" stroke="#DBD8E8" stroke-width="1.27843"/>
<path d="M-3.50415 58.5832L5.80419 56.5463C5.96933 56.5108 6.16422 56.5131 6.36422 56.5529C6.56422 56.5927 6.76035 56.6681 6.92781 56.7698C7.09527 56.8714 7.22653 56.9947 7.305 57.124C7.38347 57.2532 7.40563 57.3827 7.36867 57.496L5.92616 62.0278C5.90257 62.1037 5.85319 62.1708 5.78088 62.2249C5.70856 62.2791 5.61474 62.3194 5.50483 62.3434C5.39492 62.3675 5.27109 62.3748 5.14049 62.3651C5.00988 62.3553 4.87509 62.3286 4.74388 62.2865L-3.1053 59.788C-3.30216 59.7258 -3.48413 59.6313 -3.62818 59.5164C-3.77224 59.4015 -3.87191 59.2713 -3.91461 59.1424C-3.9573 59.0134 -3.94109 58.8915 -3.86803 58.7919C-3.79497 58.6924 -3.66834 58.6198 -3.50415 58.5832Z" fill="#8E8E8E"/>
<rect x="1.055" y="0.335819" width="395.036" height="62.404" rx="14.702" transform="matrix(0.976885 -0.213764 0.673568 0.739125 26.183 26.3949)" stroke="#DBD8E8" stroke-width="1.27843"/>
<path d="M59.7512 41.6388L53.6292 34.921L59.1907 33.7041L59.9601 34.5484L55.8012 35.4584L61.1538 41.3319L59.7512 41.6388ZM63.8424 37.8936L63.7079 37.7459C63.0267 36.9985 62.7889 36.3256 62.9946 35.7272C63.1973 35.1257 63.8151 34.712 64.8477 34.4861C65.8803 34.2601 66.9212 34.3109 67.9706 34.6383C69.0171 34.9627 69.8809 35.4986 70.5621 36.2461L70.6966 36.3937C71.3778 37.1412 71.617 37.8156 71.4142 38.4171C71.2114 39.0186 70.5937 39.4323 69.5611 39.6582C68.5285 39.8842 67.4875 39.8334 66.4382 39.506C65.3888 39.1785 64.5236 38.641 63.8424 37.8936ZM65.0814 37.4233L65.2538 37.6124C65.6967 38.0984 66.2332 38.4625 66.8635 38.7046C67.4949 38.9427 68.1461 38.9884 68.8168 38.8416C69.4836 38.6957 69.8467 38.4281 69.9064 38.0387C69.9632 37.6463 69.7702 37.207 69.3273 36.721L69.1549 36.5319C68.712 36.0459 68.1734 35.6823 67.5392 35.4411C66.9049 35.1999 66.2544 35.1522 65.5877 35.2981C64.921 35.444 64.5592 35.7132 64.5023 36.1056C64.4455 36.498 64.6385 36.9373 65.0814 37.4233ZM75.9832 40.389L69.773 33.5743L71.0231 33.3008L71.6666 33.9347L71.691 33.9294C71.6821 33.6841 71.8062 33.4485 72.0635 33.2225C72.318 32.9934 72.6973 32.8237 73.2014 32.7134C74.0998 32.5168 75.0316 32.5896 75.9969 32.9318C76.9593 33.2709 77.7699 33.8019 78.4286 34.5247L78.5631 34.6724C79.2219 35.3952 79.4911 36.0465 79.3709 36.6262C79.2507 37.2059 78.7413 37.594 77.8429 37.7906C77.3388 37.901 76.8477 37.9346 76.3697 37.8916C75.8958 37.8478 75.4592 37.7459 75.06 37.5861L77.3431 40.0914L75.9832 40.389ZM74.1854 36.6264C74.5199 36.8115 74.9207 36.9544 75.3879 37.055C75.8563 37.1518 76.3142 37.1512 76.7614 37.0533C77.42 36.9092 77.7636 36.6496 77.7922 36.2744C77.825 35.8983 77.6255 35.4734 77.1938 34.9997L77.0214 34.8105C76.5897 34.3368 76.0772 33.9804 75.4839 33.7413C74.8946 33.5013 74.2707 33.4534 73.6121 33.5975C73.1608 33.6963 72.8544 33.8629 72.6927 34.0975C72.531 34.3321 72.4778 34.5707 72.533 34.8132L74.1854 36.6264ZM79.5632 34.4535L79.4287 34.3059C78.7475 33.5584 78.5098 32.8855 78.7154 32.2871C78.9182 31.6857 79.5359 31.272 80.5685 31.046C81.6011 30.82 82.642 30.8708 83.6914 31.1983C84.7379 31.5227 85.6017 32.0586 86.2829 32.806L86.4175 32.9537C87.0986 33.7011 87.3378 34.3756 87.135 34.977C86.9322 35.5785 86.3145 35.9922 85.2819 36.2182C84.2493 36.4441 83.2083 36.3934 82.159 36.0659C81.1096 35.7384 80.2444 35.201 79.5632 34.4535ZM80.8022 33.9832L80.9746 34.1724C81.4175 34.6583 81.9541 35.0224 82.5843 35.2645C83.2157 35.5026 83.8669 35.5483 84.5377 35.4015C85.2044 35.2556 85.5676 34.988 85.6272 34.5986C85.684 34.2062 85.491 33.767 85.0481 33.281L84.8757 33.0918C84.4328 32.6058 83.8943 32.2422 83.26 32.001C82.6257 31.7598 81.9752 31.7122 81.3085 31.858C80.6418 32.0039 80.28 32.2731 80.2231 32.6655C80.1663 33.058 80.3593 33.4972 80.8022 33.9832ZM96.5113 35.089L95.3761 33.8433L90.4001 34.9322L91.5353 36.1779L90.2791 36.4528L88.4249 34.4181L95.9072 32.7808L97.7614 34.8155L96.5113 35.089ZM87.8592 30.5629L89.1763 32.1286C89.616 32.6485 89.9279 33.047 90.1121 33.3239C90.2962 33.6009 90.4183 33.8472 90.4782 34.0628L89.1123 34.3617C89.1116 34.1737 89.0242 33.9254 88.8502 33.6167C88.6733 33.3049 88.3243 32.8389 87.803 32.2188L85.9572 30.0328L91.2199 28.8813L95.681 33.7766L94.3211 34.0742L90.579 29.9678L87.8592 30.5629Z" fill="#8E8E8E"/>
<path d="M71.1594 54.2873L70.712 53.7964C69.3503 52.3021 68.8252 51.0405 69.1368 50.0116C69.4485 48.9827 70.4068 48.2927 72.0118 47.9415C73.594 47.5952 75.1029 47.6292 76.5384 48.0433C77.9796 48.4562 79.1285 49.1139 79.985 50.0163L80.0909 50.1326L78.153 50.5566L78.0353 50.4274C77.4923 49.8541 76.796 49.4384 75.9463 49.1801C75.0926 48.9176 74.1393 48.9015 73.0864 49.1319C72.0391 49.361 71.4405 49.8278 71.2904 50.5321C71.1365 51.232 71.5755 52.1483 72.6076 53.2809L73.208 53.9397C74.1891 55.0163 75.2738 55.7758 76.462 56.2182C77.656 56.6594 78.7851 56.7636 79.8494 56.5307C80.8625 56.309 81.4468 55.9538 81.6023 55.4653C81.7596 54.9712 81.6096 54.4359 81.1525 53.8593L81.055 53.7411L82.993 53.3171L83.0963 53.4417C83.8272 54.3561 84.0444 55.2124 83.7479 56.0107C83.4475 56.8047 82.5062 57.3748 80.924 57.7211C79.3076 58.0748 77.6145 57.9623 75.8448 57.3837C74.0751 56.8051 72.5133 55.773 71.1594 54.2873ZM84.7573 54.2868C84.1177 53.5849 84.0179 52.9585 84.458 52.4077C84.9038 51.8556 85.7356 51.4463 86.9536 51.1798L89.1989 50.6885L88.7928 50.2428C88.4513 49.8681 88.0258 49.5997 87.5162 49.4375C87.0122 49.274 86.396 49.272 85.6675 49.4314C84.9333 49.592 84.4951 49.8041 84.353 50.0677C84.2126 50.3256 84.2621 50.586 84.5015 50.8487L84.5604 50.9132L82.7078 51.3186L82.643 51.2476C82.1368 50.6921 82.0637 50.1399 82.4237 49.5911C82.7855 49.0368 83.5697 48.6276 84.7763 48.3635C85.9772 48.1008 87.0852 48.0881 88.1004 48.3257C89.1117 48.5589 89.9705 49.0631 90.6769 49.8382L93.4729 52.9065C93.7241 53.1821 93.9948 53.4379 94.285 53.674C94.577 53.9045 94.8643 54.0999 95.1469 54.2601L95.241 54.3635L93.4141 54.7633C93.2345 54.6786 93.034 54.5598 92.8127 54.4068C92.5931 54.2482 92.3974 54.0896 92.2255 53.9309C92.2604 54.2539 92.1016 54.5779 91.7493 54.9029C91.397 55.2279 90.8054 55.4813 89.9744 55.6631C89.0467 55.8662 88.1032 55.8608 87.1439 55.6472C86.1808 55.4293 85.3852 54.9758 84.7573 54.2868ZM86.5472 53.7789C86.873 54.1363 87.2894 54.3835 87.7965 54.5205C88.2996 54.6531 88.8899 54.6454 89.5672 54.4972C90.2445 54.349 90.7076 54.0668 90.9565 53.6508C91.2054 53.2348 91.165 52.8459 90.8354 52.4842L90.0525 51.6251L88.0718 52.0585C87.2181 52.2453 86.6691 52.4894 86.4249 52.7908C86.1808 53.0921 86.2215 53.4215 86.5472 53.7789ZM91.1365 47.1965L93.0147 46.7855L95.5165 49.5307L99.8876 48.5742L97.3858 45.829L99.264 45.418L105.392 52.1423L103.514 52.5532L100.882 49.6659L96.5113 50.6224L99.1426 53.5097L97.2644 53.9207L91.1365 47.1965ZM113.955 50.2685L107.69 47.9902L107.984 46.7949L116.192 49.779L113.955 50.2685ZM105.087 47.4365L106.965 47.0255L107.596 43.5947L109.714 43.1314L108.839 47.9248L106.082 48.5282L105.087 47.4365ZM103.516 44.4876L109.643 51.2119L107.765 51.6229L101.637 44.8986L103.516 44.4876ZM111.161 44.124L110.166 43.0324L118.157 41.2838L119.152 42.3754L116.096 43.0442L121.229 48.6768L119.35 49.0878L114.217 43.4552L111.161 44.124ZM121.95 44.3896L120.802 43.13L125.617 42.0763L126.765 43.3359L121.95 44.3896ZM131.823 46.3585L123.253 36.9535L132.746 34.8761L141.317 44.2811L139.379 44.7051L131.874 36.4694L126.256 37.6986L133.761 45.9344L131.823 46.3585ZM140.384 40.5726L140.196 40.3659C139.266 39.3453 138.923 38.426 139.168 37.6081C139.418 36.7889 140.215 36.2324 141.558 35.9385C142.901 35.6446 144.212 35.7166 145.492 36.1545C146.774 36.5868 147.883 37.3176 148.821 38.3468L149.316 38.8894L141.743 40.5465L140.819 39.5323L146.53 38.2825L146.436 38.1792C146.012 37.7141 145.462 37.3646 144.784 37.1306C144.109 36.8911 143.375 36.8579 142.584 37.031C141.713 37.2215 141.254 37.5828 141.207 38.1149C141.159 38.647 141.439 39.2468 142.048 39.9143L142.301 40.192C142.909 40.8595 143.647 41.3618 144.514 41.6989C145.382 42.0305 146.298 42.091 147.259 41.8805C147.863 41.7485 148.299 41.542 148.569 41.2609C148.838 40.9798 148.988 40.6836 149.018 40.3723L150.92 40.7851C150.94 41.2042 150.743 41.6244 150.328 42.0457C149.91 42.4627 149.228 42.7746 148.283 42.9814C146.764 43.3139 145.301 43.2518 143.895 42.795C142.489 42.3383 141.318 41.5975 140.384 40.5726ZM147.82 36.1022L146.825 35.0105L154.816 33.2619L155.811 34.3536L152.755 35.0224L157.888 40.655L156.009 41.066L150.876 35.4334L147.82 36.1022ZM158.893 36.5224L158.705 36.3157C157.775 35.2951 157.432 34.3759 157.677 33.558C157.927 32.7388 158.723 32.1823 160.067 31.8883C161.41 31.5944 162.721 31.6664 164.001 32.1043C165.282 32.5367 166.392 33.2675 167.33 34.2967L167.824 34.8393L160.252 36.4963L159.328 35.4822L165.039 34.2324L164.945 34.129C164.521 33.6639 163.971 33.3144 163.293 33.0804C162.617 32.8409 161.884 32.8077 161.093 32.9808C160.222 33.1714 159.763 33.5327 159.715 34.0648C159.668 34.5969 159.948 35.1966 160.556 35.8641L160.81 36.1419C161.418 36.8093 162.155 37.3116 163.022 37.6487C163.891 37.9803 164.806 38.0409 165.768 37.8304C166.372 37.6984 166.808 37.4918 167.078 37.2107C167.347 36.9297 167.497 36.6335 167.527 36.3221L169.429 36.7349C169.449 37.154 169.252 37.5743 168.837 37.9956C168.419 38.4126 167.737 38.7245 166.792 38.9312C165.272 39.2637 163.81 39.2016 162.403 38.7449C160.997 38.2881 159.827 37.5473 158.893 36.5224ZM174.853 40.1811L166.265 30.7567L167.998 30.3775L168.87 31.2558L168.904 31.2484C168.895 30.9093 169.063 30.5835 169.406 30.2708C169.755 29.9569 170.273 29.7246 170.962 29.5739C172.191 29.3049 173.46 29.4044 174.767 29.8725C176.08 30.3393 177.191 31.0722 178.102 32.0713L178.29 32.278C179.2 33.277 179.577 34.1734 179.42 34.9671C179.258 35.7565 178.569 36.2844 177.351 36.551C176.662 36.7017 175.991 36.7478 175.337 36.6895C174.679 36.6268 174.08 36.4867 173.541 36.269L176.731 39.7701L174.853 40.1811ZM172.34 34.9513C172.793 35.2086 173.337 35.4047 173.972 35.5395C174.612 35.6731 175.237 35.6732 175.846 35.54C176.739 35.3444 177.206 34.9917 177.247 34.4819C177.284 33.9677 177.004 33.3833 176.407 32.7287L176.16 32.4575C175.563 31.8029 174.864 31.3128 174.062 30.9873C173.261 30.6617 172.41 30.5974 171.511 30.7941C170.902 30.9274 170.488 31.1549 170.269 31.4765C170.052 31.7926 169.983 32.1176 170.062 32.4515L172.34 34.9513ZM181.552 31.4636L181.74 31.6703C182.333 32.3205 183.051 32.8013 183.894 33.1126C184.739 33.4183 185.623 33.4703 186.545 33.2685C187.467 33.0667 187.975 32.7103 188.069 32.199C188.159 31.6835 187.907 31.1006 187.315 30.4504L187.126 30.2437C186.546 29.6063 185.835 29.1342 184.996 28.8272C184.156 28.5202 183.276 28.4676 182.354 28.6694C181.432 28.8712 180.921 29.2283 180.821 29.7407C180.727 30.252 180.971 30.8262 181.552 31.4636ZM181.842 27.4334C183.134 27.1506 184.437 27.2399 185.752 27.7012C187.068 28.1569 188.164 28.8649 189.039 29.8252L189.227 30.0319C190.126 31.018 190.426 31.913 190.128 32.7169C189.835 33.5195 188.98 34.0759 187.563 34.386C186.095 34.7073 184.662 34.6516 183.264 34.2189C181.868 33.7806 180.528 32.8574 179.245 31.4493L178.892 31.0617C177.483 29.5157 176.76 28.2355 176.723 27.2209C176.682 26.2021 177.462 25.4141 179.064 24.857C179.979 24.5431 180.496 24.324 180.615 24.1999C180.734 24.0757 180.748 23.9487 180.657 23.8188L182.33 23.4527C182.75 23.9806 182.859 24.4371 182.657 24.8222C182.457 25.2018 181.765 25.5855 180.583 25.9734C179.323 26.3885 178.658 26.906 178.588 27.5256C178.513 28.141 178.811 28.8686 179.481 29.7086L179.569 29.6816C179.448 29.1813 179.567 28.7316 179.927 28.3326C180.293 27.9324 180.931 27.6326 181.842 27.4334ZM195.766 35.5893L194.745 34.457C194.935 34.4566 195.137 34.446 195.35 34.4252C195.564 34.4044 195.761 34.374 195.943 34.3342C196.382 34.2383 196.66 34.0533 196.779 33.7794C196.908 33.5085 196.816 32.9733 196.504 32.1739L196.472 32.1731L186.677 26.29L188.573 25.8753L194.747 29.6841C194.985 29.8333 195.204 29.9765 195.404 30.1135C195.606 30.2449 195.8 30.3755 195.987 30.5052L196.029 30.4958C195.957 30.3413 195.888 30.1833 195.823 30.0219C195.754 29.8563 195.682 29.6807 195.609 29.4954L193.866 24.717L195.65 24.3266L198.508 32.789C198.749 33.4955 198.767 34.0727 198.561 34.5207C198.358 34.973 197.879 35.282 197.122 35.4476C196.86 35.5049 196.62 35.5446 196.401 35.5666C196.188 35.5874 195.976 35.595 195.766 35.5893ZM205.417 33.4931L196.828 24.0688L198.561 23.6895L199.433 24.5679L199.467 24.5604C199.459 24.2214 199.626 23.8955 199.969 23.5829C200.318 23.2689 200.837 23.0366 201.525 22.8859C202.755 22.6169 204.023 22.7164 205.33 23.1845C206.643 23.6513 207.755 24.3842 208.665 25.3833L208.854 25.59C209.764 26.5891 210.141 27.4854 209.983 28.2791C209.822 29.0685 209.132 29.5965 207.914 29.863C207.226 30.0137 206.554 30.0598 205.9 30.0015C205.243 29.9388 204.644 29.7987 204.104 29.5811L207.295 33.0821L205.417 33.4931ZM202.903 28.2633C203.356 28.5206 203.9 28.7167 204.535 28.8515C205.176 28.9851 205.8 28.9852 206.409 28.852C207.303 28.6564 207.77 28.3037 207.81 27.7939C207.847 27.2797 207.567 26.6953 206.971 26.0408L206.723 25.7695C206.127 25.1149 205.428 24.6249 204.626 24.2993C203.824 23.9738 202.973 23.9094 202.074 24.1062C201.465 24.2394 201.051 24.4669 200.832 24.7885C200.615 25.1046 200.546 25.4296 200.625 25.7635L202.903 28.2633ZM207.568 21.7186L214.184 20.2708L215.179 21.3625L210.441 22.3993L215.574 28.0319L213.696 28.4429L207.568 21.7186Z" fill="#343434"/>
<rect x="1.055" y="0.335819" width="395.036" height="62.404" rx="14.702" transform="matrix(0.976885 -0.213764 0.673568 0.739125 -324.281 177.673)" stroke="#DBD8E8" stroke-width="1.27843"/>
<path d="M53.1681 120.771L62.4764 118.734C62.6416 118.699 62.8365 118.701 63.0365 118.741C63.2365 118.781 63.4326 118.856 63.6001 118.958C63.7675 119.059 63.8988 119.183 63.9772 119.312C64.0557 119.441 64.0779 119.571 64.0409 119.684L62.5984 124.216C62.5748 124.292 62.5254 124.359 62.4531 124.413C62.3808 124.467 62.287 124.507 62.1771 124.531C62.0672 124.555 61.9433 124.563 61.8127 124.553C61.6821 124.543 61.5473 124.517 61.4161 124.474L53.5669 121.976C53.3701 121.914 53.1881 121.819 53.0441 121.704C52.9 121.589 52.8003 121.459 52.7576 121.33C52.7149 121.201 52.7312 121.079 52.8042 120.98C52.8773 120.88 53.0039 120.808 53.1681 120.771Z" fill="#8E8E8E"/>
<rect x="1.055" y="0.335819" width="395.036" height="62.404" rx="14.702" transform="matrix(0.976885 -0.213764 0.673568 0.739125 82.8552 88.5829)" stroke="#DBD8E8" stroke-width="1.27843"/>
<path d="M115.389 95.8852L116.179 96.7526L116.35 96.7152C117.675 96.4252 118.889 96.4326 119.991 96.7375C121.094 97.0385 122.001 97.5796 122.713 98.3609C123.428 99.1452 123.646 99.8391 123.367 100.442C123.089 101.042 122.288 101.487 120.962 101.777L120.792 101.814L121.679 102.788L120.313 103.086L119.426 102.113L119.255 102.15C117.925 102.441 116.711 102.436 115.612 102.134C114.513 101.832 113.606 101.289 112.891 100.505C112.179 99.7233 111.961 99.0314 112.236 98.4289C112.511 97.8264 113.313 97.3797 114.642 97.0888L114.813 97.0515L114.023 96.1841L115.389 95.8852ZM117.094 97.5319L116.923 97.5692L120.047 100.997L120.218 100.96C121.186 100.748 121.741 100.453 121.884 100.075C122.028 99.6932 121.848 99.2253 121.344 98.6717C120.845 98.1241 120.252 97.7446 119.567 97.533C118.886 97.3205 118.062 97.3201 117.094 97.5319ZM115.387 97.9055C114.419 98.1172 113.863 98.4141 113.719 98.7962C113.578 99.1773 113.761 99.6448 114.265 100.198C114.764 100.746 115.354 101.126 116.035 101.338C116.718 101.547 117.543 101.545 118.511 101.334L118.681 101.296L115.557 97.8681L115.387 97.9055ZM124.747 99.1555L124.612 99.0079C123.931 98.2604 123.693 97.5875 123.899 96.9891C124.102 96.3877 124.719 95.9739 125.752 95.748C126.785 95.522 127.826 95.5728 128.875 95.9003C129.921 96.2246 130.785 96.7606 131.466 97.508L131.601 97.6557C132.282 98.4031 132.521 99.0776 132.318 99.679C132.116 100.28 131.498 100.694 130.465 100.92C129.433 101.146 128.392 101.095 127.342 100.768C126.293 100.44 125.428 99.903 124.747 99.1555ZM125.986 98.6852L126.158 98.8743C126.601 99.3603 127.138 99.7244 127.768 99.9665C128.399 100.205 129.05 100.25 129.721 100.103C130.388 99.9576 130.751 99.69 130.811 99.3006C130.868 98.9082 130.674 98.469 130.232 97.983L130.059 97.7938C129.616 97.3078 129.078 96.9442 128.443 96.703C127.809 96.4618 127.159 96.4141 126.492 96.56C125.825 96.7059 125.463 96.9751 125.407 97.3675C125.35 97.76 125.543 98.1992 125.986 98.6852ZM136.888 101.651L130.677 94.8362L131.927 94.5627L132.571 95.1966L132.595 95.1913C132.586 94.9461 132.711 94.7104 132.968 94.4844C133.222 94.2554 133.602 94.0857 134.106 93.9753C135.004 93.7787 135.936 93.8515 136.901 94.1937C137.864 94.5328 138.674 95.0638 139.333 95.7866L139.467 95.9343C140.126 96.6571 140.395 97.3084 140.275 97.8881C140.155 98.4678 139.646 98.856 138.747 99.0526C138.243 99.1629 137.752 99.1965 137.274 99.1536C136.8 99.1097 136.363 99.0079 135.964 98.848L138.247 101.353L136.888 101.651ZM135.09 97.8883C135.424 98.0734 135.825 98.2163 136.292 98.317C136.761 98.4137 137.218 98.4131 137.666 98.3152C138.324 98.1711 138.668 97.9115 138.697 97.5363C138.729 97.1602 138.53 96.7353 138.098 96.2616L137.926 96.0724C137.494 95.5987 136.982 95.2423 136.388 95.0033C135.799 94.7633 135.175 94.7153 134.516 94.8594C134.065 94.9582 133.759 95.1249 133.597 95.3595C133.435 95.5941 133.382 95.8326 133.437 96.0751L135.09 97.8883ZM143.005 98.0102L138.544 93.1149L140.398 92.7092L145.274 95.5159C145.538 95.6721 145.709 95.7767 145.787 95.8298C145.864 95.8829 145.947 95.9442 146.035 96.0135L146.096 96.0002C146.049 95.9219 146.01 95.8529 145.98 95.7931C145.951 95.7293 145.908 95.5986 145.849 95.4011L144.843 91.7364L146.672 91.3361L151.134 96.2314L149.816 96.5197L146.84 93.2531C146.683 93.0808 146.571 92.9558 146.505 92.878C146.436 92.7971 146.376 92.7235 146.326 92.6571L146.277 92.6678C146.315 92.7369 146.354 92.8134 146.391 92.8974C146.43 92.9774 146.478 93.1127 146.534 93.3033L147.56 97.0134L146.456 97.2549L141.491 94.3903C141.261 94.2561 141.095 94.1541 140.992 94.0843C140.887 94.0114 140.797 93.9445 140.722 93.8834L140.661 93.8968C140.732 93.9587 140.803 94.0261 140.874 94.0991C140.946 94.172 141.054 94.2884 141.2 94.4484L144.206 97.7473L143.005 98.0102ZM151.224 94.485C150.756 93.9713 150.688 93.514 151.02 93.113C151.353 92.7081 151.967 92.4078 152.861 92.2121L154.495 91.8545L154.197 91.5269C153.953 91.2593 153.646 91.0664 153.275 90.9484C152.901 90.8272 152.444 90.8258 151.903 90.9441C151.363 91.0625 151.041 91.2177 150.938 91.4099C150.835 91.6021 150.871 91.7936 151.045 91.9843L151.078 92.0212L149.73 92.3161L149.697 92.2792C149.33 91.8762 149.277 91.4728 149.537 91.0689C149.8 90.661 150.37 90.361 151.248 90.1689C152.13 89.9758 152.941 89.9644 153.681 90.1344C154.422 90.3045 155.047 90.6695 155.557 91.2293L157.617 93.4901C157.799 93.69 157.994 93.8743 158.201 94.0429C158.41 94.2076 158.615 94.3471 158.817 94.4616L158.884 94.5354L157.561 94.825C157.434 94.7606 157.291 94.6737 157.133 94.5644C156.972 94.452 156.829 94.3377 156.704 94.2213C156.727 94.4559 156.611 94.6917 156.354 94.9287C156.097 95.1657 155.663 95.351 155.053 95.4844C154.379 95.6321 153.684 95.6272 152.97 95.4698C152.26 95.3116 151.678 94.9833 151.224 94.485ZM152.527 94.1169C152.763 94.3753 153.065 94.5545 153.434 94.6545C153.804 94.7505 154.238 94.7443 154.733 94.6358C155.234 94.5263 155.577 94.3202 155.764 94.0173C155.953 93.7104 155.929 93.4278 155.694 93.1694L155.122 92.5419L153.652 92.8635C153.026 93.0005 152.623 93.1791 152.444 93.3992C152.264 93.6193 152.292 93.8585 152.527 94.1169ZM160.896 91.2452L160.761 91.0976C160.08 90.3501 159.843 89.6772 160.048 89.0788C160.251 88.4774 160.869 88.0637 161.901 87.8377C162.934 87.6117 163.975 87.6625 165.024 87.99C166.071 88.3144 166.935 88.8503 167.616 89.5977L167.75 89.7454C168.431 90.4928 168.671 91.1673 168.468 91.7687C168.265 92.3702 167.647 92.7839 166.615 93.0099C165.582 93.2358 164.541 93.1851 163.492 92.8576C162.442 92.5301 161.577 91.9927 160.896 91.2452ZM162.135 90.7749L162.307 90.9641C162.75 91.4501 163.287 91.8141 163.917 92.0562C164.549 92.2943 165.2 92.34 165.87 92.1932C166.537 92.0473 166.9 91.7797 166.96 91.3903C167.017 90.9979 166.824 90.5587 166.381 90.0727L166.209 89.8835C165.766 89.3975 165.227 89.0339 164.593 88.7927C163.958 88.5515 163.308 88.5039 162.641 88.6497C161.975 88.7956 161.613 89.0648 161.556 89.4572C161.499 89.8497 161.692 90.2889 162.135 90.7749ZM170.146 89.1714L170.28 89.3191C170.703 89.7835 171.224 90.1271 171.841 90.3499C172.459 90.5726 173.107 90.6097 173.786 90.4612C174.465 90.3126 174.839 90.0518 174.908 89.6787C174.982 89.3047 174.807 88.8855 174.384 88.421L174.25 88.2734C173.835 87.8181 173.319 87.4791 172.701 87.2564C172.085 87.0297 171.437 86.9906 170.758 87.1392C170.079 87.2877 169.705 87.5505 169.634 87.9276C169.56 88.3016 169.731 88.7162 170.146 89.1714ZM170.366 86.2511C171.313 86.0438 172.271 86.1053 173.24 86.4356C174.207 86.7628 175.006 87.274 175.64 87.9691L175.774 88.1168C176.422 88.8273 176.635 89.4761 176.414 90.063C176.195 90.646 175.567 91.051 174.53 91.2778C173.457 91.5127 172.407 91.4712 171.381 91.1534C170.359 90.8346 169.393 90.1754 168.482 89.1758L168.238 88.9082C167.232 87.8039 166.719 86.885 166.699 86.1515C166.68 85.4141 167.246 84.842 168.397 84.4352C169.072 84.2026 169.454 84.0434 169.541 83.9578C169.633 83.8713 169.648 83.7832 169.586 83.6935L170.805 83.4267C171.104 83.8077 171.179 84.1363 171.031 84.4122C170.884 84.6842 170.373 84.9638 169.499 85.2511C168.581 85.5552 168.095 85.9289 168.041 86.3724C167.988 86.812 168.191 87.321 168.65 87.8994L168.717 87.8847C168.626 87.5173 168.713 87.1901 168.978 86.9034C169.245 86.6126 169.707 86.3952 170.366 86.2511ZM180.519 92.1034L179.773 91.2761C179.909 91.2758 180.055 91.2678 180.211 91.252C180.368 91.2363 180.513 91.2137 180.647 91.1844C180.964 91.115 181.171 90.9886 181.267 90.8052C181.367 90.621 181.305 90.2343 181.08 89.6452L181.052 89.6459L173.919 85.3741L175.297 85.0725L179.779 87.8325C179.957 87.9413 180.121 88.0473 180.274 88.1504C180.428 88.2496 180.572 88.349 180.707 88.4486L180.743 88.4406C180.686 88.3241 180.631 88.2051 180.579 88.0837C180.528 87.9583 180.477 87.8274 180.426 87.6911L179.163 84.2265L180.456 83.9436L182.537 90.1122C182.702 90.6037 182.705 91.0108 182.546 91.3334C182.393 91.6582 182.042 91.8807 181.494 92.0008C181.311 92.0408 181.139 92.0692 180.979 92.0858C180.822 92.1016 180.669 92.1074 180.519 92.1034ZM183.716 84.824C184.058 85.1993 184.42 85.4336 184.802 85.527C185.185 85.6204 185.63 85.6115 186.138 85.5003C186.561 85.4077 186.918 85.3019 187.21 85.1829C187.502 85.0598 187.804 84.9145 188.114 84.7469L188.829 85.5313C188.537 85.6874 188.22 85.8342 187.878 85.9719C187.536 86.1057 187.093 86.2321 186.548 86.3513C185.699 86.5373 184.927 86.5328 184.232 86.338C183.539 86.1392 182.925 85.746 182.389 85.1585L181.145 83.7928L182.505 83.4952L183.716 84.824ZM186.907 82.5318L191.369 87.4271L190.009 87.7247L185.548 82.8294L186.907 82.5318ZM190.581 84.7494L190.447 84.6018C189.771 83.8605 189.525 83.1913 189.707 82.5943C189.887 81.9942 190.467 81.587 191.446 81.3726C192.434 81.1564 193.396 81.208 194.33 81.5273C195.266 81.8427 196.075 82.3741 196.756 83.1216L197.122 83.523L191.585 84.7346L190.903 83.9872L195.087 83.0718L195.032 83.0118C194.721 82.6704 194.317 82.4119 193.821 82.2365C193.329 82.0601 192.784 82.0373 192.186 82.1681C191.552 82.3069 191.217 82.5738 191.182 82.9688C191.149 83.3599 191.353 83.7984 191.796 84.2844L191.964 84.469C192.404 84.9519 192.944 85.317 193.584 85.5644C194.224 85.8117 194.9 85.8576 195.611 85.7019C196.058 85.604 196.381 85.4523 196.579 85.2467C196.781 85.0402 196.896 84.8248 196.926 84.6006L198.3 84.9199C198.303 85.218 198.151 85.5188 197.842 85.8224C197.538 86.1252 197.042 86.3517 196.355 86.502C195.241 86.7458 194.17 86.7017 193.141 86.3698C192.113 86.0339 191.26 85.4938 190.581 84.7494ZM195.963 80.5502L197.323 80.2527L199.148 82.2551L202.374 81.5492L200.549 79.5468L201.909 79.2492L206.37 84.1445L205.01 84.4421L203.093 82.3382L199.867 83.044L201.784 85.148L200.424 85.4455L195.963 80.5502ZM208.12 83.7615L203.659 78.8662L205.013 78.57L207.678 81.4952C207.762 81.5875 207.859 81.6956 207.967 81.8195C208.075 81.9434 208.167 82.0524 208.243 82.1465L208.298 82.1345C208.284 82.0451 208.269 81.9452 208.251 81.8347C208.231 81.7212 208.219 81.6038 208.216 81.4828L208.293 77.8521L209.659 77.5532L214.12 82.4485L212.767 82.7447L210.101 79.8195C210.014 79.7242 209.917 79.6145 209.809 79.4906C209.7 79.3667 209.608 79.2577 209.533 79.1636L209.465 79.1783C209.485 79.2699 209.506 79.3724 209.526 79.486C209.548 79.5955 209.559 79.7093 209.56 79.8273L209.486 83.4626L208.12 83.7615ZM216.932 81.8333L215.45 82.1576L215.623 79.6349L217.061 79.4145L216.932 81.8333ZM220.145 81.1301L218.556 79.3861L216.745 79.7824L216.516 79.7717C215.724 79.9412 214.99 79.9358 214.314 79.7554C213.642 79.5742 213.094 79.2513 212.671 78.7868C212.233 78.307 212.1 77.8769 212.27 77.4965C212.44 77.1162 212.924 76.8388 213.721 76.6645L217.044 75.9372L221.505 80.8326L220.145 81.1301ZM216.011 79.041L217.871 78.634L216.365 76.9822L214.505 77.3892C214.054 77.488 213.809 77.6358 213.769 77.8327C213.729 78.0296 213.819 78.2496 214.041 78.4926C214.259 78.7325 214.53 78.9093 214.853 79.0231C215.174 79.1338 215.559 79.1397 216.011 79.041Z" fill="#8E8E8E"/>
<path d="M125.218 111.113L133.379 109.327L141.95 118.732L140.012 119.156L132.507 110.92L127.948 111.917L131.927 116.733C132.945 117.962 133.53 118.934 133.684 119.65C133.833 120.361 133.342 120.84 132.209 121.088C132.061 121.12 131.894 121.146 131.708 121.167C131.531 121.19 131.34 121.198 131.136 121.191L130 119.944C130.162 119.95 130.303 119.948 130.423 119.937C130.545 119.921 130.663 119.9 130.776 119.875C131.34 119.752 131.552 119.468 131.413 119.023C131.274 118.578 130.797 117.864 129.982 116.88L125.218 111.113ZM138.384 111.447L140.262 111.036L142.764 113.781L145.555 113.17L146.55 114.262L143.758 114.873L146.39 117.76L144.511 118.171L138.384 111.447ZM145.244 114.098L145.056 113.892C144.122 112.867 143.784 111.946 144.044 111.13C144.3 110.31 145.122 109.748 146.511 109.444C147.9 109.14 149.3 109.216 150.712 109.671C152.125 110.121 153.299 110.859 154.233 111.883L154.422 112.09C155.359 113.119 155.7 114.044 155.445 114.865C155.191 115.679 154.369 116.239 152.98 116.543C151.592 116.847 150.191 116.773 148.777 116.324C147.36 115.869 146.182 115.128 145.244 114.098ZM146.953 113.445L147.194 113.71C147.806 114.382 148.531 114.885 149.367 115.218C150.209 115.55 151.071 115.62 151.953 115.427C152.836 115.234 153.305 114.873 153.363 114.344C153.42 113.815 153.142 113.215 152.53 112.543L152.289 112.278C151.673 111.602 150.943 111.1 150.099 110.774C149.257 110.441 148.397 110.371 147.521 110.563C146.644 110.755 146.178 111.115 146.12 111.644C146.059 112.169 146.337 112.769 146.953 113.445ZM157.683 111.276L157.871 111.482C158.464 112.133 159.182 112.613 160.025 112.925C160.871 113.23 161.754 113.282 162.676 113.081C163.598 112.879 164.106 112.522 164.2 112.011C164.29 111.496 164.039 110.913 163.446 110.262L163.258 110.056C162.677 109.418 161.967 108.946 161.127 108.639C160.288 108.332 159.407 108.28 158.485 108.482C157.563 108.683 157.052 109.04 156.953 109.553C156.859 110.064 157.102 110.638 157.683 111.276ZM157.973 107.245C159.265 106.963 160.568 107.052 161.883 107.513C163.199 107.969 164.295 108.677 165.17 109.637L165.359 109.844C166.257 110.83 166.558 111.725 166.259 112.529C165.967 113.332 165.112 113.888 163.695 114.198C162.226 114.519 160.793 114.464 159.395 114.031C157.999 113.593 156.66 112.67 155.376 111.261L155.023 110.874C153.614 109.328 152.891 108.048 152.854 107.033C152.813 106.014 153.593 105.226 155.195 104.669C156.111 104.355 156.628 104.136 156.747 104.012C156.866 103.888 156.88 103.761 156.789 103.631L158.462 103.265C158.882 103.793 158.99 104.249 158.788 104.634C158.588 105.014 157.897 105.398 156.714 105.785C155.454 106.201 154.789 106.718 154.719 107.338C154.645 107.953 154.943 108.681 155.613 109.521L155.701 109.494C155.579 108.993 155.699 108.544 156.059 108.145C156.424 107.745 157.062 107.445 157.973 107.245ZM167.793 110.706C167.153 110.004 167.053 109.378 167.493 108.827C167.939 108.275 168.771 107.865 169.989 107.599L172.234 107.108L171.828 106.662C171.487 106.287 171.061 106.019 170.552 105.857C170.048 105.693 169.431 105.691 168.703 105.851C167.969 106.011 167.53 106.223 167.388 106.487C167.248 106.745 167.297 107.005 167.537 107.268L167.596 107.332L165.743 107.738L165.678 107.667C165.172 107.111 165.099 106.559 165.459 106.01C165.821 105.456 166.605 105.047 167.812 104.783C169.013 104.52 170.121 104.507 171.136 104.745C172.147 104.978 173.006 105.482 173.712 106.257L176.508 109.326C176.759 109.601 177.03 109.857 177.32 110.093C177.612 110.324 177.9 110.519 178.182 110.679L178.276 110.783L176.449 111.182C176.27 111.098 176.069 110.979 175.848 110.826C175.628 110.667 175.433 110.509 175.261 110.35C175.296 110.673 175.137 110.997 174.785 111.322C174.432 111.647 173.841 111.9 173.01 112.082C172.082 112.285 171.139 112.28 170.179 112.066C169.216 111.848 168.421 111.395 167.793 110.706ZM169.583 110.198C169.908 110.555 170.325 110.803 170.832 110.94C171.335 111.072 171.925 111.065 172.603 110.916C173.28 110.768 173.743 110.486 173.992 110.07C174.241 109.654 174.2 109.265 173.871 108.903L173.088 108.044L171.107 108.478C170.253 108.664 169.705 108.909 169.46 109.21C169.216 109.511 169.257 109.841 169.583 110.198ZM181.768 110.019L179.736 110.463L179.986 106.984L181.956 106.685L181.768 110.019ZM186.208 109.047L184.018 106.644L181.525 107.19L181.198 107.168C180.105 107.407 179.092 107.404 178.159 107.159C177.222 106.91 176.463 106.466 175.882 105.829C175.285 105.175 175.105 104.587 175.339 104.065C175.574 103.544 176.238 103.164 177.331 102.924L181.958 101.912L188.086 108.636L186.208 109.047ZM180.504 106.181L183.082 105.617L181.004 103.337L178.426 103.901C177.8 104.038 177.459 104.244 177.403 104.52C177.343 104.792 177.464 105.093 177.766 105.425C178.072 105.76 178.446 106.007 178.889 106.163C179.334 106.313 179.872 106.32 180.504 106.181Z" fill="#8E8E8E"/>
<rect x="1.055" y="0.335819" width="395.888" height="60.0864" rx="14.702" transform="matrix(0.976885 -0.213764 0.673568 0.739125 -268.857 240.135)" stroke="#DBD8E8" stroke-width="1.27843"/>
<rect x="1.055" y="0.335819" width="24.2902" height="24.2902" rx="4.47452" transform="matrix(0.976885 -0.213764 0.673568 0.739125 91.2203 177.209)" stroke="#4C3B8A" stroke-width="1.27843"/>
<path d="M115.347 178.685L116.23 187.915C116.262 188.254 116.031 188.511 115.613 188.602C115.242 188.683 114.768 188.625 114.313 188.442L107.017 185.517C106.434 185.284 106.072 184.832 106.193 184.49C106.309 184.156 106.895 184.022 107.483 184.195L112.858 185.776L112.998 178.202C113.006 177.825 113.534 177.608 114.145 177.734C114.78 177.865 115.309 178.282 115.347 178.685Z" fill="#4C3B8A"/>
<path d="M166.541 179.502L164.24 176.977C163.436 176.095 163.115 175.315 163.276 174.638C163.433 173.957 164.1 173.488 165.276 173.231C166.442 172.976 167.595 173.044 168.737 173.437C169.878 173.829 170.853 174.468 171.66 175.354L173.961 177.878C174.768 178.764 175.089 179.546 174.923 180.224C174.757 180.903 174.091 181.369 172.925 181.625C171.746 181.878 170.59 181.81 169.456 181.421C168.32 181.027 167.348 180.388 166.541 179.502ZM168.334 179.216C168.832 179.762 169.396 180.17 170.028 180.439C170.659 180.708 171.319 180.767 172.007 180.617C172.694 180.466 173.045 180.186 173.057 179.776C173.075 179.365 172.834 178.886 172.337 178.34L169.874 175.638C169.38 175.095 168.814 174.69 168.178 174.422C167.547 174.153 166.887 174.094 166.199 174.244C165.511 174.395 165.161 174.675 165.149 175.085C165.136 175.495 165.377 175.971 165.871 176.514L168.334 179.216Z" fill="#8E8E8E"/>
<path d="M286.37 152.537L286.208 152.36C284.93 150.957 284.449 149.716 284.765 148.638C285.078 147.556 286.251 146.792 288.286 146.347L288.461 146.308L289.39 147.327L289.214 147.366C287.76 147.684 286.873 148.219 286.552 148.971C286.227 149.719 286.635 150.719 287.775 151.97L288.074 152.23C288.918 153.157 289.728 153.757 290.504 154.03C291.284 154.302 292.02 154.362 292.713 154.21C293.411 154.058 293.805 153.79 293.895 153.407C293.99 153.023 293.781 152.551 293.27 151.99C292.769 151.44 292.195 151.054 291.548 150.833C290.898 150.607 290.225 150.571 289.527 150.724C288.883 150.865 288.462 151.141 288.263 151.552C288.065 151.958 288.212 152.43 288.703 152.969L288.118 153.097C287.391 152.3 287.102 151.584 287.249 150.95C287.398 150.311 287.99 149.878 289.024 149.652C290.073 149.422 291.134 149.489 292.208 149.852C293.286 150.213 294.197 150.802 294.941 151.618C295.684 152.433 295.936 153.175 295.696 153.843C295.458 154.506 294.77 154.962 293.634 155.211C292.517 155.455 291.311 155.385 290.018 154.999C288.729 154.613 287.513 153.792 286.37 152.537ZM293.17 148.499C292.436 147.694 292.192 146.964 292.437 146.308C292.687 145.652 293.38 145.199 294.517 144.95C295.634 144.706 296.837 144.777 298.125 145.163C299.419 145.549 300.637 146.369 301.781 147.624L301.942 147.801C303.167 149.145 303.619 150.354 303.3 151.429C302.982 152.499 301.811 153.262 299.787 153.718L299.611 153.757L298.683 152.738L298.851 152.701C300.305 152.383 301.193 151.852 301.516 151.109C301.836 150.361 301.45 149.39 300.361 148.194L300.077 147.93C299.249 147.022 298.444 146.428 297.662 146.148C296.877 145.864 296.133 145.798 295.43 145.952C294.738 146.104 294.34 146.368 294.239 146.744C294.142 147.12 294.342 147.58 294.84 148.127C295.331 148.666 295.894 149.043 296.529 149.258C297.169 149.472 297.838 149.503 298.536 149.35C299.184 149.208 299.611 148.938 299.815 148.539C300.021 148.135 299.885 147.671 299.407 147.147L299.963 147.026C300.663 147.793 300.948 148.495 300.818 149.129C300.686 149.761 300.095 150.191 299.046 150.42C298.002 150.649 296.944 150.586 295.872 150.232C294.8 149.877 293.899 149.3 293.17 148.499ZM301.995 146.568C301.261 145.763 301.017 145.033 301.262 144.377C301.512 143.72 302.205 143.268 303.342 143.019C304.459 142.774 305.662 142.846 306.951 143.232C308.244 143.618 309.462 144.438 310.606 145.693L310.768 145.87C311.992 147.213 312.444 148.423 312.125 149.498C311.807 150.568 310.636 151.331 308.612 151.787L308.436 151.826L307.508 150.807L307.676 150.77C309.13 150.452 310.018 149.921 310.341 149.177C310.661 148.43 310.276 147.458 309.186 146.263L308.902 145.999C308.074 145.091 307.27 144.497 306.487 144.217C305.702 143.933 304.958 143.867 304.255 144.021C303.563 144.173 303.165 144.437 303.064 144.813C302.967 145.188 303.167 145.649 303.665 146.196C304.156 146.734 304.719 147.111 305.354 147.327C305.994 147.541 306.663 147.572 307.361 147.419C308.009 147.277 308.436 147.007 308.64 146.608C308.846 146.204 308.71 145.74 308.232 145.216L308.788 145.094C309.488 145.862 309.773 146.563 309.643 147.198C309.511 147.829 308.92 148.26 307.871 148.489C306.827 148.718 305.769 148.655 304.697 148.301C303.625 147.946 302.725 147.369 301.995 146.568ZM314.464 143.839C313.731 143.035 313.487 142.304 313.732 141.649C313.981 140.992 314.675 140.539 315.811 140.29C316.929 140.046 318.131 140.117 319.42 140.503C320.713 140.889 321.932 141.709 323.075 142.964L323.237 143.141C324.461 144.485 324.914 145.694 324.594 146.769C324.276 147.839 323.105 148.602 321.081 149.059L320.905 149.097L319.977 148.078L320.145 148.041C321.599 147.723 322.487 147.192 322.81 146.449C323.13 145.702 322.745 144.73 321.655 143.534L321.371 143.271C320.544 142.363 319.739 141.768 318.957 141.488C318.171 141.204 317.427 141.139 316.725 141.292C316.032 141.444 315.635 141.708 315.533 142.084C315.436 142.46 315.637 142.921 316.135 143.467C316.626 144.006 317.189 144.383 317.824 144.598C318.464 144.812 319.132 144.843 319.83 144.69C320.479 144.548 320.905 144.278 321.109 143.879C321.315 143.476 321.179 143.012 320.701 142.488L321.258 142.366C321.957 143.134 322.242 143.835 322.113 144.47C321.98 145.101 321.389 145.531 320.34 145.761C319.296 145.989 318.238 145.926 317.167 145.572C316.095 145.218 315.194 144.64 314.464 143.839ZM323.289 141.908C322.556 141.103 322.312 140.373 322.557 139.717C322.807 139.061 323.5 138.608 324.637 138.359C325.754 138.115 326.957 138.186 328.245 138.572C329.538 138.958 330.757 139.778 331.901 141.033L332.062 141.21C333.286 142.554 333.739 143.763 333.419 144.838C333.101 145.908 331.93 146.671 329.906 147.127L329.731 147.166L328.802 146.147L328.97 146.11C330.424 145.792 331.313 145.261 331.636 144.518C331.955 143.77 331.57 142.799 330.48 141.603L330.196 141.34C329.369 140.432 328.564 139.837 327.782 139.557C326.996 139.273 326.252 139.208 325.55 139.361C324.857 139.513 324.46 139.777 324.358 140.153C324.261 140.529 324.462 140.99 324.96 141.536C325.451 142.075 326.014 142.452 326.649 142.667C327.289 142.881 327.957 142.912 328.655 142.759C329.304 142.617 329.73 142.347 329.935 141.948C330.14 141.544 330.004 141.081 329.526 140.556L330.083 140.435C330.782 141.202 331.067 141.904 330.938 142.539C330.805 143.17 330.214 143.6 329.165 143.83C328.121 144.058 327.063 143.995 325.992 143.641C324.92 143.287 324.019 142.709 323.289 141.908ZM332.114 139.977C331.381 139.172 331.137 138.442 331.382 137.786C331.632 137.13 332.325 136.677 333.462 136.428C334.579 136.184 335.782 136.255 337.07 136.641C338.363 137.027 339.582 137.847 340.726 139.102L340.887 139.279C342.111 140.623 342.564 141.832 342.245 142.907C341.927 143.977 340.755 144.74 338.731 145.196L338.556 145.235L337.627 144.216L337.796 144.179C339.249 143.861 340.138 143.33 340.461 142.587C340.78 141.839 340.395 140.868 339.305 139.672L339.021 139.408C338.194 138.5 337.389 137.906 336.607 137.626C335.821 137.342 335.077 137.276 334.375 137.43C333.682 137.582 333.285 137.846 333.183 138.222C333.087 138.598 333.287 139.058 333.785 139.605C334.276 140.144 334.839 140.521 335.474 140.736C336.114 140.95 336.783 140.981 337.48 140.828C338.129 140.686 338.556 140.416 338.76 140.017C338.965 139.613 338.829 139.149 338.352 138.625L338.908 138.504C339.607 139.271 339.892 139.973 339.763 140.608C339.63 141.239 339.039 141.669 337.99 141.899C336.947 142.127 335.889 142.064 334.817 141.71C333.745 141.356 332.844 140.778 332.114 139.977Z" fill="#8E8E8E"/>
<path d="M145.015 155.757L144.622 155.325C143.465 154.055 143.021 152.977 143.289 152.09C143.559 151.199 144.387 150.601 145.773 150.298C147.139 149.999 148.445 150.03 149.692 150.39C150.936 150.747 151.923 151.31 152.653 152.08L152.729 152.163L151.053 152.529L150.96 152.437C150.502 151.953 149.904 151.599 149.167 151.375C148.436 151.15 147.616 151.137 146.709 151.335C145.806 151.533 145.287 151.932 145.15 152.533C145.013 153.134 145.387 153.92 146.271 154.891L146.776 155.444C147.61 156.36 148.541 157.008 149.567 157.39C150.596 157.767 151.568 157.855 152.485 157.655C153.354 157.465 153.857 157.16 153.995 156.74C154.135 156.315 154.013 155.857 153.629 155.366L153.556 155.276L155.232 154.909L155.312 154.997C155.929 155.783 156.11 156.521 155.854 157.21C155.598 157.899 154.788 158.393 153.422 158.692C152.031 158.996 150.571 158.899 149.041 158.402C147.511 157.904 146.169 157.023 145.015 155.757ZM153.475 152.644L152.617 151.702L159.503 150.196L160.361 151.137L157.734 151.712L162.169 156.578L160.544 156.934L156.109 152.067L153.475 152.644ZM163.04 153.008L162.878 152.831C162.071 151.945 161.785 151.146 162.021 150.435C162.261 149.723 162.988 149.234 164.203 148.968C165.423 148.701 166.651 148.762 167.889 149.151C169.127 149.54 170.15 150.177 170.957 151.063L171.118 151.24C171.929 152.129 172.217 152.93 171.981 153.641C171.746 154.352 171.018 154.841 169.799 155.108C168.584 155.374 167.355 155.313 166.112 154.925C164.875 154.536 163.85 153.897 163.04 153.008ZM164.514 152.439L164.731 152.677C165.259 153.257 165.891 153.688 166.628 153.969C167.369 154.25 168.13 154.304 168.911 154.134C169.691 153.963 170.113 153.649 170.177 153.192C170.245 152.735 170.016 152.216 169.488 151.637L169.271 151.399C168.743 150.819 168.108 150.389 167.367 150.109C166.625 149.828 165.867 149.773 165.091 149.942C164.315 150.112 163.893 150.426 163.825 150.884C163.756 151.341 163.986 151.86 164.514 152.439ZM175.304 153.704L170.011 147.896L171.621 147.544L174.754 150.982C174.855 151.093 174.97 151.223 175.1 151.371C175.23 151.52 175.339 151.649 175.426 151.758L175.505 151.748C175.48 151.638 175.457 151.519 175.434 151.391C175.413 151.259 175.4 151.12 175.397 150.974L175.47 146.702L177.102 146.345L182.395 152.153L180.785 152.505L177.651 149.067C177.547 148.952 177.43 148.821 177.301 148.672C177.171 148.523 177.058 148.393 176.962 148.281L176.882 148.299C176.906 148.409 176.931 148.529 176.957 148.661C176.983 148.792 176.998 148.931 177.002 149.076L176.928 153.349L175.304 153.704ZM184.466 151.699L179.173 145.891L181.383 145.408L187.152 148.714C187.461 148.899 187.662 149.023 187.755 149.087C187.848 149.151 187.947 149.224 188.052 149.308L188.125 149.292C188.069 149.198 188.023 149.115 187.987 149.043C187.952 148.966 187.897 148.81 187.823 148.574L186.659 144.253L188.839 143.776L194.132 149.584L192.566 149.927L189.044 146.062C188.856 145.856 188.722 145.706 188.643 145.612C188.56 145.515 188.487 145.425 188.423 145.342L188.364 145.354C188.411 145.437 188.456 145.529 188.501 145.63C188.551 145.73 188.61 145.894 188.678 146.122L189.881 150.514L188.578 150.8L182.677 147.416C182.41 147.257 182.213 147.134 182.086 147.047C181.96 146.959 181.847 146.878 181.749 146.802L181.691 146.815C181.774 146.894 181.859 146.977 181.945 147.065C182.03 147.152 182.16 147.292 182.335 147.484L185.893 151.387L184.466 151.699ZM193.189 146.411L193.027 146.233C192.22 145.347 191.934 144.549 192.169 143.838C192.41 143.126 193.137 142.637 194.352 142.371C195.572 142.104 196.8 142.165 198.038 142.554C199.276 142.942 200.299 143.58 201.106 144.466L201.267 144.643C202.078 145.532 202.366 146.333 202.13 147.044C201.895 147.755 201.167 148.244 199.947 148.511C198.733 148.777 197.504 148.716 196.261 148.328C195.023 147.939 193.999 147.3 193.189 146.411ZM194.663 145.842L194.88 146.08C195.408 146.66 196.04 147.09 196.777 147.372C197.518 147.652 198.279 147.707 199.059 147.536C199.84 147.366 200.262 147.052 200.326 146.595C200.394 146.138 200.165 145.619 199.636 145.039L199.419 144.801C198.891 144.222 198.257 143.792 197.515 143.511C196.774 143.231 196.016 143.175 195.24 143.345C194.464 143.515 194.042 143.829 193.974 144.286C193.905 144.744 194.135 145.263 194.663 145.842ZM202.438 144.386L202.277 144.209C201.466 143.32 201.168 142.524 201.382 141.822C201.593 141.116 202.309 140.63 203.528 140.363C204.67 140.113 205.728 140.134 206.701 140.425C207.677 140.712 208.417 141.124 208.923 141.659L208.976 141.708L207.395 142.053L207.355 142.009C207.082 141.71 206.69 141.486 206.18 141.336C205.666 141.183 205.072 141.18 204.399 141.328C203.618 141.498 203.212 141.813 203.179 142.272C203.147 142.731 203.391 143.246 203.913 143.818L204.129 144.056C204.651 144.628 205.268 145.062 205.982 145.357C206.701 145.652 207.453 145.713 208.239 145.541C208.926 145.391 209.321 145.171 209.421 144.884C209.523 144.591 209.44 144.298 209.171 144.002L209.136 143.964L210.709 143.619L210.744 143.658C211.235 144.197 211.374 144.744 211.161 145.3C210.944 145.852 210.265 146.253 209.124 146.503C207.904 146.77 206.688 146.706 205.474 146.312C204.261 145.918 203.249 145.276 202.438 144.386ZM208.723 140.554L207.865 139.613L214.751 138.106L215.609 139.047L212.982 139.622L217.417 144.489L215.793 144.844L211.357 139.978L208.723 140.554ZM217.634 137.475L219.411 139.424L221.672 138.929C222.642 138.717 223.542 138.728 224.371 138.963C225.2 139.193 225.886 139.605 226.428 140.2C226.973 140.797 227.145 141.327 226.944 141.787C226.744 142.242 226.159 142.576 225.188 142.788L221.303 143.639L216.01 137.831L217.634 137.475ZM222.367 139.866L220.238 140.332L222.1 142.375L224.229 141.909C224.781 141.789 225.083 141.61 225.135 141.372C225.19 141.13 225.077 140.856 224.798 140.549C224.522 140.247 224.186 140.028 223.788 139.894C223.392 139.755 222.919 139.746 222.367 139.866ZM239.587 142.533C238.161 142.451 236.614 142.064 234.946 141.37C233.282 140.681 231.803 139.625 230.508 138.204L230.457 138.149C229.149 136.713 228.524 135.469 228.582 134.416C228.645 133.361 229.098 132.538 229.94 131.947L230.924 133.027C230.514 133.431 230.33 134.015 230.372 134.781C230.419 135.545 230.994 136.533 232.098 137.744L232.219 137.876C233.305 139.069 234.416 139.935 235.552 140.474C236.684 141.01 237.701 141.336 238.603 141.453L239.587 142.533ZM235.748 137.098L235.587 136.92C234.779 136.034 234.493 135.236 234.729 134.525C234.969 133.813 235.697 133.324 236.912 133.058C238.131 132.791 239.36 132.852 240.598 133.241C241.836 133.629 242.858 134.267 243.665 135.153L243.827 135.33C244.638 136.219 244.925 137.02 244.69 137.731C244.454 138.442 243.727 138.931 242.507 139.198C241.292 139.464 240.064 139.403 238.821 139.015C237.583 138.626 236.559 137.987 235.748 137.098ZM237.223 136.529L237.44 136.767C237.968 137.347 238.6 137.777 239.336 138.059C240.078 138.339 240.838 138.394 241.619 138.223C242.4 138.053 242.822 137.739 242.885 137.282C242.954 136.825 242.724 136.306 242.196 135.726L241.979 135.488C241.451 134.909 240.816 134.479 240.075 134.198C239.334 133.918 238.575 133.862 237.8 134.032C237.024 134.202 236.602 134.516 236.533 134.973C236.465 135.431 236.694 135.95 237.223 136.529ZM242.765 133.105L241.907 132.164L248.793 130.657L249.651 131.598L247.024 132.173L251.459 137.04L249.834 137.395L245.399 132.529L242.765 133.105ZM253.741 130.703L252.884 129.762L259.77 128.255L260.627 129.196L258 129.771L262.435 134.638L260.811 134.993L256.376 130.127L253.741 130.703ZM262.653 127.624L264.429 129.573L266.69 129.078C267.661 128.866 268.56 128.877 269.389 129.112C270.219 129.342 270.905 129.754 271.446 130.349C271.991 130.946 272.163 131.476 271.962 131.936C271.763 132.391 271.178 132.725 270.207 132.937L266.321 133.788L261.028 127.98L262.653 127.624ZM267.386 130.015L265.256 130.481L267.118 132.524L269.248 132.058C269.799 131.938 270.101 131.759 270.154 131.521C270.208 131.279 270.096 131.005 269.817 130.698C269.541 130.396 269.204 130.177 268.807 130.043C268.411 129.904 267.937 129.894 267.386 130.015ZM274.158 132.073L268.866 126.265L270.49 125.909L275.783 131.717L274.158 132.073ZM274.839 128.544L274.678 128.366C273.867 127.477 273.569 126.681 273.783 125.979C273.994 125.273 274.71 124.787 275.929 124.52C277.071 124.27 278.129 124.291 279.102 124.582C280.078 124.869 280.818 125.281 281.324 125.816L281.377 125.865L279.796 126.21L279.756 126.166C279.483 125.867 279.092 125.643 278.581 125.493C278.067 125.34 277.473 125.337 276.8 125.485C276.019 125.656 275.613 125.97 275.58 126.429C275.548 126.888 275.792 127.403 276.314 127.975L276.531 128.213C277.052 128.785 277.67 129.219 278.383 129.514C279.102 129.809 279.854 129.87 280.64 129.698C281.328 129.548 281.722 129.328 281.822 129.041C281.925 128.748 281.841 128.455 281.572 128.159L281.537 128.121L283.11 127.776L283.145 127.815C283.636 128.354 283.775 128.901 283.562 129.457C283.346 130.009 282.666 130.41 281.525 130.66C280.305 130.927 279.089 130.863 277.875 130.469C276.662 130.075 275.65 129.433 274.839 128.544ZM285.839 128.72C285.644 128.506 285.57 128.303 285.618 128.111C285.667 127.914 285.864 127.778 286.211 127.702C286.562 127.625 286.901 127.644 287.228 127.758C287.556 127.868 287.817 128.03 288.013 128.244C288.211 128.462 288.286 128.669 288.237 128.866C288.189 129.058 287.99 129.192 287.639 129.269C287.292 129.345 286.955 129.328 286.627 129.218C286.3 129.104 286.038 128.937 285.839 128.72ZM295.111 123.609L290.662 124.583L289.754 123.586L294.137 122.627C294.888 122.463 295.32 122.218 295.433 121.892C295.543 121.563 295.397 121.178 294.997 120.739C294.64 120.348 294.172 120.052 293.591 119.851C293.012 119.646 292.335 119.628 291.559 119.798L289.971 120.146L296.404 127.205L294.809 127.554L287.462 119.492L290.719 118.78C291.929 118.515 293.057 118.534 294.105 118.836C295.157 119.137 296.01 119.645 296.663 120.361C297.366 121.133 297.586 121.802 297.324 122.368C297.064 122.93 296.326 123.344 295.111 123.609ZM297.477 124.154L298.315 125.073L292.292 126.391L291.455 125.472L297.477 124.154ZM305.362 126.075L302.01 116.309L303.481 115.987L306.833 125.753L305.362 126.075ZM309.486 117.376L315.208 116.124L316.066 117.065L311.968 117.962L316.403 122.828L314.779 123.184L309.486 117.376ZM318.745 118.936L318.584 118.759C317.776 117.873 317.491 117.074 317.726 116.363C317.966 115.651 318.694 115.162 319.909 114.896C321.128 114.629 322.357 114.69 323.595 115.079C324.833 115.468 325.855 116.105 326.662 116.991L326.824 117.168C327.635 118.058 327.922 118.858 327.687 119.569C327.451 120.28 326.724 120.769 325.504 121.036C324.289 121.302 323.061 121.241 321.818 120.853C320.58 120.465 319.556 119.825 318.745 118.936ZM320.22 118.368L320.437 118.606C320.965 119.185 321.597 119.616 322.333 119.897C323.075 120.178 323.836 120.233 324.616 120.062C325.397 119.891 325.819 119.577 325.882 119.121C325.951 118.663 325.721 118.144 325.193 117.565L324.976 117.327C324.448 116.747 323.813 116.317 323.072 116.037C322.331 115.756 321.572 115.701 320.797 115.871C320.021 116.04 319.599 116.354 319.53 116.812C319.462 117.269 319.692 117.788 320.22 118.368ZM338.782 119.725L337.42 118.23L331.544 119.515L332.906 121.01L331.413 121.337L329.193 118.901L338.055 116.962L340.275 119.398L338.782 119.725ZM328.55 114.333L330.206 116.295C330.665 116.837 331.001 117.27 331.215 117.595C331.43 117.92 331.578 118.215 331.662 118.48L330.016 118.84C330.017 118.623 329.911 118.328 329.699 117.953C329.491 117.578 329.103 117.052 328.533 116.376L326.273 113.703L332.485 112.343L337.778 118.151L336.154 118.507L331.719 113.64L328.55 114.333ZM341.588 120.213L340.604 119.133C341.026 118.735 341.205 118.149 341.143 117.375C341.083 116.596 340.509 115.61 339.423 114.418L339.302 114.285C338.198 113.074 337.082 112.205 335.951 111.678C334.821 111.15 333.812 110.827 332.925 110.706L331.941 109.627C333.361 109.715 334.898 110.098 336.552 110.776C338.21 111.453 339.697 112.514 341.013 113.957L341.063 114.012C342.358 115.433 342.974 116.678 342.911 117.745C342.853 118.812 342.412 119.634 341.588 120.213Z" fill="#8E8E8E"/>
<rect width="396.314" height="5.11374" rx="2.55687" transform="matrix(0.976885 -0.213764 0.673568 0.739125 177.202 192.125)" fill="#DBD8E8"/>
<circle cx="10.2275" cy="10.2275" r="8.94904" transform="matrix(0.976885 -0.213764 0.673568 0.739125 172.035 186.456)" fill="white" stroke="#4C3B8A" stroke-width="2.55687"/>
<circle cx="10.2275" cy="10.2275" r="8.94904" transform="matrix(0.976885 -0.213764 0.673568 0.739125 291.928 160.221)" fill="white" stroke="#4C3B8A" stroke-width="2.55687"/>
<rect width="397.167" height="51.1374" rx="25.5687" transform="matrix(0.976885 -0.213764 0.673568 0.739125 -213.544 300.297)" fill="#F2EFF8"/>
<rect x="1.055" y="0.335819" width="395.888" height="49.8589" rx="24.9295" transform="matrix(0.976885 -0.213764 0.673568 0.739125 194.222 211.337)" stroke="#4C3B8A" stroke-width="1.27843"/>
<path d="M318.815 206.765L318.432 206.344C317.245 205.041 316.806 203.951 317.118 203.073C317.429 202.194 318.326 201.593 319.809 201.268C321.229 200.958 322.584 200.978 323.875 201.328C325.171 201.678 326.211 202.267 326.996 203.096L327.127 203.24L324.858 203.736L324.695 203.566C324.264 203.107 323.734 202.785 323.103 202.6C322.477 202.413 321.771 202.406 320.986 202.578C320.185 202.753 319.721 203.092 319.594 203.593C319.466 204.095 319.795 204.778 320.582 205.641L321.319 206.45C322.069 207.273 322.873 207.841 323.731 208.153C324.59 208.466 325.438 208.53 326.277 208.346C327.038 208.18 327.477 207.913 327.594 207.547C327.71 207.181 327.582 206.773 327.207 206.323L327.073 206.167L329.342 205.67L329.476 205.827C330.179 206.656 330.372 207.424 330.056 208.13C329.737 208.833 328.868 209.34 327.448 209.651C325.956 209.977 324.439 209.902 322.898 209.425C321.353 208.944 319.993 208.057 318.815 206.765ZM332.739 208.3L327.436 202.481L330.385 201.836L335.193 204.675C335.507 204.872 335.71 205.005 335.802 205.074C335.89 205.138 335.987 205.212 336.092 205.296L336.158 205.281C336.097 205.188 336.048 205.106 336.012 205.034C335.972 204.959 335.906 204.796 335.813 204.547L334.695 200.893L337.652 200.246L342.955 206.065L340.803 206.536L337.584 203.003C337.386 202.786 337.242 202.625 337.152 202.52C337.063 202.416 336.987 202.32 336.924 202.231L336.866 202.244C336.916 202.331 336.966 202.428 337.018 202.536C337.07 202.645 337.139 202.82 337.225 203.062L338.469 207.047L336.881 207.394L331.634 204.266C331.361 204.095 331.156 203.963 331.018 203.869C330.881 203.771 330.765 203.681 330.668 203.6L330.602 203.615C330.684 203.699 330.771 203.788 330.864 203.883C330.961 203.977 331.104 204.127 331.292 204.334L334.547 207.905L332.739 208.3ZM341.852 202.92L341.691 202.742C340.857 201.827 340.591 201.015 340.893 200.307C341.193 199.595 341.979 199.1 343.252 198.821C344.52 198.544 345.795 198.588 347.077 198.954C348.36 199.315 349.418 199.953 350.252 200.869L350.414 201.046C351.248 201.961 351.513 202.776 351.209 203.488C350.91 204.2 350.126 204.695 348.858 204.973C347.584 205.251 346.307 205.208 345.026 204.842C343.744 204.476 342.686 203.835 341.852 202.92ZM343.842 202.165L344.165 202.52C344.656 203.059 345.205 203.43 345.812 203.634C346.424 203.836 347.059 203.865 347.717 203.721C348.371 203.578 348.746 203.328 348.841 202.971C348.942 202.612 348.747 202.164 348.255 201.625L347.933 201.27C347.441 200.731 346.889 200.363 346.276 200.165C345.664 199.963 345.036 199.932 344.392 200.073C343.744 200.215 343.366 200.465 343.261 200.825C343.157 201.18 343.351 201.626 343.842 202.165ZM349.561 199.128L348.431 197.887L355.734 196.289L356.864 197.53L354.303 198.09L358.475 202.669L356.295 203.146L352.122 198.567L349.561 199.128ZM364.299 204.157L356.897 196.035L358.946 195.586L359.633 196.273L359.662 196.266C359.636 195.993 359.776 195.73 360.084 195.477C360.391 195.224 360.823 195.036 361.379 194.914C362.453 194.68 363.558 194.756 364.696 195.145C365.835 195.533 366.811 196.174 367.625 197.067L367.786 197.245C368.597 198.134 368.924 198.917 368.768 199.593C368.608 200.266 368.004 200.717 366.955 200.946C366.404 201.067 365.85 201.11 365.293 201.077C364.741 201.043 364.249 200.936 363.816 200.756L366.48 203.68L364.299 204.157ZM362.579 199.4C362.916 199.596 363.328 199.743 363.815 199.84C364.298 199.934 364.764 199.931 365.212 199.833C365.852 199.693 366.199 199.451 366.254 199.107C366.31 198.758 366.106 198.329 365.642 197.82L365.319 197.466C364.858 196.96 364.344 196.601 363.776 196.389C363.213 196.176 362.607 196.14 361.959 196.282C361.495 196.383 361.183 196.551 361.022 196.786C360.858 197.016 360.803 197.258 360.859 197.512L362.579 199.4ZM368.84 197.014L368.678 196.837C367.858 195.936 367.585 195.13 367.862 194.419C368.135 193.704 368.876 193.214 370.086 192.949C371.301 192.684 372.486 192.732 373.641 193.095C374.793 193.453 375.781 194.085 376.605 194.989L377.14 195.576L370.569 197.014L369.636 195.99L374.048 195.024L373.962 194.93C373.664 194.597 373.268 194.352 372.774 194.194C372.281 194.032 371.739 194.016 371.149 194.145C370.519 194.282 370.179 194.541 370.126 194.92C370.07 195.295 370.281 195.745 370.759 196.269L371.082 196.623C371.552 197.14 372.103 197.513 372.734 197.742C373.366 197.967 374.033 198.003 374.735 197.849C375.204 197.747 375.538 197.58 375.738 197.351C375.943 197.12 376.058 196.88 376.083 196.631L378.318 197.052C378.373 197.465 378.194 197.856 377.781 198.225C377.374 198.593 376.74 198.871 375.882 199.059C374.535 199.354 373.23 199.312 371.967 198.933C370.703 198.554 369.661 197.915 368.84 197.014ZM375.904 193.363L374.774 192.123L382.077 190.525L383.208 191.765L380.646 192.325L384.819 196.904L382.638 197.381L378.466 192.803L375.904 193.363ZM385.421 189.793L387.127 191.664L389.337 191.181C390.327 190.964 391.24 190.977 392.075 191.219C392.907 191.458 393.605 191.887 394.17 192.507C394.746 193.138 394.932 193.68 394.729 194.131C394.523 194.579 393.925 194.912 392.934 195.128L388.544 196.089L383.241 190.27L385.421 189.793ZM389.971 192.397L388.156 192.794L389.695 194.482L391.51 194.085C391.949 193.989 392.194 193.847 392.245 193.659C392.3 193.47 392.202 193.237 391.95 192.96C391.718 192.705 391.439 192.525 391.115 192.419C390.791 192.308 390.41 192.301 389.971 192.397ZM395.608 187.564L397.788 187.087L399.822 189.318L403.071 188.607L401.037 186.376L403.218 185.899L408.521 191.718L406.34 192.195L404.196 189.842L400.947 190.553L403.091 192.906L400.911 193.383L395.608 187.564ZM408.462 189.679C407.87 189.029 407.782 188.464 408.198 187.983C408.615 187.502 409.367 187.143 410.455 186.905L412.218 186.519L411.915 186.187C411.68 185.929 411.383 185.743 411.023 185.632C410.661 185.516 410.209 185.518 409.667 185.636C409.13 185.754 408.808 185.904 408.7 186.087C408.596 186.269 408.632 186.456 408.807 186.648L408.888 186.737L406.737 187.207L406.656 187.119C406.178 186.595 406.131 186.087 406.514 185.596C406.894 185.101 407.635 184.733 408.738 184.492C409.85 184.248 410.868 184.222 411.792 184.414C412.717 184.601 413.491 185.036 414.113 185.719L416.55 188.393C416.766 188.63 417 188.848 417.254 189.05C417.512 189.25 417.76 189.413 417.997 189.538L418.078 189.626L415.934 190.096C415.793 190.025 415.634 189.927 415.455 189.802C415.279 189.672 415.122 189.545 414.985 189.42C415.021 189.678 414.877 189.944 414.554 190.218C414.23 190.493 413.712 190.708 413 190.864C412.185 191.042 411.364 191.042 410.535 190.865C409.708 190.683 409.017 190.288 408.462 189.679ZM410.514 189.05C410.749 189.309 411.055 189.49 411.43 189.594C411.806 189.697 412.247 189.694 412.754 189.583C413.286 189.466 413.633 189.26 413.796 188.963C413.958 188.666 413.902 188.367 413.626 188.064L413.121 187.51L411.687 187.824C411.043 187.965 410.626 188.14 410.437 188.35C410.253 188.558 410.278 188.792 410.514 189.05ZM428.791 187.282L423.724 185.257L424.088 183.855L431.301 186.733L428.791 187.282ZM421.179 184.631L423.016 184.229L423.298 181.505L425.639 180.992L425.217 185.248L422.32 185.883L421.179 184.631ZM420.224 182.177L425.527 187.996L423.347 188.474L418.044 182.654L420.224 182.177ZM430.093 184.945C429.501 184.296 429.413 183.73 429.829 183.25C430.246 182.769 430.998 182.41 432.086 182.172L433.849 181.786L433.546 181.454C433.311 181.195 433.014 181.01 432.654 180.898C432.292 180.783 431.84 180.784 431.298 180.903C430.761 181.02 430.439 181.171 430.331 181.354C430.228 181.536 430.263 181.723 430.438 181.915L430.519 182.003L428.368 182.474L428.287 182.385C427.809 181.861 427.762 181.354 428.145 180.862C428.525 180.368 429.266 179.999 430.369 179.758C431.481 179.515 432.499 179.489 433.423 179.681C434.348 179.868 435.122 180.303 435.745 180.986L438.182 183.66C438.397 183.896 438.631 184.115 438.885 184.316C439.143 184.517 439.391 184.679 439.628 184.804L439.709 184.893L437.565 185.362C437.424 185.291 437.265 185.193 437.086 185.068C436.91 184.939 436.753 184.812 436.616 184.687C436.652 184.944 436.508 185.211 436.185 185.485C435.861 185.759 435.343 185.975 434.631 186.13C433.816 186.309 432.995 186.309 432.166 186.132C431.339 185.95 430.648 185.554 430.093 184.945ZM432.145 184.317C432.38 184.575 432.686 184.756 433.061 184.86C433.437 184.964 433.878 184.96 434.385 184.849C434.917 184.733 435.264 184.526 435.427 184.23C435.589 183.933 435.533 183.633 435.257 183.331L434.752 182.777L433.318 183.091C432.674 183.232 432.258 183.407 432.068 183.617C431.884 183.825 431.909 184.059 432.145 184.317ZM443.418 186.844L436.016 178.722L438.065 178.273L438.752 178.96L438.781 178.953C438.755 178.68 438.895 178.417 439.203 178.164C439.51 177.911 439.942 177.723 440.498 177.601C441.571 177.367 442.677 177.443 443.815 177.832C444.953 178.22 445.929 178.861 446.743 179.754L446.905 179.932C447.715 180.821 448.043 181.604 447.886 182.28C447.727 182.953 447.123 183.404 446.074 183.633C445.522 183.754 444.968 183.797 444.412 183.764C443.86 183.73 443.367 183.623 442.934 183.444L445.598 186.367L443.418 186.844ZM441.698 182.087C442.035 182.283 442.447 182.43 442.933 182.527C443.416 182.621 443.882 182.618 444.331 182.52C444.97 182.38 445.317 182.138 445.372 181.794C445.429 181.446 445.225 181.016 444.761 180.507L444.438 180.153C443.977 179.647 443.463 179.288 442.895 179.076C442.332 178.863 441.726 178.827 441.077 178.969C440.614 179.07 440.302 179.238 440.141 179.473C439.977 179.703 439.922 179.946 439.978 180.199L441.698 182.087ZM446.052 178.013L444.922 176.773L452.225 175.175L453.355 176.415L450.794 176.976L454.966 181.554L452.786 182.032L448.613 177.453L446.052 178.013ZM455.701 178.007L455.539 177.83C454.718 176.929 454.446 176.123 454.723 175.412C454.995 174.697 455.737 174.207 456.947 173.942C458.161 173.677 459.347 173.725 460.502 174.087C461.654 174.446 462.642 175.078 463.466 175.982L464.001 176.569L457.43 178.007L456.496 176.983L460.909 176.017L460.823 175.923C460.525 175.59 460.129 175.345 459.635 175.187C459.142 175.025 458.6 175.008 458.01 175.138C457.38 175.275 457.039 175.534 456.987 175.913C456.931 176.288 457.142 176.738 457.619 177.262L457.942 177.616C458.413 178.133 458.964 178.506 459.594 178.735C460.226 178.96 460.894 178.996 461.596 178.842C462.064 178.739 462.399 178.573 462.599 178.344C462.804 178.113 462.919 177.873 462.944 177.624L465.179 178.045C465.234 178.458 465.055 178.849 464.642 179.218C464.234 179.586 463.601 179.864 462.743 180.052C461.396 180.347 460.091 180.305 458.827 179.926C457.564 179.547 456.521 178.908 455.701 178.007Z" fill="#4C3B8A"/>
<rect width="116.365" height="40.9099" rx="10.2275" transform="matrix(0.976885 -0.213764 0.673568 0.739125 377.066 252.659)" fill="#F6F6F6"/>
</g>
<rect x="1" y="1" width="389" height="228" rx="23" stroke="#DBD8E8" stroke-width="2"/>
<defs>
<clipPath id="clip0_3540_23737">
<rect width="391" height="230" rx="24" fill="white"/>
</clipPath>
</defs>
</svg>
