<svg width="328" height="320" viewBox="0 0 328 320" fill="none" xmlns="http://www.w3.org/2000/svg">
<g clip-path="url(#clip0_3540_23834)">
<path d="M0 0H648C665.673 0 680 14.3269 680 32V418C680 435.673 665.673 450 648 450H0V0Z" fill="white"/>
<rect width="1232.41" height="383.052" transform="matrix(0.976885 -0.213764 0.673568 0.739125 -403 135.446)" fill="white"/>
<rect x="1.055" y="0.335819" width="395.036" height="62.404" rx="14.702" transform="matrix(0.976885 -0.213764 0.673568 0.739125 -401.953 135.485)" stroke="#DBD8E8" stroke-width="1.27843"/>
<rect x="1.055" y="0.335819" width="395.036" height="62.404" rx="14.702" transform="matrix(0.976885 -0.213764 0.673568 0.739125 5.183 46.3949)" stroke="#DBD8E8" stroke-width="1.27843"/>
<path d="M38.7512 61.6387L32.6292 54.9209L38.1907 53.7039L38.9601 54.5483L34.8012 55.4583L40.1538 61.3318L38.7512 61.6387ZM42.8424 57.8935L42.7079 57.7458C42.0267 56.9984 41.7889 56.3255 41.9946 55.7271C42.1973 55.1256 42.8151 54.7119 43.8477 54.4859C44.8803 54.26 45.9212 54.3107 46.9706 54.6382C48.0171 54.9626 48.8809 55.4985 49.5621 56.246L49.6966 56.3936C50.3778 57.1411 50.617 57.8155 50.4142 58.417C50.2114 59.0184 49.5937 59.4321 48.5611 59.6581C47.5285 59.8841 46.4875 59.8333 45.4382 59.5058C44.3888 59.1784 43.5236 58.6409 42.8424 57.8935ZM44.0814 57.4231L44.2538 57.6123C44.6967 58.0983 45.2332 58.4623 45.8635 58.7044C46.4949 58.9426 47.1461 58.9882 47.8168 58.8414C48.4836 58.6956 48.8467 58.4279 48.9064 58.0386C48.9632 57.6461 48.7702 57.2069 48.3273 56.7209L48.1549 56.5318C47.712 56.0458 47.1734 55.6822 46.5392 55.441C45.9049 55.1998 45.2544 55.1521 44.5877 55.298C43.921 55.4439 43.5592 55.713 43.5023 56.1055C43.4455 56.4979 43.6385 56.9371 44.0814 57.4231ZM54.9832 60.3889L48.773 53.5742L50.0231 53.3006L50.6666 53.9346L50.691 53.9292C50.6821 53.684 50.8062 53.4484 51.0635 53.2224C51.318 52.9933 51.6973 52.8236 52.2014 52.7133C53.0998 52.5167 54.0316 52.5895 54.9969 52.9317C55.9593 53.2708 56.7699 53.8018 57.4286 54.5246L57.5631 54.6722C58.2219 55.3951 58.4911 56.0464 58.3709 56.6261C58.2507 57.2058 57.7413 57.5939 56.8429 57.7905C56.3388 57.9008 55.8477 57.9345 55.3697 57.8915C54.8958 57.8477 54.4592 57.7458 54.06 57.586L56.3431 60.0913L54.9832 60.3889ZM53.1854 56.6263C53.5199 56.8114 53.9207 56.9542 54.3879 57.0549C54.8563 57.1516 55.3142 57.1511 55.7614 57.0532C56.42 56.9091 56.7636 56.6494 56.7922 56.2742C56.825 55.8981 56.6255 55.4732 56.1938 54.9996L56.0214 54.8104C55.5897 54.3367 55.0772 53.9803 54.4839 53.7412C53.8946 53.5012 53.2707 53.4533 52.6121 53.5974C52.1608 53.6962 51.8544 53.8628 51.6927 54.0974C51.531 54.332 51.4778 54.5706 51.533 54.813L53.1854 56.6263ZM58.5632 54.4534L58.4287 54.3058C57.7475 53.5583 57.5098 52.8854 57.7154 52.287C57.9182 51.6855 58.5359 51.2718 59.5685 51.0459C60.6011 50.8199 61.642 50.8707 62.6914 51.1981C63.7379 51.5225 64.6017 52.0585 65.2829 52.8059L65.4175 52.9535C66.0986 53.701 66.3378 54.3754 66.135 54.9769C65.9322 55.5784 65.3145 55.9921 64.2819 56.218C63.2493 56.444 62.2083 56.3932 61.159 56.0658C60.1096 55.7383 59.2444 55.2009 58.5632 54.4534ZM59.8022 53.9831L59.9746 54.1722C60.4175 54.6582 60.9541 55.0223 61.5843 55.2644C62.2157 55.5025 62.8669 55.5482 63.5377 55.4014C64.2044 55.2555 64.5676 54.9879 64.6272 54.5985C64.684 54.2061 64.491 53.7669 64.0481 53.2809L63.8757 53.0917C63.4328 52.6057 62.8943 52.2421 62.26 52.0009C61.6257 51.7597 60.9752 51.712 60.3085 51.8579C59.6418 52.0038 59.28 52.273 59.2231 52.6654C59.1663 53.0579 59.3593 53.4971 59.8022 53.9831ZM75.5113 55.0889L74.3761 53.8432L69.4001 54.932L70.5353 56.1778L69.2791 56.4527L67.4249 54.418L74.9072 52.7807L76.7614 54.8154L75.5113 55.0889ZM66.8592 50.5628L68.1763 52.1285C68.616 52.6484 68.9279 53.0468 69.1121 53.3238C69.2962 53.6008 69.4183 53.8471 69.4782 54.0627L68.1123 54.3616C68.1116 54.1736 68.0242 53.9253 67.8502 53.6165C67.6733 53.3048 67.3243 52.8388 66.803 52.2187L64.9572 50.0327L70.2199 48.8811L74.681 53.7765L73.3211 54.074L69.579 49.9677L66.8592 50.5628Z" fill="#8E8E8E"/>
<path d="M50.1594 74.2873L49.712 73.7964C48.3503 72.3021 47.8252 71.0405 48.1368 70.0116C48.4485 68.9827 49.4068 68.2927 51.0118 67.9415C52.594 67.5952 54.1029 67.6292 55.5384 68.0433C56.9796 68.4562 58.1285 69.1139 58.985 70.0163L59.0909 70.1326L57.153 70.5566L57.0353 70.4274C56.4923 69.8541 55.796 69.4384 54.9463 69.1801C54.0926 68.9176 53.1393 68.9015 52.0864 69.1319C51.0391 69.361 50.4405 69.8278 50.2904 70.5321C50.1365 71.232 50.5755 72.1483 51.6076 73.2809L52.208 73.9397C53.1891 75.0163 54.2738 75.7758 55.462 76.2182C56.656 76.6594 57.7851 76.7636 58.8494 76.5307C59.8625 76.309 60.4468 75.9538 60.6023 75.4653C60.7596 74.9712 60.6096 74.4359 60.1525 73.8593L60.055 73.7411L61.993 73.3171L62.0963 73.4417C62.8272 74.3561 63.0444 75.2124 62.7479 76.0107C62.4475 76.8047 61.5062 77.3748 59.924 77.7211C58.3076 78.0748 56.6145 77.9623 54.8448 77.3837C53.0751 76.8051 51.5133 75.773 50.1594 74.2873ZM63.7573 74.2868C63.1177 73.5849 63.0179 72.9585 63.458 72.4077C63.9038 71.8556 64.7356 71.4463 65.9536 71.1798L68.1989 70.6885L67.7928 70.2428C67.4513 69.8681 67.0258 69.5997 66.5162 69.4375C66.0122 69.274 65.396 69.272 64.6675 69.4314C63.9333 69.592 63.4951 69.8041 63.353 70.0677C63.2126 70.3256 63.2621 70.586 63.5015 70.8487L63.5604 70.9132L61.7078 71.3186L61.643 71.2476C61.1368 70.6921 61.0637 70.1399 61.4237 69.5911C61.7855 69.0368 62.5697 68.6276 63.7763 68.3635C64.9772 68.1008 66.0852 68.0881 67.1004 68.3257C68.1117 68.5589 68.9705 69.0631 69.6769 69.8382L72.4729 72.9065C72.7241 73.1821 72.9948 73.4379 73.285 73.674C73.577 73.9045 73.8643 74.0999 74.1469 74.2601L74.241 74.3635L72.4141 74.7633C72.2345 74.6786 72.034 74.5598 71.8127 74.4068C71.5931 74.2482 71.3974 74.0896 71.2255 73.9309C71.2604 74.2539 71.1016 74.5779 70.7493 74.9029C70.397 75.2279 69.8054 75.4813 68.9744 75.6631C68.0467 75.8662 67.1032 75.8608 66.1439 75.6472C65.1808 75.4293 64.3852 74.9758 63.7573 74.2868ZM65.5472 73.7789C65.873 74.1363 66.2894 74.3835 66.7965 74.5205C67.2996 74.6531 67.8899 74.6454 68.5672 74.4972C69.2445 74.349 69.7076 74.0668 69.9565 73.6508C70.2054 73.2348 70.165 72.8459 69.8354 72.4842L69.0525 71.6251L67.0718 72.0585C66.2181 72.2453 65.6691 72.4894 65.4249 72.7908C65.1808 73.0921 65.2215 73.4215 65.5472 73.7789ZM70.1365 67.1965L72.0147 66.7855L74.5165 69.5307L78.8876 68.5742L76.3858 65.829L78.264 65.418L84.3919 72.1423L82.5137 72.5532L79.8824 69.6659L75.5113 70.6224L78.1426 73.5097L76.2644 73.9207L70.1365 67.1965ZM92.9548 70.2685L86.6905 67.9902L86.9836 66.7949L95.1915 69.779L92.9548 70.2685ZM84.0868 67.4365L85.965 67.0255L86.5964 63.5947L88.7137 63.1314L87.8391 67.9248L85.0816 68.5282L84.0868 67.4365ZM82.5156 64.4876L88.6434 71.2119L86.7652 71.6229L80.6374 64.8986L82.5156 64.4876ZM90.1609 64.124L89.1661 63.0324L97.157 61.2838L98.1519 62.3754L95.0955 63.0442L100.229 68.6768L98.3503 69.0878L93.2173 63.4552L90.1609 64.124ZM100.95 64.3896L99.802 63.13L104.617 62.0763L105.765 63.3359L100.95 64.3896ZM110.823 66.3585L102.253 56.9535L111.746 54.8761L120.317 64.2811L118.379 64.7051L110.874 56.4694L105.256 57.6986L112.761 65.9344L110.823 66.3585ZM119.384 60.5726L119.196 60.3659C118.266 59.3453 117.923 58.426 118.168 57.6081C118.418 56.7889 119.215 56.2324 120.558 55.9385C121.901 55.6446 123.212 55.7166 124.492 56.1545C125.774 56.5868 126.883 57.3176 127.821 58.3468L128.316 58.8894L120.743 60.5465L119.819 59.5323L125.53 58.2825L125.436 58.1792C125.012 57.7141 124.462 57.3646 123.784 57.1306C123.109 56.8911 122.375 56.8579 121.584 57.031C120.713 57.2215 120.254 57.5828 120.207 58.1149C120.159 58.647 120.439 59.2468 121.048 59.9143L121.301 60.192C121.909 60.8595 122.647 61.3618 123.514 61.6989C124.382 62.0305 125.298 62.091 126.259 61.8805C126.863 61.7485 127.299 61.542 127.569 61.2609C127.838 60.9798 127.988 60.6836 128.018 60.3723L129.92 60.7851C129.94 61.2042 129.743 61.6244 129.328 62.0457C128.91 62.4627 128.228 62.7746 127.283 62.9814C125.764 63.3139 124.301 63.2518 122.895 62.795C121.489 62.3383 120.318 61.5975 119.384 60.5726ZM126.82 56.1022L125.825 55.0105L133.816 53.2619L134.811 54.3536L131.755 55.0224L136.888 60.655L135.009 61.066L129.876 55.4334L126.82 56.1022ZM137.893 56.5224L137.705 56.3157C136.775 55.2951 136.432 54.3759 136.677 53.558C136.927 52.7388 137.723 52.1823 139.067 51.8883C140.41 51.5944 141.721 51.6664 143.001 52.1043C144.282 52.5367 145.392 53.2675 146.33 54.2967L146.824 54.8393L139.252 56.4963L138.328 55.4822L144.039 54.2324L143.945 54.129C143.521 53.6639 142.971 53.3144 142.293 53.0804C141.617 52.8409 140.884 52.8077 140.093 52.9808C139.222 53.1714 138.763 53.5327 138.715 54.0648C138.668 54.5969 138.948 55.1966 139.556 55.8641L139.81 56.1419C140.418 56.8093 141.155 57.3116 142.022 57.6487C142.891 57.9803 143.806 58.0409 144.768 57.8304C145.372 57.6984 145.808 57.4918 146.078 57.2107C146.347 56.9297 146.497 56.6335 146.527 56.3221L148.429 56.7349C148.449 57.154 148.252 57.5743 147.837 57.9956C147.419 58.4126 146.737 58.7245 145.792 58.9312C144.272 59.2637 142.81 59.2016 141.403 58.7449C139.997 58.2881 138.827 57.5473 137.893 56.5224ZM153.853 60.1811L145.265 50.7567L146.998 50.3775L147.87 51.2558L147.904 51.2484C147.895 50.9093 148.063 50.5835 148.406 50.2708C148.755 49.9569 149.273 49.7246 149.962 49.5739C151.191 49.3049 152.46 49.4044 153.767 49.8725C155.08 50.3393 156.191 51.0722 157.102 52.0713L157.29 52.278C158.2 53.277 158.577 54.1734 158.42 54.9671C158.258 55.7565 157.569 56.2844 156.351 56.551C155.662 56.7017 154.991 56.7478 154.337 56.6895C153.679 56.6268 153.08 56.4867 152.541 56.269L155.731 59.7701L153.853 60.1811ZM151.34 54.9513C151.793 55.2086 152.337 55.4047 152.972 55.5395C153.612 55.6731 154.237 55.6732 154.846 55.54C155.739 55.3444 156.206 54.9917 156.247 54.4819C156.284 53.9677 156.004 53.3833 155.407 52.7287L155.16 52.4575C154.563 51.8029 153.864 51.3128 153.062 50.9873C152.261 50.6617 151.41 50.5974 150.511 50.7941C149.902 50.9274 149.488 51.1549 149.269 51.4765C149.052 51.7926 148.983 52.1176 149.062 52.4515L151.34 54.9513ZM160.552 51.4636L160.74 51.6703C161.333 52.3205 162.051 52.8013 162.894 53.1126C163.739 53.4183 164.623 53.4703 165.545 53.2685C166.467 53.0667 166.975 52.7103 167.069 52.199C167.159 51.6835 166.907 51.1006 166.315 50.4504L166.126 50.2437C165.546 49.6063 164.835 49.1342 163.996 48.8272C163.156 48.5202 162.276 48.4676 161.354 48.6694C160.432 48.8712 159.921 49.2283 159.821 49.7407C159.727 50.252 159.971 50.8262 160.552 51.4636ZM160.842 47.4334C162.134 47.1506 163.437 47.2399 164.752 47.7012C166.068 48.1569 167.164 48.8649 168.039 49.8252L168.227 50.0319C169.126 51.018 169.426 51.913 169.128 52.7169C168.835 53.5195 167.98 54.0759 166.563 54.386C165.095 54.7073 163.662 54.6516 162.264 54.2189C160.868 53.7806 159.528 52.8574 158.245 51.4493L157.892 51.0617C156.483 49.5157 155.76 48.2355 155.723 47.2209C155.682 46.2021 156.462 45.4141 158.064 44.857C158.979 44.5431 159.496 44.324 159.615 44.1999C159.734 44.0757 159.748 43.9487 159.657 43.8188L161.33 43.4527C161.75 43.9806 161.859 44.4371 161.657 44.8222C161.457 45.2018 160.765 45.5855 159.583 45.9734C158.323 46.3885 157.658 46.906 157.588 47.5256C157.513 48.141 157.811 48.8686 158.481 49.7086L158.569 49.6816C158.448 49.1813 158.567 48.7316 158.927 48.3326C159.293 47.9324 159.931 47.6326 160.842 47.4334ZM174.766 55.5893L173.745 54.457C173.935 54.4566 174.137 54.446 174.35 54.4252C174.564 54.4044 174.761 54.374 174.943 54.3342C175.382 54.2383 175.66 54.0533 175.779 53.7794C175.908 53.5085 175.816 52.9733 175.504 52.1739L175.472 52.1731L165.677 46.29L167.573 45.8753L173.747 49.6841C173.985 49.8333 174.204 49.9765 174.404 50.1135C174.606 50.2449 174.8 50.3755 174.987 50.5052L175.029 50.4958C174.957 50.3413 174.888 50.1833 174.823 50.0219C174.754 49.8563 174.682 49.6807 174.609 49.4954L172.866 44.717L174.65 44.3266L177.508 52.789C177.749 53.4955 177.767 54.0727 177.561 54.5207C177.358 54.973 176.879 55.282 176.122 55.4476C175.86 55.5049 175.62 55.5446 175.401 55.5666C175.188 55.5874 174.976 55.595 174.766 55.5893ZM184.417 53.4931L175.828 44.0688L177.561 43.6895L178.433 44.5679L178.467 44.5604C178.459 44.2214 178.626 43.8955 178.969 43.5829C179.318 43.2689 179.837 43.0366 180.525 42.8859C181.755 42.6169 183.023 42.7164 184.33 43.1845C185.643 43.6513 186.755 44.3842 187.665 45.3833L187.854 45.59C188.764 46.5891 189.141 47.4854 188.983 48.2791C188.822 49.0685 188.132 49.5965 186.914 49.863C186.226 50.0137 185.554 50.0598 184.9 50.0015C184.243 49.9388 183.644 49.7987 183.104 49.5811L186.295 53.0821L184.417 53.4931ZM181.903 48.2633C182.356 48.5206 182.9 48.7167 183.535 48.8515C184.176 48.9851 184.8 48.9852 185.409 48.852C186.303 48.6564 186.77 48.3037 186.81 47.7939C186.847 47.2797 186.567 46.6953 185.971 46.0408L185.723 45.7695C185.127 45.1149 184.428 44.6249 183.626 44.2993C182.824 43.9738 181.973 43.9094 181.074 44.1062C180.465 44.2394 180.051 44.4669 179.832 44.7885C179.615 45.1046 179.546 45.4296 179.625 45.7635L181.903 48.2633ZM186.568 41.7186L193.184 40.2708L194.179 41.3625L189.441 42.3993L194.574 48.0319L192.696 48.4429L186.568 41.7186Z" fill="#343434"/>
<rect x="1.055" y="0.335819" width="395.036" height="62.404" rx="14.702" transform="matrix(0.976885 -0.213764 0.673568 0.739125 -345.281 197.673)" stroke="#DBD8E8" stroke-width="1.27843"/>
<path d="M32.1681 140.771L41.4764 138.734C41.6415 138.699 41.8364 138.701 42.0364 138.741C42.2364 138.781 42.4326 138.856 42.6 138.958C42.7675 139.059 42.8987 139.183 42.9772 139.312C43.0557 139.441 43.0778 139.571 43.0409 139.684L41.5984 144.216C41.5748 144.292 41.5254 144.359 41.4531 144.413C41.3808 144.467 41.287 144.507 41.177 144.531C41.0671 144.556 40.9433 144.563 40.8127 144.553C40.6821 144.543 40.5473 144.517 40.4161 144.475L32.5669 141.976C32.37 141.914 32.1881 141.819 32.044 141.704C31.9 141.59 31.8003 141.459 31.7576 141.33C31.7149 141.201 31.7311 141.08 31.8042 140.98C31.8772 140.88 32.0039 140.808 32.1681 140.771Z" fill="#8E8E8E"/>
<rect x="1.055" y="0.335819" width="395.036" height="62.404" rx="14.702" transform="matrix(0.976885 -0.213764 0.673568 0.739125 61.8552 108.583)" stroke="#DBD8E8" stroke-width="1.27843"/>
<path d="M94.3885 115.885L95.179 116.753L95.3497 116.715C96.675 116.425 97.8887 116.433 98.9906 116.737C100.094 117.038 101.001 117.58 101.713 118.361C102.428 119.145 102.646 119.839 102.367 120.442C102.089 121.042 101.288 121.487 99.9622 121.777L99.7915 121.814L100.679 122.787L99.3127 123.086L98.4255 122.113L98.2548 122.15C96.9254 122.441 95.7112 122.436 94.6121 122.134C93.5129 121.832 92.606 121.289 91.8912 120.505C91.1792 119.723 90.9607 119.031 91.2357 118.429C91.5107 117.826 92.3129 117.38 93.6423 117.089L93.813 117.051L93.0225 116.184L94.3885 115.885ZM96.094 117.532L95.9232 117.569L99.0473 120.997L99.218 120.96C100.186 120.748 100.741 120.453 100.884 120.075C101.028 119.693 100.848 119.225 100.344 118.672C99.8446 118.124 99.2525 117.745 98.5672 117.533C97.8859 117.32 97.0615 117.32 96.094 117.532ZM94.3865 117.905C93.4189 118.117 92.863 118.414 92.7187 118.796C92.5785 119.177 92.7606 119.645 93.2652 120.198C93.7641 120.746 94.3542 121.126 95.0355 121.338C95.718 121.547 96.543 121.545 97.5106 121.334L97.6813 121.296L94.5572 117.868L94.3865 117.905ZM103.747 119.155L103.612 119.008C102.931 118.26 102.693 117.587 102.899 116.989C103.102 116.388 103.719 115.974 104.752 115.748C105.785 115.522 106.825 115.573 107.875 115.9C108.921 116.225 109.785 116.76 110.466 117.508L110.601 117.656C111.282 118.403 111.521 119.077 111.318 119.679C111.116 120.28 110.498 120.694 109.465 120.92C108.433 121.146 107.392 121.095 106.342 120.768C105.293 120.44 104.428 119.903 103.747 119.155ZM104.986 118.685L105.158 118.874C105.601 119.36 106.138 119.724 106.768 119.966C107.399 120.205 108.05 120.25 108.721 120.103C109.388 119.958 109.751 119.69 109.811 119.301C109.867 118.908 109.674 118.469 109.232 117.983L109.059 117.794C108.616 117.308 108.078 116.944 107.443 116.703C106.809 116.462 106.159 116.414 105.492 116.56C104.825 116.706 104.463 116.975 104.407 117.367C104.35 117.76 104.543 118.199 104.986 118.685ZM115.888 121.651L109.677 114.836L110.927 114.563L111.571 115.197L111.595 115.191C111.586 114.946 111.711 114.71 111.968 114.484C112.222 114.255 112.602 114.086 113.106 113.975C114.004 113.779 114.936 113.851 115.901 114.194C116.864 114.533 117.674 115.064 118.333 115.787L118.467 115.934C119.126 116.657 119.395 117.308 119.275 117.888C119.155 118.468 118.646 118.856 117.747 119.053C117.243 119.163 116.752 119.196 116.274 119.154C115.8 119.11 115.363 119.008 114.964 118.848L117.247 121.353L115.888 121.651ZM114.09 117.888C114.424 118.073 114.825 118.216 115.292 118.317C115.761 118.414 116.218 118.413 116.666 118.315C117.324 118.171 117.668 117.911 117.697 117.536C117.729 117.16 117.53 116.735 117.098 116.262L116.926 116.072C116.494 115.599 115.981 115.242 115.388 115.003C114.799 114.763 114.175 114.715 113.516 114.859C113.065 114.958 112.759 115.125 112.597 115.359C112.435 115.594 112.382 115.833 112.437 116.075L114.09 117.888ZM122.005 118.01L117.544 113.115L119.398 112.709L124.274 115.516C124.538 115.672 124.709 115.777 124.787 115.83C124.864 115.883 124.947 115.944 125.035 116.013L125.096 116C125.049 115.922 125.01 115.853 124.98 115.793C124.951 115.729 124.908 115.599 124.849 115.401L123.843 111.736L125.672 111.336L130.134 116.231L128.816 116.52L125.84 113.253C125.683 113.081 125.571 112.956 125.505 112.878C125.436 112.797 125.376 112.723 125.326 112.657L125.277 112.668C125.315 112.737 125.354 112.813 125.391 112.897C125.43 112.977 125.478 113.113 125.534 113.303L126.56 117.013L125.456 117.255L120.491 114.39C120.261 114.256 120.095 114.154 119.992 114.084C119.887 114.011 119.797 113.944 119.722 113.883L119.661 113.897C119.732 113.959 119.803 114.026 119.874 114.099C119.946 114.172 120.054 114.288 120.2 114.448L123.206 117.747L122.005 118.01ZM130.224 114.485C129.756 113.971 129.688 113.514 130.02 113.113C130.353 112.708 130.967 112.408 131.861 112.212L133.495 111.854L133.197 111.527C132.953 111.259 132.646 111.066 132.275 110.948C131.901 110.827 131.444 110.826 130.903 110.944C130.363 111.062 130.041 111.218 129.938 111.41C129.835 111.602 129.871 111.793 130.044 111.984L130.078 112.021L128.73 112.316L128.697 112.279C128.33 111.876 128.276 111.473 128.537 111.069C128.8 110.661 129.37 110.361 130.248 110.169C131.13 109.976 131.941 109.964 132.681 110.134C133.422 110.304 134.047 110.669 134.557 111.229L136.617 113.49C136.799 113.69 136.994 113.874 137.201 114.043C137.41 114.208 137.615 114.347 137.817 114.462L137.884 114.535L136.561 114.825C136.434 114.76 136.291 114.674 136.133 114.564C135.972 114.452 135.829 114.338 135.704 114.221C135.727 114.456 135.611 114.692 135.354 114.929C135.097 115.166 134.663 115.351 134.053 115.484C133.379 115.632 132.684 115.627 131.97 115.47C131.26 115.312 130.678 114.983 130.224 114.485ZM131.527 114.117C131.763 114.375 132.065 114.554 132.434 114.654C132.804 114.75 133.237 114.744 133.733 114.636C134.234 114.526 134.577 114.32 134.764 114.017C134.953 113.71 134.929 113.428 134.694 113.169L134.122 112.542L132.652 112.863C132.026 113 131.623 113.179 131.444 113.399C131.264 113.619 131.292 113.858 131.527 114.117ZM139.896 111.245L139.761 111.098C139.08 110.35 138.843 109.677 139.048 109.079C139.251 108.477 139.869 108.064 140.901 107.838C141.934 107.612 142.975 107.662 144.024 107.99C145.071 108.314 145.935 108.85 146.616 109.598L146.75 109.745C147.431 110.493 147.671 111.167 147.468 111.769C147.265 112.37 146.647 112.784 145.615 113.01C144.582 113.236 143.541 113.185 142.492 112.858C141.442 112.53 140.577 111.993 139.896 111.245ZM141.135 110.775L141.307 110.964C141.75 111.45 142.287 111.814 142.917 112.056C143.549 112.294 144.2 112.34 144.87 112.193C145.537 112.047 145.9 111.78 145.96 111.39C146.017 110.998 145.824 110.559 145.381 110.073L145.208 109.883C144.766 109.397 144.227 109.034 143.593 108.793C142.958 108.551 142.308 108.504 141.641 108.65C140.975 108.796 140.613 109.065 140.556 109.457C140.499 109.85 140.692 110.289 141.135 110.775ZM149.146 109.171L149.28 109.319C149.703 109.783 150.224 110.127 150.841 110.35C151.459 110.573 152.107 110.61 152.786 110.461C153.465 110.313 153.839 110.052 153.908 109.679C153.982 109.305 153.807 108.885 153.384 108.421L153.25 108.273C152.835 107.818 152.318 107.479 151.701 107.256C151.085 107.03 150.437 106.991 149.758 107.139C149.079 107.288 148.705 107.55 148.634 107.928C148.56 108.302 148.731 108.716 149.146 109.171ZM149.366 106.251C150.313 106.044 151.271 106.105 152.24 106.436C153.207 106.763 154.006 107.274 154.64 107.969L154.774 108.117C155.422 108.827 155.635 109.476 155.414 110.063C155.195 110.646 154.567 111.051 153.53 111.278C152.457 111.513 151.407 111.471 150.381 111.153C149.359 110.835 148.393 110.175 147.482 109.176L147.238 108.908C146.232 107.804 145.719 106.885 145.699 106.151C145.68 105.414 146.246 104.842 147.397 104.435C148.072 104.202 148.454 104.043 148.541 103.958C148.633 103.871 148.648 103.783 148.586 103.693L149.805 103.427C150.104 103.808 150.179 104.136 150.031 104.412C149.884 104.684 149.373 104.964 148.499 105.251C147.581 105.555 147.095 105.929 147.041 106.372C146.988 106.812 147.191 107.321 147.65 107.899L147.717 107.885C147.626 107.517 147.713 107.19 147.978 106.903C148.245 106.613 148.707 106.395 149.366 106.251ZM159.519 112.103L158.773 111.276C158.909 111.276 159.055 111.268 159.211 111.252C159.368 111.236 159.513 111.214 159.647 111.184C159.964 111.115 160.171 110.989 160.267 110.805C160.367 110.621 160.305 110.234 160.08 109.645L160.052 109.646L152.919 105.374L154.297 105.072L158.779 107.832C158.957 107.941 159.121 108.047 159.274 108.15C159.428 108.25 159.572 108.349 159.707 108.449L159.743 108.441C159.686 108.324 159.631 108.205 159.579 108.084C159.528 107.958 159.477 107.827 159.426 107.691L158.163 104.226L159.456 103.944L161.537 110.112C161.702 110.604 161.705 111.011 161.546 111.333C161.393 111.658 161.042 111.881 160.494 112.001C160.311 112.041 160.139 112.069 159.979 112.086C159.822 112.102 159.669 112.107 159.519 112.103ZM162.716 104.824C163.058 105.199 163.42 105.434 163.802 105.527C164.185 105.62 164.63 105.611 165.138 105.5C165.561 105.408 165.918 105.302 166.21 105.183C166.502 105.06 166.804 104.914 167.114 104.747L167.829 105.531C167.537 105.687 167.22 105.834 166.878 105.972C166.536 106.106 166.093 106.232 165.548 106.351C164.699 106.537 163.927 106.533 163.232 106.338C162.539 106.139 161.925 105.746 161.389 105.158L160.145 103.793L161.505 103.495L162.716 104.824ZM165.907 102.532L170.369 107.427L169.009 107.725L164.548 102.829L165.907 102.532ZM169.581 104.749L169.447 104.602C168.771 103.86 168.525 103.191 168.707 102.594C168.887 101.994 169.467 101.587 170.446 101.373C171.434 101.156 172.396 101.208 173.33 101.527C174.266 101.843 175.075 102.374 175.756 103.122L176.122 103.523L170.585 104.735L169.903 103.987L174.087 103.072L174.032 103.012C173.721 102.67 173.317 102.412 172.821 102.236C172.329 102.06 171.784 102.037 171.186 102.168C170.552 102.307 170.217 102.574 170.182 102.969C170.148 103.36 170.353 103.798 170.796 104.284L170.964 104.469C171.404 104.952 171.944 105.317 172.584 105.564C173.224 105.812 173.9 105.858 174.611 105.702C175.058 105.604 175.381 105.452 175.579 105.247C175.781 105.04 175.896 104.825 175.926 104.601L177.3 104.92C177.303 105.218 177.15 105.519 176.842 105.822C176.538 106.125 176.042 106.352 175.355 106.502C174.241 106.746 173.17 106.702 172.141 106.37C171.113 106.034 170.26 105.494 169.581 104.749ZM174.963 100.55L176.323 100.253L178.148 102.255L181.374 101.549L179.549 99.5467L180.909 99.2491L185.37 104.144L184.01 104.442L182.093 102.338L178.867 103.044L180.784 105.148L179.424 105.445L174.963 100.55ZM187.12 103.761L182.659 98.8662L184.013 98.5699L186.678 101.495C186.762 101.587 186.859 101.696 186.967 101.819C187.075 101.943 187.167 102.052 187.243 102.146L187.298 102.134C187.284 102.045 187.269 101.945 187.251 101.835C187.23 101.721 187.219 101.604 187.216 101.483L187.293 97.852L188.659 97.5531L193.12 102.448L191.767 102.745L189.101 99.8195C189.014 99.7241 188.917 99.6145 188.809 99.4906C188.7 99.3666 188.608 99.2576 188.532 99.1636L188.465 99.1783C188.485 99.2698 188.506 99.3723 188.526 99.4859C188.548 99.5955 188.559 99.7093 188.56 99.8273L188.486 103.463L187.12 103.761ZM195.932 101.833L194.45 102.158L194.623 99.6349L196.061 99.4144L195.932 101.833ZM199.145 101.13L197.556 99.386L195.745 99.7823L195.516 99.7716C194.724 99.9411 193.99 99.9357 193.314 99.7553C192.642 99.5741 192.094 99.2513 191.671 98.7868C191.233 98.3069 191.1 97.8768 191.27 97.4965C191.44 97.1161 191.924 96.8388 192.721 96.6644L196.044 95.9372L200.505 100.832L199.145 101.13ZM195.011 99.0409L196.871 98.634L195.365 96.9822L193.505 97.3892C193.054 97.4879 192.809 97.6357 192.769 97.8326C192.729 98.0295 192.819 98.2495 193.041 98.4925C193.259 98.7324 193.53 98.9093 193.853 99.023C194.174 99.1337 194.559 99.1397 195.011 99.0409Z" fill="#8E8E8E"/>
<path d="M104.218 131.113L112.379 129.327L120.95 138.732L119.012 139.156L111.507 130.92L106.948 131.918L110.927 136.733C111.945 137.962 112.53 138.934 112.684 139.65C112.833 140.361 112.342 140.84 111.209 141.088C111.061 141.12 110.894 141.147 110.708 141.167C110.531 141.19 110.34 141.198 110.136 141.191L109 139.944C109.162 139.95 109.303 139.948 109.423 139.937C109.545 139.921 109.662 139.9 109.776 139.875C110.34 139.752 110.552 139.468 110.413 139.023C110.274 138.578 109.797 137.864 108.982 136.88L104.218 131.113ZM117.384 131.447L119.262 131.036L121.764 133.781L124.555 133.17L125.55 134.262L122.758 134.873L125.39 137.76L123.511 138.171L117.384 131.447ZM124.244 134.098L124.056 133.892C123.122 132.867 122.784 131.946 123.044 131.13C123.3 130.31 124.122 129.748 125.511 129.444C126.9 129.14 128.3 129.216 129.712 129.671C131.125 130.121 132.299 130.859 133.233 131.883L133.421 132.09C134.359 133.119 134.7 134.044 134.445 134.865C134.191 135.679 133.369 136.239 131.98 136.543C130.592 136.847 129.191 136.774 127.777 136.324C126.36 135.869 125.182 135.128 124.244 134.098ZM125.953 133.446L126.194 133.71C126.806 134.382 127.531 134.885 128.367 135.218C129.209 135.551 130.071 135.62 130.953 135.427C131.836 135.234 132.305 134.873 132.363 134.344C132.42 133.815 132.142 133.215 131.53 132.543L131.289 132.278C130.673 131.602 129.943 131.1 129.099 130.774C128.257 130.442 127.397 130.371 126.521 130.563C125.644 130.755 125.178 131.115 125.12 131.644C125.059 132.169 125.337 132.769 125.953 133.446ZM136.683 131.276L136.871 131.482C137.464 132.133 138.182 132.613 139.025 132.925C139.871 133.23 140.754 133.282 141.676 133.081C142.598 132.879 143.106 132.522 143.2 132.011C143.29 131.496 143.039 130.913 142.446 130.263L142.258 130.056C141.677 129.419 140.967 128.946 140.127 128.639C139.288 128.332 138.407 128.28 137.485 128.482C136.563 128.683 136.052 129.04 135.953 129.553C135.859 130.064 136.102 130.638 136.683 131.276ZM136.973 127.246C138.265 126.963 139.568 127.052 140.883 127.513C142.199 127.969 143.295 128.677 144.17 129.637L144.359 129.844C145.257 130.83 145.558 131.725 145.259 132.529C144.967 133.332 144.112 133.888 142.695 134.198C141.226 134.519 139.793 134.464 138.395 134.031C136.999 133.593 135.66 132.67 134.376 131.261L134.023 130.874C132.614 129.328 131.891 128.048 131.854 127.033C131.813 126.014 132.593 125.226 134.195 124.669C135.111 124.355 135.628 124.136 135.747 124.012C135.866 123.888 135.88 123.761 135.789 123.631L137.462 123.265C137.882 123.793 137.99 124.249 137.788 124.634C137.588 125.014 136.897 125.398 135.714 125.786C134.454 126.201 133.789 126.718 133.719 127.338C133.645 127.953 133.943 128.681 134.613 129.521L134.701 129.494C134.579 128.993 134.699 128.544 135.059 128.145C135.424 127.745 136.062 127.445 136.973 127.246ZM146.793 130.706C146.153 130.004 146.053 129.378 146.493 128.827C146.939 128.275 147.771 127.866 148.989 127.599L151.234 127.108L150.828 126.662C150.487 126.287 150.061 126.019 149.552 125.857C149.048 125.693 148.431 125.691 147.703 125.851C146.969 126.011 146.53 126.223 146.388 126.487C146.248 126.745 146.297 127.005 146.537 127.268L146.596 127.332L144.743 127.738L144.678 127.667C144.172 127.111 144.099 126.559 144.459 126.01C144.821 125.456 145.605 125.047 146.812 124.783C148.013 124.52 149.121 124.507 150.136 124.745C151.147 124.978 152.006 125.482 152.712 126.257L155.508 129.326C155.759 129.601 156.03 129.857 156.32 130.093C156.612 130.324 156.9 130.519 157.182 130.679L157.276 130.783L155.449 131.182C155.27 131.098 155.069 130.979 154.848 130.826C154.628 130.667 154.433 130.509 154.261 130.35C154.296 130.673 154.137 130.997 153.785 131.322C153.432 131.647 152.841 131.901 152.01 132.082C151.082 132.285 150.139 132.28 149.179 132.066C148.216 131.848 147.421 131.395 146.793 130.706ZM148.583 130.198C148.908 130.556 149.325 130.803 149.832 130.94C150.335 131.072 150.925 131.065 151.603 130.916C152.28 130.768 152.743 130.486 152.992 130.07C153.241 129.654 153.2 129.265 152.871 128.903L152.088 128.044L150.107 128.478C149.253 128.665 148.704 128.909 148.46 129.21C148.216 129.511 148.257 129.841 148.583 130.198ZM160.768 130.019L158.736 130.463L158.986 126.984L160.956 126.685L160.768 130.019ZM165.208 129.047L163.018 126.644L160.525 127.19L160.198 127.168C159.105 127.407 158.092 127.404 157.159 127.159C156.222 126.91 155.463 126.466 154.882 125.829C154.285 125.175 154.104 124.587 154.339 124.065C154.574 123.544 155.238 123.164 156.331 122.924L160.958 121.912L167.086 128.636L165.208 129.047ZM159.504 126.181L162.082 125.617L160.004 123.337L157.426 123.901C156.8 124.038 156.459 124.245 156.403 124.52C156.343 124.792 156.464 125.093 156.766 125.425C157.072 125.761 157.446 126.007 157.889 126.163C158.334 126.313 158.872 126.32 159.504 126.181Z" fill="#8E8E8E"/>
<rect x="1.055" y="0.335819" width="395.888" height="60.0864" rx="14.702" transform="matrix(0.976885 -0.213764 0.673568 0.739125 -289.857 260.135)" stroke="#DBD8E8" stroke-width="1.27843"/>
<rect x="1.055" y="0.335819" width="24.2902" height="24.2902" rx="4.47452" transform="matrix(0.976885 -0.213764 0.673568 0.739125 70.2203 197.209)" stroke="#4C3B8A" stroke-width="1.27843"/>
<path d="M94.3469 198.685L95.2297 207.915C95.2617 208.254 95.0314 208.511 94.6127 208.602C94.2423 208.683 93.7685 208.625 93.3135 208.442L86.0168 205.517C85.4341 205.284 85.0718 204.832 85.1927 204.49C85.3095 204.156 85.8945 204.022 86.4827 204.195L91.8581 205.776L91.9984 198.202C92.0055 197.825 92.5342 197.608 93.1454 197.734C93.7805 197.865 94.3087 198.282 94.3469 198.685Z" fill="#4C3B8A"/>
<path d="M145.541 199.502L143.24 196.977C142.436 196.095 142.115 195.315 142.276 194.638C142.433 193.957 143.1 193.488 144.276 193.231C145.442 192.976 146.595 193.044 147.737 193.437C148.878 193.829 149.853 194.468 150.66 195.354L152.961 197.878C153.768 198.764 154.089 199.546 153.923 200.225C153.757 200.903 153.091 201.369 151.925 201.625C150.746 201.878 149.59 201.81 148.456 201.421C147.32 201.027 146.348 200.388 145.541 199.502ZM147.334 199.216C147.832 199.762 148.396 200.17 149.028 200.439C149.659 200.708 150.319 200.767 151.007 200.617C151.694 200.466 152.045 200.186 152.057 199.776C152.075 199.365 151.834 198.886 151.336 198.34L148.874 195.638C148.38 195.096 147.814 194.69 147.178 194.422C146.547 194.153 145.887 194.094 145.199 194.244C144.511 194.395 144.161 194.675 144.149 195.085C144.136 195.495 144.377 195.971 144.871 196.514L147.334 199.216Z" fill="#8E8E8E"/>
<path d="M265.37 172.537L265.208 172.36C263.93 170.957 263.449 169.717 263.765 168.638C264.078 167.556 265.251 166.792 267.286 166.347L267.461 166.309L268.39 167.327L268.214 167.366C266.76 167.684 265.873 168.219 265.552 168.971C265.227 169.719 265.635 170.719 266.775 171.97L267.074 172.231C267.918 173.157 268.728 173.757 269.504 174.03C270.284 174.302 271.02 174.362 271.713 174.21C272.411 174.058 272.805 173.79 272.895 173.407C272.99 173.023 272.781 172.551 272.27 171.99C271.769 171.44 271.195 171.054 270.548 170.833C269.898 170.607 269.225 170.571 268.527 170.724C267.883 170.865 267.462 171.141 267.263 171.552C267.065 171.958 267.212 172.43 267.703 172.969L267.118 173.097C266.391 172.3 266.102 171.584 266.249 170.95C266.398 170.311 266.99 169.878 268.024 169.652C269.073 169.422 270.134 169.489 271.208 169.852C272.286 170.213 273.197 170.802 273.941 171.618C274.684 172.434 274.936 173.175 274.696 173.843C274.458 174.506 273.77 174.962 272.634 175.211C271.516 175.455 270.311 175.385 269.018 174.999C267.729 174.613 266.513 173.792 265.37 172.537ZM272.169 168.499C271.436 167.694 271.192 166.964 271.437 166.309C271.687 165.652 272.38 165.199 273.517 164.95C274.634 164.706 275.837 164.777 277.125 165.163C278.419 165.549 279.637 166.369 280.781 167.624L280.942 167.801C282.167 169.145 282.619 170.354 282.3 171.429C281.982 172.499 280.811 173.262 278.787 173.718L278.611 173.757L277.683 172.738L277.851 172.701C279.305 172.383 280.193 171.852 280.516 171.109C280.836 170.361 280.45 169.39 279.361 168.194L279.077 167.931C278.249 167.023 277.444 166.428 276.662 166.148C275.877 165.864 275.133 165.799 274.43 165.952C273.737 166.104 273.34 166.368 273.239 166.744C273.142 167.12 273.342 167.581 273.84 168.127C274.331 168.666 274.894 169.043 275.529 169.258C276.169 169.472 276.838 169.503 277.536 169.35C278.184 169.208 278.611 168.938 278.815 168.539C279.021 168.135 278.885 167.672 278.407 167.147L278.963 167.026C279.663 167.794 279.948 168.495 279.818 169.13C279.686 169.761 279.095 170.191 278.046 170.421C277.002 170.649 275.944 170.586 274.872 170.232C273.8 169.878 272.899 169.3 272.169 168.499ZM280.995 166.568C280.261 165.763 280.017 165.033 280.262 164.377C280.512 163.721 281.205 163.268 282.342 163.019C283.459 162.775 284.662 162.846 285.951 163.232C287.244 163.618 288.462 164.438 289.606 165.693L289.768 165.87C290.992 167.214 291.444 168.423 291.125 169.498C290.807 170.568 289.636 171.331 287.612 171.787L287.436 171.826L286.508 170.807L286.676 170.77C288.13 170.452 289.018 169.921 289.341 169.178C289.661 168.43 289.275 167.459 288.186 166.263L287.902 165.999C287.074 165.091 286.27 164.497 285.487 164.217C284.702 163.933 283.958 163.868 283.255 164.021C282.563 164.173 282.165 164.437 282.064 164.813C281.967 165.189 282.167 165.649 282.665 166.196C283.156 166.735 283.719 167.112 284.354 167.327C284.994 167.541 285.663 167.572 286.361 167.419C287.009 167.277 287.436 167.007 287.64 166.608C287.846 166.204 287.71 165.74 287.232 165.216L287.788 165.095C288.488 165.862 288.773 166.564 288.643 167.199C288.511 167.83 287.92 168.26 286.871 168.49C285.827 168.718 284.769 168.655 283.697 168.301C282.625 167.947 281.725 167.369 280.995 166.568ZM293.464 163.839C292.731 163.035 292.486 162.305 292.732 161.649C292.981 160.992 293.675 160.539 294.811 160.291C295.929 160.046 297.131 160.117 298.42 160.504C299.713 160.889 300.932 161.709 302.075 162.964L302.237 163.142C303.461 164.485 303.914 165.694 303.594 166.769C303.276 167.839 302.105 168.602 300.081 169.059L299.905 169.097L298.977 168.078L299.145 168.042C300.599 167.723 301.487 167.193 301.81 166.449C302.13 165.702 301.745 164.73 300.655 163.534L300.371 163.271C299.544 162.363 298.739 161.769 297.957 161.488C297.171 161.204 296.427 161.139 295.725 161.293C295.032 161.444 294.635 161.708 294.533 162.085C294.436 162.46 294.637 162.921 295.135 163.467C295.626 164.006 296.189 164.383 296.824 164.598C297.464 164.812 298.132 164.843 298.83 164.691C299.479 164.549 299.905 164.278 300.109 163.879C300.315 163.476 300.179 163.012 299.701 162.488L300.257 162.366C300.957 163.134 301.242 163.835 301.113 164.47C300.98 165.101 300.389 165.531 299.34 165.761C298.296 165.989 297.238 165.927 296.167 165.572C295.095 165.218 294.194 164.64 293.464 163.839ZM302.289 161.908C301.556 161.104 301.312 160.373 301.557 159.718C301.807 159.061 302.5 158.608 303.637 158.359C304.754 158.115 305.956 158.186 307.245 158.573C308.538 158.958 309.757 159.778 310.9 161.033L311.062 161.21C312.286 162.554 312.739 163.763 312.419 164.838C312.101 165.908 310.93 166.671 308.906 167.128L308.731 167.166L307.802 166.147L307.97 166.11C309.424 165.792 310.313 165.261 310.635 164.518C310.955 163.771 310.57 162.799 309.48 161.603L309.196 161.34C308.369 160.432 307.564 159.838 306.782 159.557C305.996 159.273 305.252 159.208 304.55 159.362C303.857 159.513 303.46 159.777 303.358 160.154C303.261 160.529 303.462 160.99 303.96 161.536C304.451 162.075 305.014 162.452 305.649 162.667C306.289 162.881 306.957 162.912 307.655 162.759C308.304 162.617 308.73 162.347 308.934 161.948C309.14 161.545 309.004 161.081 308.526 160.557L309.083 160.435C309.782 161.203 310.067 161.904 309.938 162.539C309.805 163.17 309.214 163.6 308.165 163.83C307.121 164.058 306.063 163.995 304.992 163.641C303.92 163.287 303.019 162.709 302.289 161.908ZM311.114 159.977C310.381 159.172 310.137 158.442 310.382 157.787C310.632 157.13 311.325 156.677 312.462 156.428C313.579 156.184 314.782 156.255 316.07 156.641C317.363 157.027 318.582 157.847 319.726 159.102L319.887 159.279C321.111 160.623 321.564 161.832 321.244 162.907C320.927 163.977 319.755 164.74 317.731 165.196L317.556 165.235L316.627 164.216L316.796 164.179C318.249 163.861 319.138 163.33 319.461 162.587C319.78 161.839 319.395 160.868 318.305 159.672L318.021 159.409C317.194 158.501 316.389 157.906 315.607 157.626C314.821 157.342 314.077 157.277 313.375 157.43C312.682 157.582 312.285 157.846 312.183 158.222C312.086 158.598 312.287 159.059 312.785 159.605C313.276 160.144 313.839 160.521 314.474 160.736C315.114 160.95 315.783 160.981 316.48 160.828C317.129 160.686 317.555 160.416 317.76 160.017C317.965 159.613 317.829 159.15 317.352 158.625L317.908 158.504C318.607 159.272 318.892 159.973 318.763 160.608C318.63 161.239 318.039 161.669 316.99 161.899C315.946 162.127 314.889 162.064 313.817 161.71C312.745 161.356 311.844 160.778 311.114 159.977Z" fill="#8E8E8E"/>
<path d="M124.015 175.757L123.622 175.325C122.465 174.055 122.021 172.977 122.289 172.09C122.559 171.199 123.387 170.601 124.773 170.298C126.139 169.999 127.445 170.03 128.692 170.39C129.935 170.747 130.923 171.31 131.653 172.08L131.729 172.163L130.053 172.53L129.96 172.437C129.502 171.953 128.904 171.599 128.167 171.375C127.436 171.15 126.616 171.137 125.709 171.335C124.806 171.533 124.287 171.932 124.15 172.533C124.013 173.134 124.387 173.92 125.271 174.891L125.776 175.444C126.61 176.36 127.541 177.008 128.567 177.39C129.596 177.767 130.568 177.856 131.485 177.655C132.354 177.465 132.857 177.16 132.995 176.74C133.135 176.316 133.013 175.857 132.629 175.366L132.556 175.276L134.232 174.909L134.312 174.998C134.929 175.783 135.11 176.521 134.854 177.21C134.598 177.899 133.788 178.393 132.422 178.692C131.031 178.996 129.571 178.899 128.041 178.402C126.511 177.904 125.169 177.023 124.015 175.757ZM132.475 172.644L131.617 171.703L138.503 170.196L139.361 171.137L136.734 171.712L141.169 176.579L139.544 176.934L135.109 172.067L132.475 172.644ZM142.04 173.008L141.878 172.831C141.071 171.945 140.785 171.146 141.02 170.435C141.261 169.723 141.988 169.234 143.203 168.968C144.423 168.701 145.651 168.762 146.889 169.151C148.127 169.54 149.15 170.177 149.957 171.063L150.118 171.24C150.929 172.13 151.217 172.93 150.981 173.641C150.746 174.352 150.018 174.841 148.799 175.108C147.584 175.374 146.355 175.313 145.112 174.925C143.875 174.537 142.85 173.897 142.04 173.008ZM143.514 172.44L143.731 172.678C144.259 173.257 144.891 173.688 145.628 173.969C146.369 174.25 147.13 174.305 147.911 174.134C148.691 173.963 149.113 173.649 149.177 173.193C149.245 172.735 149.016 172.216 148.488 171.637L148.271 171.399C147.742 170.819 147.108 170.389 146.367 170.109C145.625 169.828 144.867 169.773 144.091 169.943C143.315 170.112 142.893 170.426 142.825 170.884C142.756 171.341 142.986 171.86 143.514 172.44ZM154.304 173.704L149.011 167.896L150.621 167.544L153.754 170.982C153.855 171.093 153.97 171.223 154.1 171.372C154.23 171.52 154.338 171.649 154.426 171.758L154.504 171.748C154.48 171.638 154.457 171.519 154.434 171.391C154.413 171.259 154.4 171.12 154.397 170.975L154.47 166.702L156.102 166.345L161.395 172.153L159.785 172.505L156.651 169.067C156.547 168.952 156.43 168.821 156.301 168.672C156.171 168.523 156.058 168.393 155.962 168.281L155.881 168.299C155.906 168.409 155.931 168.529 155.957 168.661C155.983 168.792 155.998 168.931 156.002 169.076L155.928 173.349L154.304 173.704ZM163.466 171.7L158.173 165.892L160.383 165.408L166.152 168.714C166.461 168.899 166.662 169.023 166.755 169.087C166.848 169.151 166.947 169.224 167.052 169.308L167.125 169.292C167.069 169.198 167.023 169.115 166.987 169.043C166.952 168.967 166.897 168.81 166.823 168.574L165.659 164.253L167.839 163.776L173.132 169.584L171.566 169.927L168.044 166.062C167.856 165.856 167.722 165.706 167.643 165.612C167.56 165.515 167.487 165.425 167.423 165.342L167.364 165.355C167.41 165.437 167.456 165.529 167.501 165.63C167.551 165.73 167.61 165.894 167.678 166.123L168.881 170.515L167.578 170.8L161.677 167.416C161.41 167.257 161.213 167.134 161.086 167.047C160.96 166.96 160.847 166.878 160.749 166.802L160.691 166.815C160.774 166.894 160.859 166.977 160.945 167.065C161.03 167.152 161.16 167.292 161.335 167.484L164.892 171.387L163.466 171.7ZM172.189 166.411L172.027 166.233C171.22 165.348 170.934 164.549 171.169 163.838C171.41 163.126 172.137 162.637 173.352 162.371C174.571 162.104 175.8 162.165 177.038 162.554C178.276 162.942 179.298 163.58 180.106 164.466L180.267 164.643C181.078 165.532 181.365 166.333 181.13 167.044C180.895 167.755 180.167 168.244 178.947 168.511C177.733 168.777 176.504 168.716 175.261 168.328C174.023 167.939 172.999 167.3 172.189 166.411ZM173.663 165.842L173.88 166.08C174.408 166.66 175.04 167.09 175.777 167.372C176.518 167.652 177.279 167.707 178.059 167.537C178.84 167.366 179.262 167.052 179.326 166.595C179.394 166.138 179.164 165.619 178.636 165.04L178.419 164.801C177.891 164.222 177.257 163.792 176.515 163.511C175.774 163.231 175.016 163.176 174.24 163.345C173.464 163.515 173.042 163.829 172.974 164.286C172.905 164.744 173.135 165.263 173.663 165.842ZM181.438 164.387L181.277 164.209C180.466 163.32 180.168 162.524 180.382 161.822C180.593 161.116 181.309 160.63 182.528 160.363C183.67 160.113 184.727 160.134 185.701 160.426C186.676 160.712 187.417 161.124 187.923 161.659L187.975 161.708L186.395 162.053L186.354 162.009C186.082 161.71 185.69 161.486 185.18 161.337C184.666 161.183 184.072 161.18 183.399 161.328C182.618 161.499 182.212 161.813 182.179 162.272C182.147 162.731 182.391 163.246 182.912 163.818L183.129 164.056C183.651 164.628 184.268 165.062 184.982 165.358C185.701 165.652 186.453 165.713 187.239 165.541C187.926 165.391 188.321 165.172 188.421 164.884C188.523 164.592 188.44 164.298 188.171 164.002L188.136 163.964L189.709 163.619L189.744 163.658C190.235 164.197 190.374 164.744 190.161 165.3C189.944 165.852 189.265 166.253 188.124 166.503C186.904 166.77 185.688 166.706 184.474 166.312C183.261 165.918 182.249 165.276 181.438 164.387ZM187.723 160.554L186.865 159.613L193.751 158.106L194.609 159.047L191.982 159.622L196.417 164.489L194.792 164.844L190.357 159.978L187.723 160.554ZM196.634 157.475L198.41 159.424L200.672 158.929C201.642 158.717 202.542 158.728 203.37 158.963C204.2 159.193 204.886 159.605 205.428 160.2C205.973 160.798 206.145 161.327 205.944 161.787C205.744 162.242 205.159 162.576 204.188 162.788L200.303 163.639L195.01 157.831L196.634 157.475ZM201.367 159.866L199.238 160.332L201.1 162.375L203.229 161.909C203.78 161.789 204.083 161.61 204.135 161.372C204.19 161.13 204.077 160.856 203.798 160.55C203.522 160.247 203.186 160.028 202.788 159.894C202.392 159.755 201.919 159.746 201.367 159.866ZM218.587 162.533C217.161 162.451 215.614 162.064 213.946 161.37C212.282 160.681 210.803 159.626 209.508 158.205L209.457 158.149C208.149 156.713 207.524 155.469 207.582 154.416C207.645 153.361 208.098 152.539 208.94 151.947L209.924 153.027C209.514 153.431 209.33 154.016 209.372 154.781C209.419 155.545 209.994 156.533 211.098 157.744L211.219 157.877C212.305 159.069 213.416 159.935 214.551 160.474C215.683 161.01 216.701 161.337 217.603 161.453L218.587 162.533ZM214.748 157.098L214.587 156.92C213.779 156.035 213.493 155.236 213.729 154.525C213.969 153.813 214.697 153.324 215.911 153.058C217.131 152.791 218.36 152.852 219.598 153.241C220.835 153.629 221.858 154.267 222.665 155.153L222.827 155.33C223.637 156.219 223.925 157.02 223.69 157.731C223.454 158.442 222.727 158.931 221.507 159.198C220.292 159.464 219.064 159.403 217.821 159.015C216.583 158.626 215.559 157.987 214.748 157.098ZM216.223 156.529L216.439 156.767C216.968 157.347 217.6 157.777 218.336 158.059C219.078 158.339 219.838 158.394 220.619 158.224C221.4 158.053 221.822 157.739 221.885 157.282C221.954 156.825 221.724 156.306 221.196 155.727L220.979 155.488C220.451 154.909 219.816 154.479 219.075 154.198C218.334 153.918 217.575 153.863 216.799 154.032C216.024 154.202 215.602 154.516 215.533 154.973C215.465 155.431 215.694 155.95 216.223 156.529ZM221.765 153.105L220.907 152.164L227.793 150.657L228.651 151.598L226.024 152.173L230.459 157.04L228.834 157.395L224.399 152.529L221.765 153.105ZM232.741 150.703L231.884 149.762L238.77 148.255L239.627 149.196L237 149.771L241.435 154.638L239.811 154.993L235.376 150.127L232.741 150.703ZM241.653 147.624L243.429 149.573L245.69 149.078C246.661 148.866 247.56 148.877 248.389 149.112C249.219 149.342 249.905 149.754 250.446 150.349C250.991 150.947 251.163 151.476 250.962 151.936C250.763 152.391 250.178 152.725 249.207 152.937L245.321 153.788L240.028 147.98L241.653 147.624ZM246.386 150.015L244.256 150.481L246.118 152.524L248.248 152.058C248.799 151.938 249.101 151.759 249.154 151.521C249.208 151.279 249.096 151.005 248.816 150.699C248.541 150.396 248.204 150.177 247.807 150.043C247.411 149.904 246.937 149.895 246.386 150.015ZM253.158 152.073L247.865 146.265L249.49 145.909L254.783 151.717L253.158 152.073ZM253.839 148.544L253.678 148.366C252.867 147.477 252.569 146.681 252.783 145.979C252.994 145.273 253.71 144.787 254.929 144.52C256.071 144.27 257.129 144.291 258.102 144.583C259.078 144.869 259.818 145.281 260.324 145.816L260.377 145.865L258.796 146.211L258.756 146.166C258.483 145.867 258.092 145.643 257.581 145.494C257.067 145.34 256.473 145.338 255.8 145.485C255.019 145.656 254.613 145.97 254.58 146.429C254.548 146.888 254.792 147.403 255.314 147.975L255.531 148.213C256.052 148.785 256.669 149.219 257.383 149.515C258.102 149.809 258.854 149.87 259.64 149.698C260.327 149.548 260.722 149.329 260.822 149.041C260.925 148.749 260.841 148.455 260.572 148.159L260.537 148.121L262.11 147.776L262.145 147.815C262.636 148.354 262.775 148.901 262.562 149.457C262.345 150.009 261.666 150.41 260.525 150.66C259.305 150.927 258.089 150.863 256.875 150.469C255.662 150.075 254.65 149.433 253.839 148.544ZM264.839 148.72C264.644 148.506 264.57 148.303 264.618 148.111C264.667 147.914 264.864 147.778 265.211 147.702C265.562 147.625 265.901 147.644 266.228 147.759C266.556 147.868 266.817 148.03 267.013 148.244C267.211 148.462 267.286 148.669 267.237 148.866C267.189 149.058 266.99 149.192 266.639 149.269C266.292 149.345 265.955 149.328 265.627 149.218C265.3 149.104 265.038 148.938 264.839 148.72ZM274.111 143.61L269.662 144.583L268.754 143.587L273.137 142.627C273.888 142.463 274.32 142.218 274.433 141.892C274.543 141.563 274.397 141.178 273.997 140.739C273.64 140.348 273.172 140.052 272.591 139.852C272.012 139.646 271.334 139.628 270.559 139.798L268.971 140.146L275.404 147.205L273.809 147.554L266.462 139.493L269.719 138.78C270.929 138.515 272.057 138.534 273.105 138.836C274.157 139.137 275.01 139.645 275.663 140.361C276.366 141.133 276.586 141.802 276.324 142.368C276.064 142.93 275.326 143.344 274.111 143.61ZM276.477 144.154L277.315 145.073L271.292 146.391L270.455 145.472L276.477 144.154ZM284.362 146.075L281.01 136.309L282.481 135.987L285.833 145.753L284.362 146.075ZM288.486 137.376L294.208 136.124L295.066 137.065L290.968 137.962L295.403 142.829L293.779 143.184L288.486 137.376ZM297.745 138.936L297.584 138.759C296.776 137.873 296.49 137.074 296.726 136.363C296.966 135.651 297.694 135.162 298.909 134.896C300.128 134.629 301.357 134.69 302.595 135.079C303.833 135.468 304.855 136.105 305.662 136.991L305.824 137.168C306.635 138.058 306.922 138.858 306.687 139.569C306.451 140.28 305.724 140.769 304.504 141.036C303.289 141.302 302.061 141.241 300.818 140.854C299.58 140.465 298.556 139.826 297.745 138.936ZM299.22 138.368L299.437 138.606C299.965 139.185 300.597 139.616 301.333 139.897C302.075 140.178 302.836 140.233 303.616 140.062C304.397 139.891 304.819 139.577 304.882 139.121C304.951 138.663 304.721 138.144 304.193 137.565L303.976 137.327C303.448 136.747 302.813 136.317 302.072 136.037C301.331 135.756 300.572 135.701 299.797 135.871C299.021 136.04 298.599 136.354 298.53 136.812C298.462 137.27 298.691 137.788 299.22 138.368ZM317.782 139.725L316.42 138.23L310.543 139.516L311.906 141.01L310.413 141.337L308.193 138.901L317.055 136.962L319.275 139.398L317.782 139.725ZM307.55 134.333L309.206 136.295C309.665 136.837 310.001 137.27 310.215 137.595C310.43 137.92 310.578 138.215 310.662 138.48L309.016 138.841C309.017 138.623 308.911 138.328 308.699 137.954C308.491 137.578 308.103 137.052 307.533 136.376L305.273 133.703L311.485 132.343L316.778 138.151L315.154 138.507L310.719 133.64L307.55 134.333ZM320.588 140.213L319.604 139.133C320.026 138.736 320.205 138.15 320.143 137.375C320.083 136.596 319.509 135.61 318.423 134.418L318.302 134.285C317.198 133.074 316.082 132.205 314.951 131.678C313.821 131.15 312.812 130.827 311.925 130.707L310.941 129.627C312.361 129.715 313.898 130.098 315.552 130.776C317.21 131.454 318.697 132.514 320.013 133.957L320.063 134.012C321.358 135.434 321.974 136.678 321.911 137.745C321.853 138.812 321.412 139.634 320.588 140.213Z" fill="#8E8E8E"/>
<rect width="396.314" height="5.11374" rx="2.55687" transform="matrix(0.976885 -0.213764 0.673568 0.739125 156.202 212.125)" fill="#DBD8E8"/>
<circle cx="10.2275" cy="10.2275" r="8.94904" transform="matrix(0.976885 -0.213764 0.673568 0.739125 151.035 206.456)" fill="white" stroke="#4C3B8A" stroke-width="2.55687"/>
<circle cx="10.2275" cy="10.2275" r="8.94904" transform="matrix(0.976885 -0.213764 0.673568 0.739125 270.928 180.221)" fill="white" stroke="#4C3B8A" stroke-width="2.55687"/>
<rect width="397.167" height="51.1374" rx="25.5687" transform="matrix(0.976885 -0.213764 0.673568 0.739125 -234.544 320.297)" fill="#F2EFF8"/>
<path d="M-67.7354 313.264L-69.1986 311.658L-75.9016 313.125L-74.4384 314.731L-76.5459 315.192L-79.1948 312.285L-68.2768 309.896L-65.6279 312.803L-67.7354 313.264ZM-83.3504 305.086L-75.74 303.421L-68.3937 311.482L-70.6548 311.977L-76.8155 305.217L-80.328 305.985L-77.8592 308.945C-77.2117 309.719 -76.7485 310.353 -76.4695 310.845C-76.189 311.333 -76.0223 311.779 -75.9696 312.184L-78.0624 312.642C-78.1022 312.168 -78.2476 311.69 -78.4985 311.21C-78.7494 310.729 -79.2045 310.091 -79.864 309.297L-83.3504 305.086ZM-68.9911 308.226L-69.1526 308.049C-69.9868 307.134 -70.2526 306.322 -69.9501 305.614C-69.6508 304.902 -68.8646 304.407 -67.5913 304.128C-66.3229 303.85 -65.048 303.895 -63.7666 304.261C-62.4837 304.622 -61.4251 305.26 -60.5909 306.175L-60.4295 306.353C-59.5953 307.268 -59.3302 308.082 -59.6343 308.795C-59.9335 309.507 -60.7173 310.002 -61.9857 310.279C-63.259 310.558 -64.5363 310.514 -65.8177 310.148C-67.0991 309.782 -68.1569 309.141 -68.9911 308.226ZM-67.0014 307.472L-66.6785 307.826C-66.1874 308.365 -65.6384 308.736 -65.0315 308.94C-64.4198 309.143 -63.7846 309.172 -63.126 309.028C-62.4723 308.885 -62.0976 308.635 -62.002 308.277C-61.9015 307.919 -62.0968 307.47 -62.5879 306.931L-62.9109 306.577C-63.402 306.038 -63.9542 305.67 -64.5674 305.472C-65.1792 305.269 -65.8071 305.238 -66.451 305.379C-67.0999 305.521 -67.477 305.772 -67.5823 306.131C-67.6862 306.486 -67.4925 306.933 -67.0014 307.472ZM-61.6883 303.035L-54.1511 301.386L-48.8482 307.205L-51.0288 307.682L-55.2015 303.103L-58.3774 303.798L-54.2047 308.377L-56.3854 308.854L-61.6883 303.035ZM-47.713 305.927C-47.9585 305.658 -48.05 305.403 -47.9874 305.164C-47.9233 304.92 -47.6692 304.749 -47.2253 304.652C-46.7814 304.555 -46.3548 304.577 -45.9458 304.717C-45.5352 304.853 -45.2071 305.056 -44.9615 305.325C-44.7126 305.598 -44.6202 305.857 -44.6844 306.101C-44.747 306.341 -45.0003 306.509 -45.4442 306.606C-45.8881 306.703 -46.3171 306.682 -46.731 306.543C-47.1401 306.402 -47.4674 306.197 -47.713 305.927ZM-41.5206 302.215L-41.682 302.038C-42.5163 301.122 -42.7821 300.311 -42.4795 299.602C-42.1803 298.891 -41.3941 298.395 -40.1208 298.117C-38.8524 297.839 -37.5775 297.883 -36.2961 298.249C-35.0131 298.611 -33.9546 299.249 -33.1204 300.164L-32.9589 300.341C-32.1247 301.257 -31.8596 302.071 -32.1637 302.784C-32.4629 303.496 -33.2467 303.99 -34.5151 304.268C-35.7884 304.547 -37.0658 304.503 -38.3472 304.137C-39.6286 303.771 -40.6864 303.13 -41.5206 302.215ZM-39.5309 301.461L-39.208 301.815C-38.7169 302.354 -38.1679 302.725 -37.561 302.929C-36.9492 303.132 -36.314 303.161 -35.6554 303.017C-35.0017 302.874 -34.6271 302.623 -34.5315 302.266C-34.431 301.908 -34.6263 301.459 -35.1174 300.92L-35.4403 300.566C-35.9314 300.027 -36.4836 299.658 -37.0969 299.461C-37.7087 299.258 -38.3365 299.227 -38.9805 299.368C-39.6293 299.51 -40.0064 299.761 -40.1118 300.12C-40.2156 300.475 -40.022 300.922 -39.5309 301.461ZM-34.2177 297.024L-26.6805 295.375L-21.3776 301.194L-23.5583 301.671L-27.731 297.092L-30.9068 297.787L-26.7341 302.366L-28.9148 302.843L-34.2177 297.024ZM-11.578 300.843L-12.9403 299.348L-19.4897 300.781L-24.7926 294.962L-22.6119 294.485L-18.4341 299.069L-15.3315 298.39L-19.5092 293.806L-17.3212 293.327L-13.1435 297.911L-12.0165 297.665L-9.52908 300.394L-11.578 300.843ZM-9.83032 298.667L-15.1332 292.848L-12.9599 292.373L-10.2807 295.312C-10.1798 295.423 -10.0568 295.565 -9.91184 295.736C-9.76535 295.904 -9.65477 296.041 -9.5801 296.149L-9.5092 296.14C-9.52836 296.029 -9.55273 295.906 -9.58231 295.771C-9.61038 295.631 -9.63315 295.474 -9.65062 295.301L-9.63033 291.644L-7.44235 291.165L-2.13944 296.984L-4.32011 297.461L-7.0195 294.499C-7.12041 294.389 -7.2415 294.256 -7.38278 294.101C-7.52254 293.941 -7.638 293.805 -7.72915 293.692L-7.80233 293.708C-7.77493 293.821 -7.74736 293.941 -7.71963 294.068C-7.69189 294.195 -7.66853 294.342 -7.64955 294.511L-7.64234 298.188L-9.83032 298.667ZM-0.258802 296.573L-5.56171 290.754L-3.38836 290.278L-0.709154 293.218C-0.608242 293.329 -0.485299 293.47 -0.340325 293.642C-0.193836 293.809 -0.0832564 293.947 -0.00858609 294.054L0.0623186 294.045C0.0431601 293.934 0.018789 293.811 -0.0107948 293.676C-0.0388639 293.536 -0.0616314 293.38 -0.0790974 293.206L-0.0588143 289.549L2.12917 289.071L7.43207 294.89L5.25141 295.367L2.55202 292.405C2.45111 292.294 2.33002 292.161 2.18874 292.006C2.04898 291.846 1.93352 291.71 1.84237 291.597L1.76919 291.613C1.79659 291.727 1.82416 291.847 1.85189 291.974C1.87963 292.1 1.90299 292.248 1.92197 292.416L1.92918 296.094L-0.258802 296.573Z" fill="#4C3B8A"/>
<path d="M22.7802 289.678L32.0885 287.641C32.2527 287.604 32.3794 287.531 32.4524 287.432C32.5255 287.332 32.5417 287.21 32.499 287.082C32.4563 286.953 32.3566 286.822 32.2126 286.708C32.0685 286.593 31.8865 286.498 31.6897 286.436L23.8405 283.937C23.7093 283.895 23.5745 283.869 23.4439 283.859C23.3133 283.849 23.1895 283.856 23.0796 283.88C22.9696 283.905 22.8758 283.945 22.8035 283.999C22.7312 284.053 22.6818 284.12 22.6582 284.196L21.2157 288.728C21.1788 288.841 21.2009 288.971 21.2794 289.1C21.3579 289.229 21.4891 289.352 21.6566 289.454C21.824 289.556 22.0202 289.631 22.2202 289.671C22.4202 289.711 22.6151 289.713 22.7802 289.678Z" fill="#4C3B8A"/>
<rect x="1.055" y="0.335819" width="395.888" height="49.8589" rx="24.9295" transform="matrix(0.976885 -0.213764 0.673568 0.739125 173.222 231.337)" stroke="#4C3B8A" stroke-width="1.27843"/>
<path d="M297.815 226.765L297.432 226.344C296.245 225.041 295.807 223.951 296.118 223.073C296.429 222.194 297.326 221.593 298.809 221.268C300.229 220.958 301.584 220.978 302.875 221.328C304.171 221.678 305.211 222.267 305.996 223.096L306.127 223.24L303.858 223.736L303.695 223.566C303.264 223.107 302.734 222.785 302.103 222.6C301.477 222.413 300.771 222.406 299.986 222.578C299.186 222.753 298.722 223.092 298.594 223.593C298.466 224.095 298.795 224.778 299.582 225.641L300.319 226.45C301.069 227.273 301.873 227.841 302.731 228.153C303.59 228.466 304.438 228.53 305.277 228.346C306.038 228.18 306.477 227.913 306.594 227.547C306.711 227.181 306.582 226.773 306.207 226.323L306.073 226.167L308.342 225.67L308.476 225.827C309.179 226.656 309.372 227.424 309.056 228.13C308.737 228.833 307.868 229.34 306.448 229.651C304.956 229.977 303.439 229.902 301.898 229.425C300.354 228.944 298.993 228.057 297.815 226.765ZM311.739 228.3L306.436 222.481L309.385 221.836L314.193 224.675C314.507 224.872 314.71 225.005 314.802 225.074C314.89 225.138 314.987 225.212 315.092 225.296L315.158 225.281C315.097 225.188 315.048 225.106 315.012 225.034C314.972 224.959 314.906 224.796 314.813 224.547L313.695 220.893L316.652 220.246L321.955 226.065L319.803 226.536L316.584 223.003C316.386 222.786 316.242 222.625 316.153 222.52C316.063 222.416 315.987 222.32 315.924 222.231L315.866 222.244C315.916 222.331 315.966 222.428 316.018 222.536C316.07 222.645 316.139 222.82 316.225 223.062L317.469 227.047L315.881 227.394L310.634 224.266C310.361 224.095 310.156 223.963 310.018 223.869C309.881 223.771 309.765 223.681 309.668 223.6L309.602 223.615C309.684 223.699 309.772 223.788 309.864 223.883C309.961 223.977 310.104 224.127 310.292 224.334L313.547 227.905L311.739 228.3ZM320.852 222.92L320.691 222.742C319.857 221.827 319.591 221.015 319.893 220.307C320.193 219.595 320.979 219.1 322.252 218.821C323.52 218.544 324.795 218.588 326.077 218.954C327.36 219.315 328.418 219.953 329.252 220.869L329.414 221.046C330.248 221.961 330.513 222.776 330.209 223.488C329.91 224.2 329.126 224.695 327.858 224.973C326.584 225.251 325.307 225.208 324.026 224.842C322.744 224.476 321.686 223.835 320.852 222.92ZM322.842 222.165L323.165 222.52C323.656 223.059 324.205 223.43 324.812 223.634C325.424 223.836 326.059 223.865 326.717 223.721C327.371 223.578 327.746 223.328 327.841 222.971C327.942 222.612 327.747 222.164 327.255 221.625L326.933 221.27C326.441 220.731 325.889 220.363 325.276 220.165C324.664 219.963 324.036 219.932 323.392 220.073C322.744 220.215 322.366 220.465 322.261 220.825C322.157 221.18 322.351 221.626 322.842 222.165ZM328.561 219.128L327.431 217.887L334.734 216.289L335.864 217.53L333.303 218.09L337.475 222.669L335.295 223.146L331.122 218.567L328.561 219.128ZM343.299 224.157L335.897 216.035L337.946 215.586L338.633 216.273L338.662 216.266C338.636 215.993 338.776 215.73 339.084 215.477C339.391 215.224 339.823 215.036 340.379 214.914C341.453 214.68 342.558 214.756 343.696 215.145C344.835 215.533 345.811 216.174 346.625 217.067L346.786 217.245C347.597 218.134 347.924 218.917 347.768 219.593C347.608 220.266 347.004 220.717 345.955 220.946C345.404 221.067 344.85 221.11 344.293 221.077C343.741 221.043 343.249 220.936 342.816 220.756L345.48 223.68L343.299 224.157ZM341.58 219.4C341.916 219.596 342.328 219.743 342.815 219.84C343.298 219.934 343.764 219.931 344.212 219.833C344.852 219.693 345.199 219.451 345.254 219.107C345.31 218.758 345.106 218.329 344.642 217.82L344.319 217.466C343.858 216.96 343.344 216.601 342.776 216.389C342.213 216.176 341.607 216.14 340.959 216.282C340.495 216.383 340.183 216.551 340.022 216.786C339.858 217.016 339.804 217.258 339.859 217.512L341.58 219.4ZM347.84 217.014L347.678 216.837C346.858 215.936 346.585 215.13 346.862 214.419C347.135 213.704 347.876 213.214 349.086 212.949C350.301 212.684 351.486 212.732 352.641 213.095C353.793 213.453 354.781 214.085 355.605 214.989L356.14 215.576L349.569 217.014L348.636 215.99L353.048 215.024L352.962 214.93C352.665 214.597 352.268 214.352 351.774 214.194C351.281 214.032 350.739 214.016 350.149 214.145C349.52 214.282 349.179 214.541 349.126 214.92C349.07 215.295 349.281 215.745 349.759 216.269L350.082 216.623C350.552 217.14 351.103 217.513 351.734 217.742C352.366 217.967 353.033 218.003 353.735 217.849C354.204 217.747 354.538 217.58 354.738 217.351C354.943 217.12 355.058 216.88 355.083 216.631L357.318 217.052C357.373 217.465 357.194 217.856 356.781 218.225C356.374 218.593 355.74 218.871 354.882 219.059C353.535 219.354 352.23 219.312 350.967 218.933C349.703 218.554 348.661 217.915 347.84 217.014ZM354.905 213.363L353.774 212.123L361.077 210.525L362.208 211.765L359.646 212.325L363.819 216.904L361.638 217.381L357.466 212.803L354.905 213.363ZM364.422 209.793L366.127 211.664L368.337 211.181C369.327 210.964 370.24 210.977 371.075 211.219C371.907 211.458 372.605 211.887 373.17 212.507C373.746 213.138 373.932 213.68 373.729 214.131C373.523 214.579 372.925 214.912 371.934 215.128L367.544 216.089L362.241 210.27L364.422 209.793ZM368.971 212.397L367.156 212.794L368.695 214.482L370.51 214.085C370.949 213.989 371.194 213.847 371.245 213.659C371.3 213.47 371.202 213.237 370.95 212.96C370.718 212.705 370.439 212.525 370.115 212.419C369.791 212.308 369.41 212.301 368.971 212.397ZM374.608 207.564L376.788 207.087L378.822 209.318L382.071 208.607L380.037 206.376L382.218 205.899L387.521 211.718L385.34 212.195L383.196 209.842L379.947 210.553L382.091 212.906L379.911 213.383L374.608 207.564ZM387.462 209.679C386.87 209.029 386.782 208.464 387.198 207.983C387.615 207.502 388.367 207.143 389.455 206.905L391.218 206.519L390.915 206.187C390.68 205.929 390.383 205.743 390.023 205.632C389.661 205.516 389.209 205.518 388.667 205.636C388.13 205.754 387.808 205.904 387.7 206.087C387.597 206.269 387.632 206.456 387.807 206.648L387.888 206.737L385.737 207.207L385.656 207.119C385.178 206.595 385.131 206.087 385.514 205.596C385.894 205.101 386.635 204.733 387.738 204.492C388.85 204.248 389.868 204.222 390.792 204.414C391.717 204.601 392.491 205.036 393.114 205.719L395.551 208.393C395.766 208.63 396 208.848 396.254 209.05C396.512 209.25 396.76 209.413 396.997 209.538L397.078 209.626L394.934 210.096C394.793 210.025 394.634 209.927 394.455 209.802C394.279 209.672 394.122 209.545 393.985 209.42C394.021 209.678 393.877 209.944 393.554 210.218C393.23 210.493 392.712 210.708 392 210.864C391.185 211.042 390.364 211.042 389.535 210.865C388.708 210.683 388.017 210.288 387.462 209.679ZM389.514 209.05C389.749 209.309 390.055 209.49 390.43 209.594C390.806 209.697 391.247 209.694 391.754 209.583C392.286 209.466 392.633 209.26 392.796 208.963C392.958 208.666 392.902 208.367 392.626 208.064L392.121 207.51L390.687 207.824C390.043 207.965 389.626 208.14 389.437 208.35C389.253 208.558 389.278 208.792 389.514 209.05ZM407.791 207.282L402.724 205.257L403.088 203.855L410.301 206.733L407.791 207.282ZM400.179 204.631L402.016 204.229L402.298 201.505L404.639 200.992L404.217 205.248L401.32 205.883L400.179 204.631ZM399.224 202.177L404.527 207.996L402.347 208.474L397.044 202.654L399.224 202.177ZM409.093 204.945C408.501 204.296 408.413 203.73 408.829 203.25C409.246 202.769 409.998 202.41 411.086 202.172L412.849 201.786L412.546 201.454C412.311 201.195 412.014 201.01 411.654 200.898C411.292 200.783 410.84 200.784 410.298 200.903C409.761 201.02 409.439 201.171 409.331 201.354C409.228 201.536 409.263 201.723 409.438 201.915L409.519 202.003L407.368 202.474L407.287 202.385C406.809 201.861 406.762 201.354 407.145 200.862C407.525 200.368 408.266 199.999 409.369 199.758C410.481 199.515 411.499 199.489 412.423 199.681C413.348 199.868 414.122 200.303 414.745 200.986L417.182 203.66C417.397 203.896 417.631 204.115 417.885 204.316C418.143 204.517 418.391 204.679 418.628 204.804L418.709 204.893L416.565 205.362C416.424 205.291 416.265 205.193 416.087 205.068C415.91 204.939 415.753 204.812 415.616 204.687C415.652 204.944 415.508 205.211 415.185 205.485C414.861 205.759 414.343 205.975 413.631 206.13C412.817 206.309 411.995 206.309 411.166 206.132C410.339 205.95 409.648 205.554 409.093 204.945ZM411.145 204.317C411.38 204.575 411.686 204.756 412.061 204.86C412.437 204.964 412.878 204.96 413.385 204.849C413.917 204.733 414.264 204.526 414.427 204.23C414.589 203.933 414.533 203.633 414.257 203.331L413.752 202.777L412.318 203.091C411.674 203.232 411.258 203.407 411.068 203.617C410.884 203.825 410.909 204.059 411.145 204.317ZM422.418 206.844L415.016 198.722L417.065 198.273L417.752 198.96L417.781 198.953C417.755 198.68 417.895 198.417 418.203 198.164C418.51 197.911 418.942 197.723 419.498 197.601C420.571 197.367 421.677 197.443 422.815 197.832C423.953 198.22 424.929 198.861 425.743 199.754L425.905 199.932C426.715 200.821 427.043 201.604 426.886 202.28C426.727 202.953 426.123 203.404 425.074 203.633C424.523 203.754 423.968 203.797 423.412 203.764C422.86 203.73 422.367 203.623 421.934 203.444L424.598 206.367L422.418 206.844ZM420.698 202.087C421.035 202.283 421.447 202.43 421.933 202.527C422.416 202.621 422.882 202.618 423.331 202.52C423.97 202.38 424.317 202.138 424.372 201.794C424.429 201.446 424.225 201.016 423.761 200.507L423.438 200.153C422.977 199.647 422.463 199.288 421.895 199.076C421.332 198.863 420.726 198.827 420.077 198.969C419.614 199.07 419.302 199.238 419.141 199.473C418.977 199.703 418.922 199.946 418.978 200.199L420.698 202.087ZM425.052 198.013L423.922 196.773L431.225 195.175L432.355 196.415L429.794 196.976L433.966 201.554L431.786 202.032L427.613 197.453L425.052 198.013ZM434.701 198.007L434.539 197.83C433.718 196.929 433.446 196.123 433.723 195.412C433.996 194.697 434.737 194.207 435.947 193.942C437.162 193.677 438.347 193.725 439.502 194.087C440.654 194.446 441.642 195.078 442.466 195.982L443.001 196.569L436.43 198.007L435.496 196.983L439.909 196.017L439.823 195.923C439.525 195.59 439.129 195.345 438.635 195.187C438.142 195.025 437.6 195.008 437.01 195.138C436.38 195.275 436.039 195.534 435.987 195.913C435.931 196.288 436.142 196.738 436.619 197.262L436.942 197.616C437.413 198.133 437.964 198.506 438.594 198.735C439.226 198.96 439.894 198.996 440.596 198.842C441.064 198.739 441.399 198.573 441.599 198.344C441.804 198.113 441.919 197.873 441.944 197.624L444.179 198.045C444.234 198.458 444.055 198.849 443.642 199.218C443.234 199.586 442.601 199.864 441.743 200.052C440.396 200.347 439.091 200.305 437.827 199.926C436.564 199.547 435.521 198.908 434.701 198.007Z" fill="#4C3B8A"/>
<rect width="208.365" height="40.9099" rx="10.2275" transform="matrix(0.976885 -0.213764 0.673568 0.739125 137.531 320.48)" fill="#F6F6F6"/>
<path d="M170.77 335.772L164.036 328.383L165.579 328.045L168.414 331.156L173.451 330.054L170.616 326.943L172.159 326.605L178.893 333.995L177.35 334.333L174.302 330.988L169.265 332.09L172.313 335.435L170.77 335.772ZM177.744 331.136L177.596 330.973C176.856 330.161 176.583 329.43 176.778 328.778C176.973 328.127 177.603 327.685 178.667 327.452C179.736 327.218 180.78 327.275 181.801 327.624C182.818 327.97 183.7 328.552 184.446 329.371L184.844 329.807L178.847 331.12L178.103 330.302L182.61 329.316L182.532 329.23C182.196 328.861 181.761 328.585 181.229 328.401C180.694 328.214 180.113 328.188 179.487 328.325C178.798 328.476 178.436 328.764 178.401 329.19C178.366 329.612 178.591 330.088 179.075 330.619L179.274 330.837C179.752 331.362 180.335 331.758 181.024 332.025C181.713 332.292 182.44 332.342 183.204 332.175C183.683 332.07 184.029 331.905 184.242 331.68C184.455 331.455 184.577 331.221 184.609 330.979L186.117 331.319C186.128 331.649 185.969 331.98 185.638 332.312C185.308 332.644 184.769 332.892 184.023 333.055C182.815 333.319 181.651 333.27 180.532 332.906C179.416 332.541 178.487 331.951 177.744 331.136ZM186.969 325.818L192.235 324.666L193.026 325.533L189.256 326.358L193.335 330.835L191.839 331.162L186.969 325.818ZM195.493 327.252L195.345 327.09C194.602 326.274 194.34 325.54 194.561 324.887C194.778 324.231 195.445 323.78 196.563 323.536C197.681 323.291 198.812 323.348 199.954 323.707C201.093 324.062 202.034 324.648 202.777 325.463L202.925 325.626C203.671 326.444 203.936 327.182 203.719 327.838C203.498 328.491 202.829 328.94 201.711 329.184C200.593 329.429 199.465 329.374 198.325 329.018C197.183 328.66 196.239 328.071 195.493 327.252ZM196.851 326.729L197.05 326.948C197.537 327.482 198.122 327.88 198.805 328.14C199.484 328.398 200.182 328.448 200.897 328.291C201.613 328.135 202.002 327.847 202.065 327.427C202.124 327.004 201.911 326.525 201.424 325.991L201.225 325.772C200.737 325.238 200.152 324.842 199.468 324.586C198.785 324.326 198.088 324.273 197.377 324.429C196.662 324.586 196.274 324.875 196.215 325.298C196.152 325.718 196.364 326.195 196.851 326.729ZM204.012 325.388L203.864 325.225C203.121 324.41 202.846 323.679 203.039 323.032C203.234 322.38 203.893 321.932 205.015 321.686C206.062 321.457 207.034 321.476 207.931 321.742C208.832 322.008 209.511 322.385 209.967 322.873L210.02 322.923L208.564 323.241L208.527 323.2C208.278 322.926 207.919 322.721 207.451 322.584C206.979 322.443 206.435 322.441 205.818 322.576C205.103 322.732 204.729 323.023 204.698 323.448C204.668 323.868 204.892 324.341 205.37 324.865L205.569 325.084C206.047 325.608 206.615 326.007 207.272 326.281C207.931 326.551 208.623 326.607 209.347 326.448C209.978 326.31 210.339 326.109 210.431 325.846C210.525 325.578 210.448 325.308 210.202 325.038L210.169 325.002L211.625 324.684L211.662 324.724C212.109 325.215 212.233 325.715 212.033 326.226C211.837 326.735 211.214 327.105 210.163 327.335C209.041 327.581 207.921 327.523 206.804 327.163C205.689 326.798 204.758 326.207 204.012 325.388ZM216.067 328.393L215.246 327.483C215.396 327.483 215.554 327.474 215.722 327.458C215.894 327.44 216.051 327.416 216.194 327.385C216.534 327.31 216.756 327.169 216.86 326.959C216.972 326.752 216.904 326.333 216.655 325.701L216.624 325.702L208.857 321.028L210.366 320.698L215.24 323.716C215.432 323.832 215.607 323.944 215.764 324.052C215.925 324.159 216.081 324.265 216.231 324.37L216.264 324.362C216.204 324.238 216.147 324.11 216.093 323.98C216.043 323.849 215.989 323.71 215.931 323.565L214.532 319.786L215.947 319.477L218.249 326.205C218.433 326.749 218.44 327.198 218.269 327.552C218.106 327.908 217.725 328.152 217.125 328.283C216.924 328.327 216.738 328.358 216.566 328.375C216.398 328.391 216.232 328.397 216.067 328.393ZM228.908 324.694L227.659 323.324L222.26 324.505L223.508 325.876L222.133 326.177L220.093 323.938L228.244 322.155L230.283 324.393L228.908 324.694ZM219.508 319.738L221.026 321.537C221.453 322.04 221.764 322.441 221.961 322.738C222.157 323.036 222.291 323.307 222.364 323.551L220.848 323.883C220.848 323.684 220.754 323.412 220.564 323.069C220.374 322.725 220.015 322.239 219.486 321.612L217.409 319.157L223.124 317.906L227.995 323.25L226.499 323.578L222.42 319.101L219.508 319.738ZM228.305 321.295C227.793 320.734 227.715 320.236 228.069 319.801C228.425 319.362 229.089 319.036 230.059 318.824L231.823 318.438L231.509 318.092C231.24 317.798 230.905 317.586 230.501 317.455C230.094 317.32 229.601 317.317 229.019 317.444C228.442 317.57 228.098 317.737 227.986 317.944C227.879 318.15 227.92 318.356 228.108 318.563L228.149 318.608L226.667 318.933L226.625 318.887C226.224 318.447 226.167 318.007 226.452 317.568C226.735 317.124 227.353 316.798 228.305 316.59C229.258 316.381 230.136 316.372 230.942 316.561C231.751 316.749 232.437 317.151 232.998 317.767L235.227 320.213C235.428 320.433 235.642 320.636 235.87 320.821C236.099 321.002 236.325 321.156 236.547 321.282L236.621 321.363L235.172 321.68C235.031 321.613 234.874 321.52 234.7 321.4C234.523 321.276 234.369 321.152 234.238 321.026C234.266 321.28 234.14 321.536 233.862 321.796C233.585 322.051 233.118 322.251 232.461 322.395C231.727 322.555 230.976 322.549 230.207 322.377C229.439 322.204 228.805 321.844 228.305 321.295ZM229.727 320.887C229.986 321.171 230.315 321.367 230.713 321.475C231.111 321.582 231.581 321.577 232.122 321.458C232.659 321.341 233.025 321.119 233.221 320.792C233.418 320.461 233.387 320.153 233.128 319.869L232.508 319.189L230.931 319.534C230.261 319.68 229.827 319.873 229.631 320.11C229.439 320.347 229.471 320.606 229.727 320.887ZM240.168 323.119L233.374 315.663L234.749 315.362L235.441 316.051L235.475 316.044C235.463 315.778 235.595 315.522 235.869 315.276C236.143 315.029 236.551 314.846 237.092 314.728C238.067 314.515 239.077 314.594 240.124 314.965C241.171 315.337 242.055 315.919 242.776 316.71L242.924 316.873C243.646 317.665 243.943 318.377 243.817 319.009C243.687 319.638 243.137 320.059 242.167 320.271C241.626 320.389 241.096 320.426 240.578 320.381C240.061 320.332 239.589 320.22 239.162 320.046L241.664 322.792L240.168 323.119ZM238.205 318.995C238.561 319.197 238.992 319.353 239.498 319.461C240.006 319.565 240.499 319.565 240.977 319.46C241.684 319.305 242.052 319.026 242.08 318.622C242.114 318.217 241.894 317.756 241.423 317.238L241.224 317.02C240.752 316.502 240.197 316.114 239.56 315.856C238.927 315.597 238.257 315.545 237.55 315.699C237.063 315.806 236.733 315.985 236.561 316.238C236.394 316.49 236.34 316.749 236.401 317.016L238.205 318.995ZM244.018 316.634L243.87 316.471C243.126 315.656 242.852 314.925 243.045 314.278C243.24 313.626 243.899 313.178 245.021 312.932C246.068 312.703 247.039 312.722 247.936 312.988C248.838 313.253 249.517 313.63 249.973 314.119L250.026 314.168L248.57 314.487L248.533 314.446C248.283 314.172 247.924 313.967 247.456 313.83C246.985 313.689 246.441 313.687 245.824 313.822C245.108 313.978 244.735 314.269 244.704 314.694C244.674 315.114 244.898 315.587 245.376 316.111L245.575 316.329C246.053 316.854 246.62 317.253 247.278 317.527C247.937 317.797 248.628 317.853 249.353 317.694C249.983 317.556 250.345 317.355 250.437 317.092C250.531 316.824 250.454 316.554 250.207 316.284L250.175 316.248L251.631 315.93L251.668 315.97C252.115 316.461 252.238 316.961 252.038 317.472C251.843 317.981 251.22 318.351 250.169 318.581C249.046 318.826 247.927 318.769 246.81 318.409C245.695 318.044 244.764 317.452 244.018 316.634ZM249.808 313.108L249.017 312.24L255.349 310.855L256.14 311.723L253.718 312.252L257.798 316.729L256.309 317.055L252.229 312.578L249.808 313.108ZM261.373 315.946L256.503 310.602L260.192 309.795C261.037 309.61 261.794 309.586 262.461 309.725C263.126 309.859 263.671 310.16 264.096 310.627C264.38 310.938 264.491 311.222 264.43 311.479C264.374 311.735 264.169 311.94 263.816 312.094L263.83 312.109C264.388 312.056 264.901 312.104 265.369 312.254C265.839 312.398 266.227 312.638 266.532 312.973C266.973 313.457 267.075 313.887 266.839 314.263C266.607 314.639 266.089 314.915 265.284 315.091L261.373 315.946ZM260.011 312.501L262.104 312.043C262.547 311.946 262.803 311.813 262.874 311.643C262.942 311.47 262.872 311.27 262.665 311.043C262.465 310.823 262.217 310.675 261.921 310.598C261.622 310.517 261.252 310.525 260.809 310.622L258.716 311.08L260.011 312.501ZM262.125 314.82L264.419 314.318C264.871 314.219 265.132 314.077 265.204 313.891C265.276 313.705 265.207 313.496 264.997 313.266C264.794 313.043 264.529 312.886 264.205 312.794C263.882 312.699 263.492 312.701 263.036 312.801L260.742 313.303L262.125 314.82ZM266.797 311.649L266.649 311.486C265.909 310.674 265.637 309.943 265.832 309.291C266.027 308.64 266.656 308.198 267.721 307.965C268.789 307.731 269.834 307.789 270.855 308.137C271.872 308.483 272.754 309.065 273.5 309.884L273.898 310.32L267.901 311.633L267.156 310.815L271.664 309.829L271.585 309.743C271.249 309.374 270.815 309.098 270.283 308.914C269.748 308.727 269.167 308.702 268.541 308.839C267.852 308.989 267.49 309.277 267.454 309.703C267.42 310.125 267.645 310.601 268.129 311.132L268.328 311.351C268.806 311.875 269.389 312.271 270.078 312.538C270.767 312.805 271.493 312.855 272.258 312.688C272.737 312.583 273.082 312.418 273.295 312.193C273.509 311.968 273.631 311.734 273.662 311.492L275.17 311.832C275.182 312.162 275.022 312.493 274.692 312.825C274.362 313.157 273.823 313.405 273.076 313.568C271.869 313.832 270.705 313.783 269.585 313.419C268.47 313.054 267.541 312.464 266.797 311.649ZM272.669 307.065L274.165 306.737L276.153 308.92L279.615 308.162L277.626 305.98L279.122 305.653L283.992 310.997L282.496 311.324L280.401 309.025L276.94 309.783L279.035 312.082L277.539 312.409L272.669 307.065ZM281.027 305.236L282.523 304.908L284.511 307.091L287.973 306.333L285.984 304.151L287.48 303.824L292.35 309.168L290.854 309.495L288.759 307.196L285.298 307.954L287.393 310.253L285.897 310.58L281.027 305.236ZM290.881 303.08L292.513 304.871L294.593 304.416C295.483 304.221 296.31 304.231 297.073 304.446C297.842 304.659 298.476 305.04 298.975 305.588C299.475 306.136 299.63 306.621 299.441 307.044C299.257 307.466 298.72 307.774 297.83 307.969L294.255 308.751L289.385 303.407L290.881 303.08ZM295.235 305.28L293.276 305.709L294.988 307.586L296.946 307.158C297.452 307.047 297.731 306.883 297.784 306.664C297.834 306.442 297.729 306.189 297.47 305.905C297.22 305.631 296.912 305.431 296.544 305.304C296.181 305.176 295.745 305.168 295.235 305.28ZM301.466 307.173L296.596 301.829L298.092 301.502L302.962 306.846L301.466 307.173ZM304.867 306.429L299.997 301.085L301.479 300.76L304.356 303.917C304.448 304.019 304.556 304.139 304.678 304.279C304.796 304.415 304.896 304.534 304.977 304.634L305.044 304.619C305.029 304.521 305.01 304.411 304.986 304.291C304.966 304.169 304.955 304.042 304.952 303.909L305.021 299.985L306.517 299.658L311.387 305.002L309.905 305.327L307.028 302.17C306.935 302.068 306.83 301.949 306.711 301.813C306.589 301.673 306.484 301.55 306.398 301.443L306.317 301.461C306.339 301.562 306.364 301.674 306.391 301.798C306.415 301.918 306.429 302.045 306.432 302.178L306.363 306.102L304.867 306.429ZM301.767 298.737C302.089 298.667 302.292 298.541 302.374 298.361C302.456 298.181 302.418 297.921 302.26 297.582L303.711 297.788C303.894 298.272 303.865 298.656 303.625 298.939C303.389 299.222 303.012 299.42 302.494 299.534C301.975 299.648 301.423 299.655 300.839 299.555C300.257 299.451 299.655 299.203 299.035 298.812L299.702 298.13C300.126 298.431 300.497 298.626 300.814 298.715C301.132 298.799 301.45 298.807 301.767 298.737Z" fill="#343434"/>
<g clip-path="url(#clip1_3540_23834)">
<path d="M331.431 291.65C331.167 291.566 330.895 291.546 330.674 291.595C330.453 291.643 330.302 291.756 330.253 291.908L329.068 295.632L322.617 293.579C322.353 293.495 322.081 293.475 321.86 293.523C321.639 293.572 321.488 293.684 321.44 293.837C321.391 293.989 321.449 294.168 321.602 294.335C321.754 294.502 321.988 294.643 322.251 294.727L328.702 296.781L327.517 300.505C327.468 300.657 327.527 300.837 327.679 301.004C327.831 301.171 328.065 301.312 328.328 301.396C328.592 301.48 328.864 301.5 329.085 301.452C329.306 301.403 329.457 301.291 329.506 301.138L330.691 297.414L337.142 299.467C337.406 299.551 337.678 299.571 337.899 299.523C338.12 299.475 338.271 299.362 338.319 299.21C338.368 299.057 338.31 298.878 338.157 298.711C338.005 298.544 337.771 298.403 337.508 298.319L331.057 296.265L332.242 292.541C332.291 292.389 332.232 292.209 332.08 292.042C331.928 291.875 331.694 291.734 331.431 291.65Z" fill="#8E8E8E"/>
</g>
</g>
<rect x="1" y="1" width="326" height="318" rx="23" stroke="#DBD8E8" stroke-width="2"/>
<defs>
<clipPath id="clip0_3540_23834">
<rect width="328" height="320" rx="24" fill="white"/>
</clipPath>
<clipPath id="clip1_3540_23834">
<rect width="20.4549" height="20.4549" fill="white" transform="matrix(0.976885 -0.213764 0.673568 0.739125 313 291.15)"/>
</clipPath>
</defs>
</svg>
