<svg width="704" height="257" viewBox="0 0 704 257" fill="none" xmlns="http://www.w3.org/2000/svg">
<g clip-path="url(#clip0_3540_23640)">
<path d="M0 0H648C665.673 0 680 14.3269 680 32V418C680 435.673 665.673 450 648 450H0V0Z" fill="white"/>
<rect width="1747.65" height="543.603" transform="matrix(0.976885 -0.213764 0.673568 0.739125 -464 145.585)" fill="white"/>
<rect x="1.49607" y="0.476217" width="560.191" height="88.697" rx="20.8485" transform="matrix(0.976885 -0.213764 0.673568 0.739125 -462.515 145.642)" stroke="#DBD8E8" stroke-width="1.81291"/>
<path d="M72.8038 65.0256L86.0037 62.1371C86.2379 62.0868 86.5143 62.09 86.7979 62.1464C87.0815 62.2028 87.3596 62.3098 87.5971 62.454C87.8345 62.5981 88.0207 62.7729 88.132 62.9562C88.2432 63.1395 88.2747 63.3231 88.2223 63.4838L86.1767 69.9102C86.1432 70.0179 86.0732 70.1129 85.9706 70.1898C85.8681 70.2666 85.7351 70.3237 85.5792 70.3578C85.4233 70.3919 85.2477 70.4024 85.0625 70.3885C84.8773 70.3746 84.6862 70.3367 84.5001 70.277L73.3694 66.734C73.0902 66.6458 72.8322 66.5118 72.6279 66.3489C72.4236 66.1859 72.2823 66.0013 72.2217 65.8185C72.1612 65.6356 72.1842 65.4627 72.2878 65.3215C72.3914 65.1804 72.5709 65.0774 72.8038 65.0256Z" fill="#8E8E8E"/>
<rect x="1.49607" y="0.476217" width="560.191" height="88.697" rx="20.8485" transform="matrix(0.976885 -0.213764 0.673568 0.739125 114.834 19.305)" stroke="#DBD8E8" stroke-width="1.81291"/>
<path d="M162.091 40.6117L153.41 31.0854L161.037 29.4164L162.116 30.6006L156.452 31.8401L164.054 40.1822L162.091 40.6117ZM167.595 35.4521L167.405 35.2428C166.455 34.2003 166.12 33.2638 166.4 32.4334C166.682 31.5974 167.535 31.0235 168.959 30.7119C170.389 30.3991 171.831 30.4708 173.284 30.9272C174.733 31.3791 175.932 32.1264 176.882 33.1688L177.073 33.3782C178.019 34.4163 178.354 35.3528 178.077 36.1876C177.797 37.018 176.942 37.5897 175.512 37.9025C174.082 38.2154 172.643 38.1458 171.194 37.6938C169.741 37.2375 168.541 36.4903 167.595 35.4521ZM169.314 34.7778L169.571 35.0591C170.191 35.7395 170.936 36.2461 171.806 36.5789C172.673 36.9073 173.564 36.9712 174.481 36.7706C175.397 36.57 175.895 36.2021 175.974 35.6668C176.055 35.1259 175.786 34.5153 175.166 33.8348L174.909 33.5535C174.289 32.873 173.543 32.3692 172.671 32.0421C171.805 31.7137 170.914 31.6498 169.997 31.8504C169.086 32.0497 168.588 32.4176 168.503 32.9542C168.424 33.4894 168.694 34.0973 169.314 34.7778ZM184.447 39.0001L175.754 29.4606L177.5 29.0784L178.386 29.9596L178.421 29.9521C178.407 29.6099 178.576 29.2799 178.929 28.9619C179.283 28.6439 179.805 28.4093 180.497 28.2579C181.742 27.9854 183.027 28.0862 184.351 28.5603C185.681 29.0331 186.807 29.7755 187.729 30.7875L187.92 30.9969C188.842 32.0088 189.223 32.9168 189.064 33.7207C188.901 34.5203 188.202 35.055 186.968 35.325C186.271 35.4777 185.591 35.5244 184.929 35.4653C184.268 35.4006 183.661 35.2586 183.109 35.0395L186.341 38.5857L184.447 39.0001ZM181.893 33.7047C182.357 33.9641 182.911 34.162 183.554 34.2986C184.203 34.4339 184.833 34.4347 185.444 34.301C186.349 34.1029 186.822 33.7456 186.863 33.2292C186.9 32.7084 186.619 32.1186 186.018 31.46L185.762 31.1787C185.158 30.5157 184.452 30.0215 183.643 29.6961C182.831 29.3663 181.973 29.3005 181.067 29.4985C180.445 29.6348 180.026 29.8652 179.81 30.1897C179.59 30.5099 179.517 30.8397 179.591 31.1792L181.893 33.7047ZM189.283 30.7063L189.093 30.497C188.142 29.4545 187.808 28.518 188.088 27.6876C188.37 26.8515 189.223 26.2777 190.647 25.9661C192.077 25.6533 193.518 25.725 194.972 26.1813C196.421 26.6333 197.62 27.3805 198.57 28.423L198.761 28.6324C199.707 29.6705 200.042 30.607 199.765 31.4418C199.485 32.2722 198.63 32.8438 197.2 33.1567C195.77 33.4695 194.331 33.4 192.882 32.948C191.429 32.4917 190.229 31.7445 189.283 30.7063ZM191.002 30.0319L191.259 30.3133C191.879 30.9937 192.624 31.5003 193.494 31.8331C194.361 32.1615 195.252 32.2254 196.169 32.0248C197.085 31.8242 197.583 31.4563 197.662 30.921C197.743 30.3801 197.474 29.7694 196.854 29.089L196.597 28.8076C195.977 28.1272 195.231 27.6234 194.359 27.2963C193.493 26.9679 192.601 26.904 191.685 27.1046C190.774 27.3039 190.276 27.6718 190.191 28.2084C190.112 28.7436 190.382 29.3515 191.002 30.0319ZM212.77 31.6331L211.166 29.8731L204.274 31.3812L205.878 33.1413L204.131 33.5235L201.519 30.6577L211.905 28.3851L214.517 31.2509L212.77 31.6331ZM200.775 25.3115L202.712 27.6187C203.238 28.2413 203.627 28.7446 203.881 29.1287C204.136 29.5071 204.31 29.8508 204.405 30.1596L202.486 30.5797C202.481 30.3244 202.357 29.98 202.114 29.5466C201.868 29.1088 201.417 28.501 200.764 27.7232L198.107 24.5691L205.389 22.9758L211.59 29.7804L209.687 30.1967L204.494 24.4979L200.775 25.3115Z" fill="#8E8E8E"/>
<path d="M178.56 58.8945L177.942 58.2167C175.977 56.061 175.207 54.2703 175.631 52.8445C176.057 51.4109 177.388 50.4495 179.624 49.9602C181.819 49.4799 183.907 49.5246 185.889 50.0946C187.87 50.6645 189.475 51.6024 190.703 52.9082L190.908 53.1163L188.244 53.6991L188.019 53.4518C187.232 52.6205 186.243 52.0239 185.052 51.662C183.863 51.2922 182.542 51.2663 181.089 51.5842C179.62 51.9056 178.792 52.5631 178.603 53.5565C178.423 54.5482 179.067 55.8501 180.536 57.4622L181.438 58.4515C182.851 60.0026 184.386 61.0914 186.041 61.718C187.704 62.3429 189.282 62.4919 190.775 62.1652C192.18 61.8579 192.994 61.3648 193.217 60.686C193.435 60.0011 193.195 59.2332 192.498 58.3825L192.301 58.1508L194.964 57.568L195.186 57.8271C196.247 59.1185 196.568 60.3154 196.149 61.4177C195.731 62.52 194.42 63.3123 192.217 63.7944C189.949 64.2907 187.592 64.1325 185.148 63.3197C182.704 62.5069 180.507 61.0318 178.56 58.8945ZM197.442 59.0914C196.562 58.1265 196.424 57.2632 197.027 56.5014C197.633 55.7317 198.787 55.1605 200.49 54.7878L203.662 54.0938L203.061 53.4342C202.582 52.9091 201.991 52.5367 201.288 52.3171C200.579 52.0914 199.711 52.0907 198.686 52.315C197.678 52.5357 197.063 52.8277 196.842 53.191C196.629 53.5525 196.701 53.9286 197.057 54.3195L197.157 54.4294L194.627 54.9831L194.502 54.8457C193.801 54.0762 193.706 53.3133 194.217 52.5569C194.722 51.7945 195.814 51.2295 197.493 50.8622C199.164 50.4966 200.696 50.4727 202.089 50.7904C203.485 51.1002 204.678 51.7987 205.668 52.8856L209.516 57.1084C209.873 57.4992 210.256 57.862 210.668 58.1968C211.074 58.5254 211.475 58.8003 211.87 59.0215L212.003 59.168L209.497 59.7164C209.237 59.5902 208.953 59.4217 208.644 59.2109C208.339 58.9921 208.061 58.7672 207.812 58.5361C207.856 58.9879 207.628 59.4443 207.128 59.9052C206.637 60.3643 205.81 60.7211 204.647 60.9754C203.34 61.2615 202.028 61.2557 200.711 60.9579C199.388 60.654 198.299 60.0318 197.442 59.0914ZM199.916 58.3962C200.366 58.8909 200.942 59.2301 201.642 59.4138C202.35 59.5958 203.176 59.5835 204.12 59.3769C205.064 59.1703 205.712 58.7759 206.062 58.1938C206.421 57.61 206.369 57.0646 205.907 56.5578L204.83 55.3762L202.07 55.9802C200.859 56.2451 200.082 56.5873 199.739 57.0068C199.389 57.4201 199.448 57.8833 199.916 58.3962ZM206.242 49.2445L208.82 48.6802L212.301 52.4999L218.427 51.1594L214.946 47.3397L217.525 46.7754L226.023 56.1003L223.444 56.6646L219.796 52.6617L213.67 54.0021L217.318 58.005L214.739 58.5693L206.242 49.2445ZM237.778 53.5279L229.136 50.3543L229.61 48.7234L240.877 52.8497L237.778 53.5279ZM225.521 49.607L228.161 49.0295L228.941 44.2773L231.859 43.6388L230.773 50.2707L226.899 51.1184L225.521 49.607ZM223.324 45.5065L231.822 54.8313L229.243 55.3956L220.745 46.0708L223.324 45.5065ZM233.935 45.0084L232.549 43.4878L243.699 41.0479L245.085 42.5685L240.799 43.5063L247.911 51.3106L245.332 51.8748L238.22 44.0706L233.935 45.0084ZM248.796 45.2063L247.235 43.4934L253.978 42.0178L255.539 43.7307L248.796 45.2063ZM262.596 48.0971L250.442 34.7602L263.59 31.8832L275.744 45.2201L273.069 45.8056L262.392 34.09L254.595 35.7961L265.272 47.5116L262.596 48.0971ZM274.353 40.1082L274.086 39.8151C272.789 38.3922 272.313 37.1157 272.658 35.9856C273.01 34.8537 274.119 34.0837 275.983 33.6758C277.856 33.266 279.676 33.3621 281.445 33.9639C283.221 34.564 284.76 35.5786 286.062 37.0075L286.722 37.7312L276.153 40.0439L274.909 38.6791L282.911 36.9279L282.795 36.7997C282.205 36.1524 281.437 35.6611 280.493 35.3258C279.551 34.9826 278.515 34.9346 277.385 35.1818C276.174 35.4468 275.534 35.9495 275.463 36.69C275.387 37.4245 275.769 38.2528 276.61 39.1749L276.977 39.5779C277.828 40.5122 278.856 41.2101 280.061 41.6716C281.268 42.1253 282.534 42.2072 283.857 41.9176C284.705 41.7322 285.317 41.448 285.694 41.0652C286.079 40.6806 286.288 40.2724 286.321 39.8405L288.947 40.3644C288.992 40.9552 288.729 41.5436 288.16 42.1297C287.585 42.7096 286.623 43.1471 285.276 43.442C283.177 43.9012 281.154 43.8165 279.207 43.188C277.267 42.5576 275.649 41.531 274.353 40.1082ZM284.637 33.9136L283.251 32.3931L294.401 29.9532L295.787 31.4737L291.501 32.4115L298.613 40.2158L296.035 40.7801L288.922 32.9758L284.637 33.9136ZM300.043 34.4866L299.776 34.1935C298.479 32.7707 298.003 31.4942 298.348 30.364C298.7 29.2321 299.809 28.4622 301.673 28.0542C303.546 27.6445 305.366 27.7405 307.135 28.3424C308.911 28.9425 310.45 29.957 311.752 31.386L312.412 32.1096L301.843 34.4223L300.599 33.0575L308.601 31.3064L308.485 31.1782C307.895 30.5309 307.127 30.0395 306.183 29.7042C305.241 29.361 304.205 29.313 303.075 29.5603C301.864 29.8252 301.224 30.3279 301.153 31.0685C301.077 31.8029 301.459 32.6312 302.3 33.5533L302.667 33.9563C303.518 34.8907 304.546 35.5886 305.751 36.0501C306.958 36.5037 308.224 36.5857 309.547 36.2961C310.395 36.1106 311.007 35.8265 311.384 35.4436C311.769 35.059 311.978 34.6508 312.011 34.2189L314.637 34.7428C314.682 35.3336 314.419 35.9221 313.85 36.5081C313.275 37.0881 312.313 37.5255 310.966 37.8205C308.867 38.2797 306.844 38.195 304.897 37.5664C302.957 36.9361 301.339 35.9095 300.043 34.4866ZM322.208 39.689L310.188 26.4986L312.585 25.9741L313.814 27.2105L313.85 27.2025C313.838 26.7218 314.078 26.2628 314.57 25.8255C315.056 25.3821 315.784 25.0544 316.752 24.8425C318.455 24.4699 320.21 24.6058 322.018 25.2504C323.819 25.8889 325.357 26.9074 326.632 28.3058L326.899 28.5989C328.168 29.9913 328.691 31.2353 328.47 32.3311C328.249 33.4269 327.295 34.1593 325.608 34.5284C324.64 34.7404 323.696 34.8041 322.777 34.7196C321.857 34.6351 321.011 34.4394 320.238 34.1325L324.787 39.1247L322.208 39.689ZM318.593 32.328C319.23 32.6868 319.992 32.9595 320.878 33.1464C321.773 33.3315 322.648 33.3304 323.504 33.1432C324.755 32.8695 325.408 32.375 325.463 31.6598C325.518 30.9447 325.128 30.1291 324.293 29.2131L323.951 28.8376C323.116 27.9216 322.142 27.241 321.03 26.7959C319.912 26.3447 318.724 26.2569 317.465 26.5324C316.609 26.7196 316.027 27.0373 315.72 27.4855C315.414 27.9259 315.318 28.3829 315.43 28.8564L318.593 32.328ZM331.277 27.4761L331.544 27.7692C332.373 28.6791 333.376 29.3495 334.553 29.7805C335.733 30.2036 336.964 30.2747 338.247 29.9939C339.539 29.7113 340.252 29.2145 340.389 28.5036C340.527 27.7847 340.179 26.9673 339.345 26.0513L339.086 25.7673C338.262 24.8636 337.261 24.2001 336.081 23.777C334.91 23.3522 333.683 23.2801 332.399 23.5609C331.108 23.8435 330.39 24.3412 330.246 25.0539C330.11 25.7649 330.453 26.5723 331.277 27.4761ZM331.679 21.8619C333.471 21.4698 335.286 21.5926 337.126 22.2301C338.96 22.8616 340.489 23.849 341.713 25.1925L341.98 25.4856C343.232 26.8596 343.651 28.1047 343.235 29.221C342.82 30.3374 341.627 31.111 339.658 31.5419C337.632 31.9852 335.647 31.9105 333.704 31.3178C331.762 30.7171 329.898 29.4367 328.112 27.4765L327.561 26.8719C325.597 24.7163 324.576 22.9218 324.499 21.4884C324.417 20.0488 325.488 18.9464 327.714 18.181C328.988 17.7411 329.711 17.4292 329.882 17.2452C330.053 17.0613 330.071 16.8742 329.937 16.6839L332.201 16.1885C332.79 16.9311 332.947 17.5706 332.671 18.1071C332.398 18.6356 331.456 19.1639 329.847 19.692C328.084 20.2754 327.147 21.0004 327.037 21.8669C326.934 22.7317 327.377 23.781 328.366 25.0148L328.499 24.9857C328.328 24.2981 328.496 23.6753 329.004 23.1174C329.512 22.5595 330.404 22.141 331.679 21.8619ZM351.045 33.3131L349.642 31.7742C349.921 31.7718 350.204 31.7537 350.493 31.7199C350.795 31.6904 351.075 31.6474 351.334 31.5908C351.955 31.4548 352.342 31.1834 352.494 30.7766C352.652 30.3759 352.512 29.6118 352.075 28.4843L352.051 28.4896L338.42 20.3208L341.035 19.7485L349.7 25.0817C350.033 25.2873 350.335 25.4811 350.607 25.6632C350.874 25.8392 351.137 26.016 351.396 26.1938L351.456 26.1805C351.359 25.9675 351.266 25.7535 351.176 25.5387C351.09 25.316 350.997 25.0762 350.899 24.8194L348.517 18.1113L350.975 17.5736L354.871 29.2897C355.222 30.3335 355.259 31.1713 354.983 31.803C354.72 32.4391 354.057 32.8737 352.991 33.1069C352.612 33.1899 352.267 33.247 351.957 33.2783C351.646 33.3096 351.342 33.3212 351.045 33.3131ZM364.581 30.4169L352.561 17.2265L354.958 16.702L356.186 17.9384L356.223 17.9304C356.21 17.4497 356.45 16.9906 356.943 16.5534C357.429 16.11 358.157 15.7823 359.125 15.5704C360.828 15.1977 362.583 15.3337 364.39 15.9783C366.192 16.6168 367.73 17.6353 369.004 19.0337L369.271 19.3268C370.54 20.7191 371.064 21.9632 370.843 23.059C370.622 24.1548 369.668 24.8872 367.981 25.2563C367.012 25.4683 366.069 25.532 365.149 25.4475C364.23 25.363 363.384 25.1673 362.611 24.8604L367.16 29.8526L364.581 30.4169ZM360.966 23.0559C361.603 23.4146 362.364 23.6874 363.251 23.8743C364.146 24.0594 365.021 24.0583 365.876 23.8711C367.127 23.5974 367.78 23.1029 367.835 22.3877C367.89 21.6726 367.5 20.857 366.666 19.941L366.323 19.5654C365.489 18.6494 364.515 17.9689 363.403 17.5238C362.285 17.0726 361.097 16.9847 359.837 17.2603C358.982 17.4475 358.4 17.7652 358.092 18.2134C357.787 18.6538 357.69 19.1107 357.802 19.5843L360.966 23.0559ZM367.403 13.9786L376.544 11.9785L377.93 13.4991L371.368 14.9349L378.48 22.7392L375.901 23.3035L367.403 13.9786Z" fill="#343434"/>
<rect x="1.49607" y="0.476217" width="560.191" height="88.697" rx="20.8485" transform="matrix(0.976885 -0.213764 0.673568 0.739125 -382.013 233.98)" stroke="#DBD8E8" stroke-width="1.81291"/>
<path d="M153.306 153.363L166.506 150.475C166.741 150.425 167.017 150.428 167.301 150.484C167.584 150.541 167.862 150.648 168.1 150.792C168.337 150.936 168.523 151.111 168.635 151.294C168.746 151.477 168.777 151.661 168.725 151.822L166.679 158.248C166.646 158.356 166.576 158.451 166.473 158.528C166.371 158.604 166.238 158.662 166.082 158.696C165.926 158.73 165.75 158.74 165.565 158.726C165.38 158.712 165.189 158.675 165.003 158.615L153.872 155.072C153.593 154.984 153.335 154.85 153.131 154.687C152.926 154.524 152.785 154.339 152.724 154.156C152.664 153.973 152.687 153.8 152.79 153.659C152.894 153.518 153.074 153.415 153.306 153.363Z" fill="#8E8E8E"/>
<rect x="1.49607" y="0.476217" width="560.191" height="88.697" rx="20.8485" transform="matrix(0.976885 -0.213764 0.673568 0.739125 195.336 107.643)" stroke="#DBD8E8" stroke-width="1.81291"/>
<path d="M240.962 117.723L242.089 118.96L242.34 118.905C244.19 118.5 245.885 118.516 247.425 118.954C248.966 119.386 250.24 120.153 251.245 121.257C252.255 122.365 252.573 123.344 252.201 124.195C251.83 125.04 250.716 125.665 248.86 126.071L248.618 126.124L249.882 127.512L247.988 127.926L246.724 126.539L246.473 126.594C244.617 127 242.921 126.987 241.385 126.553C239.85 126.12 238.577 125.35 237.568 124.242C236.562 123.138 236.243 122.162 236.609 121.313C236.976 120.463 238.088 119.836 239.944 119.429L240.195 119.374L239.068 118.138L240.962 117.723ZM243.369 120.046L243.126 120.099L247.586 124.993L247.828 124.94C249.183 124.643 249.952 124.224 250.136 123.681C250.321 123.133 250.058 122.469 249.346 121.688C248.643 120.916 247.809 120.377 246.844 120.07C245.882 119.757 244.723 119.749 243.369 120.046ZM240.99 120.566C239.636 120.862 238.866 121.285 238.681 121.833C238.497 122.375 238.761 123.037 239.473 123.817C240.18 124.594 241.013 125.136 241.972 125.444C242.936 125.751 244.096 125.756 245.45 125.46L245.693 125.407L241.233 120.513L240.99 120.566ZM254.099 122.477L253.909 122.267C252.958 121.225 252.624 120.288 252.904 119.458C253.186 118.622 254.039 118.048 255.463 117.736C256.893 117.423 258.334 117.495 259.788 117.952C261.237 118.404 262.436 119.151 263.386 120.193L263.577 120.403C264.523 121.441 264.858 122.377 264.581 123.212C264.301 124.042 263.446 124.614 262.016 124.927C260.586 125.24 259.147 125.17 257.698 124.718C256.245 124.262 255.045 123.515 254.099 122.477ZM255.818 121.802L256.075 122.084C256.695 122.764 257.44 123.271 258.31 123.603C259.177 123.932 260.068 123.996 260.985 123.795C261.901 123.594 262.399 123.227 262.478 122.691C262.559 122.15 262.29 121.54 261.67 120.859L261.413 120.578C260.793 119.897 260.047 119.394 259.175 119.067C258.309 118.738 257.417 118.674 256.501 118.875C255.59 119.074 255.092 119.442 255.007 119.979C254.928 120.514 255.198 121.122 255.818 121.802ZM270.951 126.024L262.258 116.485L264.004 116.103L264.89 116.984L264.925 116.976C264.911 116.634 265.08 116.304 265.433 115.986C265.787 115.668 266.309 115.434 267.001 115.282C268.246 115.01 269.531 115.111 270.855 115.585C272.185 116.058 273.311 116.8 274.233 117.812L274.424 118.021C275.346 119.033 275.727 119.941 275.568 120.745C275.405 121.545 274.706 122.079 273.472 122.349C272.775 122.502 272.095 122.549 271.432 122.49C270.772 122.425 270.165 122.283 269.613 122.064L272.845 125.61L270.951 126.024ZM268.397 120.729C268.861 120.988 269.415 121.186 270.058 121.323C270.707 121.458 271.337 121.459 271.948 121.325C272.853 121.127 273.326 120.77 273.367 120.254C273.404 119.733 273.123 119.143 272.522 118.484L272.266 118.203C271.662 117.54 270.956 117.046 270.147 116.72C269.335 116.391 268.477 116.325 267.571 116.523C266.949 116.659 266.53 116.89 266.314 117.214C266.094 117.534 266.021 117.864 266.095 118.204L268.397 120.729ZM279.32 120.913L273.119 114.108L275.704 113.543L282.469 117.414C282.826 117.624 283.061 117.769 283.176 117.848C283.286 117.924 283.405 118.013 283.533 118.115L283.619 118.096C283.549 117.981 283.49 117.879 283.444 117.79C283.403 117.699 283.342 117.519 283.262 117.249L281.896 112.188L284.456 111.628L290.657 118.432L288.823 118.833L284.697 114.306C284.483 114.07 284.327 113.895 284.229 113.78C284.127 113.661 284.037 113.55 283.957 113.448L283.896 113.461C283.953 113.569 284.01 113.684 284.067 113.808C284.121 113.927 284.186 114.117 284.264 114.377L285.667 119.524L284.145 119.857L277.233 115.892C276.926 115.713 276.692 115.571 276.533 115.464C276.379 115.357 276.242 115.256 276.122 115.162L276.053 115.177C276.156 115.275 276.26 115.378 276.365 115.485C276.47 115.593 276.622 115.756 276.821 115.974L280.989 120.548L279.32 120.913ZM290.767 116.015C290.119 115.304 290.018 114.669 290.463 114.111C290.915 113.552 291.757 113.137 292.991 112.867L295.265 112.37L294.848 111.912C294.506 111.537 294.077 111.267 293.561 111.103C293.047 110.933 292.418 110.929 291.674 111.092C290.936 111.253 290.495 111.468 290.351 111.734C290.209 111.996 290.261 112.262 290.507 112.532L290.567 112.597L288.691 113.008L288.625 112.936C288.112 112.373 288.038 111.814 288.403 111.258C288.769 110.697 289.561 110.283 290.777 110.017C291.994 109.751 293.114 109.736 294.138 109.972C295.162 110.208 296.032 110.719 296.748 111.504L299.58 114.612C299.834 114.891 300.109 115.15 300.403 115.389C300.698 115.623 300.989 115.821 301.276 115.983L301.371 116.088L299.529 116.491C299.347 116.405 299.144 116.285 298.92 116.13C298.698 115.969 298.499 115.808 298.325 115.648C298.361 115.975 298.2 116.303 297.843 116.632C297.486 116.961 296.887 117.218 296.045 117.402C295.1 117.609 294.141 117.604 293.169 117.388C292.2 117.166 291.399 116.708 290.767 116.015ZM292.571 115.502C292.897 115.86 293.317 116.108 293.83 116.247C294.34 116.381 294.938 116.373 295.624 116.223C296.316 116.072 296.788 115.785 297.04 115.364C297.292 114.942 297.251 114.549 296.917 114.182L296.13 113.319L294.124 113.758C293.253 113.948 292.694 114.196 292.447 114.501C292.196 114.802 292.237 115.136 292.571 115.502ZM304.116 111.532L303.926 111.322C302.976 110.28 302.641 109.343 302.921 108.513C303.203 107.677 304.057 107.103 305.481 106.791C306.91 106.479 308.352 106.55 309.805 107.007C311.254 107.459 312.453 108.206 313.403 109.248L313.594 109.458C314.54 110.496 314.875 111.432 314.599 112.267C314.318 113.098 313.463 113.669 312.033 113.982C310.604 114.295 309.164 114.225 307.715 113.773C306.262 113.317 305.063 112.57 304.116 111.532ZM305.836 110.857L306.092 111.139C306.712 111.819 307.457 112.326 308.327 112.658C309.194 112.987 310.085 113.051 311.002 112.85C311.918 112.65 312.416 112.282 312.496 111.746C312.577 111.205 312.307 110.595 311.687 109.914L311.431 109.633C310.81 108.953 310.064 108.449 309.192 108.122C308.326 107.793 307.435 107.729 306.518 107.93C305.607 108.129 305.109 108.497 305.024 109.034C304.945 109.569 305.215 110.177 305.836 110.857ZM316.881 108.637L317.071 108.846C317.668 109.5 318.393 109.985 319.247 110.3C320.098 110.611 320.99 110.665 321.924 110.46C322.858 110.256 323.372 109.895 323.467 109.377C323.558 108.855 323.304 108.264 322.704 107.606L322.519 107.403C321.926 106.753 321.205 106.272 320.355 105.962C319.504 105.651 318.615 105.597 317.687 105.8C316.753 106.004 316.236 106.366 316.135 106.885C316.04 107.403 316.288 107.987 316.881 108.637ZM317.166 104.556C318.48 104.269 319.803 104.358 321.135 104.826C322.462 105.288 323.569 106.006 324.456 106.979L324.647 107.188C325.553 108.183 325.855 109.087 325.553 109.901C325.257 110.714 324.391 111.278 322.955 111.592C321.474 111.916 320.025 111.859 318.609 111.421C317.199 110.981 315.844 110.048 314.544 108.622L314.18 108.223C312.757 106.661 312.025 105.365 311.983 104.333C311.942 103.301 312.729 102.503 314.346 101.94C315.279 101.621 315.803 101.399 315.917 101.274C316.038 101.149 316.057 101.022 315.974 100.893L317.661 100.524C318.086 101.059 318.194 101.519 317.985 101.905C317.783 102.289 317.085 102.677 315.893 103.069C314.621 103.494 313.947 104.018 313.872 104.641C313.797 105.265 314.096 106.002 314.769 106.854L314.864 106.833C314.741 106.327 314.865 105.871 315.235 105.465C315.605 105.06 316.249 104.757 317.166 104.556ZM331.264 112.811L330.229 111.664C330.428 111.662 330.636 111.651 330.852 111.63C331.067 111.609 331.265 111.579 331.443 111.54C331.887 111.442 332.172 111.255 332.299 110.976C332.429 110.701 332.336 110.159 332.02 109.35L331.988 109.349L322.072 103.396L323.992 102.976L330.237 106.836C330.481 106.982 330.704 107.124 330.906 107.263C331.111 107.396 331.304 107.529 331.487 107.661L331.539 107.65C331.466 107.493 331.396 107.333 331.33 107.17C331.264 107.006 331.194 106.831 331.12 106.643L329.354 101.803L331.152 101.409L334.05 109.973C334.294 110.688 334.312 111.273 334.103 111.727C333.898 112.185 333.413 112.498 332.646 112.666C332.381 112.724 332.137 112.764 331.916 112.786C331.7 112.807 331.482 112.815 331.264 112.811ZM335.669 102.587C336.142 103.106 336.647 103.432 337.183 103.566C337.722 103.694 338.349 103.68 339.064 103.523C339.646 103.396 340.14 103.251 340.545 103.089C340.947 102.923 341.354 102.729 341.768 102.508L342.758 103.594C342.369 103.805 341.938 104.004 341.466 104.191C340.989 104.373 340.371 104.548 339.61 104.715C338.439 104.971 337.371 104.966 336.404 104.702C335.433 104.433 334.573 103.889 333.826 103.069L332.121 101.197L334.023 100.781L335.669 102.587ZM340.12 99.4471L346.321 106.252L344.418 106.668L338.217 99.8634L340.12 99.4471ZM345.192 102.543L345.001 102.334C344.055 101.296 343.706 100.363 343.954 99.5341C344.207 98.7044 345.014 98.1406 346.375 97.8429C347.735 97.5452 349.064 97.6181 350.36 98.0617C351.652 98.5009 352.773 99.2418 353.723 100.284L354.224 100.834L346.562 102.51L345.632 101.49L351.409 100.226L351.307 100.114C350.882 99.6477 350.327 99.2931 349.643 99.0504C348.958 98.8078 348.213 98.7748 347.406 98.9514C346.529 99.1432 346.066 99.5113 346.016 100.056C345.968 100.595 346.252 101.202 346.868 101.878L347.118 102.153C347.735 102.829 348.482 103.338 349.36 103.68C350.24 104.015 351.167 104.077 352.141 103.864C352.752 103.73 353.194 103.521 353.467 103.236C353.74 102.951 353.897 102.653 353.937 102.34L355.849 102.754C355.87 103.178 355.67 103.604 355.25 104.031C354.831 104.452 354.141 104.768 353.178 104.979C351.645 105.314 350.166 105.251 348.742 104.788C347.317 104.325 346.134 103.577 345.192 102.543ZM352.641 96.7071L354.535 96.2926L357.069 99.0733L361.497 98.1045L358.963 95.3238L360.865 94.9075L367.066 101.712L365.164 102.128L362.498 99.2037L358.071 100.173L360.736 103.097L358.842 103.512L352.641 96.7071ZM369.479 101.184L363.278 94.3796L365.163 93.967L368.854 98.0171C368.977 98.1523 369.113 98.3056 369.262 98.4769C369.408 98.644 369.534 98.7942 369.642 98.9275L369.72 98.9105C369.697 98.7794 369.674 98.6406 369.651 98.4939C369.624 98.3428 369.607 98.1793 369.598 98.0032L369.677 92.9793L371.588 92.5611L377.789 99.3656L375.904 99.7781L372.207 95.7216C372.084 95.5864 371.95 95.4353 371.804 95.2682C371.655 95.0969 371.522 94.9429 371.404 94.8065L371.309 94.8273C371.342 94.9614 371.371 95.1041 371.398 95.2551C371.431 95.4049 371.452 95.5678 371.46 95.7438L371.39 100.766L369.479 101.184ZM381.672 98.516L379.614 98.9664L379.864 95.4508L381.862 95.1392L381.672 98.516ZM386.168 97.532L383.95 95.0981L381.417 95.6525L381.092 95.6373C379.985 95.8795 378.959 95.8765 378.013 95.6282C377.07 95.3743 376.302 94.9224 375.709 94.2725C375.105 93.6095 374.924 93.0161 375.166 92.4923C375.404 91.9642 376.073 91.5796 377.174 91.3387L381.861 90.3131L388.062 97.1176L386.168 97.532ZM380.391 94.6292L383.002 94.0578L380.904 91.7547L378.292 92.3262C377.658 92.4649 377.31 92.6717 377.25 92.9466C377.189 93.2215 377.314 93.529 377.624 93.8692C377.93 94.2051 378.307 94.4522 378.756 94.6104C379.206 94.763 379.751 94.7693 380.391 94.6292Z" fill="#8E8E8E"/>
<path d="M255.279 139.655L266.563 137.186L278.717 150.523L276.053 151.106L265.377 139.39L259.069 140.771L264.757 147.634C266.208 149.375 267.052 150.746 267.288 151.749C267.519 152.746 266.856 153.415 265.298 153.756C265.072 153.805 264.835 153.843 264.587 153.868C264.338 153.893 264.08 153.902 263.812 153.894L262.226 152.154C262.435 152.16 262.62 152.156 262.782 152.142C262.952 152.127 263.118 152.102 263.279 152.066C264.054 151.897 264.337 151.502 264.129 150.881C263.93 150.258 263.251 149.253 262.093 147.865L255.279 139.655ZM273.693 140.438L276.272 139.874L279.753 143.693L283.615 142.848L284.984 144.351L281.122 145.196L284.77 149.198L282.191 149.763L273.693 140.438ZM283.209 144.124L282.942 143.831C281.645 142.408 281.177 141.129 281.538 139.996C281.899 138.862 283.044 138.084 284.973 137.662C286.902 137.24 288.848 137.341 290.812 137.966C292.775 138.592 294.405 139.615 295.702 141.038L295.969 141.331C297.266 142.754 297.734 144.033 297.373 145.166C297.012 146.3 295.867 147.078 293.938 147.5C292.009 147.922 290.063 147.821 288.099 147.195C286.136 146.57 284.506 145.547 283.209 144.124ZM285.527 143.21L285.869 143.585C286.721 144.52 287.734 145.217 288.909 145.678C290.078 146.133 291.28 146.225 292.515 145.954C293.75 145.684 294.412 145.184 294.502 144.454C294.586 143.718 294.203 142.883 293.351 141.948L293.009 141.573C292.158 140.638 291.143 139.945 289.966 139.492C288.796 139.037 287.598 138.944 286.372 139.213C285.145 139.481 284.482 139.981 284.385 140.713C284.295 141.443 284.676 142.276 285.527 143.21ZM300.327 140.202L300.594 140.495C301.423 141.405 302.426 142.075 303.603 142.506C304.783 142.93 306.014 143.001 307.297 142.72C308.589 142.437 309.302 141.94 309.439 141.23C309.577 140.511 309.229 139.693 308.395 138.777L308.136 138.493C307.312 137.59 306.311 136.926 305.131 136.503C303.96 136.078 302.733 136.006 301.449 136.287C300.158 136.569 299.44 137.067 299.296 137.78C299.16 138.491 299.504 139.298 300.327 140.202ZM300.729 134.588C302.521 134.196 304.336 134.319 306.176 134.956C308.01 135.588 309.539 136.575 310.763 137.918L311.03 138.212C312.282 139.586 312.701 140.831 312.285 141.947C311.87 143.063 310.677 143.837 308.708 144.268C306.682 144.711 304.697 144.636 302.754 144.044C300.812 143.443 298.948 142.163 297.162 140.202L296.611 139.598C294.647 137.442 293.626 135.648 293.549 134.214C293.467 132.775 294.538 131.672 296.764 130.907C298.038 130.467 298.761 130.155 298.932 129.971C299.103 129.787 299.121 129.6 298.987 129.41L301.251 128.914C301.84 129.657 301.997 130.297 301.721 130.833C301.448 131.362 300.506 131.89 298.897 132.418C297.134 133.001 296.197 133.726 296.087 134.593C295.984 135.458 296.427 136.507 297.416 137.741L297.549 137.712C297.378 137.024 297.546 136.401 298.054 135.843C298.562 135.285 299.454 134.867 300.729 134.588ZM314.361 139.46C313.481 138.495 313.343 137.632 313.946 136.87C314.552 136.101 315.706 135.529 317.409 135.157L320.581 134.463L319.98 133.803C319.501 133.278 318.91 132.906 318.207 132.686C317.497 132.46 316.63 132.46 315.605 132.684C314.597 132.905 313.982 133.197 313.761 133.56C313.548 133.921 313.62 134.298 313.976 134.688L314.076 134.798L311.546 135.352L311.421 135.215C310.72 134.445 310.625 133.682 311.136 132.926C311.641 132.163 312.733 131.598 314.412 131.231C316.083 130.866 317.615 130.842 319.008 131.159C320.404 131.469 321.597 132.168 322.587 133.255L326.435 137.477C326.792 137.868 327.175 138.231 327.587 138.566C327.993 138.894 328.394 139.169 328.789 139.39L328.922 139.537L326.416 140.085C326.156 139.959 325.872 139.791 325.563 139.58C325.258 139.361 324.98 139.136 324.731 138.905C324.775 139.357 324.547 139.813 324.047 140.274C323.556 140.733 322.729 141.09 321.566 141.344C320.259 141.63 318.947 141.625 317.63 141.327C316.307 141.023 315.218 140.401 314.361 139.46ZM316.835 138.765C317.285 139.26 317.861 139.599 318.561 139.783C319.269 139.965 320.095 139.952 321.039 139.746C321.983 139.539 322.631 139.145 322.981 138.563C323.34 137.979 323.288 137.434 322.826 136.927L321.749 135.745L318.989 136.349C317.778 136.614 317.001 136.956 316.657 137.376C316.308 137.789 316.367 138.252 316.835 138.765ZM333.68 138.496L330.859 139.113L331.132 134.329L333.864 133.885L333.68 138.496ZM339.806 137.155L336.751 133.803L333.24 134.571L332.83 134.551C331.32 134.881 329.922 134.876 328.633 134.535C327.348 134.187 326.301 133.57 325.494 132.684C324.665 131.774 324.409 130.962 324.727 130.248C325.047 129.527 325.961 129.001 327.47 128.67L333.899 127.264L342.397 136.588L339.806 137.155ZM331.902 133.183L335.474 132.401L332.585 129.232L329.014 130.013C328.134 130.206 327.656 130.494 327.579 130.877C327.497 131.254 327.664 131.671 328.081 132.129C328.504 132.593 329.027 132.933 329.649 133.148C330.271 133.364 331.022 133.375 331.902 133.183Z" fill="#8E8E8E"/>
<rect x="1.49607" y="0.476217" width="561.399" height="85.207" rx="20.8485" transform="matrix(0.976885 -0.213764 0.673568 0.739125 -303.281 322.705)" stroke="#DBD8E8" stroke-width="1.81291"/>
<rect x="1.49607" y="0.476217" width="34.4454" height="34.4454" rx="6.3452" transform="matrix(0.976885 -0.213764 0.673568 0.739125 207.336 233.471)" stroke="#4C3B8A" stroke-width="1.81291"/>
<path d="M241.549 235.564L242.801 248.654C242.847 249.134 242.52 249.498 241.926 249.628C241.401 249.743 240.729 249.661 240.084 249.401L229.737 245.253C228.91 244.922 228.397 244.282 228.568 243.796C228.734 243.323 229.563 243.133 230.397 243.378L238.02 245.62L238.219 234.88C238.229 234.346 238.979 234.038 239.846 234.216C240.746 234.401 241.495 234.994 241.549 235.564Z" fill="#4C3B8A"/>
<path d="M313.943 236.555L310.637 232.928C309.493 231.672 309.031 230.574 309.253 229.634C309.477 228.687 310.406 228.035 312.038 227.678C313.664 227.322 315.269 227.416 316.852 227.961C318.443 228.505 319.813 229.407 320.963 230.669L324.268 234.296C325.423 235.563 325.882 236.668 325.646 237.611C325.405 238.549 324.476 239.195 322.857 239.549C321.224 239.906 319.618 239.815 318.04 239.275C316.463 238.729 315.097 237.822 313.943 236.555ZM316.435 236.189C317.145 236.969 317.946 237.547 318.837 237.924C319.723 238.295 320.646 238.375 321.608 238.165C322.57 237.954 323.064 237.564 323.091 236.993C323.114 236.416 322.77 235.738 322.059 234.958L318.489 231.041C317.778 230.261 316.98 229.685 316.094 229.314C315.203 228.938 314.277 228.855 313.315 229.065C312.354 229.275 311.862 229.669 311.839 230.245C311.812 230.816 312.154 231.491 312.864 232.271L316.435 236.189Z" fill="#8E8E8E"/>
<path d="M483.879 198.296L483.629 198.021C481.811 196.027 481.118 194.273 481.548 192.76C481.973 191.242 483.587 190.177 486.389 189.563L486.669 189.502L487.957 190.915L487.687 190.974C485.674 191.415 484.458 192.171 484.04 193.242C483.617 194.307 484.224 195.738 485.86 197.533L486.237 197.865C487.444 199.189 488.596 200.048 489.693 200.442C490.791 200.836 491.824 200.927 492.792 200.715C493.754 200.505 494.301 200.131 494.434 199.593C494.568 199.049 494.261 198.366 493.512 197.544C492.797 196.759 491.984 196.209 491.074 195.893C490.159 195.572 489.214 195.518 488.239 195.732C487.339 195.929 486.755 196.317 486.487 196.897C486.226 197.475 486.439 198.141 487.126 198.895L486.327 199.069C485.311 197.955 484.908 196.953 485.12 196.066C485.339 195.177 486.161 194.576 487.586 194.264C489.046 193.945 490.521 194.039 492.014 194.548C493.506 195.056 494.774 195.884 495.819 197.03C496.878 198.192 497.243 199.239 496.914 200.171C496.585 201.103 495.629 201.742 494.045 202.089C492.467 202.434 490.781 202.332 488.986 201.783C487.194 201.228 485.492 200.065 483.879 198.296ZM493.283 192.622C492.234 191.471 491.881 190.437 492.224 189.52C492.562 188.599 493.524 187.965 495.108 187.618C496.685 187.273 498.37 187.378 500.163 187.934C501.957 188.483 503.661 189.642 505.273 191.411L505.523 191.686C507.279 193.612 507.941 195.332 507.511 196.845C507.077 198.352 505.463 199.418 502.671 200.041L502.391 200.103L501.103 198.69L501.372 198.63C503.386 198.19 504.6 197.438 505.016 196.374C505.432 195.309 504.853 193.914 503.279 192.186L502.915 191.842C501.728 190.539 500.584 189.684 499.484 189.278C498.384 188.872 497.339 188.778 496.35 188.994C495.388 189.205 494.839 189.576 494.701 190.108C494.564 190.64 494.86 191.307 495.59 192.108C496.301 192.888 497.106 193.43 498.007 193.736C498.903 194.035 499.835 194.08 500.803 193.868C501.709 193.669 502.3 193.289 502.576 192.726C502.854 192.157 502.656 191.503 501.984 190.765L502.762 190.595C503.745 191.673 504.131 192.653 503.922 193.534C503.719 194.413 502.898 195.01 501.459 195.325C500.006 195.643 498.538 195.556 497.053 195.065C495.575 194.572 494.318 193.758 493.283 192.622ZM505.528 189.943C504.479 188.791 504.126 187.757 504.469 186.841C504.807 185.919 505.768 185.285 507.353 184.938C508.93 184.593 510.615 184.699 512.407 185.254C514.202 185.803 515.906 186.962 517.518 188.732L517.768 189.006C519.524 190.933 520.186 192.652 519.756 194.165C519.321 195.673 517.708 196.738 514.916 197.362L514.635 197.423L513.347 196.01L513.617 195.951C515.63 195.51 516.845 194.758 517.261 193.694C517.677 192.63 517.098 191.234 515.524 189.507L515.16 189.163C513.972 187.859 512.829 187.005 511.728 186.599C510.628 186.193 509.584 186.098 508.594 186.315C507.633 186.525 507.083 186.896 506.946 187.429C506.809 187.961 507.105 188.628 507.835 189.428C508.546 190.208 509.351 190.751 510.252 191.056C511.147 191.356 512.08 191.4 513.048 191.188C513.954 190.99 514.545 190.609 514.821 190.047C515.099 189.478 514.901 188.824 514.229 188.086L515.007 187.916C515.99 188.994 516.376 189.973 516.166 190.854C515.964 191.733 515.143 192.331 513.704 192.645C512.251 192.963 510.782 192.877 509.298 192.385C507.82 191.893 506.563 191.078 505.528 189.943ZM522.775 186.169C521.725 185.017 521.372 183.983 521.715 183.067C522.054 182.145 523.015 181.511 524.599 181.164C526.177 180.819 527.862 180.925 529.654 181.48C531.449 182.029 533.152 183.188 534.765 184.958L535.015 185.232C536.77 187.159 537.433 188.878 537.003 190.391C536.568 191.899 534.954 192.964 532.162 193.588L531.882 193.649L530.594 192.236L530.864 192.177C532.877 191.737 534.092 190.984 534.508 189.92C534.923 188.856 534.344 187.46 532.77 185.733L532.407 185.389C531.219 184.085 530.075 183.231 528.975 182.825C527.875 182.419 526.83 182.324 525.841 182.541C524.879 182.751 524.33 183.122 524.193 183.655C524.055 184.187 524.352 184.854 525.082 185.654C525.792 186.434 526.598 186.977 527.498 187.282C528.394 187.582 529.326 187.626 530.295 187.414C531.201 187.216 531.792 186.835 532.067 186.273C532.345 185.704 532.148 185.05 531.475 184.312L532.254 184.142C533.236 185.22 533.623 186.199 533.413 187.08C533.21 187.96 532.39 188.557 530.951 188.872C529.498 189.189 528.029 189.103 526.544 188.612C525.066 188.119 523.81 187.305 522.775 186.169ZM535.02 183.489C533.97 182.338 533.617 181.304 533.96 180.387C534.299 179.466 535.26 178.832 536.844 178.485C538.421 178.14 540.106 178.245 541.899 178.801C543.694 179.35 545.397 180.509 547.009 182.278L547.26 182.553C549.015 184.479 549.678 186.199 549.248 187.712C548.813 189.219 547.199 190.285 544.407 190.909L544.127 190.97L542.839 189.557L543.109 189.498C545.122 189.057 546.336 188.305 546.752 187.241C547.168 186.177 546.589 184.781 545.015 183.054L544.652 182.709C543.464 181.406 542.32 180.551 541.22 180.145C540.12 179.74 539.075 179.645 538.086 179.861C537.124 180.072 536.575 180.443 536.438 180.975C536.3 181.508 536.597 182.174 537.326 182.975C538.037 183.755 538.843 184.297 539.743 184.603C540.639 184.903 541.571 184.947 542.54 184.735C543.446 184.536 544.037 184.156 544.312 183.593C544.59 183.024 544.393 182.37 543.72 181.632L544.498 181.462C545.481 182.54 545.868 183.52 545.658 184.401C545.455 185.28 544.634 185.877 543.196 186.192C541.743 186.51 540.274 186.423 538.789 185.932C537.311 185.439 536.055 184.625 535.02 183.489ZM547.264 180.81C546.215 179.658 545.862 178.624 546.205 177.708C546.543 176.786 547.505 176.152 549.089 175.806C550.666 175.46 552.351 175.566 554.144 176.121C555.939 176.67 557.642 177.829 559.254 179.599L559.505 179.873C561.26 181.8 561.923 183.519 561.493 185.032C561.058 186.54 559.444 187.606 556.652 188.229L556.372 188.29L555.084 186.877L555.354 186.818C557.367 186.378 558.581 185.625 558.997 184.561C559.413 183.497 558.834 182.101 557.26 180.374L556.897 180.03C555.709 178.727 554.565 177.872 553.465 177.466C552.365 177.06 551.32 176.965 550.331 177.182C549.369 177.392 548.82 177.764 548.682 178.296C548.545 178.828 548.842 179.495 549.571 180.296C550.282 181.075 551.088 181.618 551.988 181.923C552.884 182.223 553.816 182.267 554.784 182.055C555.691 181.857 556.282 181.477 556.557 180.914C556.835 180.345 556.638 179.691 555.965 178.953L556.743 178.783C557.726 179.861 558.112 180.84 557.903 181.721C557.7 182.601 556.879 183.198 555.44 183.513C553.988 183.831 552.519 183.744 551.034 183.253C549.556 182.76 548.299 181.946 547.264 180.81Z" fill="#8E8E8E"/>
<path d="M283.38 202.854L282.836 202.257C281.171 200.43 280.523 198.899 280.89 197.663C281.26 196.421 282.41 195.589 284.34 195.166C286.242 194.75 288.054 194.79 289.776 195.286C291.504 195.78 292.894 196.581 293.944 197.688L294.095 197.853L291.77 198.362L291.599 198.174C290.934 197.471 290.089 196.963 289.063 196.647C288.037 196.332 286.894 196.312 285.635 196.587C284.369 196.864 283.652 197.43 283.483 198.283C283.31 199.13 283.851 200.243 285.105 201.619L285.863 202.451C287.061 203.765 288.378 204.692 289.815 205.231C291.253 205.77 292.611 205.9 293.891 205.62C295.109 205.353 295.815 204.926 296.008 204.337C296.197 203.743 296.001 203.086 295.419 202.366L295.269 202.201L297.594 201.693L297.748 201.876C298.648 202.991 298.92 204.027 298.564 204.984C298.203 205.935 297.068 206.62 295.158 207.038C293.201 207.466 291.161 207.332 289.041 206.634C286.922 205.93 285.035 204.67 283.38 202.854ZM295.203 198.647L294.009 197.335L303.638 195.228L304.833 196.539L301.139 197.348L307.307 204.116L305.065 204.606L298.898 197.838L295.203 198.647ZM308.531 199.149L308.302 198.897C307.176 197.662 306.779 196.553 307.111 195.57C307.446 194.58 308.46 193.9 310.155 193.529C311.857 193.157 313.568 193.241 315.288 193.781C317.011 194.314 318.435 195.198 319.561 196.434L319.79 196.685C320.915 197.92 321.311 199.033 320.977 200.023C320.644 201.006 319.627 201.683 317.926 202.056C316.231 202.427 314.522 202.345 312.8 201.812C311.079 201.272 309.656 200.384 308.531 199.149ZM310.559 198.356L310.86 198.686C311.599 199.497 312.485 200.101 313.518 200.496C314.552 200.885 315.616 200.96 316.709 200.721C317.809 200.48 318.406 200.042 318.499 199.407C318.594 198.764 318.271 198.037 317.532 197.226L317.232 196.896C316.497 196.09 315.612 195.493 314.578 195.104C313.538 194.71 312.472 194.632 311.379 194.872C310.293 195.109 309.702 195.549 309.607 196.192C309.507 196.829 309.825 197.55 310.559 198.356ZM325.57 200.119L318.208 192.04L320.439 191.552L324.853 196.396C325.006 196.564 325.167 196.745 325.337 196.94C325.502 197.13 325.653 197.31 325.792 197.481L325.886 197.46C325.854 197.298 325.82 197.129 325.786 196.955C325.758 196.779 325.737 196.583 325.722 196.366L325.793 190.38L328.066 189.883L335.428 197.962L333.197 198.45L328.776 193.598C328.628 193.436 328.469 193.257 328.299 193.062C328.13 192.867 327.976 192.684 327.837 192.513L327.733 192.536C327.765 192.699 327.798 192.867 327.833 193.042C327.867 193.216 327.892 193.412 327.907 193.628L327.843 199.622L325.57 200.119ZM338.251 197.344L330.888 189.265L333.96 188.593L341.996 193.191C342.408 193.434 342.683 193.603 342.819 193.698C342.963 193.793 343.118 193.903 343.283 194.03L343.366 194.012C343.284 193.867 343.218 193.74 343.169 193.631C343.115 193.518 343.045 193.304 342.958 192.99L341.328 186.981L344.368 186.316L351.731 194.395L349.552 194.872L344.657 189.501C344.409 189.229 344.224 189.021 344.103 188.879C343.976 188.731 343.86 188.59 343.755 188.456L343.682 188.472C343.762 188.605 343.835 188.749 343.902 188.904C343.968 189.059 344.047 189.286 344.138 189.587L345.795 195.694L343.989 196.089L335.791 191.394C335.433 191.184 335.156 191.012 334.96 190.879C334.765 190.746 334.59 190.618 334.436 190.495L334.353 190.513C334.486 190.641 334.618 190.772 334.749 190.907C334.887 191.04 335.073 191.234 335.306 191.491L340.243 196.908L338.251 197.344ZM350.371 189.993L350.142 189.742C349.016 188.507 348.619 187.397 348.951 186.414C349.286 185.425 350.3 184.744 351.995 184.374C353.697 184.001 355.408 184.085 357.129 184.625C358.851 185.159 360.275 186.043 361.401 187.278L361.63 187.529C362.755 188.765 363.151 189.877 362.817 190.867C362.485 191.85 361.467 192.528 359.766 192.9C358.071 193.271 356.362 193.19 354.64 192.656C352.919 192.116 351.496 191.228 350.371 189.993ZM352.399 189.201L352.7 189.531C353.439 190.342 354.325 190.945 355.358 191.341C356.392 191.73 357.456 191.805 358.549 191.565C359.649 191.325 360.246 190.887 360.339 190.251C360.434 189.609 360.112 188.882 359.372 188.071L359.072 187.741C358.337 186.935 357.452 186.337 356.418 185.948C355.378 185.554 354.312 185.477 353.219 185.716C352.133 185.954 351.542 186.394 351.447 187.036C351.347 187.673 351.665 188.395 352.399 189.201ZM363.217 187.182L362.988 186.931C361.853 185.685 361.437 184.577 361.739 183.607C362.037 182.631 363.033 181.958 364.728 181.587C366.319 181.239 367.792 181.262 369.147 181.656C370.502 182.05 371.543 182.632 372.269 183.403L372.358 183.487L370.169 183.966L370.104 183.895C369.709 183.461 369.151 183.14 368.431 182.933C367.707 182.721 366.878 182.718 365.944 182.922C364.865 183.158 364.295 183.594 364.235 184.228C364.17 184.858 364.507 185.578 365.246 186.39L365.546 186.719C366.281 187.526 367.15 188.133 368.152 188.541C369.15 188.944 370.196 189.026 371.289 188.787C372.244 188.578 372.795 188.272 372.942 187.87C373.092 187.46 372.969 187.038 372.573 186.604L372.516 186.541L374.705 186.062L374.77 186.133C375.469 186.909 375.661 187.68 375.346 188.445C375.039 189.21 374.089 189.766 372.498 190.114C370.803 190.485 369.115 190.399 367.435 189.857C365.754 189.314 364.348 188.423 363.217 187.182ZM371.952 181.852L370.757 180.541L380.387 178.434L381.582 179.745L377.887 180.553L384.055 187.321L381.814 187.812L375.646 181.044L371.952 181.852ZM384.351 177.567L386.819 180.275L390.015 179.576C391.351 179.284 392.59 179.301 393.735 179.628C394.886 179.954 395.839 180.53 396.592 181.357C397.351 182.19 397.593 182.924 397.32 183.562C397.048 184.193 396.245 184.654 394.909 184.946L389.472 186.136L382.109 178.057L384.351 177.567ZM390.953 180.877L387.964 181.531L390.569 184.389L393.557 183.735C394.325 183.567 394.743 183.316 394.811 182.981C394.886 182.644 394.728 182.261 394.337 181.832C393.955 181.413 393.486 181.108 392.929 180.916C392.379 180.722 391.721 180.709 390.953 180.877ZM414.912 184.675C412.911 184.573 410.745 184.027 408.415 183.036C406.09 182.051 404.002 180.543 402.152 178.512L402.08 178.433C400.22 176.392 399.311 174.626 399.355 173.134C399.405 171.642 400.027 170.485 401.222 169.665L402.545 171.118C401.945 171.689 401.694 172.519 401.791 173.609C401.895 174.697 402.746 176.118 404.344 177.872L404.516 178.06C406.09 179.788 407.67 181.039 409.258 181.816C410.856 182.596 412.3 183.065 413.589 183.222L414.912 184.675ZM409.499 177.055L409.27 176.803C408.144 175.568 407.747 174.459 408.08 173.476C408.414 172.486 409.429 171.806 411.124 171.435C412.825 171.063 414.536 171.146 416.257 171.687C417.979 172.22 419.403 173.104 420.529 174.34L420.758 174.591C421.884 175.826 422.279 176.939 421.945 177.928C421.613 178.911 420.596 179.589 418.894 179.962C417.199 180.332 415.49 180.251 413.768 179.718C412.048 179.178 410.625 178.29 409.499 177.055ZM411.527 176.262L411.828 176.592C412.567 177.403 413.453 178.007 414.486 178.402C415.521 178.791 416.584 178.866 417.678 178.627C418.777 178.386 419.374 177.948 419.467 177.312C419.562 176.67 419.24 175.943 418.5 175.132L418.2 174.802C417.465 173.996 416.581 173.399 415.546 173.01C414.506 172.616 413.44 172.538 412.347 172.778C411.261 173.015 410.67 173.455 410.575 174.098C410.475 174.735 410.793 175.456 411.527 176.262ZM419.271 171.498L418.076 170.187L427.706 168.079L428.901 169.391L425.207 170.199L431.374 176.967L429.133 177.457L422.965 170.689L419.271 171.498ZM434.525 168.16L433.33 166.849L442.96 164.741L444.155 166.053L440.461 166.861L446.628 173.629L444.387 174.119L438.219 167.351L434.525 168.16ZM446.924 163.874L449.393 166.583L452.589 165.883C453.924 165.591 455.164 165.609 456.308 165.936C457.46 166.261 458.412 166.838 459.166 167.665C459.924 168.497 460.167 169.232 459.893 169.869C459.621 170.5 458.818 170.962 457.483 171.254L452.045 172.444L444.683 164.365L446.924 163.874ZM453.526 167.185L450.537 167.839L453.142 170.697L456.13 170.043C456.898 169.875 457.316 169.623 457.384 169.288C457.459 168.952 457.301 168.569 456.91 168.14C456.528 167.721 456.059 167.415 455.503 167.223C454.953 167.03 454.294 167.017 453.526 167.185ZM462.951 170.057L455.589 161.978L457.841 161.485L465.203 169.564L462.951 170.057ZM463.833 165.165L463.604 164.914C462.469 163.668 462.052 162.56 462.355 161.59C462.652 160.614 463.648 159.941 465.343 159.57C466.935 159.222 468.408 159.245 469.762 159.639C471.117 160.033 472.158 160.616 472.885 161.386L472.974 161.47L470.784 161.949L470.72 161.878C470.324 161.444 469.766 161.123 469.047 160.917C468.323 160.705 467.494 160.701 466.56 160.905C465.481 161.141 464.911 161.577 464.85 162.212C464.785 162.841 465.122 163.561 465.861 164.373L466.162 164.703C466.897 165.509 467.765 166.116 468.768 166.524C469.766 166.927 470.811 167.009 471.905 166.77C472.859 166.561 473.41 166.255 473.558 165.853C473.707 165.443 473.584 165.021 473.188 164.587L473.131 164.524L475.321 164.045L475.385 164.116C476.084 164.892 476.276 165.663 475.962 166.428C475.654 167.193 474.705 167.749 473.114 168.097C471.419 168.468 469.731 168.382 468.05 167.84C466.369 167.297 464.963 166.406 463.833 165.165ZM479.143 165.412C478.871 165.114 478.768 164.832 478.833 164.567C478.898 164.301 479.173 164.116 479.657 164.01C480.134 163.905 480.596 163.93 481.043 164.083C481.49 164.236 481.852 164.465 482.128 164.768C482.4 165.067 482.504 165.349 482.438 165.614C482.373 165.879 482.099 166.065 481.614 166.171C481.137 166.275 480.675 166.251 480.228 166.098C479.781 165.944 479.42 165.716 479.143 165.412ZM492.059 158.198L485.667 159.596L484.415 158.222L490.672 156.853C491.724 156.623 492.315 156.271 492.447 155.796C492.586 155.32 492.371 154.77 491.804 154.148C491.284 153.577 490.613 153.146 489.792 152.855C488.973 152.557 488.024 152.526 486.944 152.762L484.599 153.276L493.75 163.318L491.53 163.804L481.112 152.372L485.813 151.343C487.494 150.975 489.063 151.009 490.521 151.443C491.979 151.877 493.173 152.605 494.103 153.626C495.091 154.709 495.416 155.649 495.079 156.444C494.742 157.24 493.735 157.824 492.059 158.198ZM495.332 159.016L496.498 160.296L487.989 162.158L486.823 160.878L495.332 159.016ZM506.309 161.747L501.544 147.901L503.589 147.453L508.353 161.299L506.309 161.747ZM512.05 149.623L519.989 147.886L521.184 149.197L515.487 150.444L521.654 157.212L519.413 157.702L512.05 149.623ZM524.891 151.804L524.662 151.553C523.536 150.318 523.14 149.208 523.472 148.225C523.806 147.236 524.821 146.555 526.516 146.184C528.218 145.812 529.929 145.896 531.649 146.436C533.371 146.97 534.796 147.854 535.921 149.089L536.15 149.34C537.276 150.576 537.672 151.688 537.337 152.678C537.005 153.661 535.988 154.339 534.286 154.711C532.591 155.082 530.883 155.001 529.16 154.467C527.44 153.927 526.017 153.039 524.891 151.804ZM526.92 151.012L527.22 151.342C527.96 152.153 528.846 152.756 529.878 153.152C530.913 153.541 531.977 153.616 533.07 153.376C534.17 153.136 534.766 152.698 534.859 152.062C534.954 151.42 534.632 150.693 533.893 149.882L533.592 149.552C532.858 148.746 531.973 148.148 530.938 147.759C529.899 147.365 528.832 147.288 527.739 147.527C526.653 147.765 526.063 148.205 525.968 148.847C525.868 149.484 526.185 150.206 526.92 151.012ZM552.801 152.929L550.876 150.817L542.688 152.609L544.613 154.721L542.548 155.173L539.429 151.75L551.756 149.052L554.876 152.475L552.801 152.929ZM538.534 145.4L540.844 148.153C541.456 148.88 541.911 149.47 542.21 149.926C542.516 150.38 542.727 150.789 542.843 151.153L540.581 151.648C540.57 151.336 540.421 150.927 540.132 150.418C539.839 149.905 539.311 149.198 538.548 148.298L535.378 144.518L544.011 142.629L551.374 150.708L549.133 151.199L542.965 144.431L538.534 145.4ZM556.745 153.639L555.422 152.186C556.031 151.626 556.274 150.791 556.151 149.682C556.04 148.576 555.197 147.16 553.623 145.432L553.451 145.244C551.853 143.49 550.259 142.232 548.667 141.469C547.083 140.705 545.656 140.241 544.389 140.079L543.065 138.627C545.057 138.737 547.211 139.28 549.527 140.255C551.845 141.223 553.941 142.735 555.815 144.792L555.887 144.871C557.738 146.902 558.636 148.67 558.581 150.176C558.533 151.681 557.921 152.835 556.745 153.639Z" fill="#8E8E8E"/>
<rect width="562.004" height="7.25166" rx="3.62583" transform="matrix(0.976885 -0.213764 0.673568 0.739125 329.264 254.624)" fill="#DBD8E8"/>
<circle cx="14.5033" cy="14.5033" r="12.6904" transform="matrix(0.976885 -0.213764 0.673568 0.739125 321.938 246.584)" fill="white" stroke="#4C3B8A" stroke-width="3.62583"/>
<circle cx="14.5033" cy="14.5033" r="12.6904" transform="matrix(0.976885 -0.213764 0.673568 0.739125 491.954 209.381)" fill="white" stroke="#4C3B8A" stroke-width="3.62583"/>
<rect x="1.49607" y="0.476217" width="561.399" height="70.7037" rx="35.3518" transform="matrix(0.976885 -0.213764 0.673568 0.739125 353.4 281.868)" stroke="#4C3B8A" stroke-width="1.81291"/>
<path d="M530.932 274.924L530.402 274.343C528.694 272.469 528.058 270.919 528.493 269.694C528.93 268.462 530.19 267.618 532.273 267.163C534.258 266.728 536.152 266.753 537.954 267.238C539.757 267.722 541.221 268.56 542.348 269.751L542.606 270.034L539.347 270.747L539.025 270.393C538.423 269.759 537.695 269.316 536.842 269.063C535.99 268.81 535.03 268.8 533.965 269.034C532.872 269.273 532.244 269.74 532.081 270.435C531.919 271.123 532.378 272.058 533.456 273.241L534.644 274.545C535.684 275.686 536.789 276.47 537.959 276.899C539.136 277.325 540.292 277.415 541.426 277.166C542.464 276.939 543.061 276.579 543.218 276.087C543.377 275.587 543.183 275.015 542.635 274.369L542.374 274.068L545.632 273.355L545.915 273.679C546.919 274.853 547.197 275.932 546.749 276.915C546.296 277.893 545.076 278.599 543.091 279.034C540.988 279.494 538.859 279.389 536.704 278.718C534.544 278.041 532.62 276.777 530.932 274.924ZM550.424 277.166L543.047 269.071L547.395 268.119L553.871 271.948C554.286 272.202 554.558 272.378 554.688 272.475C554.825 272.571 554.968 272.678 555.117 272.796L555.2 272.777C555.12 272.644 555.052 272.524 554.996 272.417C554.947 272.309 554.862 272.092 554.74 271.767L553.238 266.841L557.555 265.896L564.931 273.991L561.818 274.672L557.439 269.867C557.177 269.579 556.978 269.356 556.842 269.198C556.705 269.039 556.586 268.889 556.482 268.749L556.399 268.767C556.484 268.905 556.564 269.057 556.64 269.223C556.717 269.388 556.812 269.634 556.927 269.961L558.622 275.372L556.287 275.883L549.164 271.631C548.787 271.4 548.496 271.212 548.291 271.069C548.086 270.925 547.904 270.789 547.745 270.661L547.662 270.679C547.793 270.814 547.929 270.953 548.069 271.098C548.216 271.242 548.417 271.452 548.669 271.73L553.091 276.582L550.424 277.166ZM563.315 269.636L563.086 269.385C561.932 268.118 561.57 266.989 562.002 265.997C562.429 264.999 563.542 264.304 565.341 263.91C567.139 263.516 568.939 263.575 570.74 264.085C572.536 264.589 574.011 265.475 575.165 266.742L575.394 266.993C576.548 268.26 576.912 269.392 576.485 270.389C576.053 271.382 574.938 272.074 573.14 272.468C571.341 272.862 569.544 272.806 567.748 272.301C565.947 271.791 564.469 270.903 563.315 269.636ZM566.199 268.553L566.65 269.048C567.313 269.775 568.063 270.28 568.9 270.561C569.733 270.837 570.602 270.876 571.508 270.678C572.414 270.48 572.936 270.136 573.072 269.648C573.203 269.155 572.937 268.545 572.274 267.817L571.823 267.322C571.165 266.6 570.416 266.102 569.577 265.827C568.733 265.547 567.864 265.505 566.972 265.7C566.079 265.895 565.564 266.24 565.426 266.735C565.283 267.225 565.541 267.831 566.199 268.553ZM574.233 264.394L572.601 262.604L582.947 260.34L584.578 262.13L580.988 262.916L586.733 269.22L583.568 269.913L577.823 263.608L574.233 264.394ZM594.902 271.369L584.535 259.992L587.523 259.338L588.48 260.306L588.521 260.297C588.491 259.908 588.692 259.538 589.126 259.185C589.563 258.826 590.175 258.56 590.964 258.388C592.451 258.062 593.987 258.169 595.573 258.707C597.154 259.24 598.512 260.129 599.648 261.375L599.877 261.626C601.007 262.867 601.458 263.958 601.229 264.899C601.007 265.84 600.166 266.469 598.706 266.789C597.918 266.961 597.135 267.023 596.36 266.973C595.584 266.923 594.888 266.774 594.272 266.525L598.057 270.679L594.902 271.369ZM592.54 264.625C593.009 264.893 593.573 265.093 594.232 265.225C594.899 265.356 595.54 265.353 596.155 265.219C597.034 265.026 597.511 264.69 597.587 264.208C597.663 263.727 597.389 263.144 596.764 262.458L596.32 261.971C595.691 261.28 594.987 260.791 594.21 260.503C593.433 260.214 592.602 260.167 591.716 260.361C591.08 260.5 590.646 260.73 590.415 261.05C590.191 261.369 590.118 261.703 590.194 262.05L592.54 264.625ZM601.274 261.33L601.045 261.079C599.905 259.828 599.532 258.704 599.927 257.707C600.321 256.711 601.376 256.025 603.092 255.649C604.815 255.272 606.487 255.336 608.109 255.841C609.726 256.341 611.105 257.217 612.245 258.468L612.989 259.284L603.681 261.321L602.379 259.892L608.574 258.537L608.474 258.427C608.07 257.975 607.533 257.641 606.862 257.423C606.191 257.206 605.444 257.187 604.621 257.368C603.756 257.557 603.284 257.908 603.204 258.422C603.124 258.935 603.402 259.54 604.036 260.236L604.501 260.746C605.15 261.458 605.905 261.968 606.766 262.275C607.634 262.581 608.549 262.629 609.51 262.419C610.154 262.278 610.617 262.054 610.902 261.747C611.181 261.435 611.331 261.107 611.35 260.764L614.573 261.254C614.681 261.865 614.448 262.434 613.875 262.961C613.304 263.481 612.396 263.878 611.151 264.15C609.241 264.568 607.403 264.518 605.637 264.001C603.873 263.476 602.419 262.586 601.274 261.33ZM611.32 256.278L609.689 254.488L620.035 252.224L621.666 254.014L618.075 254.8L623.821 261.105L620.656 261.797L614.91 255.493L611.32 256.278ZM624.777 251.187L627.117 253.754L630.23 253.073C631.599 252.773 632.864 252.795 634.022 253.137C635.183 253.473 636.16 254.076 636.952 254.945C637.758 255.829 638.019 256.585 637.736 257.212C637.46 257.838 636.636 258.3 635.267 258.6L628.999 259.972L621.622 251.877L624.777 251.187ZM631.081 254.826L628.59 255.371L630.68 257.664L633.17 257.119C633.758 256.99 634.086 256.799 634.154 256.546C634.229 256.291 634.094 255.975 633.751 255.598C633.431 255.247 633.053 255.001 632.616 254.858C632.181 254.708 631.669 254.698 631.081 254.826ZM638.993 248.076L642.148 247.385L644.953 250.463L649.415 249.487L646.61 246.409L649.775 245.716L657.152 253.811L653.987 254.504L651.039 251.269L646.577 252.245L649.525 255.48L646.37 256.17L638.993 248.076ZM657.004 251C656.193 250.11 656.071 249.33 656.639 248.659C657.206 247.989 658.249 247.485 659.766 247.146L662.318 246.588L661.896 246.125C661.567 245.763 661.15 245.506 660.646 245.353C660.148 245.198 659.529 245.202 658.788 245.364C658.055 245.524 657.613 245.731 657.462 245.984C657.306 246.231 657.354 246.494 657.607 246.771L657.721 246.897L654.639 247.571L654.518 247.438C653.85 246.705 653.787 245.994 654.328 245.304C654.869 244.614 655.929 244.097 657.506 243.752C659.097 243.403 660.539 243.361 661.833 243.624C663.127 243.887 664.212 244.5 665.09 245.463L668.453 249.154C668.753 249.483 669.081 249.788 669.436 250.068C669.786 250.343 670.129 250.57 670.465 250.747L670.58 250.873L667.477 251.552C667.27 251.453 667.041 251.314 666.788 251.137C666.543 250.959 666.322 250.781 666.128 250.604C666.174 250.964 665.968 251.339 665.509 251.728C665.046 252.112 664.313 252.414 663.31 252.633C662.154 252.886 661.005 252.886 659.863 252.634C658.72 252.382 657.767 251.837 657.004 251ZM659.983 250.103C660.303 250.454 660.719 250.701 661.233 250.846C661.749 250.985 662.356 250.977 663.055 250.824C663.782 250.665 664.261 250.381 664.494 249.973C664.723 249.558 664.649 249.145 664.272 248.731L663.592 247.985L661.61 248.419C660.718 248.614 660.139 248.854 659.875 249.138C659.613 249.415 659.649 249.736 659.983 250.103ZM685.512 247.605L678.54 244.762L679.192 242.773L689.165 246.806L685.512 247.605ZM674.925 243.895L677.592 243.312L677.866 239.57L681.28 238.822L680.828 244.76L676.563 245.693L674.925 243.895ZM673.684 240.485L681.06 248.579L677.895 249.272L670.519 241.177L673.684 240.485ZM687.471 244.333C686.66 243.443 686.538 242.663 687.106 241.992C687.673 241.322 688.715 240.818 690.233 240.48L692.785 239.921L692.363 239.458C692.034 239.097 691.617 238.839 691.112 238.686C690.615 238.531 689.996 238.535 689.255 238.697C688.522 238.857 688.08 239.064 687.928 239.317C687.772 239.564 687.821 239.827 688.074 240.104L688.188 240.23L685.106 240.904L684.984 240.771C684.317 240.038 684.253 239.327 684.795 238.637C685.336 237.947 686.396 237.43 687.973 237.085C689.564 236.737 691.006 236.694 692.3 236.957C693.593 237.22 694.679 237.833 695.557 238.797L698.92 242.487C699.22 242.816 699.548 243.121 699.903 243.402C700.253 243.677 700.596 243.903 700.932 244.08L701.047 244.206L697.944 244.885C697.737 244.786 697.508 244.648 697.255 244.471C697.009 244.292 696.789 244.114 696.595 243.937C696.641 244.297 696.435 244.672 695.976 245.061C695.513 245.445 694.78 245.747 693.777 245.966C692.621 246.219 691.472 246.219 690.33 245.967C689.187 245.715 688.234 245.17 687.471 244.333ZM690.45 243.436C690.77 243.787 691.186 244.034 691.7 244.179C692.216 244.318 692.823 244.31 693.522 244.157C694.248 243.999 694.728 243.715 694.961 243.306C695.19 242.892 695.115 242.478 694.739 242.064L694.059 241.318L692.077 241.752C691.185 241.947 690.606 242.187 690.342 242.471C690.08 242.748 690.116 243.07 690.45 243.436ZM706.185 247.018L695.818 235.641L698.806 234.987L699.763 235.955L699.805 235.946C699.774 235.557 699.975 235.187 700.409 234.834C700.846 234.475 701.458 234.209 702.247 234.037C703.734 233.711 705.271 233.818 706.856 234.356C708.437 234.889 709.795 235.778 710.931 237.024L711.16 237.275C712.29 238.516 712.741 239.607 712.512 240.548C712.29 241.488 711.449 242.118 709.989 242.437C709.201 242.61 708.419 242.671 707.643 242.621C706.867 242.571 706.171 242.422 705.555 242.174L709.34 246.328L706.185 247.018ZM703.824 240.274C704.292 240.542 704.856 240.742 705.515 240.874C706.182 241.004 706.823 241.002 707.438 240.867C708.317 240.675 708.794 240.338 708.87 239.857C708.946 239.376 708.672 238.793 708.047 238.107L707.603 237.62C706.974 236.929 706.27 236.44 705.493 236.151C704.716 235.863 703.885 235.816 702.999 236.01C702.363 236.149 701.929 236.379 701.698 236.699C701.475 237.018 701.401 237.351 701.477 237.699L703.824 240.274ZM710.005 234.684L708.374 232.894L718.72 230.63L720.351 232.42L716.761 233.205L722.506 239.51L719.341 240.203L713.596 233.898L710.005 234.684ZM723.536 234.576L723.307 234.325C722.167 233.074 721.794 231.95 722.189 230.954C722.583 229.957 723.638 229.271 725.354 228.895C727.077 228.519 728.749 228.583 730.371 229.088C731.988 229.588 733.367 230.463 734.507 231.714L735.251 232.531L725.943 234.568L724.641 233.139L730.836 231.783L730.735 231.673C730.332 231.221 729.795 230.887 729.124 230.67C728.453 230.452 727.706 230.434 726.883 230.614C726.018 230.803 725.546 231.154 725.466 231.668C725.386 232.181 725.664 232.786 726.298 233.482L726.763 233.993C727.412 234.704 728.167 235.214 729.028 235.522C729.896 235.828 730.811 235.875 731.772 235.665C732.416 235.524 732.879 235.3 733.164 234.993C733.443 234.681 733.593 234.353 733.612 234.01L736.835 234.501C736.943 235.111 736.71 235.68 736.137 236.207C735.566 236.728 734.658 237.124 733.412 237.397C731.503 237.815 729.665 237.765 727.899 237.247C726.135 236.723 724.681 235.832 723.536 234.576Z" fill="#4C3B8A"/>
</g>
<rect x="1" y="1" width="702" height="255" rx="23" stroke="#DBD8E8" stroke-width="2"/>
<defs>
<clipPath id="clip0_3540_23640">
<rect width="704" height="257" rx="24" fill="white"/>
</clipPath>
</defs>
</svg>
