<svg width="247" height="247" viewBox="0 0 247 247" fill="none" xmlns="http://www.w3.org/2000/svg">
<path d="M123.5 1C147.728 1 171.412 8.1845 191.557 21.645C211.702 35.1054 227.404 54.2373 236.675 76.6213C245.947 99.0052 248.373 123.636 243.646 147.399C238.92 171.161 227.253 192.989 210.121 210.121L185.867 185.867C198.202 173.532 206.602 157.816 210.005 140.707C213.408 123.598 211.662 105.864 204.986 89.7473C198.311 73.6309 187.006 59.8559 172.501 50.1644C157.997 40.4728 140.944 35.3 123.5 35.3V1Z" fill="#49A57E" stroke="white" stroke-width="1.45401"/>
<path d="M210.121 210.121C191.644 228.597 167.744 240.681 141.912 244.608C116.079 248.536 89.6673 244.1 66.5349 231.949C43.4025 219.798 24.7614 200.569 13.3346 177.071C1.90788 153.572 -1.70581 127.036 3.02145 101.338L36.7554 107.543C33.3518 126.046 35.9537 145.152 44.1809 162.071C52.4082 178.99 65.8298 192.835 82.4851 201.583C99.1404 210.332 118.157 213.526 136.756 210.698C155.356 207.871 172.564 199.17 185.867 185.867L210.121 210.121Z" fill="#977AD6" stroke="white" stroke-width="1.45401"/>
<path d="M2.71515 103.073C7.55183 74.4738 22.3795 48.5187 44.559 29.8273C66.7385 11.136 94.8308 0.920947 123.836 1.00046L123.742 35.3003C102.858 35.2431 82.6317 42.5979 66.6625 56.0557C50.6932 69.5135 40.0173 88.2011 36.5349 108.792L2.71515 103.073Z" fill="#FD8B21" stroke="white" stroke-width="1.45401"/>
</svg>
