<svg width="86" height="86" viewBox="0 0 86 86" fill="none" xmlns="http://www.w3.org/2000/svg">
<g opacity="0.7" filter="url(#filter0_i_1216_4724)">
<path fill-rule="evenodd" clip-rule="evenodd" d="M43.6055 0.000976562L46.0279 2.91076H46.0282L43.6056 5.97315L41.1832 2.91076L43.6055 0.000976562ZM17.7435 21.5004C18.4144 18.3605 15.6337 20.0036 14.8826 20.5909H14.8824C15.7998 17.9953 14.8843 17.0053 14.1192 16.178C13.6397 15.6595 13.2192 15.2049 13.3462 14.4589C13.487 13.6308 14.6354 13.4627 15.7475 13.2998C16.4526 13.1966 17.1432 13.0955 17.5532 12.8297C18.0533 12.5057 18.5778 11.932 19.1058 11.3544C20.558 9.76589 22.037 8.14797 23.1093 11.6148C20.3849 14.2189 21.971 18.0522 25.4298 18.0522C25.4298 18.0522 25.4491 18.6142 25.4188 18.6589C21.2919 18.4511 19.853 15.3293 20.6067 12.8297C20.7405 12.3876 16.3749 12.3764 16.3749 15.1884C16.3749 16.122 17.0158 16.8122 17.6625 17.5087C18.3213 18.2183 18.9863 18.9345 18.9863 19.9214C18.9863 20.8322 18.0341 21.5004 17.7435 21.5004ZM65.392 12.8297C65.2583 12.3876 69.6238 12.3765 69.6238 15.1884C69.6238 16.122 68.983 16.8122 68.3363 17.5087C67.6775 18.2183 67.0126 18.9345 67.0126 19.9214C67.0126 20.8322 67.9648 21.5004 68.2569 21.5004C67.5844 18.3605 70.3654 20.0036 71.1163 20.5909C70.199 17.9955 71.1148 17.0055 71.8801 16.1782C72.3598 15.6596 72.7803 15.205 72.6528 14.4589C72.512 13.6308 71.3636 13.4626 70.2514 13.2998C69.5463 13.1965 68.8558 13.0954 68.4458 12.8297C67.9457 12.5057 67.4213 11.9321 66.8933 11.3545L66.8933 11.3545L66.8932 11.3544C65.441 9.76589 63.962 8.14797 62.8897 11.6148C65.6154 14.2192 64.0294 18.0522 60.5692 18.0522C60.5692 18.0522 60.5498 18.6142 60.5815 18.6589C64.7087 18.451 66.1473 15.3294 65.3921 12.8297H65.392ZM53.7857 19.915C58.2275 19.8996 62.4158 19.8852 62.9452 22.8426V22.8425C63.1313 23.8782 62.6541 25.4563 62.1386 25.9098C62.0461 25.5818 61.5663 24.5082 60.0467 24.2676C52.3735 23.0571 45.967 35.4047 51.7515 40.3971C51.8381 40.4729 51.7883 40.6131 51.6703 40.6131H40.1087C40.1002 40.6126 40.0918 40.6127 40.0833 40.6131H34.333C34.2136 40.6131 34.1642 40.4729 34.2523 40.3971C40.035 35.4047 33.6287 23.0571 25.9554 24.2676C24.4372 24.5082 23.9556 25.5818 23.8635 25.91C23.3479 25.4563 22.8707 23.8781 23.0553 22.8426C23.5858 19.8852 27.7745 19.8996 32.2165 19.915C35.1237 19.925 38.1395 19.9354 40.3092 19.1133C40.4157 20.5396 38.6206 22.8252 36.905 23.6711C39.8376 26.3285 42.4707 31.6826 43.0003 38.2239C43.5316 31.6826 46.1645 26.3285 49.0973 23.6711C47.3816 22.8252 45.5879 20.5396 45.6931 19.1133C47.8628 19.9354 50.8786 19.925 53.7857 19.915ZM39.5741 54.8181C39.7257 54.4487 39.8792 54.1345 40.0132 53.9001C40.2177 53.5409 40.2177 53.2764 40.0984 52.9035C39.9179 52.3425 39.8683 51.8365 39.9492 51.3994C39.7102 51.3994 39.6498 51.7334 39.5754 52.1443C39.4566 52.801 39.3023 53.654 38.3274 53.654C38.7534 52.9846 38.6113 52.4144 38.2322 51.8365C37.6884 51.0019 37.7039 50.2636 38.225 49.8278C38.7434 49.3952 39.8342 49.6536 40.5315 50.3643C40.827 50.0158 41.7274 49.7728 42.2046 49.7728C42.0001 49.5115 41.9246 49.2256 41.9901 48.9046C40.6749 49.0147 38.4012 48.0992 38.4012 46.6926C38.4012 45.6364 40.0088 44.8386 41.0086 44.5786L39.8412 41.0292L39.8414 41.0289C39.7673 40.7856 39.9194 40.6212 40.0833 40.6131H40.1087C40.2097 40.6181 40.3108 40.6835 40.3627 40.8271L41.625 44.6174C41.4595 44.6342 41.3019 44.6605 41.1832 44.6968L45.9458 60.9165C46.2643 60.7214 46.5629 60.4997 46.8336 60.2564L47.2393 61.4744C45.9313 62.1806 42.0257 62.7423 40.0373 60.6367C39.3498 60.9867 37.5492 60.6535 37.5492 58.9994C37.5492 58.8454 37.5823 58.581 37.6498 58.3083C37.6486 58.385 37.6535 58.4584 37.6651 58.5281H37.6652C37.8048 58.4185 37.9707 58.3206 38.1563 58.2338C38.1681 58.6214 38.4163 58.7038 38.8146 58.7062C38.8009 58.4704 38.8018 58.2315 38.8147 57.9921C39.5141 57.7912 40.3407 57.6979 41.0829 57.6979C40.3767 56.9914 40.1529 54.9404 40.5131 53.7504C40.1835 54.106 39.8677 54.4641 39.5741 54.8181ZM38.8147 57.9921C38.8773 56.8402 39.2206 55.679 39.5741 54.8181C38.4589 56.1622 37.6635 57.447 37.6498 58.3083C37.7081 58.0725 37.7922 57.8305 37.9029 57.6483C38.1188 57.292 38.282 57.4983 38.2139 57.7875C38.1711 57.9689 38.1527 58.1155 38.1563 58.2338C38.3557 58.1405 38.578 58.0601 38.8147 57.9921ZM46.8336 60.2564C47.7214 59.4583 48.3083 58.4277 48.3083 57.3404C48.3083 56.1309 46.8731 56.5321 46.1757 57.4755C46.1126 57.043 46.0513 56.6199 45.9911 56.2035L45.991 56.2028C45.8376 55.1434 45.6907 54.128 45.5343 53.1149C45.4749 52.7256 45.6342 52.586 45.8861 52.4686L45.8858 52.4685C46.7317 52.0795 48.0572 52.3944 48.0121 53.9097C48.0012 54.2528 48.3896 54.2528 48.4175 53.9022C48.6707 51.6336 47.4352 50.9797 46.1427 51.2458C46.0907 50.9934 46.0418 50.7513 45.9944 50.5164L45.9943 50.5159C45.8951 50.0248 45.8022 49.565 45.7009 49.1078C45.5817 48.5612 45.5378 47.5344 46.0479 47.5344C46.289 47.5344 46.2337 48.2683 46.1992 48.7267L46.1992 48.7268C46.1943 48.7913 46.1899 48.8504 46.1867 48.9012C46.1635 49.2622 46.2682 49.4807 46.5044 49.4911C46.6517 49.4985 46.8356 49.2654 46.945 49.1106C47.6852 48.0722 47.8567 46.4647 46.9901 45.6893C46.2649 45.0384 44.4488 45.5228 43.9495 46.4498C43.8743 46.1006 43.5139 45.5242 43.341 45.2729C43.1732 45.028 43.1293 44.8601 43.3618 44.6447C43.4714 44.5407 43.8024 44.1323 43.8024 43.7102C43.8024 43.4606 43.6466 43 43.1513 43C42.7605 43 42.3261 43.3358 42.3261 44.0846C42.3261 44.2511 42.3589 44.4295 42.4453 44.6212C42.2834 44.588 41.9397 44.5855 41.625 44.6174L46.8336 60.2564ZM53.2961 27.4181C54.5212 27.0062 56.6565 26.9738 58.1411 28.3916L58.1409 28.3914C58.1409 26.8755 56.9382 25.529 56.5187 25.3577C55.9678 25.4645 54.0988 26.3447 53.2961 27.4181ZM27.8606 28.3916C29.3467 26.9738 31.482 27.0062 32.7056 27.4181C31.9062 26.3447 30.034 25.4645 29.4846 25.3577C29.0651 25.529 27.8608 26.8755 27.8608 28.3914L27.8606 28.3916ZM58.1407 9.58439L58.1406 9.5843L58.1407 9.58422V9.58439ZM58.1406 9.5843L56.3242 7.16817L54.5095 9.58439L56.3242 11.9459L58.1406 9.5843ZM69.0418 63.4626L69.042 63.4628V63.4625L69.0418 63.4626ZM66.6195 60.9176L69.0418 63.4626L66.6195 65.6953L64.197 63.4628L66.6195 60.9176ZM31.4931 9.5843L29.6765 7.16817L27.8618 9.5843L29.6765 11.9459L31.493 9.5843H31.4931ZM32.8093 19.112H27.0231C27.0066 19.0909 26.0073 17.8091 25.7556 17.1718C24.8431 14.8591 26.0079 13.7805 27.7131 13.7805L29.9155 15.667L32.118 13.7805C33.8234 13.7805 34.988 14.8591 34.0758 17.1718C33.9593 17.4674 33.6815 17.9018 33.4157 18.2836C35.469 18.017 38.0896 16.6887 38.666 13.8428C38.666 13.8428 37.1475 11.565 36.768 10.6432C35.3986 7.32842 37.1458 5.97352 39.7007 5.97352L42.9991 9.63832L46.2977 5.97352C48.8527 5.97352 50.5998 7.32856 49.2319 10.6432C48.851 11.5649 47.3339 13.8427 47.3339 13.8427C47.9089 16.6886 50.5295 18.0168 52.5828 18.2834C52.3186 17.9017 52.0394 17.4674 51.9229 17.1717C51.0089 14.859 52.1766 13.7804 53.8804 13.7804L56.0829 15.6669L58.2855 13.7804C59.9893 13.7804 61.1571 14.859 60.243 17.1717C59.9893 17.8143 58.9771 19.1122 58.9771 19.1122H53.1907C48.324 19.1122 46.1366 16.2901 45.475 13.8427H40.5248C39.8634 16.29 37.6742 19.112 32.8093 19.112ZM85.0975 35.5378C84.0369 36.0832 77.8165 39.0429 69.848 37.9481C69.9306 37.5621 70.0006 37.1734 70.0579 36.7826C75.3612 36.1382 79.6722 35.2248 82.4196 33.6727C85.5512 31.9024 86.9206 27.6767 85.3399 24.5326C85.299 24.4533 85.1856 24.4392 85.1288 24.5056C84.2628 25.5183 78.8161 31.5357 70.2352 33.4064C70.2133 32.955 70.1726 32.5047 70.1133 32.0568C74.281 29.6563 78.3497 26.8903 80.2877 24.3612C83.2166 20.5373 82.9471 15.6601 80.1602 13.1732C80.1312 13.1479 80.093 13.1366 80.0552 13.1421C80.0175 13.1475 79.9839 13.1692 79.963 13.2016C79.0813 14.6786 70.828 28.2273 61.7664 34.0761C61.6559 34.1479 61.5444 34.2183 61.432 34.2872C61.1725 34.4473 61.1442 34.7899 61.3654 34.9938C62.41 35.9554 63.0594 37.2937 63.0594 38.7794C63.0594 41.3624 61.0988 43.5108 58.5073 43.9767C57.1903 44.2358 55.2892 44.1607 53.4633 43.5477C53.3811 43.5206 53.2961 43.5758 53.2961 43.6595V51.8409C53.2961 51.9725 53.4933 52.0051 53.5399 51.8788C54.6497 48.8923 57.9727 48.2577 59.4259 48.2577C59.949 51.4499 60.8831 54.094 62.0966 55.5172C64.0725 57.8298 67.2992 57.7973 68.6985 56.1984C68.7216 56.1719 68.7315 56.1362 68.7254 56.1014C68.7193 56.0666 68.6978 56.0365 68.6672 56.0198C67.8451 55.5399 63.1413 52.607 62.1999 47.8004C62.5716 47.6701 62.9343 47.5227 63.2817 47.3484C64.8 49.9006 67.01 52.1735 68.7891 53.0416C71.7776 54.4977 74.5135 53.7894 75.727 51.6581C75.7709 51.583 75.7171 51.4895 75.6277 51.4811C73.7792 51.3309 68.1058 49.6796 65.6901 45.6563C65.9667 45.3983 66.2375 45.1293 66.4898 44.8433C69.0173 46.7975 72.5914 48.5253 75.1502 48.878C78.144 49.2915 81.5365 48.3214 81.6188 44.7852C81.6202 44.7143 81.5578 44.6562 81.4843 44.6607C80.4194 44.7257 73.3724 45.0373 68.3511 42.1099C68.5256 41.7731 68.6882 41.4302 68.8388 41.0818C68.8388 41.0818 76.4261 42.9032 80.0211 42.2996C83.5935 41.7007 85.686 38.9958 85.2819 35.6311C85.2706 35.5472 85.1742 35.4978 85.0976 35.5374L85.0975 35.5378ZM17.6495 42.1103C17.4746 41.7735 17.3115 41.4306 17.1605 41.0821V41.0817C17.1605 41.0817 9.57332 42.9031 5.97964 42.2996C2.40715 41.7006 0.316386 38.9985 0.718763 35.6336C0.728623 35.5486 0.825087 35.4976 0.904496 35.5386C1.97333 36.0883 8.19112 39.041 16.1511 37.9476C16.0686 37.5615 15.9987 37.1728 15.9414 36.7821C10.638 36.1377 6.32699 35.2242 3.57964 33.6721C0.450823 31.9018 -0.918458 27.6786 0.659073 24.5332C0.698644 24.4539 0.815094 24.4397 0.873185 24.5091C1.74789 25.5286 7.19024 31.5364 15.7641 33.4058C15.7855 32.9544 15.8257 32.5042 15.8845 32.0563C11.7179 29.6557 7.64951 26.8897 5.71157 24.3605C2.78274 20.5381 3.05348 15.6621 5.83628 13.1738C5.8973 13.1201 5.99643 13.1342 6.03773 13.2036C6.92656 14.6908 15.1758 28.2298 24.2317 34.0758C24.3433 34.1476 24.4557 34.2179 24.5691 34.2869C24.8271 34.4468 24.8568 34.7896 24.6343 34.9922C23.591 35.9538 22.9404 37.2935 22.9404 38.7793C22.9404 41.3625 24.901 43.5109 27.4938 43.9766C28.8093 44.2359 30.7104 44.1607 32.5363 43.5477C32.6185 43.5207 32.7048 43.576 32.7048 43.6594V51.8411C32.7048 51.9726 32.5079 52.0053 32.4596 51.8792C31.3496 48.8926 28.0282 48.258 26.5737 48.258C26.0507 51.4501 25.118 54.0942 23.9042 55.5175C21.9283 57.8302 18.7002 57.7977 17.301 56.1987C17.2782 56.1721 17.2685 56.1365 17.2746 56.1018C17.2806 56.0672 17.3018 56.0371 17.3321 56.0201C18.1545 55.5402 22.8582 52.6073 23.7995 47.8006C23.4295 47.6703 23.0665 47.5229 22.718 47.3489C21.1996 49.9008 18.9896 52.1738 17.2118 53.0419C14.222 54.4978 11.4859 53.7897 10.2724 51.6584C10.2298 51.5833 10.2823 51.4898 10.3715 51.4814C12.2202 51.3312 17.8921 49.6797 20.3091 45.6565C20.0329 45.3987 19.7634 45.1297 19.5096 44.8437C16.9821 46.798 13.4068 48.5258 10.8492 48.8784C7.85536 49.2918 4.46447 48.3219 4.38053 44.787C4.37919 44.7175 4.44155 44.6566 4.5167 44.6611C5.58553 44.7274 12.6298 45.0362 17.6495 42.1103ZM67.5194 66.9387L64.7506 64.7721C63.6459 65.4264 62.8338 66.4654 62.5186 67.6833C60.8531 67.9152 56.3122 66.9125 56.7537 66.2474C61.7304 59.2865 57.9237 55.1423 53.349 55.3728V60.0477C53.349 61.549 52.0314 62.7655 50.4084 62.7655H47.2494C44.9833 62.7655 43.508 65.0308 43.508 65.0308C43.508 65.0308 42.033 62.7655 39.7668 62.7655H36.6076C34.9836 62.7655 33.6687 61.549 33.6687 60.0477V55.3729C29.0939 55.1425 25.2842 59.2868 30.2625 66.2475C30.6998 66.9057 26.0326 67.96 23.8433 67.6932C23.2668 67.0987 22.4346 66.7238 21.5032 66.7238C21.1072 66.7239 20.7144 66.794 20.3431 66.9308C20.3431 66.9308 11.7403 58.8312 11.5827 58.752L11.6537 58.5881C12.1435 57.6771 11.3939 56.684 10.9198 56.7536C11.4705 56.0967 11.4962 53.2203 8.44058 52.555C8.52999 53.1328 8.57536 54.3121 8.57536 54.3121C8.57536 54.3121 6.21709 53.0439 5.03288 54.1382C3.99226 55.3633 5.43629 57.5854 5.43629 57.5854C5.43629 57.5854 4.2294 57.6146 3.63449 57.5645C4.50924 60.5061 7.44266 60.2977 8.07734 59.7173C8.03597 60.1853 9.09687 60.8519 9.9955 60.3171L10.3902 60.1269C10.4599 60.2198 18.8385 68.0919 18.8385 68.0919C18.4536 68.6598 18.2705 69.3571 18.3968 70.1001C18.5956 71.2613 19.5684 72.2236 20.8108 72.4735C21.6881 72.6487 22.5131 72.4791 23.1747 72.0944L25.3926 74.1416C25.5901 74.3194 25.857 74.4304 26.155 74.4097C26.6974 74.3734 27.1035 73.9359 27.0624 73.4347C27.0453 73.2083 26.929 73.014 26.7684 72.8667C26.7329 72.8277 24.5094 70.775 24.5094 70.775C26.3437 69.4958 29.7614 68.5947 32.5982 68.5947C33.0966 68.5947 33.3308 68.1753 33.1591 67.7639C31.874 64.6905 34.6371 62.4644 37.4953 64.2767C38.7421 65.067 40.0086 66.6239 40.9628 69.2209C36.2729 70.3502 30.3848 73.4608 29.1936 76.8568C28.7349 78.1679 30.2499 79.9551 32.09 80.315C32.1226 80.3222 32.1567 80.3161 32.1847 80.298C32.2127 80.28 32.2323 80.2516 32.2391 80.2191C33.2004 75.1498 38.6824 71.3721 41.535 70.7304L41.6416 71.0148L41.6417 71.0151C41.672 71.0959 41.6904 71.145 41.7749 71.3693C38.6683 72.8304 35.6553 75.9122 34.7949 79.5757C34.4001 81.2535 36.2815 82.766 37.8348 83.18C37.9128 83.2007 37.9896 83.1466 37.9938 83.0716C38.2892 78.4385 40.3465 74.5039 42.1894 72.7137C42.2399 73.0636 42.2778 73.4152 42.3031 73.7678C42.3031 73.7678 40.4162 78.9967 40.4162 82.8119C40.4162 84.5867 43.0684 85.8256 43.4604 85.9992C43.9501 85.8256 46.601 84.5867 46.601 82.8119C46.601 78.9966 44.7141 73.7678 44.7141 73.7678C44.7398 73.4152 44.7782 73.0636 44.8291 72.7137C46.6707 74.5039 48.7294 78.437 49.0234 83.07C49.0276 83.1451 49.1057 83.2007 49.1822 83.1799C50.7371 82.7661 52.6171 81.2537 52.2237 79.576C51.3616 75.9123 48.3503 72.8306 45.2435 71.3695L45.3439 71.0998L45.344 71.0997C45.3772 71.0102 45.3928 70.9682 45.4821 70.7306C48.3361 71.3722 53.8168 75.1496 54.778 80.219C54.7849 80.2514 54.8046 80.2797 54.8326 80.2977C54.8605 80.3157 54.8946 80.3219 54.9272 80.3149C56.7658 79.9553 58.2836 78.1677 57.8222 76.8569C56.6338 73.461 50.7442 70.3504 46.0544 69.221C47.0099 66.624 48.2763 65.0671 49.523 64.2769C52.3798 62.4645 55.1428 64.6909 53.8579 67.7644C53.686 68.1753 53.9189 68.5947 54.4187 68.5947C57.6275 68.5947 61.5803 69.7475 63.1448 71.2932C64.1446 72.7848 65.9918 73.739 68.0762 73.5346C70.4445 73.3042 72.3756 71.5348 72.6425 69.3475C72.8754 67.4309 71.8787 65.7101 70.2898 64.7727L67.5195 66.9393L67.5194 66.9387Z" fill="#4C3B8A"/>
</g>
<defs>
<filter id="filter0_i_1216_4724" x="0.000854492" y="0.000976562" width="86.9991" height="86.9983" filterUnits="userSpaceOnUse" color-interpolation-filters="sRGB">
<feFlood flood-opacity="0" result="BackgroundImageFix"/>
<feBlend mode="normal" in="SourceGraphic" in2="BackgroundImageFix" result="shape"/>
<feColorMatrix in="SourceAlpha" type="matrix" values="0 0 0 0 0 0 0 0 0 0 0 0 0 0 0 0 0 0 127 0" result="hardAlpha"/>
<feOffset dx="1" dy="1"/>
<feGaussianBlur stdDeviation="1"/>
<feComposite in2="hardAlpha" operator="arithmetic" k2="-1" k3="1"/>
<feColorMatrix type="matrix" values="0 0 0 0 1 0 0 0 0 1 0 0 0 0 1 0 0 0 0.3 0"/>
<feBlend mode="normal" in2="shape" result="effect1_innerShadow_1216_4724"/>
</filter>
</defs>
</svg>
