<svg width="222" height="3" viewBox="0 0 222 3" fill="none" xmlns="http://www.w3.org/2000/svg">
<path d="M0.0322266 1.17969C0.0322266 0.910807 0.118815 0.682943 0.291992 0.496094C0.469727 0.304688 0.724935 0.208984 1.05762 0.208984C1.38574 0.208984 1.63639 0.304688 1.80957 0.496094C1.9873 0.682943 2.07617 0.910807 2.07617 1.17969C2.07617 1.44857 1.9873 1.67871 1.80957 1.87012C1.63639 2.05697 1.38574 2.15039 1.05762 2.15039C0.724935 2.15039 0.469727 2.05697 0.291992 1.87012C0.118815 1.67871 0.0322266 1.44857 0.0322266 1.17969ZM4.1748 1.17969C4.1748 0.910807 4.26139 0.682943 4.43457 0.496094C4.6123 0.304688 4.86751 0.208984 5.2002 0.208984C5.52832 0.208984 5.77897 0.304688 5.95215 0.496094C6.12988 0.682943 6.21875 0.910807 6.21875 1.17969C6.21875 1.44857 6.12988 1.67871 5.95215 1.87012C5.77897 2.05697 5.52832 2.15039 5.2002 2.15039C4.86751 2.15039 4.6123 2.05697 4.43457 1.87012C4.26139 1.67871 4.1748 1.44857 4.1748 1.17969ZM8.31738 1.17969C8.31738 0.910807 8.40397 0.682943 8.57715 0.496094C8.75488 0.304688 9.01009 0.208984 9.34277 0.208984C9.6709 0.208984 9.92155 0.304688 10.0947 0.496094C10.2725 0.682943 10.3613 0.910807 10.3613 1.17969C10.3613 1.44857 10.2725 1.67871 10.0947 1.87012C9.92155 2.05697 9.6709 2.15039 9.34277 2.15039C9.01009 2.15039 8.75488 2.05697 8.57715 1.87012C8.40397 1.67871 8.31738 1.44857 8.31738 1.17969ZM12.46 1.17969C12.46 0.910807 12.5465 0.682943 12.7197 0.496094C12.8975 0.304688 13.1527 0.208984 13.4854 0.208984C13.8135 0.208984 14.0641 0.304688 14.2373 0.496094C14.415 0.682943 14.5039 0.910807 14.5039 1.17969C14.5039 1.44857 14.415 1.67871 14.2373 1.87012C14.0641 2.05697 13.8135 2.15039 13.4854 2.15039C13.1527 2.15039 12.8975 2.05697 12.7197 1.87012C12.5465 1.67871 12.46 1.44857 12.46 1.17969ZM16.6025 1.17969C16.6025 0.910807 16.6891 0.682943 16.8623 0.496094C17.04 0.304688 17.2952 0.208984 17.6279 0.208984C17.9561 0.208984 18.2067 0.304688 18.3799 0.496094C18.5576 0.682943 18.6465 0.910807 18.6465 1.17969C18.6465 1.44857 18.5576 1.67871 18.3799 1.87012C18.2067 2.05697 17.9561 2.15039 17.6279 2.15039C17.2952 2.15039 17.04 2.05697 16.8623 1.87012C16.6891 1.67871 16.6025 1.44857 16.6025 1.17969ZM20.7451 1.17969C20.7451 0.910807 20.8317 0.682943 21.0049 0.496094C21.1826 0.304688 21.4378 0.208984 21.7705 0.208984C22.0986 0.208984 22.3493 0.304688 22.5225 0.496094C22.7002 0.682943 22.7891 0.910807 22.7891 1.17969C22.7891 1.44857 22.7002 1.67871 22.5225 1.87012C22.3493 2.05697 22.0986 2.15039 21.7705 2.15039C21.4378 2.15039 21.1826 2.05697 21.0049 1.87012C20.8317 1.67871 20.7451 1.44857 20.7451 1.17969ZM24.8877 1.17969C24.8877 0.910807 24.9743 0.682943 25.1475 0.496094C25.3252 0.304688 25.5804 0.208984 25.9131 0.208984C26.2412 0.208984 26.4919 0.304688 26.665 0.496094C26.8428 0.682943 26.9316 0.910807 26.9316 1.17969C26.9316 1.44857 26.8428 1.67871 26.665 1.87012C26.4919 2.05697 26.2412 2.15039 25.9131 2.15039C25.5804 2.15039 25.3252 2.05697 25.1475 1.87012C24.9743 1.67871 24.8877 1.44857 24.8877 1.17969ZM29.0303 1.17969C29.0303 0.910807 29.1169 0.682943 29.29 0.496094C29.4678 0.304688 29.723 0.208984 30.0557 0.208984C30.3838 0.208984 30.6344 0.304688 30.8076 0.496094C30.9854 0.682943 31.0742 0.910807 31.0742 1.17969C31.0742 1.44857 30.9854 1.67871 30.8076 1.87012C30.6344 2.05697 30.3838 2.15039 30.0557 2.15039C29.723 2.15039 29.4678 2.05697 29.29 1.87012C29.1169 1.67871 29.0303 1.44857 29.0303 1.17969ZM33.1729 1.17969C33.1729 0.910807 33.2594 0.682943 33.4326 0.496094C33.6104 0.304688 33.8656 0.208984 34.1982 0.208984C34.5264 0.208984 34.777 0.304688 34.9502 0.496094C35.1279 0.682943 35.2168 0.910807 35.2168 1.17969C35.2168 1.44857 35.1279 1.67871 34.9502 1.87012C34.777 2.05697 34.5264 2.15039 34.1982 2.15039C33.8656 2.15039 33.6104 2.05697 33.4326 1.87012C33.2594 1.67871 33.1729 1.44857 33.1729 1.17969ZM37.3154 1.17969C37.3154 0.910807 37.402 0.682943 37.5752 0.496094C37.7529 0.304688 38.0081 0.208984 38.3408 0.208984C38.6689 0.208984 38.9196 0.304688 39.0928 0.496094C39.2705 0.682943 39.3594 0.910807 39.3594 1.17969C39.3594 1.44857 39.2705 1.67871 39.0928 1.87012C38.9196 2.05697 38.6689 2.15039 38.3408 2.15039C38.0081 2.15039 37.7529 2.05697 37.5752 1.87012C37.402 1.67871 37.3154 1.44857 37.3154 1.17969ZM41.458 1.17969C41.458 0.910807 41.5446 0.682943 41.7178 0.496094C41.8955 0.304688 42.1507 0.208984 42.4834 0.208984C42.8115 0.208984 43.0622 0.304688 43.2354 0.496094C43.4131 0.682943 43.502 0.910807 43.502 1.17969C43.502 1.44857 43.4131 1.67871 43.2354 1.87012C43.0622 2.05697 42.8115 2.15039 42.4834 2.15039C42.1507 2.15039 41.8955 2.05697 41.7178 1.87012C41.5446 1.67871 41.458 1.44857 41.458 1.17969ZM45.6006 1.17969C45.6006 0.910807 45.6872 0.682943 45.8604 0.496094C46.0381 0.304688 46.2933 0.208984 46.626 0.208984C46.9541 0.208984 47.2048 0.304688 47.3779 0.496094C47.5557 0.682943 47.6445 0.910807 47.6445 1.17969C47.6445 1.44857 47.5557 1.67871 47.3779 1.87012C47.2048 2.05697 46.9541 2.15039 46.626 2.15039C46.2933 2.15039 46.0381 2.05697 45.8604 1.87012C45.6872 1.67871 45.6006 1.44857 45.6006 1.17969ZM49.7432 1.17969C49.7432 0.910807 49.8298 0.682943 50.0029 0.496094C50.1807 0.304688 50.4359 0.208984 50.7686 0.208984C51.0967 0.208984 51.3473 0.304688 51.5205 0.496094C51.6982 0.682943 51.7871 0.910807 51.7871 1.17969C51.7871 1.44857 51.6982 1.67871 51.5205 1.87012C51.3473 2.05697 51.0967 2.15039 50.7686 2.15039C50.4359 2.15039 50.1807 2.05697 50.0029 1.87012C49.8298 1.67871 49.7432 1.44857 49.7432 1.17969ZM53.8857 1.17969C53.8857 0.910807 53.9723 0.682943 54.1455 0.496094C54.3232 0.304688 54.5785 0.208984 54.9111 0.208984C55.2393 0.208984 55.4899 0.304688 55.6631 0.496094C55.8408 0.682943 55.9297 0.910807 55.9297 1.17969C55.9297 1.44857 55.8408 1.67871 55.6631 1.87012C55.4899 2.05697 55.2393 2.15039 54.9111 2.15039C54.5785 2.15039 54.3232 2.05697 54.1455 1.87012C53.9723 1.67871 53.8857 1.44857 53.8857 1.17969ZM58.0283 1.17969C58.0283 0.910807 58.1149 0.682943 58.2881 0.496094C58.4658 0.304688 58.721 0.208984 59.0537 0.208984C59.3818 0.208984 59.6325 0.304688 59.8057 0.496094C59.9834 0.682943 60.0723 0.910807 60.0723 1.17969C60.0723 1.44857 59.9834 1.67871 59.8057 1.87012C59.6325 2.05697 59.3818 2.15039 59.0537 2.15039C58.721 2.15039 58.4658 2.05697 58.2881 1.87012C58.1149 1.67871 58.0283 1.44857 58.0283 1.17969ZM62.1709 1.17969C62.1709 0.910807 62.2575 0.682943 62.4307 0.496094C62.6084 0.304688 62.8636 0.208984 63.1963 0.208984C63.5244 0.208984 63.7751 0.304688 63.9482 0.496094C64.126 0.682943 64.2148 0.910807 64.2148 1.17969C64.2148 1.44857 64.126 1.67871 63.9482 1.87012C63.7751 2.05697 63.5244 2.15039 63.1963 2.15039C62.8636 2.15039 62.6084 2.05697 62.4307 1.87012C62.2575 1.67871 62.1709 1.44857 62.1709 1.17969ZM66.3135 1.17969C66.3135 0.910807 66.4001 0.682943 66.5732 0.496094C66.751 0.304688 67.0062 0.208984 67.3389 0.208984C67.667 0.208984 67.9176 0.304688 68.0908 0.496094C68.2686 0.682943 68.3574 0.910807 68.3574 1.17969C68.3574 1.44857 68.2686 1.67871 68.0908 1.87012C67.9176 2.05697 67.667 2.15039 67.3389 2.15039C67.0062 2.15039 66.751 2.05697 66.5732 1.87012C66.4001 1.67871 66.3135 1.44857 66.3135 1.17969ZM70.4561 1.17969C70.4561 0.910807 70.5426 0.682943 70.7158 0.496094C70.8936 0.304688 71.1488 0.208984 71.4814 0.208984C71.8096 0.208984 72.0602 0.304688 72.2334 0.496094C72.4111 0.682943 72.5 0.910807 72.5 1.17969C72.5 1.44857 72.4111 1.67871 72.2334 1.87012C72.0602 2.05697 71.8096 2.15039 71.4814 2.15039C71.1488 2.15039 70.8936 2.05697 70.7158 1.87012C70.5426 1.67871 70.4561 1.44857 70.4561 1.17969ZM74.5986 1.17969C74.5986 0.910807 74.6852 0.682943 74.8584 0.496094C75.0361 0.304688 75.2913 0.208984 75.624 0.208984C75.9521 0.208984 76.2028 0.304688 76.376 0.496094C76.5537 0.682943 76.6426 0.910807 76.6426 1.17969C76.6426 1.44857 76.5537 1.67871 76.376 1.87012C76.2028 2.05697 75.9521 2.15039 75.624 2.15039C75.2913 2.15039 75.0361 2.05697 74.8584 1.87012C74.6852 1.67871 74.5986 1.44857 74.5986 1.17969ZM78.7412 1.17969C78.7412 0.910807 78.8278 0.682943 79.001 0.496094C79.1787 0.304688 79.4339 0.208984 79.7666 0.208984C80.0947 0.208984 80.3454 0.304688 80.5186 0.496094C80.6963 0.682943 80.7852 0.910807 80.7852 1.17969C80.7852 1.44857 80.6963 1.67871 80.5186 1.87012C80.3454 2.05697 80.0947 2.15039 79.7666 2.15039C79.4339 2.15039 79.1787 2.05697 79.001 1.87012C78.8278 1.67871 78.7412 1.44857 78.7412 1.17969ZM82.8838 1.17969C82.8838 0.910807 82.9704 0.682943 83.1436 0.496094C83.3213 0.304688 83.5765 0.208984 83.9092 0.208984C84.2373 0.208984 84.488 0.304688 84.6611 0.496094C84.8389 0.682943 84.9277 0.910807 84.9277 1.17969C84.9277 1.44857 84.8389 1.67871 84.6611 1.87012C84.488 2.05697 84.2373 2.15039 83.9092 2.15039C83.5765 2.15039 83.3213 2.05697 83.1436 1.87012C82.9704 1.67871 82.8838 1.44857 82.8838 1.17969ZM87.0264 1.17969C87.0264 0.910807 87.113 0.682943 87.2861 0.496094C87.4639 0.304688 87.7191 0.208984 88.0518 0.208984C88.3799 0.208984 88.6305 0.304688 88.8037 0.496094C88.9814 0.682943 89.0703 0.910807 89.0703 1.17969C89.0703 1.44857 88.9814 1.67871 88.8037 1.87012C88.6305 2.05697 88.3799 2.15039 88.0518 2.15039C87.7191 2.15039 87.4639 2.05697 87.2861 1.87012C87.113 1.67871 87.0264 1.44857 87.0264 1.17969ZM91.1689 1.17969C91.1689 0.910807 91.2555 0.682943 91.4287 0.496094C91.6064 0.304688 91.8617 0.208984 92.1943 0.208984C92.5225 0.208984 92.7731 0.304688 92.9463 0.496094C93.124 0.682943 93.2129 0.910807 93.2129 1.17969C93.2129 1.44857 93.124 1.67871 92.9463 1.87012C92.7731 2.05697 92.5225 2.15039 92.1943 2.15039C91.8617 2.15039 91.6064 2.05697 91.4287 1.87012C91.2555 1.67871 91.1689 1.44857 91.1689 1.17969ZM95.3115 1.17969C95.3115 0.910807 95.3981 0.682943 95.5713 0.496094C95.749 0.304688 96.0042 0.208984 96.3369 0.208984C96.665 0.208984 96.9157 0.304688 97.0889 0.496094C97.2666 0.682943 97.3555 0.910807 97.3555 1.17969C97.3555 1.44857 97.2666 1.67871 97.0889 1.87012C96.9157 2.05697 96.665 2.15039 96.3369 2.15039C96.0042 2.15039 95.749 2.05697 95.5713 1.87012C95.3981 1.67871 95.3115 1.44857 95.3115 1.17969ZM99.4541 1.17969C99.4541 0.910807 99.5407 0.682943 99.7139 0.496094C99.8916 0.304688 100.147 0.208984 100.479 0.208984C100.808 0.208984 101.058 0.304688 101.231 0.496094C101.409 0.682943 101.498 0.910807 101.498 1.17969C101.498 1.44857 101.409 1.67871 101.231 1.87012C101.058 2.05697 100.808 2.15039 100.479 2.15039C100.147 2.15039 99.8916 2.05697 99.7139 1.87012C99.5407 1.67871 99.4541 1.44857 99.4541 1.17969ZM103.597 1.17969C103.597 0.910807 103.683 0.682943 103.856 0.496094C104.034 0.304688 104.289 0.208984 104.622 0.208984C104.95 0.208984 105.201 0.304688 105.374 0.496094C105.552 0.682943 105.641 0.910807 105.641 1.17969C105.641 1.44857 105.552 1.67871 105.374 1.87012C105.201 2.05697 104.95 2.15039 104.622 2.15039C104.289 2.15039 104.034 2.05697 103.856 1.87012C103.683 1.67871 103.597 1.44857 103.597 1.17969ZM107.739 1.17969C107.739 0.910807 107.826 0.682943 107.999 0.496094C108.177 0.304688 108.432 0.208984 108.765 0.208984C109.093 0.208984 109.343 0.304688 109.517 0.496094C109.694 0.682943 109.783 0.910807 109.783 1.17969C109.783 1.44857 109.694 1.67871 109.517 1.87012C109.343 2.05697 109.093 2.15039 108.765 2.15039C108.432 2.15039 108.177 2.05697 107.999 1.87012C107.826 1.67871 107.739 1.44857 107.739 1.17969ZM111.882 1.17969C111.882 0.910807 111.968 0.682943 112.142 0.496094C112.319 0.304688 112.575 0.208984 112.907 0.208984C113.235 0.208984 113.486 0.304688 113.659 0.496094C113.837 0.682943 113.926 0.910807 113.926 1.17969C113.926 1.44857 113.837 1.67871 113.659 1.87012C113.486 2.05697 113.235 2.15039 112.907 2.15039C112.575 2.15039 112.319 2.05697 112.142 1.87012C111.968 1.67871 111.882 1.44857 111.882 1.17969ZM116.024 1.17969C116.024 0.910807 116.111 0.682943 116.284 0.496094C116.462 0.304688 116.717 0.208984 117.05 0.208984C117.378 0.208984 117.629 0.304688 117.802 0.496094C117.979 0.682943 118.068 0.910807 118.068 1.17969C118.068 1.44857 117.979 1.67871 117.802 1.87012C117.629 2.05697 117.378 2.15039 117.05 2.15039C116.717 2.15039 116.462 2.05697 116.284 1.87012C116.111 1.67871 116.024 1.44857 116.024 1.17969ZM120.167 1.17969C120.167 0.910807 120.254 0.682943 120.427 0.496094C120.604 0.304688 120.86 0.208984 121.192 0.208984C121.521 0.208984 121.771 0.304688 121.944 0.496094C122.122 0.682943 122.211 0.910807 122.211 1.17969C122.211 1.44857 122.122 1.67871 121.944 1.87012C121.771 2.05697 121.521 2.15039 121.192 2.15039C120.86 2.15039 120.604 2.05697 120.427 1.87012C120.254 1.67871 120.167 1.44857 120.167 1.17969ZM124.31 1.17969C124.31 0.910807 124.396 0.682943 124.569 0.496094C124.747 0.304688 125.002 0.208984 125.335 0.208984C125.663 0.208984 125.914 0.304688 126.087 0.496094C126.265 0.682943 126.354 0.910807 126.354 1.17969C126.354 1.44857 126.265 1.67871 126.087 1.87012C125.914 2.05697 125.663 2.15039 125.335 2.15039C125.002 2.15039 124.747 2.05697 124.569 1.87012C124.396 1.67871 124.31 1.44857 124.31 1.17969ZM128.452 1.17969C128.452 0.910807 128.539 0.682943 128.712 0.496094C128.89 0.304688 129.145 0.208984 129.478 0.208984C129.806 0.208984 130.056 0.304688 130.229 0.496094C130.407 0.682943 130.496 0.910807 130.496 1.17969C130.496 1.44857 130.407 1.67871 130.229 1.87012C130.056 2.05697 129.806 2.15039 129.478 2.15039C129.145 2.15039 128.89 2.05697 128.712 1.87012C128.539 1.67871 128.452 1.44857 128.452 1.17969ZM132.595 1.17969C132.595 0.910807 132.681 0.682943 132.854 0.496094C133.032 0.304688 133.287 0.208984 133.62 0.208984C133.948 0.208984 134.199 0.304688 134.372 0.496094C134.55 0.682943 134.639 0.910807 134.639 1.17969C134.639 1.44857 134.55 1.67871 134.372 1.87012C134.199 2.05697 133.948 2.15039 133.62 2.15039C133.287 2.15039 133.032 2.05697 132.854 1.87012C132.681 1.67871 132.595 1.44857 132.595 1.17969ZM136.737 1.17969C136.737 0.910807 136.824 0.682943 136.997 0.496094C137.175 0.304688 137.43 0.208984 137.763 0.208984C138.091 0.208984 138.341 0.304688 138.515 0.496094C138.692 0.682943 138.781 0.910807 138.781 1.17969C138.781 1.44857 138.692 1.67871 138.515 1.87012C138.341 2.05697 138.091 2.15039 137.763 2.15039C137.43 2.15039 137.175 2.05697 136.997 1.87012C136.824 1.67871 136.737 1.44857 136.737 1.17969ZM140.88 1.17969C140.88 0.910807 140.966 0.682943 141.14 0.496094C141.317 0.304688 141.573 0.208984 141.905 0.208984C142.233 0.208984 142.484 0.304688 142.657 0.496094C142.835 0.682943 142.924 0.910807 142.924 1.17969C142.924 1.44857 142.835 1.67871 142.657 1.87012C142.484 2.05697 142.233 2.15039 141.905 2.15039C141.573 2.15039 141.317 2.05697 141.14 1.87012C140.966 1.67871 140.88 1.44857 140.88 1.17969ZM145.022 1.17969C145.022 0.910807 145.109 0.682943 145.282 0.496094C145.46 0.304688 145.715 0.208984 146.048 0.208984C146.376 0.208984 146.627 0.304688 146.8 0.496094C146.978 0.682943 147.066 0.910807 147.066 1.17969C147.066 1.44857 146.978 1.67871 146.8 1.87012C146.627 2.05697 146.376 2.15039 146.048 2.15039C145.715 2.15039 145.46 2.05697 145.282 1.87012C145.109 1.67871 145.022 1.44857 145.022 1.17969ZM149.165 1.17969C149.165 0.910807 149.252 0.682943 149.425 0.496094C149.603 0.304688 149.858 0.208984 150.19 0.208984C150.519 0.208984 150.769 0.304688 150.942 0.496094C151.12 0.682943 151.209 0.910807 151.209 1.17969C151.209 1.44857 151.12 1.67871 150.942 1.87012C150.769 2.05697 150.519 2.15039 150.19 2.15039C149.858 2.15039 149.603 2.05697 149.425 1.87012C149.252 1.67871 149.165 1.44857 149.165 1.17969ZM153.308 1.17969C153.308 0.910807 153.394 0.682943 153.567 0.496094C153.745 0.304688 154 0.208984 154.333 0.208984C154.661 0.208984 154.912 0.304688 155.085 0.496094C155.263 0.682943 155.352 0.910807 155.352 1.17969C155.352 1.44857 155.263 1.67871 155.085 1.87012C154.912 2.05697 154.661 2.15039 154.333 2.15039C154 2.15039 153.745 2.05697 153.567 1.87012C153.394 1.67871 153.308 1.44857 153.308 1.17969ZM157.45 1.17969C157.45 0.910807 157.537 0.682943 157.71 0.496094C157.888 0.304688 158.143 0.208984 158.476 0.208984C158.804 0.208984 159.054 0.304688 159.228 0.496094C159.405 0.682943 159.494 0.910807 159.494 1.17969C159.494 1.44857 159.405 1.67871 159.228 1.87012C159.054 2.05697 158.804 2.15039 158.476 2.15039C158.143 2.15039 157.888 2.05697 157.71 1.87012C157.537 1.67871 157.45 1.44857 157.45 1.17969ZM161.593 1.17969C161.593 0.910807 161.679 0.682943 161.853 0.496094C162.03 0.304688 162.285 0.208984 162.618 0.208984C162.946 0.208984 163.197 0.304688 163.37 0.496094C163.548 0.682943 163.637 0.910807 163.637 1.17969C163.637 1.44857 163.548 1.67871 163.37 1.87012C163.197 2.05697 162.946 2.15039 162.618 2.15039C162.285 2.15039 162.03 2.05697 161.853 1.87012C161.679 1.67871 161.593 1.44857 161.593 1.17969ZM165.735 1.17969C165.735 0.910807 165.822 0.682943 165.995 0.496094C166.173 0.304688 166.428 0.208984 166.761 0.208984C167.089 0.208984 167.34 0.304688 167.513 0.496094C167.69 0.682943 167.779 0.910807 167.779 1.17969C167.779 1.44857 167.69 1.67871 167.513 1.87012C167.34 2.05697 167.089 2.15039 166.761 2.15039C166.428 2.15039 166.173 2.05697 165.995 1.87012C165.822 1.67871 165.735 1.44857 165.735 1.17969ZM169.878 1.17969C169.878 0.910807 169.965 0.682943 170.138 0.496094C170.315 0.304688 170.571 0.208984 170.903 0.208984C171.231 0.208984 171.482 0.304688 171.655 0.496094C171.833 0.682943 171.922 0.910807 171.922 1.17969C171.922 1.44857 171.833 1.67871 171.655 1.87012C171.482 2.05697 171.231 2.15039 170.903 2.15039C170.571 2.15039 170.315 2.05697 170.138 1.87012C169.965 1.67871 169.878 1.44857 169.878 1.17969ZM174.021 1.17969C174.021 0.910807 174.107 0.682943 174.28 0.496094C174.458 0.304688 174.713 0.208984 175.046 0.208984C175.374 0.208984 175.625 0.304688 175.798 0.496094C175.976 0.682943 176.064 0.910807 176.064 1.17969C176.064 1.44857 175.976 1.67871 175.798 1.87012C175.625 2.05697 175.374 2.15039 175.046 2.15039C174.713 2.15039 174.458 2.05697 174.28 1.87012C174.107 1.67871 174.021 1.44857 174.021 1.17969ZM178.163 1.17969C178.163 0.910807 178.25 0.682943 178.423 0.496094C178.601 0.304688 178.856 0.208984 179.188 0.208984C179.517 0.208984 179.767 0.304688 179.94 0.496094C180.118 0.682943 180.207 0.910807 180.207 1.17969C180.207 1.44857 180.118 1.67871 179.94 1.87012C179.767 2.05697 179.517 2.15039 179.188 2.15039C178.856 2.15039 178.601 2.05697 178.423 1.87012C178.25 1.67871 178.163 1.44857 178.163 1.17969ZM182.306 1.17969C182.306 0.910807 182.392 0.682943 182.565 0.496094C182.743 0.304688 182.998 0.208984 183.331 0.208984C183.659 0.208984 183.91 0.304688 184.083 0.496094C184.261 0.682943 184.35 0.910807 184.35 1.17969C184.35 1.44857 184.261 1.67871 184.083 1.87012C183.91 2.05697 183.659 2.15039 183.331 2.15039C182.998 2.15039 182.743 2.05697 182.565 1.87012C182.392 1.67871 182.306 1.44857 182.306 1.17969ZM186.448 1.17969C186.448 0.910807 186.535 0.682943 186.708 0.496094C186.886 0.304688 187.141 0.208984 187.474 0.208984C187.802 0.208984 188.052 0.304688 188.226 0.496094C188.403 0.682943 188.492 0.910807 188.492 1.17969C188.492 1.44857 188.403 1.67871 188.226 1.87012C188.052 2.05697 187.802 2.15039 187.474 2.15039C187.141 2.15039 186.886 2.05697 186.708 1.87012C186.535 1.67871 186.448 1.44857 186.448 1.17969ZM190.591 1.17969C190.591 0.910807 190.677 0.682943 190.851 0.496094C191.028 0.304688 191.284 0.208984 191.616 0.208984C191.944 0.208984 192.195 0.304688 192.368 0.496094C192.546 0.682943 192.635 0.910807 192.635 1.17969C192.635 1.44857 192.546 1.67871 192.368 1.87012C192.195 2.05697 191.944 2.15039 191.616 2.15039C191.284 2.15039 191.028 2.05697 190.851 1.87012C190.677 1.67871 190.591 1.44857 190.591 1.17969ZM194.733 1.17969C194.733 0.910807 194.82 0.682943 194.993 0.496094C195.171 0.304688 195.426 0.208984 195.759 0.208984C196.087 0.208984 196.338 0.304688 196.511 0.496094C196.688 0.682943 196.777 0.910807 196.777 1.17969C196.777 1.44857 196.688 1.67871 196.511 1.87012C196.338 2.05697 196.087 2.15039 195.759 2.15039C195.426 2.15039 195.171 2.05697 194.993 1.87012C194.82 1.67871 194.733 1.44857 194.733 1.17969ZM198.876 1.17969C198.876 0.910807 198.963 0.682943 199.136 0.496094C199.313 0.304688 199.569 0.208984 199.901 0.208984C200.229 0.208984 200.48 0.304688 200.653 0.496094C200.831 0.682943 200.92 0.910807 200.92 1.17969C200.92 1.44857 200.831 1.67871 200.653 1.87012C200.48 2.05697 200.229 2.15039 199.901 2.15039C199.569 2.15039 199.313 2.05697 199.136 1.87012C198.963 1.67871 198.876 1.44857 198.876 1.17969ZM203.019 1.17969C203.019 0.910807 203.105 0.682943 203.278 0.496094C203.456 0.304688 203.711 0.208984 204.044 0.208984C204.372 0.208984 204.623 0.304688 204.796 0.496094C204.974 0.682943 205.062 0.910807 205.062 1.17969C205.062 1.44857 204.974 1.67871 204.796 1.87012C204.623 2.05697 204.372 2.15039 204.044 2.15039C203.711 2.15039 203.456 2.05697 203.278 1.87012C203.105 1.67871 203.019 1.44857 203.019 1.17969ZM207.161 1.17969C207.161 0.910807 207.248 0.682943 207.421 0.496094C207.599 0.304688 207.854 0.208984 208.187 0.208984C208.515 0.208984 208.765 0.304688 208.938 0.496094C209.116 0.682943 209.205 0.910807 209.205 1.17969C209.205 1.44857 209.116 1.67871 208.938 1.87012C208.765 2.05697 208.515 2.15039 208.187 2.15039C207.854 2.15039 207.599 2.05697 207.421 1.87012C207.248 1.67871 207.161 1.44857 207.161 1.17969ZM211.304 1.17969C211.304 0.910807 211.39 0.682943 211.563 0.496094C211.741 0.304688 211.996 0.208984 212.329 0.208984C212.657 0.208984 212.908 0.304688 213.081 0.496094C213.259 0.682943 213.348 0.910807 213.348 1.17969C213.348 1.44857 213.259 1.67871 213.081 1.87012C212.908 2.05697 212.657 2.15039 212.329 2.15039C211.996 2.15039 211.741 2.05697 211.563 1.87012C211.39 1.67871 211.304 1.44857 211.304 1.17969ZM215.439 1.17969C215.439 0.910807 215.526 0.682943 215.699 0.496094C215.877 0.304688 216.132 0.208984 216.465 0.208984C216.793 0.208984 217.044 0.304688 217.217 0.496094C217.395 0.682943 217.483 0.910807 217.483 1.17969C217.483 1.44857 217.395 1.67871 217.217 1.87012C217.044 2.05697 216.793 2.15039 216.465 2.15039C216.132 2.15039 215.877 2.05697 215.699 1.87012C215.526 1.67871 215.439 1.44857 215.439 1.17969ZM219.568 1.17969C219.568 0.910807 219.655 0.682943 219.828 0.496094C220.006 0.304688 220.261 0.208984 220.594 0.208984C220.922 0.208984 221.173 0.304688 221.346 0.496094C221.523 0.682943 221.612 0.910807 221.612 1.17969C221.612 1.44857 221.523 1.67871 221.346 1.87012C221.173 2.05697 220.922 2.15039 220.594 2.15039C220.261 2.15039 220.006 2.05697 219.828 1.87012C219.655 1.67871 219.568 1.44857 219.568 1.17969Z" fill="#DBD8E8"/>
</svg>
