<svg width="341" height="228" viewBox="0 0 341 228" fill="none" xmlns="http://www.w3.org/2000/svg">
<g opacity="0.5">
<path d="M115.286 224.867L209.8 133.106L180.115 115.99L89.5894 208.719L89.5787 210.599L115.286 224.867Z" fill="#795CB8"/>
<path d="M338.008 165.189L251.708 -156.887L225.752 -171.852L3.56772 -112.318L89.5894 208.719L180.115 115.99L307.747 148.073L338.008 165.189Z" fill="#795CB8"/>
<path d="M209.8 133.106L338.008 165.189L307.747 148.073L180.115 115.99L209.8 133.106Z" fill="#795CB8"/>
<path d="M209.8 133.106L338.008 165.189M209.8 133.106L115.286 224.867L89.5787 210.599L89.5894 208.719M209.8 133.106L180.115 115.99M338.008 165.189L251.708 -156.887L225.752 -171.852L3.56772 -112.318L89.5894 208.719M338.008 165.189L307.747 148.073L180.115 115.99M180.115 115.99L89.5894 208.719" stroke="#4C3B8A" stroke-width="4"/>
<path fill-rule="evenodd" clip-rule="evenodd" d="M183.814 118.09L311.546 150.3L225.246 -171.776L3 -112.225L89.2999 209.851L183.814 118.09Z" fill="#977AD6"/>
<path d="M183.814 118.09L311.546 150.3L225.246 -171.776L3 -112.225L89.2999 209.851L183.814 118.09Z" fill="#977AD6"/>
<path fill-rule="evenodd" clip-rule="evenodd" d="M183.814 118.09L311.546 150.3L225.246 -171.776L3 -112.225L89.2999 209.851L183.814 118.09Z" stroke="#4C3B8A" stroke-width="4"/>
<path d="M183.814 118.09L311.546 150.3L225.246 -171.776L3 -112.225L89.2999 209.851L183.814 118.09Z" stroke="#4C3B8A" stroke-width="4"/>
</g>
</svg>
