<svg width="327" height="110" viewBox="0 0 327 110" fill="none" xmlns="http://www.w3.org/2000/svg">
<g opacity="0.5">
<path d="M110.591 155.705L201.153 76.3746L172.71 61.5772L85.9689 141.744L85.9587 143.369L110.591 155.705Z" fill="#795CB8"/>
<path d="M324 104.111L241.309 -174.333L216.438 -187.271L3.54399 -135.802L85.9689 141.744L172.71 61.5772L295.004 89.3137L324 104.111Z" fill="#795CB8"/>
<path d="M201.153 76.3746L324 104.111L295.004 89.3137L172.71 61.5772L201.153 76.3746Z" fill="#795CB8"/>
<path d="M201.153 76.3746L324 104.111M201.153 76.3746L110.591 155.705L85.9587 143.369L85.9689 141.744M201.153 76.3746L172.71 61.5772M324 104.111L241.309 -174.333L216.438 -187.271L3.54399 -135.802L85.9689 141.744M324 104.111L295.004 89.3137L172.71 61.5772M172.71 61.5772L85.9689 141.744" stroke="#4C3B8A" stroke-width="4"/>
<path fill-rule="evenodd" clip-rule="evenodd" d="M176.253 63.3923L298.645 91.2392L215.953 -187.205L3 -135.722L85.6915 142.722L176.253 63.3923Z" fill="#977AD6"/>
<path d="M176.253 63.3923L298.645 91.2392L215.953 -187.205L3 -135.722L85.6915 142.722L176.253 63.3923Z" fill="#977AD6"/>
<path fill-rule="evenodd" clip-rule="evenodd" d="M176.253 63.3923L298.645 91.2392L215.953 -187.205L3 -135.722L85.6915 142.722L176.253 63.3923Z" stroke="#4C3B8A" stroke-width="4"/>
<path d="M176.253 63.3923L298.645 91.2392L215.953 -187.205L3 -135.722L85.6915 142.722L176.253 63.3923Z" stroke="#4C3B8A" stroke-width="4"/>
</g>
</svg>
