<svg width="437" height="275" viewBox="0 0 437 275" fill="none" xmlns="http://www.w3.org/2000/svg">
<g opacity="0.5">
<path d="M147.277 288.115L268.747 170.182L230.596 148.184L114.251 267.361L114.237 269.777L147.277 288.115Z" fill="#795CB8"/>
<path d="M433.522 211.416L322.608 -202.521L289.249 -221.755L3.69432 -145.241L114.251 267.361L230.596 148.184L394.63 189.418L433.522 211.416Z" fill="#795CB8"/>
<path d="M268.747 170.182L433.522 211.416L394.63 189.418L230.596 148.184L268.747 170.182Z" fill="#795CB8"/>
<path d="M268.747 170.182L433.522 211.416M268.747 170.182L147.277 288.115L114.237 269.777L114.251 267.361M268.747 170.182L230.596 148.184M433.522 211.416L322.608 -202.521L289.249 -221.755L3.69432 -145.241L114.251 267.361M433.522 211.416L394.63 189.418L230.596 148.184M230.596 148.184L114.251 267.361" stroke="#4C3B8A" stroke-width="4"/>
<path fill-rule="evenodd" clip-rule="evenodd" d="M235.35 150.883L399.513 192.28L288.599 -221.656L2.96484 -145.121L113.879 268.816L235.35 150.883Z" fill="#977AD6"/>
<path d="M235.35 150.883L399.513 192.28L288.599 -221.656L2.96484 -145.121L113.879 268.816L235.35 150.883Z" fill="#977AD6"/>
<path fill-rule="evenodd" clip-rule="evenodd" d="M235.35 150.883L399.513 192.28L288.599 -221.656L2.96484 -145.121L113.879 268.816L235.35 150.883Z" stroke="#4C3B8A" stroke-width="4"/>
<path d="M235.35 150.883L399.513 192.28L288.599 -221.656L2.96484 -145.121L113.879 268.816L235.35 150.883Z" stroke="#4C3B8A" stroke-width="4"/>
</g>
</svg>
