<svg width="1720" height="147" viewBox="0 0 1720 147" fill="none" xmlns="http://www.w3.org/2000/svg">
<g clip-path="url(#clip0_3293_16844)">
<path d="M1579.53 72.9153C1579.53 82.5965 1581.92 89.9825 1586.72 95.0735C1591.51 100.081 1597.99 102.752 1606.17 103.085V38.4888C1597.99 38.8226 1591.51 41.535 1586.72 46.626C1581.92 51.6334 1579.53 59.103 1579.53 69.0345V72.9153ZM1675.2 69.1597C1675.2 59.3116 1672.85 51.8004 1668.14 46.626C1663.51 41.3681 1656.94 38.614 1648.43 38.3636V102.96C1656.94 102.71 1663.51 100.123 1668.14 95.1987C1672.85 90.1912 1675.2 82.8051 1675.2 73.0405V69.1597ZM1606.17 131.628C1584.86 130.627 1568 125.035 1555.61 114.853C1543.22 104.671 1537.02 90.7754 1537.02 73.1657V69.1597C1537.02 51.55 1543.22 37.6125 1555.61 27.3471C1568.09 16.9983 1584.94 11.2814 1606.17 10.1964V-54.1499H1648.43V10.1964C1670.74 11.2814 1687.97 16.9565 1700.11 27.2219C1712.26 37.4873 1718.33 51.5083 1718.33 69.2849V73.4161C1718.33 90.9423 1712.22 104.796 1699.99 114.978C1687.84 125.077 1670.66 130.627 1648.43 131.628V182.454H1606.17V131.628Z" fill="white"/>
<path d="M1386.2 182.455V13.8277H1427.59L1427.72 28.725L1427.84 28.5998C1431.48 23.5923 1436.89 19.3777 1444.08 15.9559C1451.35 12.4506 1459.77 10.698 1469.36 10.698C1485.39 10.698 1498.19 15.7472 1507.78 25.8457C1517.44 35.8607 1522.28 50.0903 1522.28 68.5346V72.5406C1522.28 90.4007 1517.32 104.63 1507.4 115.23C1497.57 125.829 1484.68 131.128 1468.74 131.128C1459.07 131.128 1451.02 129.71 1444.57 126.872C1438.21 124.034 1432.84 120.32 1428.46 115.73V182.455H1386.2ZM1428.46 87.1875C1430.28 91.1935 1433.34 94.6988 1437.63 97.7033C1441.93 100.708 1447.09 102.21 1453.12 102.21C1462.13 102.21 1468.78 99.5811 1473.08 94.3232C1477.37 88.9819 1479.52 82.2218 1479.52 74.0428V67.4079C1479.52 59.0621 1477.37 52.4689 1473.08 47.6283C1468.78 42.7043 1462.21 40.2422 1453.37 40.2422C1447.17 40.2422 1441.93 41.7445 1437.63 44.749C1433.34 47.7535 1430.28 51.2587 1428.46 55.2647V87.1875Z" fill="white"/>
<path d="M1310.73 108.218C1310.73 101.875 1312.8 96.5339 1316.93 92.1941C1321.06 87.8542 1326.92 85.6843 1334.52 85.6843C1342.21 85.6843 1348.07 87.8542 1352.12 92.1941C1356.25 96.5339 1358.32 101.917 1358.32 108.343C1358.32 114.77 1356.25 120.153 1352.12 124.492C1348.07 128.832 1342.21 131.002 1334.52 131.002C1326.84 131.002 1320.93 128.791 1316.8 124.367C1312.75 119.944 1310.73 114.561 1310.73 108.218Z" fill="white"/>
<path d="M1154.96 128.623V13.8264H1197.34V68.6585C1197.34 71.7465 1197.3 74.2085 1197.22 76.0446C1197.22 77.7972 1197.13 80.3427 1196.97 83.681H1197.59C1198.91 80.3427 1199.78 78.0476 1200.19 76.7957C1200.69 75.4604 1202.05 72.5393 1204.28 68.0326L1237.74 13.8264H1282.97V128.623H1240.47V73.2904C1240.47 70.0356 1240.47 67.6153 1240.47 66.0296C1240.47 64.3604 1240.51 61.8567 1240.59 58.5183H1240.22C1238.9 61.7732 1237.99 64.0266 1237.49 65.2784C1237.08 66.5303 1235.72 69.4514 1233.4 74.0416L1200.19 128.623H1154.96Z" fill="white"/>
<path d="M1051.23 128.623H1008.47V13.8262H1051.23V128.623ZM1091.63 128.623L1055.2 76.2947L1087.79 53.5106L1141.7 128.623H1091.63ZM1030.04 55.5136H1061.89L1089.03 13.8262H1135.5L1086.8 86.1845H1030.04V55.5136ZM968.073 128.623H918.625L972.535 53.5106L1004.51 76.2947L968.073 128.623ZM1030.04 55.5136V86.1845H972.039L923.583 13.8262H970.676L997.816 55.5136H1030.04Z" fill="white"/>
<path d="M875.008 162.424V128.623H802.634V162.424H763.1V96.9506H914.418V162.424H875.008ZM819.612 45.4986L818.868 62.5241C818.62 69.0338 817.918 75.9191 816.761 83.18C815.605 90.4409 814.283 95.4484 812.796 98.2025H774.873C777.021 93.9461 778.756 88.4796 780.078 81.803C781.4 75.1263 782.227 66.9891 782.557 57.3914L784.044 13.8262H897.811V128.623H855.303V45.4986H819.612Z" fill="white"/>
<path d="M620.463 72.7898V68.7838C620.463 50.9238 626.659 36.7358 639.052 26.2201C651.445 15.6209 668.134 10.3213 689.12 10.3213C709.609 10.3213 725.39 15.4122 736.461 25.5942C747.532 35.7761 753.067 49.7136 753.067 67.4068V78.7988H642.151V57.8925H712.171V57.7673C712.171 52.426 710.312 48.0862 706.594 44.7478C702.958 41.326 696.886 39.6152 688.376 39.6152C680.032 39.6152 673.629 42.0772 669.167 47.0012C664.788 51.8418 662.599 57.5587 662.599 64.1519V73.0402C662.599 82.3875 664.954 89.5649 669.663 94.5724C674.455 99.5799 681.353 102.084 690.359 102.084C696.803 102.084 702.174 100.999 706.47 98.8288C710.766 96.5754 714.071 93.5709 716.384 89.8153L752.2 98.8288C748.069 109.178 741.087 117.231 731.256 122.99C721.424 128.749 707.916 131.628 690.731 131.628C668.341 131.628 651.032 126.412 638.804 115.979C626.577 105.464 620.463 91.0672 620.463 72.7898Z" fill="white"/>
<path d="M523.684 45.4988L523.436 62.274C522.857 86.9776 519.263 104.587 512.654 115.103C506.044 125.535 495.923 130.751 482.291 130.751C478.904 130.751 475.888 130.626 473.244 130.376C470.683 130.209 468.618 129.833 467.048 129.249V94.1968C467.874 94.4471 468.7 94.6558 469.526 94.8227C470.435 94.9062 471.551 94.9479 472.873 94.9479C477.251 94.9479 480.639 92.2355 483.035 86.8107C485.431 81.3859 486.753 72.7063 487 60.7717L488.24 13.8264H600.52V128.623H558.012V45.4988H523.684Z" fill="white"/>
<path d="M371.38 45.4986L371.132 62.2737C370.554 86.9774 366.96 104.587 360.351 115.103C353.741 125.535 343.62 130.751 329.988 130.751C326.601 130.751 323.585 130.626 320.941 130.376C318.38 130.209 316.314 129.833 314.745 129.249V94.1965C315.571 94.4469 316.397 94.6555 317.223 94.8224C318.132 94.9059 319.247 94.9476 320.569 94.9476C324.948 94.9476 328.336 92.2353 330.732 86.8105C333.127 81.3857 334.449 72.706 334.697 60.7715L335.937 13.8262H448.216V128.623H405.709V45.4986H371.38Z" fill="white"/>
<path d="M160.578 72.9145V68.9085C160.578 51.3822 166.981 37.236 179.787 26.4699C192.593 15.6203 209.613 10.1956 230.846 10.1956C252.162 10.1956 269.181 15.6203 281.905 26.4699C294.711 37.236 301.114 51.3822 301.114 68.9085V72.9145C301.114 90.5241 294.711 104.712 281.905 115.478C269.181 126.244 252.162 131.627 230.846 131.627C209.53 131.627 192.469 126.244 179.663 115.478C166.94 104.712 160.578 90.5241 160.578 72.9145ZM203.334 67.4062V74.1663C203.334 82.3452 205.647 89.0219 210.274 94.1963C214.983 99.2873 221.84 101.833 230.846 101.833C239.852 101.833 246.668 99.2873 251.294 94.1963C256.004 89.0219 258.358 82.3035 258.358 74.0411V67.4062C258.358 59.3942 256.004 52.8845 251.294 47.877C246.668 42.8695 239.852 40.3657 230.846 40.3657C221.84 40.3657 214.983 42.8695 210.274 47.877C205.647 52.8845 203.334 59.3942 203.334 67.4062Z" fill="white"/>
<path d="M15.2305 10.6206H10.168V131.627H15.2305V10.6206Z" fill="white"/>
<path d="M5.69682 10.5581H0.634277V131.565H5.69682V10.5581Z" fill="white"/>
<path d="M79.8013 86.8543L108.361 131.565H160.587L117.949 68.2258L154.059 10.621L103.028 11.1925V53.1601L83.1104 40.8967L63.1858 52.587V10.6194L19.7065 10.621V131.565H64.3601V86.8543H79.8013Z" fill="white"/>
<path fill-rule="evenodd" clip-rule="evenodd" d="M83.0712 35.2153L98.1233 43.6079V0H68.019V43.6079L83.0712 35.2153Z" fill="#FD8B21"/>
<path d="M83.0712 35.2153L98.1233 43.6079V0H68.019V43.6079L83.0712 35.2153Z" fill="#FD8B21"/>
</g>
<defs>
<clipPath id="clip0_3293_16844">
<rect width="1720" height="147" fill="white"/>
</clipPath>
</defs>
</svg>
