<svg width="850" height="641" viewBox="0 0 850 641" fill="none" xmlns="http://www.w3.org/2000/svg">
<g clip-path="url(#clip0_4000_2613)">
<rect width="850" height="641" rx="32" fill="#E3DEFF"/>
<path d="M9.46149 -172.647L-16.4849 -164.606L269.192 1068.48L295.138 1060.44L9.46149 -172.647Z" fill="#D9CFFE"/>
<path d="M-40.072 -157.295L-66.0183 -149.254L219.342 1082.46L245.289 1074.42L-40.072 -157.295Z" fill="#D9CFFE"/>
<path d="M721.909 657.602L510.863 434.385L430.487 459.293L492.875 728.58L260.442 800.611L22.1595 -227.9L248.478 -298.047L376.56 254.802L463.961 152.253L584.75 193.983L526.191 -58.7792L791.02 -144.539L683.438 260.653L1240.09 821.008L960.482 909.267L722.138 657.531L721.909 657.602Z" fill="#D9CFFE"/>
<path fill-rule="evenodd" clip-rule="evenodd" d="M455.83 118.095L545.891 144.362L485.043 -118.28L328.343 -69.7186L389.191 192.923L455.83 118.095Z" fill="#D9CFFE"/>
<path d="M455.83 118.095L545.891 144.362L485.043 -118.28L328.343 -69.7186L389.191 192.923L455.83 118.095Z" fill="#D9CFFE"/>
<path d="M224.217 357.741V356.394L222.877 356.25L103.32 343.383V300.947L172.801 161.095L204.076 146.174L281.447 154.501V315.279V316.626L282.786 316.77L313.539 320.077V366.732L282.293 381.853L281.447 382.263V383.204V429.698L251.01 444.218L224.217 423.429V357.741ZM222.556 310.286L224.217 310.464V308.795V263.787C224.217 249.989 225.263 231.106 226.145 215.193C226.405 210.499 226.651 206.063 226.851 202.093L226.922 200.676L225.512 200.526L223.753 200.338L222.704 200.226L222.244 201.176C215.232 215.664 207.345 230.498 199.441 245.363L162.55 301.638L161.205 303.689L163.644 303.952L222.556 310.286Z" fill="#BAACF2" stroke="#8475BD" stroke-width="3"/>
<path d="M441.805 213.311L441.805 213.311C436.227 212.712 430.811 213.233 425.847 215.681C420.875 218.134 416.505 222.448 412.9 229.171C405.735 242.533 401.457 265.664 401.457 303.72C401.457 341.586 405.745 366.127 412.862 381.543C416.431 389.273 420.732 394.757 425.605 398.46C430.486 402.17 435.863 404.035 441.484 404.641L441.484 404.641C447.202 405.255 452.69 404.564 457.677 401.861C462.662 399.158 467.002 394.525 470.567 387.512C477.661 373.557 481.831 349.887 481.831 312.045C481.831 273.972 477.657 249.974 470.584 235.152C467.034 227.712 462.733 222.54 457.827 219.077C452.919 215.613 447.496 213.924 441.805 213.311ZM343.35 297.144C343.35 250.123 353.321 215.863 370.502 194.189C387.62 172.595 412.039 163.311 441.484 166.479C470.937 169.649 495.491 184.221 512.72 209.663C529.976 235.145 539.939 271.621 539.939 318.621C539.939 365.641 529.968 400.457 512.776 422.684C495.645 444.83 471.223 454.639 441.805 451.473C412.373 448.305 387.815 433.204 370.576 407.208C353.313 381.174 343.35 344.145 343.35 297.144Z" fill="#BAACF2" stroke="#8475BD" stroke-width="3"/>
<path d="M688.451 407.694V406.346L687.111 406.202L567.554 393.34V350.9L637.035 211.052L668.31 196.131L745.681 204.458V365.236V366.583L747.02 366.727L777.773 370.038V416.687L746.501 431.606L745.646 432.014L745.647 432.961L745.68 479.654L715.244 494.175L688.451 473.385V407.694ZM686.79 360.238L688.451 360.417V358.747V313.739C688.451 299.941 689.497 281.058 690.379 265.144C690.639 260.451 690.885 256.016 691.085 252.045L691.156 250.629L689.746 250.478L687.987 250.29L686.937 250.178L686.478 251.129C679.471 265.617 671.584 280.45 663.679 295.315L626.789 351.59L625.444 353.642L627.883 353.904L686.79 360.238Z" fill="#BAACF2" stroke="#8475BD" stroke-width="3"/>
<path d="M192.095 373.068V371.721L190.756 371.577L71.1985 358.71V316.369L172.441 161.554L249.321 169.828V330.606V331.953L250.66 332.097L281.413 335.404V381.329L250.981 378.057L249.321 377.878V379.548V444.3L192.095 438.143V373.068ZM190.435 325.617L192.095 325.795V324.125V279.114C192.095 265.316 193.141 246.433 194.023 230.519C194.283 225.826 194.529 221.39 194.729 217.42L194.801 216.003L193.39 215.852L191.632 215.665L190.582 215.553L190.122 216.503C183.111 230.991 175.224 245.825 167.319 260.689L130.429 316.965L129.084 319.016L131.523 319.278L190.435 325.617Z" fill="#D1C4FF" stroke="#8475BD" stroke-width="3"/>
<path d="M409.679 228.638L409.679 228.638C404.101 228.038 398.685 228.56 393.722 231.008C388.749 233.461 384.38 237.774 380.774 244.497C373.609 257.86 369.332 280.991 369.332 319.047C369.332 356.913 373.619 381.453 380.736 396.87C384.305 404.6 388.607 410.083 393.479 413.787C398.36 417.496 403.737 419.362 409.358 419.968L409.358 419.968C415.077 420.582 420.565 419.89 425.553 417.187C430.538 414.485 434.879 409.851 438.443 402.839C445.536 388.884 449.705 365.213 449.705 327.372C449.705 289.298 445.531 265.301 438.458 250.478C434.908 243.038 430.607 237.866 425.701 234.404C420.793 230.94 415.371 229.251 409.679 228.638ZM311.229 312.471C311.229 265.45 321.199 231.19 338.38 209.516C355.498 187.921 379.917 178.637 409.362 181.806C438.816 184.976 463.37 199.547 480.599 224.99C497.854 250.471 507.817 286.947 507.817 333.948C507.817 380.968 497.847 415.784 480.654 438.01C463.523 460.157 439.102 469.965 409.683 466.799C380.251 463.632 355.694 448.532 338.455 422.536C321.191 396.503 311.229 359.474 311.229 312.471Z" fill="#D1C4FF" stroke="#8475BD" stroke-width="3"/>
<path d="M656.325 423.02V421.673L654.985 421.529L535.428 408.666V366.321L636.671 211.506L713.551 219.78V380.558V381.905L714.89 382.049L745.643 385.36V431.286L715.211 428.009L713.551 427.83V429.501V494.253L656.325 488.095V423.02ZM654.664 375.569L656.325 375.748V374.078V329.066C656.325 315.268 657.371 296.385 658.253 280.472C658.513 275.778 658.759 271.342 658.959 267.372L659.031 265.955L657.62 265.805L655.862 265.617L654.812 265.505L654.352 266.456C647.345 280.943 639.458 295.777 631.553 310.642L594.663 366.917L593.318 368.968L595.757 369.231L654.664 375.569Z" fill="#D1C4FF" stroke="#8475BD" stroke-width="3"/>
</g>
<rect x="0.5" y="0.5" width="849" height="640" rx="31.5" stroke="#BFB3EE"/>
<defs>
<clipPath id="clip0_4000_2613">
<rect width="850" height="641" rx="32" fill="white"/>
</clipPath>
</defs>
</svg>
