<svg width="413" height="303" viewBox="0 0 413 303" fill="none" xmlns="http://www.w3.org/2000/svg">
<rect x="1.10533" width="374.725" height="59.9873" rx="29.9936" transform="matrix(0.866025 -0.5 0.866025 0.5 -169.68 371.323)" fill="white"/>
<rect x="1.10533" width="374.725" height="59.9873" rx="29.9936" transform="matrix(0.866025 -0.5 0.866025 0.5 -169.68 371.323)" stroke="#DBD8E8" stroke-width="1.27632"/>
<path d="M-100.028 368.603L-113.259 368.053L-112.093 366.124L-96.6662 366.662L-100.028 368.603ZM-115.834 367.992L-113.774 366.802L-114.357 360.543L-111.316 358.787L-110.646 367.633L-113.551 369.31L-115.834 367.992ZM-108.829 373.685L-122.974 365.518L-120.263 363.953L-106.119 372.12L-108.829 373.685ZM-99.5709 364.963C-100.653 364.338 -100.999 363.577 -100.61 362.68C-100.222 361.783 -99.2827 360.904 -97.7931 360.044L-95.1896 358.552L-95.753 358.227C-96.2129 357.961 -96.7439 357.868 -97.3462 357.946C-97.9486 358.017 -98.6318 358.273 -99.3961 358.715C-100.096 359.118 -100.559 359.494 -100.785 359.842C-101.005 360.186 -100.934 360.463 -100.572 360.672L-100.29 360.835L-102.893 362.338L-103.195 362.164C-104.14 361.618 -104.415 360.913 -104.02 360.049C-103.625 359.178 -102.696 358.32 -101.232 357.475C-99.7749 356.634 -98.3436 356.133 -96.9382 355.972C-95.5328 355.811 -94.2537 356.063 -93.1009 356.729L-88.5835 359.337C-88.169 359.576 -87.7189 359.78 -87.2331 359.948C-86.7474 360.109 -86.3005 360.214 -85.8925 360.263L-85.737 360.352L-88.3018 361.833C-88.5284 361.799 -88.8005 361.732 -89.1178 361.631C-89.4352 361.523 -89.7234 361.409 -89.9824 361.289C-89.814 361.64 -89.9468 362.117 -90.3807 362.719C-90.8211 363.318 -91.4979 363.88 -92.4111 364.408C-93.5445 365.062 -94.7718 365.464 -96.093 365.613C-97.4078 365.759 -98.5671 365.542 -99.5709 364.963ZM-97.0451 363.359C-96.6306 363.598 -96.1384 363.676 -95.5684 363.594C-94.9985 363.512 -94.3638 363.269 -93.6643 362.865C-92.939 362.446 -92.4273 361.96 -92.1294 361.407C-91.8315 360.846 -91.9448 360.414 -92.4694 360.111L-93.3923 359.578L-95.685 360.902C-96.5399 361.388 -97.0969 361.852 -97.356 362.293C-97.615 362.734 -97.5114 363.089 -97.0451 363.359ZM-76.4885 355.013L-85.3776 354.951L-84.785 353.05L-73.2244 353.128L-76.4885 355.013ZM-88.7681 355.001L-86.5531 353.723L-86.7182 349.421L-83.7747 347.721L-83.5318 354.547L-86.5434 356.286L-88.7681 355.001ZM-91.2745 352.051L-81.3168 357.8L-83.9398 359.315L-93.8975 353.566L-91.2745 352.051ZM-77.732 344.232L-67.6092 338.388L-57.6515 344.137L-60.2745 345.652L-68.0172 341.181L-72.8844 343.991L-65.1416 348.462L-67.7744 349.982L-77.732 344.232ZM-60.7311 340.329L-61.0226 340.16C-62.551 339.278 -63.2408 338.252 -63.0918 337.081C-62.9429 335.903 -62.0264 334.828 -60.3425 333.856C-58.6586 332.884 -56.7999 332.357 -54.7662 332.274C-52.7326 332.185 -50.9516 332.581 -49.4231 333.463L-49.1316 333.632C-47.6032 334.514 -46.9134 335.544 -47.0624 336.722C-47.2113 337.893 -48.1278 338.964 -49.8117 339.936C-51.4956 340.908 -53.3543 341.439 -55.388 341.529C-57.4216 341.611 -59.2027 341.211 -60.7311 340.329ZM-58.3801 338.579L-57.9915 338.803C-57.0848 339.327 -56.1036 339.568 -55.048 339.527C-53.9923 339.486 -52.9917 339.192 -52.0461 338.646C-51.1005 338.1 -50.5921 337.522 -50.5209 336.913C-50.4496 336.303 -50.8674 335.737 -51.7741 335.213L-52.1627 334.989C-53.0694 334.466 -54.0506 334.224 -55.1063 334.266C-56.1619 334.307 -57.1626 334.6 -58.1081 335.146C-59.0537 335.692 -59.5621 336.27 -59.6334 336.879C-59.7046 337.489 -59.2869 338.055 -58.3801 338.579ZM-47.8881 332.914L-48.1893 332.74C-49.7825 331.82 -50.4949 330.788 -50.3266 329.644C-50.1582 328.5 -49.232 327.441 -47.5481 326.469C-45.9549 325.549 -44.3714 325.046 -42.7976 324.96C-41.2173 324.871 -39.8767 325.095 -38.7756 325.634L-38.4551 325.796L-41.0781 327.311L-41.3015 327.193C-41.8067 326.931 -42.4155 326.841 -43.1279 326.924C-43.8338 327.002 -44.5819 327.269 -45.372 327.726C-46.3046 328.264 -46.7968 328.84 -46.8487 329.453C-46.9005 330.059 -46.4633 330.629 -45.5372 331.164L-45.1486 331.388C-44.2289 331.919 -43.2412 332.175 -42.1855 332.157C-41.1299 332.13 -40.1292 331.844 -39.1837 331.298C-38.3806 330.835 -37.9175 330.392 -37.7945 329.969C-37.6649 329.543 -37.8366 329.19 -38.3093 328.909L-38.4842 328.808L-35.8806 327.305L-35.6961 327.412C-34.6857 328.002 -34.255 328.778 -34.404 329.739C-34.5529 330.693 -35.424 331.629 -37.0173 332.549C-38.7012 333.521 -40.534 334.056 -42.5159 334.153C-44.5042 334.247 -46.2949 333.834 -47.8881 332.914ZM-39.3683 324.641L-41.5832 323.362L-31.781 317.703L-29.566 318.981L-33.1508 321.051L-25.4081 325.521L-28.0408 327.041L-35.7835 322.571L-39.3683 324.641ZM-17.0339 325.331L-19.1614 324.091C-18.9153 324.009 -18.653 323.906 -18.3745 323.783C-18.0896 323.663 -17.8079 323.523 -17.5294 323.362C-17.0048 323.059 -16.6453 322.702 -16.451 322.291C-16.2502 321.883 -16.4607 321.317 -17.0825 320.591L-17.3642 320.754L-31.7421 317.68L-28.954 316.07L-20.2495 318C-19.8998 318.075 -19.5727 318.17 -19.2683 318.286C-18.9639 318.394 -18.6433 318.516 -18.3065 318.651L-18.2677 318.628C-18.5073 318.437 -18.721 318.254 -18.9089 318.078C-19.0967 317.903 -19.2651 317.712 -19.414 317.506L-22.8142 312.526L-20.3078 311.079L-13.9737 320.356C-13.3779 321.163 -13.1804 321.913 -13.3811 322.605C-13.5819 323.297 -14.181 323.93 -15.1784 324.506C-15.5346 324.712 -15.8649 324.88 -16.1693 325.011C-16.4607 325.142 -16.7489 325.248 -17.0339 325.331ZM-19.4626 310.591L-9.33977 304.746L0.617906 310.495L-2.00509 312.01L-9.7478 307.539L-14.6149 310.349L-6.87221 314.82L-9.50493 316.34L-19.4626 310.591ZM2.89117 309.183L-7.06651 303.434L-4.41437 301.903L0.977348 305.015C1.17812 305.131 1.38537 305.258 1.5991 305.397C1.8193 305.531 2.02979 305.66 2.23056 305.784L2.26942 305.761C2.17875 305.597 2.08808 305.44 1.9974 305.29C1.91321 305.137 1.83873 304.956 1.77396 304.746L0.530468 299.048L3.21176 297.5L13.1694 303.249L10.527 304.774L5.11586 301.65C4.91509 301.534 4.71107 301.416 4.50382 301.297C4.2901 301.173 4.08285 301.05 3.88208 300.927L3.87236 300.932C3.95008 301.089 4.0278 301.239 4.10552 301.381C4.18324 301.523 4.25124 301.701 4.30953 301.914L5.58217 307.629L2.89117 309.183ZM6.87424 297.943L4.65926 296.664L14.4615 291.005L16.6765 292.283L13.0917 294.353L20.8344 298.823L18.2017 300.343L10.459 295.873L6.87424 297.943ZM18.532 288.654L21.6699 290.466L24.7981 288.66C26.0545 287.935 27.3174 287.553 28.5869 287.516C29.8627 287.475 31.035 287.763 32.1036 288.38C33.1593 288.989 33.6547 289.664 33.59 290.404C33.5317 291.141 32.8743 291.872 31.6179 292.597L25.857 295.923L15.8993 290.174L18.532 288.654ZM26.741 290.006L23.8072 291.7L26.3524 293.17L29.2863 291.476C29.8239 291.165 30.0894 290.881 30.0829 290.623C30.07 290.361 29.8627 290.115 29.4612 289.883C29.0726 289.658 28.6581 289.546 28.2177 289.546C27.7773 289.539 27.2851 289.692 26.741 290.006ZM37.7965 287.392C37.3561 287.138 37.1197 286.837 37.0873 286.489C37.0614 286.138 37.314 285.809 37.8451 285.502C38.3826 285.192 38.9525 285.046 39.5549 285.065C40.1572 285.083 40.6785 285.22 41.1189 285.474C41.5658 285.732 41.8055 286.035 41.8378 286.383C41.8702 286.731 41.6176 287.06 41.0801 287.37C40.549 287.677 39.9791 287.822 39.3703 287.807C38.768 287.789 38.2434 287.65 37.7965 287.392ZM26.4982 283.898L26.129 283.685C24.8855 282.967 24.3641 282.165 24.5649 281.279C24.7592 280.389 25.5137 279.564 26.8285 278.805C28.3051 277.953 29.8077 277.478 31.3361 277.381C32.8711 277.28 34.1275 277.511 35.1055 278.076C35.9669 278.573 36.4817 279.099 36.6501 279.652C36.8185 280.198 36.8509 280.849 36.7473 281.604C36.6372 282.251 36.6858 282.75 36.893 283.102C37.1003 283.446 37.4597 283.765 37.9713 284.061L38.1074 284.139L35.3969 285.704L35.2512 285.62C34.487 285.179 33.9203 284.717 33.5511 284.235C33.1819 283.745 33.0621 283.16 33.1917 282.479C33.3212 281.911 33.3989 281.421 33.4248 281.01C33.4507 280.598 33.1593 280.217 32.5505 279.865C32.0388 279.57 31.4689 279.443 30.8407 279.484C30.2189 279.521 29.6199 279.706 29.0434 280.039C28.4865 280.361 28.1626 280.716 28.072 281.105C27.9813 281.494 28.2274 281.856 28.8103 282.193L29.1309 282.378L26.4982 283.898Z" fill="#4C3B8A"/>
<path d="M149.167 217.23C148.58 216.898 147.79 216.712 146.968 216.713L137.473 216.707C137.06 216.708 136.664 216.803 136.372 216.971C136.08 217.14 135.916 217.368 135.914 217.607C135.913 217.726 135.953 217.844 136.032 217.954C136.111 218.064 136.226 218.165 136.372 218.249C136.518 218.333 136.691 218.4 136.882 218.445C137.073 218.49 137.278 218.514 137.484 218.513L144.746 218.507L133.693 224.888C133.399 225.058 133.235 225.287 133.235 225.526C133.235 225.766 133.399 225.995 133.693 226.165C133.986 226.334 134.383 226.429 134.798 226.429C135.213 226.429 135.61 226.334 135.903 226.165L146.957 219.783L146.957 223.982C146.955 224.222 147.118 224.452 147.411 224.622C147.703 224.792 148.1 224.887 148.515 224.888C148.93 224.889 149.328 224.795 149.623 224.626C149.917 224.457 150.083 224.228 150.085 223.989L150.074 218.507C150.076 218.029 149.75 217.57 149.167 217.23Z" fill="#FD8B21"/>
<rect x="1.10533" width="391.725" height="59.9873" rx="29.9936" transform="matrix(0.866025 -0.5 0.866025 0.5 173.268 173.322)" fill="white"/>
<rect x="1.10533" width="391.725" height="59.9873" rx="29.9936" transform="matrix(0.866025 -0.5 0.866025 0.5 173.268 173.322)" stroke="#DBD8E8" stroke-width="1.27632"/>
<path d="M234.118 175.684L219.973 167.517L230.116 161.662L232.389 162.974L224.938 167.276L228.406 169.279L234.876 165.543L237.12 166.839L230.65 170.574L234.546 172.823L242.113 168.454L244.377 169.761L234.118 175.684ZM240.229 166.569L239.928 166.396C238.334 165.476 237.622 164.444 237.79 163.299C237.959 162.155 238.885 161.097 240.569 160.125C242.162 159.205 243.745 158.702 245.319 158.616C246.9 158.526 248.24 158.751 249.341 159.289L249.662 159.452L247.039 160.966L246.815 160.848C246.31 160.587 245.701 160.497 244.989 160.579C244.283 160.658 243.535 160.925 242.745 161.381C241.812 161.92 241.32 162.496 241.268 163.109C241.216 163.715 241.654 164.285 242.58 164.819L242.968 165.044C243.888 165.575 244.876 165.831 245.931 165.812C246.987 165.786 247.988 165.5 248.933 164.954C249.736 164.49 250.199 164.047 250.322 163.625C250.452 163.199 250.28 162.845 249.808 162.565L249.633 162.464L252.236 160.961L252.421 161.067C253.431 161.658 253.862 162.434 253.713 163.395C253.564 164.348 252.693 165.285 251.1 166.205C249.416 167.177 247.583 167.712 245.601 167.809C243.613 167.902 241.822 167.489 240.229 166.569ZM248.749 158.296L246.534 157.018L256.336 151.358L258.551 152.637L254.966 154.707L262.709 159.177L260.076 160.697L252.333 156.227L248.749 158.296ZM260.406 149.008L263.544 150.82L266.672 149.014C267.929 148.288 269.192 147.907 270.461 147.87C271.737 147.828 272.909 148.116 273.978 148.733C275.034 149.343 275.529 150.018 275.464 150.758C275.406 151.495 274.749 152.226 273.492 152.951L267.731 156.277L257.774 150.528L260.406 149.008ZM268.615 150.36L265.682 152.054L268.227 153.523L271.161 151.829C271.698 151.519 271.964 151.235 271.957 150.977C271.944 150.715 271.737 150.468 271.336 150.236C270.947 150.012 270.532 149.9 270.092 149.9C269.652 149.892 269.159 150.046 268.615 150.36ZM279.642 140.46L282.77 142.457C284.421 143.515 285.37 144.381 285.616 145.054C285.862 145.727 285.448 146.374 284.373 146.995C284.114 147.144 283.871 147.266 283.644 147.359C283.424 147.456 283.226 147.526 283.052 147.567L280.642 146.176C280.785 146.138 280.921 146.093 281.05 146.041C281.186 145.985 281.339 145.908 281.507 145.811C281.876 145.598 281.97 145.346 281.789 145.054C281.607 144.755 281.031 144.299 280.059 143.685L275.095 140.528L283.984 135.395L293.942 141.145L291.319 142.659L283.576 138.189L279.642 140.46ZM296.215 139.832L286.258 134.083L288.91 132.552L294.301 135.665C294.502 135.781 294.709 135.908 294.923 136.046C295.143 136.181 295.354 136.31 295.555 136.433L295.593 136.411C295.503 136.246 295.412 136.089 295.321 135.94C295.237 135.786 295.163 135.605 295.098 135.395L293.854 129.697L296.536 128.149L306.493 133.898L303.851 135.423L298.44 132.299C298.239 132.183 298.035 132.066 297.828 131.946C297.614 131.823 297.407 131.699 297.206 131.576L297.196 131.581C297.274 131.738 297.352 131.888 297.43 132.03C297.507 132.172 297.575 132.35 297.634 132.563L298.906 138.278L296.215 139.832ZM310.914 125.614L311.205 125.782C312.015 126.249 312.934 126.477 313.964 126.466C314.987 126.451 316.014 126.146 317.044 125.552C318.074 124.957 318.601 124.365 318.627 123.774C318.647 123.179 318.252 122.648 317.442 122.181L317.151 122.013C316.36 121.557 315.457 121.334 314.44 121.345C313.423 121.357 312.397 121.661 311.361 122.26C310.324 122.858 309.793 123.452 309.767 124.043C309.741 124.634 310.124 125.157 310.914 125.614ZM309.787 120.577C311.367 119.665 313.07 119.208 314.897 119.208C316.723 119.201 318.365 119.618 319.822 120.459L320.123 120.633C321.606 121.489 322.274 122.488 322.125 123.628C321.976 124.761 321.027 125.832 319.278 126.842C317.478 127.881 315.599 128.435 313.644 128.502C311.688 128.569 309.686 128.012 307.64 126.831L306.911 126.41C304.69 125.128 303.365 123.862 302.938 122.613C302.51 121.357 303.161 120.098 304.891 118.838C305.933 118.094 306.497 117.619 306.581 117.413C306.665 117.2 306.604 117.03 306.396 116.903L308.883 115.467C309.777 115.998 310.217 116.552 310.205 117.127C310.185 117.7 309.346 118.588 307.688 119.792C306.477 120.648 305.881 121.414 305.901 122.091C305.927 122.764 306.425 123.43 307.397 124.088L307.504 124.026C307.264 123.499 307.339 122.936 307.727 122.338C308.116 121.732 308.802 121.145 309.787 120.577ZM316.607 116.561L319.239 115.041L323.057 117.245L325.972 115.563L328.177 116.836L325.262 118.518L329.197 120.79L326.564 122.31L316.607 116.561ZM325.952 117.077L325.661 116.909C324.132 116.026 323.436 115.004 323.572 113.841C323.708 112.67 324.605 111.606 326.263 110.649C327.928 109.688 329.77 109.17 331.791 109.096C333.812 109.013 335.586 109.413 337.115 110.296L337.406 110.464C338.934 111.347 339.631 112.373 339.495 113.543C339.359 114.706 338.458 115.768 336.794 116.729C335.136 117.686 333.297 118.206 331.276 118.288C329.255 118.363 327.481 117.959 325.952 117.077ZM328.293 115.344L328.663 115.557C329.582 116.088 330.564 116.337 331.606 116.303C332.642 116.266 333.624 115.979 334.55 115.445C335.469 114.914 335.962 114.349 336.026 113.751C336.091 113.145 335.664 112.577 334.744 112.046L334.375 111.833C333.462 111.305 332.481 111.061 331.431 111.098C330.389 111.132 329.407 111.414 328.488 111.945C327.568 112.476 327.076 113.044 327.011 113.65C326.953 114.252 327.38 114.817 328.293 115.344ZM355.388 108.675L352.785 107.172L345.45 111.406L348.053 112.91L345.518 114.373L340.69 111.586L353.095 104.423L357.924 107.211L355.388 108.675ZM339.291 106.022L341.331 107.29C342.535 108.037 343.351 108.609 343.779 109.006C344.2 109.398 344.482 109.741 344.624 110.032L342.011 111.541C341.875 111.118 341.593 110.709 341.166 110.313C340.738 109.909 339.893 109.309 338.63 108.512L334.773 106.072L343.915 100.794L353.853 106.532L351.23 108.047L343.507 103.588L339.291 106.022ZM364.86 100.2L362.198 101.737L352.24 95.9877L354.902 94.4509L364.86 100.2ZM369.057 97.7769L360.527 97.575L361.042 95.6287L372.379 95.8587L369.057 97.7769ZM357.409 97.4123L359.303 96.3186L358.866 92.1625L361.858 90.4349L362.412 97.0702L359.614 98.6855L357.409 97.4123ZM358.001 104.16L354.718 106.056L354.319 99.51L357.652 99.2352L358.001 104.16ZM357.409 97.4123L359.614 98.6855L356.709 100.363L345.246 100.026L348.277 98.2761L355.466 98.5341L357.409 97.4123ZM367.59 93.0374L367.289 92.8636C365.773 91.9886 365.074 90.9715 365.19 89.8123C365.313 88.6494 366.172 87.6081 367.765 86.6882C369.371 85.7609 371.1 85.2748 372.952 85.2299C374.805 85.1776 376.489 85.5964 378.004 86.4863L379.044 87.0864L369.776 92.4373L367.949 91.3828L374.653 87.5127L374.711 87.5464C374.037 87.1575 373.302 86.9724 372.506 86.9911C371.709 87.0098 370.796 87.3164 369.766 87.9109C368.84 88.4457 368.383 89.0346 368.396 89.6777C368.403 90.3171 368.843 90.8892 369.717 91.394L370.125 91.6296C371.006 92.1382 372.03 92.37 373.195 92.3251C374.361 92.2802 375.446 91.968 376.45 91.3884C377.11 91.007 377.567 90.5901 377.82 90.1377C378.079 89.6815 378.192 89.2646 378.16 88.8869L381.297 88.5896C381.595 89.1879 381.495 89.8479 380.996 90.5695C380.504 91.2875 379.685 91.9774 378.538 92.6392C376.777 93.6563 374.892 94.1985 372.884 94.2658C370.883 94.3293 369.118 93.9199 367.59 93.0374ZM376.265 84.6746L374.05 83.3958L383.852 77.7365L386.067 79.0153L382.483 81.085L390.225 85.5552L387.593 87.0752L379.85 82.605L376.265 84.6746ZM395.821 80.6868C395.381 80.4325 395.144 80.1315 395.112 79.7837C395.086 79.4322 395.339 79.1032 395.87 78.7966C396.407 78.4862 396.977 78.3404 397.58 78.3591C398.182 78.3778 398.703 78.5143 399.144 78.7685C399.59 79.0265 399.83 79.3294 399.862 79.6772C399.895 80.0249 399.642 80.354 399.105 80.6643C398.574 80.9709 398.004 81.1168 397.395 81.1018C396.793 81.0831 396.268 80.9448 395.821 80.6868ZM384.523 77.1924L384.154 76.9793C382.91 76.2614 382.389 75.4593 382.59 74.5731C382.784 73.6832 383.538 72.8587 384.853 72.0996C386.33 71.2471 387.832 70.7722 389.361 70.675C390.896 70.574 392.152 70.8058 393.13 71.3705C393.992 71.8678 394.506 72.3931 394.675 72.9465C394.843 73.4925 394.876 74.1431 394.772 74.8984C394.662 75.5453 394.71 76.0445 394.918 76.396C395.125 76.74 395.484 77.0597 395.996 77.3551L396.132 77.4336L393.422 78.9985L393.276 78.9144C392.512 78.4731 391.945 78.0113 391.576 77.529C391.207 77.0391 391.087 76.4539 391.216 75.7734C391.346 75.205 391.424 74.7152 391.449 74.3039C391.475 73.8926 391.184 73.5112 390.575 73.1597C390.063 72.8643 389.494 72.7371 388.865 72.7783C388.244 72.8157 387.645 73.0008 387.068 73.3336C386.511 73.6551 386.187 74.0104 386.097 74.3992C386.006 74.7881 386.252 75.1508 386.835 75.4873L387.156 75.6724L384.523 77.1924Z" fill="#4C3B8A"/>
<rect x="1.10533" width="555.725" height="59.9873" rx="29.9936" transform="matrix(0.866025 -0.5 0.866025 0.5 -221.413 482.455)" fill="white"/>
<rect x="1.10533" width="555.725" height="59.9873" rx="29.9936" transform="matrix(0.866025 -0.5 0.866025 0.5 -221.413 482.455)" stroke="#DBD8E8" stroke-width="1.27632"/>
<path d="M-160.563 484.816L-174.707 476.65L-164.565 470.794L-162.292 472.107L-169.743 476.409L-166.275 478.411L-159.805 474.675L-157.561 475.971L-164.031 479.707L-160.135 481.956L-152.567 477.586L-150.304 478.893L-160.563 484.816ZM-154.452 475.702L-154.753 475.528C-156.346 474.608 -157.059 473.576 -156.89 472.432C-156.722 471.288 -155.796 470.23 -154.112 469.257C-152.519 468.337 -150.935 467.835 -149.361 467.749C-147.781 467.659 -146.44 467.883 -145.339 468.422L-145.019 468.584L-147.642 470.099L-147.865 469.981C-148.37 469.719 -148.979 469.629 -149.692 469.712C-150.398 469.79 -151.146 470.058 -151.936 470.514C-152.868 471.052 -153.361 471.628 -153.412 472.241C-153.464 472.847 -153.027 473.417 -152.101 473.952L-151.712 474.176C-150.793 474.707 -149.805 474.963 -148.749 474.945C-147.694 474.919 -146.693 474.632 -145.747 474.087C-144.944 473.623 -144.481 473.18 -144.358 472.757C-144.229 472.331 -144.4 471.978 -144.873 471.697L-145.048 471.596L-142.444 470.093L-142.26 470.2C-141.25 470.79 -140.819 471.566 -140.968 472.527C-141.117 473.481 -141.988 474.417 -143.581 475.337C-145.265 476.31 -147.098 476.844 -149.08 476.941C-151.068 477.035 -152.859 476.622 -154.452 475.702ZM-145.932 467.429L-148.147 466.15L-138.345 460.491L-136.13 461.77L-139.715 463.839L-131.972 468.309L-134.605 469.829L-142.347 465.359L-145.932 467.429ZM-134.274 458.141L-131.136 459.952L-128.008 458.146C-126.752 457.421 -125.489 457.039 -124.219 457.002C-122.944 456.961 -121.771 457.249 -120.703 457.866C-119.647 458.475 -119.152 459.15 -119.216 459.891C-119.275 460.627 -119.932 461.358 -121.188 462.084L-126.949 465.41L-136.907 459.661L-134.274 458.141ZM-126.065 459.492L-128.999 461.186L-126.454 462.656L-123.52 460.962C-122.982 460.651 -122.717 460.367 -122.723 460.109C-122.736 459.848 -122.944 459.601 -123.345 459.369C-123.734 459.145 -124.148 459.032 -124.589 459.032C-125.029 459.025 -125.521 459.178 -126.065 459.492ZM-115.039 449.593L-111.911 451.589C-110.259 452.648 -109.31 453.513 -109.064 454.186C-108.818 454.859 -109.233 455.506 -110.308 456.127C-110.567 456.277 -110.81 456.398 -111.036 456.492C-111.257 456.589 -111.454 456.658 -111.629 456.699L-114.038 455.308C-113.896 455.271 -113.76 455.226 -113.63 455.173C-113.494 455.117 -113.342 455.041 -113.174 454.944C-112.805 454.73 -112.711 454.478 -112.892 454.186C-113.073 453.887 -113.65 453.431 -114.621 452.818L-119.585 449.66L-110.696 444.528L-100.739 450.277L-103.362 451.791L-111.104 447.321L-115.039 449.593ZM-98.4655 448.964L-108.423 443.215L-105.771 441.684L-100.379 444.797C-100.179 444.913 -99.9713 445.04 -99.7575 445.179C-99.5373 445.313 -99.3269 445.442 -99.1261 445.566L-99.0872 445.543C-99.1779 445.379 -99.2686 445.222 -99.3592 445.072C-99.4434 444.919 -99.5179 444.737 -99.5827 444.528L-100.826 438.829L-98.1449 437.281L-88.1872 443.03L-90.8296 444.556L-96.2408 441.432C-96.4416 441.316 -96.6456 441.198 -96.8528 441.078C-97.0665 440.955 -97.2738 440.832 -97.4746 440.708L-97.4843 440.714C-97.4066 440.871 -97.3288 441.021 -97.2511 441.163C-97.1734 441.305 -97.1054 441.482 -97.0471 441.695L-95.7745 447.411L-98.4655 448.964ZM-83.767 434.746L-83.4755 434.914C-82.666 435.382 -81.7463 435.61 -80.7165 435.599C-79.6932 435.584 -78.6667 435.279 -77.6369 434.684C-76.6072 434.09 -76.0793 433.497 -76.0534 432.906C-76.034 432.312 -76.4291 431.781 -77.2386 431.313L-77.5301 431.145C-78.3202 430.689 -79.2237 430.467 -80.2405 430.478C-81.2573 430.489 -82.2838 430.794 -83.3201 431.392C-84.3563 431.99 -84.8874 432.585 -84.9133 433.176C-84.9392 433.766 -84.5571 434.29 -83.767 434.746ZM-84.8939 429.709C-83.3136 428.797 -81.6103 428.341 -79.7839 428.341C-77.9575 428.333 -76.3157 428.75 -74.8585 429.592L-74.5573 429.765C-73.0742 430.622 -72.4071 431.62 -72.5561 432.761C-72.705 433.894 -73.6539 434.965 -75.4025 435.974C-77.203 437.014 -79.0812 437.567 -81.0371 437.635C-82.993 437.702 -84.9943 437.145 -87.0409 435.963L-87.7695 435.543C-89.9909 434.26 -91.3154 432.994 -91.7428 431.745C-92.1703 430.489 -91.5194 429.231 -89.7902 427.971C-88.7474 427.226 -88.184 426.752 -88.0998 426.546C-88.0156 426.333 -88.0771 426.163 -88.2844 426.036L-85.7974 424.6C-84.9036 425.131 -84.4632 425.684 -84.4762 426.26C-84.4956 426.832 -85.3343 427.72 -86.9923 428.924C-88.2034 429.78 -88.7992 430.547 -88.7798 431.224C-88.7539 431.897 -88.2552 432.562 -87.2837 433.22L-87.1769 433.159C-87.4165 432.632 -87.342 432.069 -86.9534 431.471C-86.5648 430.865 -85.8783 430.278 -84.8939 429.709ZM-73.4304 428.924L-73.7316 428.75C-75.2471 427.875 -75.9465 426.858 -75.83 425.699C-75.7069 424.536 -74.8488 423.495 -73.2555 422.575C-71.6494 421.648 -69.9201 421.161 -68.0678 421.117C-66.2155 421.064 -64.5316 421.483 -63.0161 422.373L-61.9767 422.973L-71.2446 428.324L-73.071 427.269L-66.3677 423.399L-66.3095 423.433C-66.983 423.044 -67.7181 422.859 -68.5147 422.878C-69.3113 422.896 -70.2245 423.203 -71.2543 423.798C-72.1804 424.332 -72.637 424.921 -72.6241 425.564C-72.6176 426.204 -72.1772 426.776 -71.3029 427.281L-70.8948 427.516C-70.014 428.025 -68.9907 428.257 -67.825 428.212C-66.6592 428.167 -65.5744 427.855 -64.5705 427.275C-63.9099 426.894 -63.4533 426.477 -63.2007 426.024C-62.9417 425.568 -62.8283 425.151 -62.8607 424.774L-59.7228 424.476C-59.4249 425.075 -59.5253 425.735 -60.024 426.456C-60.5162 427.174 -61.3355 427.864 -62.4818 428.526C-64.2434 429.543 -66.1281 430.085 -68.1358 430.152C-70.1371 430.216 -71.902 429.807 -73.4304 428.924ZM-61.5201 422.048L-61.8212 421.874C-63.4144 420.954 -64.1269 419.922 -63.9585 418.778C-63.7901 417.633 -62.8639 416.575 -61.18 415.603C-59.5868 414.683 -58.0033 414.18 -56.4295 414.094C-54.8492 414.005 -53.5086 414.229 -52.4076 414.767L-52.087 414.93L-54.71 416.444L-54.9334 416.327C-55.4386 416.065 -56.0474 415.975 -56.7598 416.057C-57.4657 416.136 -58.2138 416.403 -59.0039 416.859C-59.9365 417.398 -60.4288 417.974 -60.4806 418.587C-60.5324 419.193 -60.0952 419.763 -59.1691 420.298L-58.7805 420.522C-57.8608 421.053 -56.8731 421.309 -55.8175 421.29C-54.7618 421.264 -53.7612 420.978 -52.8156 420.432C-52.0125 419.969 -51.5494 419.526 -51.4264 419.103C-51.2968 418.677 -51.4685 418.323 -51.9413 418.043L-52.1161 417.942L-49.5125 416.439L-49.328 416.545C-48.3176 417.136 -47.8869 417.912 -48.0359 418.873C-48.1849 419.827 -49.056 420.763 -50.6492 421.683C-52.3331 422.655 -54.1659 423.19 -56.1478 423.287C-58.1361 423.381 -59.9268 422.967 -61.5201 422.048ZM-54.37 412.008L-44.2471 406.163L-34.2894 411.912L-36.9124 413.427L-44.6551 408.957L-49.5223 411.767L-41.7796 416.237L-44.4123 417.757L-54.37 412.008ZM-36.2907 404.127L-33.1625 406.124C-31.511 407.182 -30.5622 408.048 -30.3161 408.721C-30.07 409.394 -30.4845 410.041 -31.5596 410.662C-31.8186 410.811 -32.0615 410.933 -32.2882 411.026C-32.5084 411.123 -32.7059 411.193 -32.8808 411.234L-35.2901 409.843C-35.1476 409.805 -35.0116 409.761 -34.882 409.708C-34.746 409.652 -34.5938 409.575 -34.4254 409.478C-34.0563 409.265 -33.9624 409.013 -34.1437 408.721C-34.3251 408.422 -34.9015 407.966 -35.873 407.352L-40.8372 404.195L-31.9482 399.063L-21.9905 404.812L-24.6135 406.326L-32.3562 401.856L-36.2907 404.127ZM-23.1466 402.103C-24.2281 401.478 -24.5746 400.717 -24.186 399.82C-23.7974 398.922 -22.8583 398.044 -21.3687 397.184L-18.7652 395.692L-19.3286 395.366C-19.7885 395.101 -20.3195 395.007 -20.9219 395.086C-21.5242 395.157 -22.2075 395.413 -22.9717 395.854C-23.6712 396.258 -24.1342 396.634 -24.3609 396.982C-24.5811 397.326 -24.5099 397.602 -24.1472 397.812L-23.8654 397.974L-26.469 399.478L-26.7702 399.304C-27.7158 398.758 -27.991 398.053 -27.5959 397.189C-27.2009 396.318 -26.2715 395.46 -24.8078 394.615C-23.3506 393.773 -21.9192 393.272 -20.5138 393.112C-19.1084 392.951 -17.8293 393.203 -16.6765 393.869L-12.1591 396.477C-11.7446 396.716 -11.2945 396.92 -10.8087 397.088C-10.323 397.249 -9.87612 397.354 -9.4681 397.402L-9.31266 397.492L-11.8774 398.973C-12.1041 398.939 -12.3761 398.872 -12.6934 398.771C-13.0108 398.662 -13.299 398.548 -13.558 398.429C-13.3896 398.78 -13.5224 399.257 -13.9563 399.859C-14.3967 400.457 -15.0735 401.02 -15.9867 401.547C-17.1201 402.202 -18.3474 402.604 -19.6687 402.753C-20.9834 402.899 -22.1427 402.682 -23.1466 402.103ZM-20.6207 400.498C-20.2062 400.738 -19.714 400.816 -19.1441 400.734C-18.5741 400.652 -17.9394 400.409 -17.2399 400.005C-16.5146 399.586 -16.0029 399.1 -15.705 398.547C-15.4071 397.986 -15.5204 397.554 -16.045 397.251L-16.9679 396.718L-19.2606 398.042C-20.1155 398.528 -20.6725 398.992 -20.9316 399.433C-21.1906 399.874 -21.087 400.229 -20.6207 400.498ZM-16.1033 392.472L-18.3183 391.193L-8.51604 385.534L-6.30107 386.813L-9.88583 388.883L-2.14313 393.353L-4.77584 394.873L-12.5185 390.403L-16.1033 392.472ZM-7.07826 384.704L-4.44554 383.184L-0.627622 385.388L4.31722 382.533L0.499297 380.329L3.1223 378.815L13.08 384.564L10.457 386.078L6.52248 383.807L1.57764 386.661L5.51214 388.933L2.87942 390.453L-7.07826 384.704ZM10.0004 380.755L9.70893 380.587C8.18047 379.705 7.49072 378.678 7.63968 377.508C7.78864 376.33 8.70507 375.255 10.389 374.283C12.0729 373.31 13.9316 372.783 15.9653 372.701C17.9989 372.611 19.78 373.008 21.3084 373.89L21.5999 374.058C23.1283 374.941 23.8181 375.971 23.6691 377.149C23.5202 378.319 22.6037 379.39 20.9198 380.363C19.2359 381.335 17.3772 381.866 15.3435 381.956C13.3099 382.038 11.5288 381.638 10.0004 380.755ZM12.3514 379.005L12.74 379.23C13.6467 379.753 14.6279 379.994 15.6835 379.953C16.7392 379.912 17.7398 379.619 18.6854 379.073C19.631 378.527 20.1394 377.949 20.2106 377.34C20.2819 376.73 19.8641 376.164 18.9574 375.64L18.5688 375.416C17.6621 374.892 16.6809 374.651 15.6253 374.692C14.5696 374.733 13.569 375.027 12.6234 375.573C11.6778 376.119 11.1694 376.696 11.0982 377.306C11.0269 377.915 11.4446 378.482 12.3514 379.005ZM22.8822 373.318L22.5811 373.144C21.0656 372.269 20.3661 371.252 20.4827 370.093C20.6057 368.93 21.4639 367.889 23.0571 366.969C24.6633 366.041 26.3925 365.555 28.2448 365.51C30.0971 365.458 31.781 365.877 33.2965 366.767L34.336 367.367L25.0681 372.718L23.2417 371.663L29.9449 367.793L30.0032 367.827C29.3296 367.438 28.5945 367.253 27.7979 367.272C27.0013 367.29 26.0881 367.597 25.0583 368.191C24.1322 368.726 23.6756 369.315 23.6886 369.958C23.695 370.598 24.1354 371.17 25.0098 371.675L25.4178 371.91C26.2986 372.419 27.3219 372.651 28.4877 372.606C29.6534 372.561 30.7383 372.249 31.7421 371.669C32.4027 371.288 32.8593 370.871 33.1119 370.418C33.371 369.962 33.4843 369.545 33.4519 369.167L36.5898 368.87C36.8877 369.468 36.7874 370.128 36.2887 370.85C35.7964 371.568 34.9772 372.258 33.8308 372.92C32.0692 373.937 30.1845 374.479 28.1768 374.546C26.1755 374.61 24.4107 374.2 22.8822 373.318ZM39.6111 363.66L39.3197 363.491C37.7912 362.609 37.1015 361.582 37.2504 360.412C37.3994 359.234 38.3158 358.159 39.9997 357.187C41.6836 356.215 43.5424 355.687 45.576 355.605C47.6097 355.515 49.3907 355.912 50.9192 356.794L51.2106 356.963C52.7391 357.845 53.4288 358.875 53.2799 360.053C53.1309 361.223 52.2145 362.295 50.5306 363.267C48.8467 364.239 46.9879 364.77 44.9543 364.86C42.9206 364.942 41.1396 364.542 39.6111 363.66ZM41.9621 361.91L42.3507 362.134C43.2574 362.657 44.2386 362.899 45.2943 362.857C46.35 362.816 47.3506 362.523 48.2962 361.977C49.2417 361.431 49.7501 360.853 49.8214 360.244C49.8926 359.634 49.4749 359.068 48.5682 358.544L48.1796 358.32C47.2729 357.796 46.2917 357.555 45.236 357.596C44.1803 357.637 43.1797 357.931 42.2341 358.477C41.2885 359.023 40.7801 359.601 40.7089 360.21C40.6377 360.82 41.0554 361.386 41.9621 361.91ZM55.116 354.562L55.4074 354.73C56.217 355.198 57.1366 355.426 58.1664 355.415C59.1897 355.4 60.2162 355.095 61.246 354.5C62.2758 353.906 62.8036 353.313 62.8295 352.722C62.8489 352.128 62.4539 351.597 61.6443 351.129L61.3529 350.961C60.5627 350.505 59.6593 350.282 58.6424 350.294C57.6256 350.305 56.5991 350.61 55.5628 351.208C54.5266 351.806 53.9955 352.401 53.9696 352.992C53.9437 353.582 54.3258 354.106 55.116 354.562ZM53.989 349.525C55.5693 348.613 57.2726 348.157 59.099 348.157C60.9254 348.149 62.5672 348.566 64.0244 349.407L64.3256 349.581C65.8087 350.438 66.4758 351.436 66.3268 352.576C66.1779 353.709 65.2291 354.781 63.4804 355.79C61.6799 356.83 59.8017 357.383 57.8458 357.451C55.8899 357.518 53.8887 356.961 51.8421 355.779L51.1135 355.358C48.892 354.076 47.5675 352.81 47.1401 351.561C46.7126 350.305 47.3635 349.047 49.0928 347.786C50.1355 347.042 50.699 346.567 50.7832 346.362C50.8673 346.149 50.8058 345.979 50.5986 345.851L53.0856 344.416C53.9793 344.947 54.4197 345.5 54.4068 346.076C54.3873 346.648 53.5486 347.536 51.8906 348.74C50.6795 349.596 50.0837 350.363 50.1031 351.04C50.129 351.713 50.6277 352.378 51.5992 353.036L51.7061 352.975C51.4664 352.447 51.5409 351.885 51.9295 351.286C52.3181 350.681 53.0046 350.094 53.989 349.525ZM74.1181 353.967L71.9906 352.728C72.2367 352.646 72.499 352.543 72.7775 352.419C73.0625 352.3 73.3442 352.16 73.6227 351.999C74.1473 351.696 74.5067 351.339 74.701 350.927C74.9018 350.52 74.6913 349.953 74.0696 349.228L73.7878 349.391L59.4099 346.317L62.1981 344.707L70.9025 346.637C71.2523 346.711 71.5793 346.807 71.8837 346.923C72.1881 347.031 72.5087 347.153 72.8455 347.287L72.8844 347.265C72.6447 347.074 72.431 346.891 72.2432 346.715C72.0554 346.539 71.887 346.349 71.738 346.143L68.3378 341.162L70.8442 339.715L77.1783 348.992C77.7741 349.8 77.9717 350.55 77.7709 351.242C77.5701 351.933 76.9711 352.567 75.9737 353.143C75.6175 353.349 75.2871 353.517 74.9828 353.648C74.6913 353.779 74.4031 353.885 74.1181 353.967ZM76.4205 339.222C77.1783 339.659 77.9101 339.828 78.6161 339.727C79.322 339.618 80.0604 339.341 80.8311 338.896C81.5046 338.508 82.0292 338.16 82.4049 337.853C82.7805 337.547 83.1853 337.145 83.6192 336.647L85.8148 337.915C85.4197 338.352 84.9469 338.786 84.3964 339.216C83.8459 339.639 83.1561 340.089 82.3271 340.568C80.9088 341.387 79.5131 341.841 78.1401 341.931C76.7735 342.017 75.4491 341.69 74.1667 340.949L71.4368 339.373L74.0598 337.859L76.4205 339.222ZM81.2002 333.736L91.1579 339.485L88.5349 341L78.5772 335.251L81.2002 333.736ZM88.1269 335.649L87.8257 335.475C86.3102 334.6 85.6108 333.583 85.7273 332.424C85.8504 331.261 86.7085 330.22 88.3018 329.3C89.9079 328.372 91.6372 327.886 93.4895 327.841C95.3418 327.789 97.0257 328.208 98.5412 329.098L99.5806 329.698L90.3127 335.049L88.4863 333.994L95.1896 330.124L95.2478 330.158C94.5743 329.769 93.8392 329.584 93.0426 329.603C92.246 329.621 91.3328 329.928 90.303 330.522C89.3769 331.057 88.9203 331.646 88.9332 332.289C88.9397 332.929 89.3801 333.501 90.2544 334.006L90.6625 334.241C91.5433 334.75 92.5666 334.981 93.7323 334.937C94.8981 334.892 95.9829 334.58 96.9868 334C97.6474 333.619 98.104 333.202 98.3566 332.749C98.6156 332.293 98.729 331.876 98.6966 331.498L101.834 331.201C102.132 331.799 102.032 332.459 101.533 333.181C101.041 333.899 100.222 334.589 99.0755 335.251C97.3139 336.268 95.4292 336.81 93.4215 336.877C91.4202 336.941 89.6554 336.531 88.1269 335.649ZM95.4324 325.519L98.0651 323.999L101.883 326.204L106.828 323.349L103.01 321.144L105.633 319.63L115.591 325.379L112.968 326.894L109.033 324.622L104.088 327.477L108.023 329.748L105.39 331.268L95.4324 325.519ZM117.864 324.067L107.906 318.318L110.558 316.786L115.95 319.899C116.151 320.015 116.358 320.142 116.572 320.281C116.792 320.415 117.003 320.544 117.203 320.668L117.242 320.645C117.152 320.481 117.061 320.324 116.97 320.174C116.886 320.021 116.811 319.839 116.747 319.63L115.503 313.931L118.185 312.383L128.142 318.133L125.5 319.658L120.089 316.534C119.888 316.418 119.684 316.3 119.477 316.181C119.263 316.057 119.056 315.934 118.855 315.81L118.845 315.816C118.923 315.973 119.001 316.123 119.078 316.265C119.156 316.407 119.224 316.584 119.282 316.798L120.555 322.513L117.864 324.067ZM125.121 314.29L124.82 314.117C123.304 313.242 122.605 312.225 122.721 311.065C122.844 309.902 123.703 308.861 125.296 307.941C126.902 307.014 128.631 306.528 130.483 306.483C132.336 306.431 134.02 306.849 135.535 307.739L136.575 308.339L127.307 313.69L125.48 312.636L132.184 308.766L132.242 308.799C131.568 308.411 130.833 308.225 130.037 308.244C129.24 308.263 128.327 308.569 127.297 309.164C126.371 309.699 125.914 310.288 125.927 310.931C125.934 311.57 126.374 312.142 127.248 312.647L127.656 312.883C128.537 313.391 129.561 313.623 130.726 313.578C131.892 313.533 132.977 313.221 133.981 312.641C134.641 312.26 135.098 311.843 135.351 311.391C135.61 310.934 135.723 310.518 135.691 310.14L138.828 309.843C139.126 310.441 139.026 311.101 138.527 311.823C138.035 312.54 137.216 313.23 136.069 313.892C134.308 314.909 132.423 315.451 130.415 315.519C128.414 315.582 126.649 315.173 125.121 314.29ZM142.957 307.941C142.517 307.687 142.28 307.386 142.248 307.038C142.222 306.687 142.475 306.358 143.006 306.051C143.543 305.741 144.113 305.595 144.716 305.614C145.318 305.632 145.839 305.769 146.28 306.023C146.727 306.281 146.966 306.584 146.999 306.932C147.031 307.279 146.778 307.608 146.241 307.919C145.71 308.225 145.14 308.371 144.531 308.356C143.929 308.338 143.404 308.199 142.957 307.941ZM131.659 304.447L131.29 304.234C130.046 303.516 129.525 302.714 129.726 301.828C129.92 300.938 130.675 300.113 131.989 299.354C133.466 298.502 134.968 298.027 136.497 297.929C138.032 297.828 139.288 298.06 140.266 298.625C141.128 299.122 141.643 299.648 141.811 300.201C141.979 300.747 142.012 301.398 141.908 302.153C141.798 302.8 141.847 303.299 142.054 303.65C142.261 303.994 142.621 304.314 143.132 304.61L143.268 304.688L140.558 306.253L140.412 306.169C139.648 305.728 139.081 305.266 138.712 304.783C138.343 304.294 138.223 303.708 138.352 303.028C138.482 302.46 138.56 301.97 138.586 301.558C138.612 301.147 138.32 300.766 137.711 300.414C137.2 300.119 136.63 299.992 136.001 300.033C135.38 300.07 134.781 300.255 134.204 300.588C133.647 300.91 133.323 301.265 133.233 301.654C133.142 302.043 133.388 302.405 133.971 302.742L134.292 302.927L131.659 304.447Z" fill="#4C3B8A"/>
<path d="M254.184 237.862C253.597 237.529 252.807 237.344 251.985 237.345L242.49 237.339C242.077 237.34 241.681 237.435 241.389 237.603C241.097 237.772 240.933 238 240.931 238.239C240.931 238.358 240.971 238.476 241.049 238.586C241.128 238.696 241.243 238.796 241.389 238.88C241.535 238.965 241.709 239.031 241.899 239.077C242.09 239.122 242.295 239.145 242.501 239.145L249.763 239.138L238.71 245.52C238.417 245.689 238.252 245.919 238.252 246.158C238.252 246.398 238.417 246.627 238.71 246.796C239.003 246.966 239.4 247.061 239.815 247.061C240.23 247.061 240.627 246.966 240.92 246.796L251.974 240.415L251.974 244.614C251.972 244.853 252.136 245.083 252.428 245.253C252.72 245.423 253.117 245.519 253.532 245.52C253.947 245.521 254.345 245.427 254.64 245.258C254.934 245.089 255.1 244.86 255.102 244.62L255.091 239.138C255.093 238.66 254.767 238.201 254.184 237.862Z" fill="#FD8B21"/>
<rect x="1.10533" width="509.725" height="59.9873" rx="29.9936" transform="matrix(0.866025 -0.5 0.866025 0.5 278.285 193.954)" fill="white"/>
<rect x="1.10533" width="509.725" height="59.9873" rx="29.9936" transform="matrix(0.866025 -0.5 0.866025 0.5 278.285 193.954)" stroke="#DBD8E8" stroke-width="1.27632"/>
<path d="M339.135 196.316L324.99 188.149L335.133 182.294L337.406 183.606L329.955 187.908L333.423 189.91L339.893 186.175L342.137 187.47L335.667 191.206L339.563 193.455L347.13 189.086L349.394 190.393L339.135 196.316ZM345.246 187.201L344.945 187.027C343.351 186.108 342.639 185.076 342.807 183.931C342.976 182.787 343.902 181.729 345.586 180.757C347.179 179.837 348.763 179.334 350.336 179.248C351.917 179.158 353.257 179.383 354.358 179.921L354.679 180.084L352.056 181.598L351.832 181.48C351.327 181.218 350.718 181.129 350.006 181.211C349.3 181.29 348.552 181.557 347.762 182.013C346.829 182.552 346.337 183.127 346.285 183.741C346.233 184.346 346.671 184.917 347.597 185.451L347.985 185.676C348.905 186.207 349.893 186.463 350.948 186.444C352.004 186.418 353.005 186.132 353.95 185.586C354.753 185.122 355.216 184.679 355.34 184.257C355.469 183.83 355.297 183.477 354.825 183.197L354.65 183.096L357.253 181.592L357.438 181.699C358.448 182.29 358.879 183.066 358.73 184.027C358.581 184.98 357.71 185.917 356.117 186.837C354.433 187.809 352.6 188.344 350.618 188.441C348.63 188.534 346.839 188.121 345.246 187.201ZM353.766 178.928L351.551 177.649L361.353 171.99L363.568 173.269L359.983 175.339L367.726 179.809L365.093 181.329L357.35 176.859L353.766 178.928ZM365.423 169.64L368.561 171.452L371.69 169.646C372.946 168.92 374.209 168.539 375.478 168.501C376.754 168.46 377.926 168.748 378.995 169.365C380.051 169.975 380.546 170.65 380.481 171.39C380.423 172.127 379.766 172.858 378.509 173.583L372.748 176.909L362.791 171.16L365.423 169.64ZM373.632 170.992L370.699 172.686L373.244 174.155L376.178 172.461C376.715 172.151 376.981 171.867 376.974 171.609C376.961 171.347 376.754 171.1 376.353 170.868C375.964 170.644 375.55 170.532 375.109 170.532C374.669 170.524 374.177 170.678 373.632 170.992ZM384.659 161.092L387.787 163.089C389.438 164.147 390.387 165.013 390.633 165.686C390.88 166.359 390.465 167.006 389.39 167.626C389.131 167.776 388.888 167.897 388.661 167.991C388.441 168.088 388.244 168.157 388.069 168.198L385.659 166.807C385.802 166.77 385.938 166.725 386.067 166.673C386.203 166.617 386.356 166.54 386.524 166.443C386.893 166.23 386.987 165.977 386.806 165.686C386.624 165.387 386.048 164.93 385.077 164.317L380.112 161.159L389.001 156.027L398.959 161.776L396.336 163.291L388.593 158.82L384.659 161.092ZM401.232 160.464L391.275 154.715L393.927 153.184L399.318 156.297C399.519 156.412 399.726 156.54 399.94 156.678C400.16 156.813 400.371 156.942 400.572 157.065L400.611 157.042C400.52 156.878 400.429 156.721 400.339 156.571C400.254 156.418 400.18 156.237 400.115 156.027L398.872 150.329L401.553 148.781L411.511 154.53L408.868 156.055L403.457 152.931C403.256 152.815 403.052 152.698 402.845 152.578C402.631 152.454 402.424 152.331 402.223 152.208L402.213 152.213C402.291 152.37 402.369 152.52 402.447 152.662C402.524 152.804 402.592 152.982 402.651 153.195L403.923 158.91L401.232 160.464ZM418.622 150.424L408.664 144.675L414.979 141.029C416.268 140.285 417.407 139.881 418.398 139.818C419.383 139.75 420.247 139.932 420.992 140.362C421.64 140.736 421.999 141.119 422.071 141.512C422.148 141.9 422.019 142.293 421.682 142.689L421.711 142.706C422.346 142.452 423.078 142.329 423.907 142.336C424.742 142.34 425.5 142.538 426.18 142.931C426.983 143.394 427.346 143.94 427.268 144.568C427.184 145.193 426.507 145.872 425.238 146.604L418.622 150.424ZM415.231 145.449L418.515 143.553C419.04 143.25 419.318 142.992 419.35 142.779C419.383 142.566 419.231 142.362 418.894 142.168C418.576 141.985 418.24 141.906 417.883 141.932C417.521 141.955 417.077 142.117 416.553 142.42L413.269 144.316L415.231 145.449ZM419.244 147.765L422.789 145.718C423.308 145.419 423.599 145.15 423.664 144.911C423.729 144.671 423.58 144.447 423.217 144.237C422.854 144.028 422.469 143.94 422.061 143.974C421.646 144.004 421.174 144.172 420.642 144.479L417.097 146.526L419.244 147.765ZM434.136 146.111L432.009 144.871C432.255 144.789 432.517 144.686 432.796 144.563C433.081 144.443 433.362 144.303 433.641 144.142C434.165 143.839 434.525 143.482 434.719 143.071C434.92 142.663 434.71 142.097 434.088 141.371L433.806 141.534L419.428 138.46L422.216 136.851L430.921 138.78C431.27 138.855 431.598 138.95 431.902 139.066C432.206 139.175 432.527 139.296 432.864 139.431L432.903 139.408C432.663 139.218 432.449 139.034 432.261 138.859C432.074 138.683 431.905 138.492 431.756 138.287L428.356 133.306L430.862 131.859L437.196 141.136C437.792 141.943 437.99 142.693 437.789 143.385C437.588 144.077 436.989 144.711 435.992 145.286C435.636 145.492 435.305 145.66 435.001 145.791C434.71 145.922 434.421 146.029 434.136 146.111ZM446.795 134.484C444.975 135.534 443.346 136.157 441.908 136.351C440.47 136.546 439.162 136.303 437.983 135.622L437.828 135.533L440.412 134.041L440.558 134.125C441.069 134.42 441.649 134.508 442.297 134.388C442.938 134.265 443.748 133.921 444.725 133.356C445.606 132.848 446.144 132.418 446.338 132.066C446.532 131.715 446.435 131.427 446.047 131.203C445.652 130.974 445.214 130.89 444.735 130.95C444.249 131.006 443.718 131.201 443.142 131.533L440.636 132.981L438.712 131.87L440.976 130.563C441.526 130.245 441.837 129.954 441.908 129.688C441.979 129.415 441.843 129.18 441.5 128.981C441.144 128.783 440.691 128.735 440.14 128.836C439.583 128.933 438.955 129.183 438.255 129.587C437.381 130.092 436.84 130.531 436.633 130.905C436.432 131.275 436.572 131.599 437.051 131.876L437.206 131.965L434.642 133.446L434.486 133.356C433.443 132.754 433.058 132.023 433.33 131.163C433.596 130.3 434.577 129.378 436.274 128.398C437.847 127.489 439.282 126.953 440.577 126.788C441.873 126.616 442.931 126.768 443.754 127.243C444.343 127.583 444.654 127.976 444.687 128.421C444.725 128.862 444.492 129.333 443.987 129.834L444.016 129.851C444.832 129.514 445.678 129.322 446.552 129.273C447.433 129.221 448.22 129.395 448.913 129.795C449.832 130.326 450.107 131.012 449.738 131.853C449.369 132.687 448.388 133.564 446.795 134.484ZM448.437 121.712L458.559 115.868L468.517 121.617L465.894 123.131L458.151 118.661L453.284 121.471L461.027 125.941L458.394 127.461L448.437 121.712ZM474.909 122.615L460.891 114.522L463.32 113.12L464.612 113.798L464.641 113.781C464.492 113.389 464.615 112.921 465.01 112.379C465.412 111.833 466.004 111.334 466.788 110.882C468.264 110.029 469.919 109.608 471.752 109.62C473.591 109.627 475.259 110.063 476.755 110.927L477.047 111.095C478.549 111.962 479.326 112.92 479.378 113.967C479.43 115.014 478.753 115.943 477.348 116.754C476.571 117.203 475.722 117.558 474.803 117.82C473.889 118.078 473.077 118.177 472.364 118.117L477.532 121.101L474.909 122.615ZM469.906 116.709C470.502 116.829 471.234 116.818 472.102 116.676C472.976 116.53 473.734 116.272 474.375 115.902C475.308 115.363 475.78 114.828 475.793 114.297C475.813 113.763 475.35 113.222 474.404 112.677L474.016 112.452C473.064 111.902 472.131 111.637 471.218 111.656C470.311 111.671 469.391 111.947 468.459 112.486C467.818 112.856 467.371 113.29 467.118 113.787C466.866 114.284 466.84 114.707 467.04 115.055L469.906 116.709ZM483.653 112.878L473.695 107.129L476.347 105.598L481.739 108.711C481.94 108.827 482.147 108.954 482.361 109.092C482.581 109.227 482.791 109.356 482.992 109.479L483.031 109.457C482.94 109.293 482.85 109.135 482.759 108.986C482.675 108.833 482.6 108.651 482.536 108.442L481.292 102.743L483.973 101.195L493.931 106.944L491.289 108.47L485.877 105.346C485.677 105.23 485.473 105.112 485.265 104.992C485.052 104.869 484.844 104.746 484.644 104.622L484.634 104.628C484.712 104.785 484.789 104.934 484.867 105.077C484.945 105.219 485.013 105.396 485.071 105.609L486.344 111.325L483.653 112.878ZM508.493 98.5366L499.604 98.4749L500.197 96.5735L511.758 96.652L508.493 98.5366ZM496.214 98.5254L498.429 97.2466L498.264 92.9446L501.207 91.2451L501.45 98.0711L498.439 99.8098L496.214 98.5254ZM493.708 95.5751L503.665 101.324L501.042 102.839L491.085 97.0895L493.708 95.5751ZM507.036 93.7915L506.745 93.6232C505.216 92.7408 504.527 91.7144 504.676 90.544C504.825 89.3661 505.741 88.2911 507.425 87.3189C509.109 86.3467 510.968 85.8195 513.001 85.7372C515.035 85.6475 516.816 86.0438 518.344 86.9263L518.636 87.0945C520.164 87.977 520.854 89.0072 520.705 90.185C520.556 91.3554 519.64 92.4267 517.956 93.3989C516.272 94.3711 514.413 94.9021 512.379 94.9918C510.346 95.0741 508.565 94.674 507.036 93.7915ZM509.387 92.0415L509.776 92.2659C510.683 92.7894 511.664 93.0306 512.719 92.9894C513.775 92.9483 514.776 92.6548 515.721 92.1089C516.667 91.5629 517.175 90.9852 517.247 90.3757C517.318 89.7662 516.9 89.1997 515.993 88.6762L515.605 88.4519C514.698 87.9284 513.717 87.6872 512.661 87.7283C511.605 87.7695 510.605 88.063 509.659 88.6089C508.714 89.1549 508.205 89.7326 508.134 90.3421C508.063 90.9516 508.481 91.5181 509.387 92.0415ZM520.958 82.3999L524.086 84.3967C525.737 85.4549 526.686 86.3205 526.932 86.9936C527.178 87.6666 526.764 88.3135 525.689 88.9342C525.43 89.0838 525.187 89.2053 524.96 89.2988C524.74 89.396 524.542 89.4652 524.367 89.5064L521.958 88.1154C522.101 88.078 522.237 88.0331 522.366 87.9807C522.502 87.9247 522.654 87.848 522.823 87.7508C523.192 87.5376 523.286 87.2852 523.105 86.9936C522.923 86.6944 522.347 86.2383 521.375 85.625L516.411 82.4672L525.3 77.3351L535.258 83.0842L532.635 84.5986L524.892 80.1284L520.958 82.3999ZM533.257 75.2991L536.385 77.2959C538.036 78.3541 538.985 79.2197 539.231 79.8928C539.477 80.5658 539.063 81.2127 537.988 81.8334C537.729 81.983 537.486 82.1045 537.259 82.198C537.039 82.2952 536.841 82.3644 536.666 82.4056L534.257 81.0146C534.4 80.9772 534.536 80.9323 534.665 80.8799C534.801 80.8239 534.953 80.7472 535.122 80.65C535.491 80.4368 535.585 80.1844 535.404 79.8928C535.222 79.5936 534.646 79.1375 533.674 78.5242L528.71 75.3664L537.599 70.2343L547.557 75.9834L544.934 77.4978L537.191 73.0276L533.257 75.2991ZM544.516 72.1526L544.215 71.9787C542.699 71.1037 542 70.0866 542.116 68.9275C542.24 67.7646 543.098 66.7232 544.691 65.8034C546.297 64.876 548.026 64.3899 549.879 64.3451C551.731 64.2927 553.415 64.7115 554.93 65.6014L555.97 66.2016L546.702 71.5524L544.875 70.498L551.579 66.6279L551.637 66.6615C550.963 66.2726 550.228 66.0875 549.432 66.1062C548.635 66.1249 547.722 66.4315 546.692 67.0261C545.766 67.5608 545.309 68.1497 545.322 68.7929C545.329 69.4323 545.769 70.0044 546.644 70.5092L547.052 70.7447C547.932 71.2533 548.956 71.4851 550.121 71.4402C551.287 71.3954 552.372 71.0832 553.376 70.5036C554.037 70.1222 554.493 69.7052 554.746 69.2528C555.005 68.7966 555.118 68.3797 555.086 68.002L558.224 67.7048C558.522 68.303 558.421 68.963 557.922 69.6847C557.43 70.4026 556.611 71.0925 555.465 71.7543C553.703 72.7714 551.818 73.3136 549.811 73.3809C547.809 73.4445 546.044 73.035 544.516 72.1526ZM573.155 64.2104L570.552 62.7073L563.217 66.942L565.821 68.4451L563.285 69.909L558.457 67.1214L570.863 59.9589L575.691 62.7465L573.155 64.2104ZM557.058 61.5575L559.098 62.8251C560.303 63.5729 561.119 64.145 561.546 64.5414C561.967 64.934 562.249 65.2761 562.391 65.5678L559.778 67.0766C559.642 66.654 559.36 66.2446 558.933 65.8482C558.505 65.4444 557.66 64.8442 556.397 64.0478L552.54 61.6079L561.682 56.33L571.62 62.0679L568.997 63.5823L561.274 59.1232L557.058 61.5575ZM582.627 55.7355L579.965 57.2723L570.008 51.5232L572.67 49.9864L582.627 55.7355ZM586.824 53.3124L578.294 53.1105L578.809 51.1643L590.146 51.3942L586.824 53.3124ZM575.176 52.9479L577.07 51.8541L576.633 47.698L579.625 45.9705L580.179 52.6057L577.381 54.2211L575.176 52.9479ZM575.769 59.6953L572.485 61.5911L572.087 55.0456L575.419 54.7708L575.769 59.6953ZM575.176 52.9479L577.381 54.2211L574.476 55.8981L563.013 55.5616L566.044 53.8116L573.233 54.0696L575.176 52.9479ZM585.357 48.573L585.056 48.3991C583.54 47.5241 582.841 46.5071 582.958 45.3479C583.081 44.185 583.939 43.1436 585.532 42.2238C587.138 41.2964 588.867 40.8103 590.72 40.7655C592.572 40.7131 594.256 41.1319 595.771 42.0218L596.811 42.622L587.543 47.9728L585.717 46.9184L592.42 43.0483L592.478 43.0819C591.804 42.693 591.069 42.5079 590.273 42.5266C589.476 42.5453 588.563 42.852 587.533 43.4465C586.607 43.9812 586.15 44.5701 586.163 45.2133C586.17 45.8527 586.61 46.4248 587.485 46.9296L587.893 47.1652C588.773 47.6737 589.797 47.9055 590.963 47.8607C592.128 47.8158 593.213 47.5036 594.217 46.924C594.878 46.5426 595.334 46.1257 595.587 45.6732C595.846 45.217 595.959 44.8001 595.927 44.4224L599.065 44.1252C599.363 44.7234 599.262 45.3834 598.764 46.1051C598.271 46.823 597.452 47.5129 596.306 48.1748C594.544 49.1918 592.659 49.734 590.652 49.8013C588.65 49.8649 586.886 49.4554 585.357 48.573ZM603.193 42.2238C602.753 41.9695 602.517 41.6685 602.484 41.3207C602.458 40.9692 602.711 40.6402 603.242 40.3336C603.78 40.0232 604.35 39.8774 604.952 39.8961C605.554 39.9148 606.076 40.0513 606.516 40.3055C606.963 40.5635 607.202 40.8664 607.235 41.2142C607.267 41.5619 607.015 41.891 606.477 42.2013C605.946 42.5079 605.376 42.6538 604.767 42.6388C604.165 42.6201 603.64 42.4818 603.193 42.2238ZM591.895 38.7294L591.526 38.5163C590.283 37.7984 589.761 36.9963 589.962 36.1101C590.156 35.2202 590.911 34.3957 592.225 33.6366C593.702 32.7841 595.205 32.3092 596.733 32.212C598.268 32.111 599.525 32.3428 600.502 32.9075C601.364 33.4048 601.879 33.9301 602.047 34.4835C602.216 35.0295 602.248 35.6801 602.144 36.4354C602.034 37.0823 602.083 37.5815 602.29 37.933C602.497 38.277 602.857 38.5967 603.368 38.8921L603.504 38.9706L600.794 40.5355L600.648 40.4514C599.884 40.0101 599.317 39.5483 598.948 39.066C598.579 38.5761 598.459 37.9909 598.589 37.3104C598.718 36.742 598.796 36.2522 598.822 35.8409C598.848 35.4296 598.556 35.0482 597.947 34.6967C597.436 34.4013 596.866 34.2741 596.238 34.3153C595.616 34.3527 595.017 34.5378 594.44 34.8706C593.883 35.1921 593.56 35.5474 593.469 35.9362C593.378 36.3251 593.624 36.6878 594.207 37.0244L594.528 37.2094L591.895 38.7294Z" fill="#4C3B8A"/>
<rect x="1.10533" width="702.725" height="59.9873" rx="29.9936" transform="matrix(0.866025 -0.5 0.866025 0.5 251.234 290.836)" fill="white"/>
<rect x="1.10533" width="702.725" height="59.9873" rx="29.9936" transform="matrix(0.866025 -0.5 0.866025 0.5 251.234 290.836)" stroke="#DBD8E8" stroke-width="1.27632"/>
<path d="M312.084 293.197L297.939 285.031L301.339 283.068L315.164 286.024C315.468 286.095 315.756 286.168 316.028 286.243C316.3 286.317 316.559 286.4 316.805 286.489L316.864 286.456C316.715 286.31 316.572 286.16 316.436 286.007C316.307 285.85 316.18 285.683 316.057 285.508L310.87 277.566L314.26 275.608L328.405 283.775L325.724 285.323L316.766 280.151C316.559 280.032 316.339 279.893 316.106 279.736C315.879 279.575 315.678 279.43 315.504 279.299L315.387 279.366C315.562 279.504 315.737 279.669 315.912 279.86C316.086 280.043 316.235 280.219 316.358 280.387L321.342 287.852L319.04 289.182L305.488 286.315C305.19 286.248 304.876 286.16 304.545 286.052C304.215 285.943 303.933 285.844 303.7 285.755L303.593 285.816C303.807 285.917 304.053 286.037 304.332 286.175C304.616 286.31 304.863 286.437 305.07 286.557L314.338 291.896L312.084 293.197ZM324.801 280.269L324.509 280.101C322.981 279.218 322.291 278.192 322.44 277.022C322.589 275.844 323.505 274.769 325.189 273.796C326.873 272.824 328.732 272.297 330.766 272.215C332.799 272.125 334.58 272.521 336.109 273.404L336.4 273.572C337.929 274.455 338.618 275.485 338.469 276.663C338.32 277.833 337.404 278.904 335.72 279.876C334.036 280.849 332.177 281.38 330.144 281.469C328.11 281.552 326.329 281.152 324.801 280.269ZM327.152 278.519L327.54 278.743C328.447 279.267 329.428 279.508 330.484 279.467C331.539 279.426 332.54 279.132 333.486 278.586C334.431 278.041 334.94 277.463 335.011 276.853C335.082 276.244 334.664 275.677 333.758 275.154L333.369 274.929C332.462 274.406 331.481 274.165 330.425 274.206C329.37 274.247 328.369 274.541 327.424 275.087C326.478 275.632 325.97 276.21 325.898 276.82C325.827 277.429 326.245 277.996 327.152 278.519ZM351.351 270.527L348.689 272.063L338.732 266.314L341.394 264.777L351.351 270.527ZM355.548 268.103L347.018 267.902L347.533 265.955L358.87 266.185L355.548 268.103ZM343.9 267.739L345.794 266.645L345.357 262.489L348.349 260.762L348.903 267.397L346.105 269.012L343.9 267.739ZM344.493 274.486L341.209 276.382L340.811 269.837L344.143 269.562L344.493 274.486ZM343.9 267.739L346.105 269.012L343.2 270.689L331.737 270.353L334.768 268.603L341.957 268.861L343.9 267.739ZM349.437 260.133L352.07 258.613L355.888 260.818L360.833 257.963L357.015 255.758L359.638 254.244L369.596 259.993L366.973 261.507L363.038 259.236L358.093 262.091L362.028 264.362L359.395 265.882L349.437 260.133ZM366.516 256.185L366.225 256.016C364.696 255.134 364.006 254.108 364.155 252.937C364.304 251.759 365.221 250.684 366.905 249.712C368.589 248.74 370.447 248.213 372.481 248.13C374.515 248.041 376.296 248.437 377.824 249.319L378.116 249.488C379.644 250.37 380.334 251.4 380.185 252.578C380.036 253.749 379.119 254.82 377.435 255.792C375.752 256.764 373.893 257.295 371.859 257.385C369.826 257.467 368.044 257.067 366.516 256.185ZM368.867 254.435L369.256 254.659C370.162 255.183 371.144 255.424 372.199 255.383C373.255 255.341 374.255 255.048 375.201 254.502C376.147 253.956 376.655 253.378 376.726 252.769C376.798 252.159 376.38 251.593 375.473 251.069L375.084 250.845C374.178 250.322 373.197 250.08 372.141 250.122C371.085 250.163 370.085 250.456 369.139 251.002C368.193 251.548 367.685 252.126 367.614 252.735C367.543 253.345 367.96 253.911 368.867 254.435ZM379.573 242.735L389.696 236.89L399.653 242.639L397.03 244.154L389.288 239.683L384.42 242.493L392.163 246.964L389.53 248.484L379.573 242.735ZM396.613 238.808L396.311 238.635C394.796 237.76 394.096 236.743 394.213 235.583C394.336 234.42 395.194 233.379 396.787 232.459C398.394 231.532 400.123 231.046 401.975 231.001C403.827 230.949 405.511 231.367 407.027 232.257L408.066 232.857L398.798 238.208L396.972 237.154L403.675 233.284L403.733 233.317C403.06 232.929 402.325 232.743 401.528 232.762C400.732 232.781 399.818 233.087 398.789 233.682C397.862 234.217 397.406 234.806 397.419 235.449C397.425 236.088 397.866 236.66 398.74 237.165L399.148 237.401C400.029 237.909 401.052 238.141 402.218 238.096C403.384 238.051 404.469 237.739 405.472 237.159C406.133 236.778 406.59 236.361 406.842 235.909C407.101 235.453 407.215 235.036 407.182 234.658L410.32 234.361C410.618 234.959 410.518 235.619 410.019 236.341C409.527 237.059 408.707 237.748 407.561 238.41C405.799 239.427 403.915 239.97 401.907 240.037C399.906 240.1 398.141 239.691 396.613 238.808ZM417.995 236.739L403.976 228.645L406.405 227.243L407.697 227.922L407.726 227.905C407.577 227.512 407.7 227.045 408.095 226.503C408.497 225.957 409.09 225.458 409.873 225.005C411.35 224.153 413.005 223.732 414.837 223.743C416.677 223.751 418.345 224.186 419.841 225.05L420.132 225.218C421.635 226.086 422.412 227.043 422.464 228.09C422.515 229.137 421.839 230.066 420.433 230.878C419.656 231.326 418.808 231.682 417.888 231.943C416.975 232.201 416.162 232.3 415.45 232.241L420.618 235.224L417.995 236.739ZM412.992 230.833C413.588 230.952 414.319 230.941 415.187 230.799C416.062 230.653 416.819 230.395 417.46 230.025C418.393 229.487 418.866 228.952 418.879 228.421C418.898 227.886 418.435 227.346 417.49 226.8L417.101 226.576C416.149 226.026 415.216 225.76 414.303 225.779C413.396 225.794 412.477 226.071 411.544 226.609C410.903 226.979 410.456 227.413 410.204 227.91C409.951 228.408 409.925 228.83 410.126 229.178L412.992 230.833ZM421.424 224.483L421.123 224.31C419.607 223.435 418.908 222.418 419.025 221.258C419.148 220.095 420.006 219.054 421.599 218.134C423.205 217.207 424.934 216.721 426.787 216.676C428.639 216.624 430.323 217.042 431.838 217.932L432.878 218.532L423.61 223.883L421.784 222.829L428.487 218.959L428.545 218.992C427.872 218.604 427.136 218.418 426.34 218.437C425.543 218.456 424.63 218.762 423.6 219.357C422.674 219.892 422.218 220.481 422.23 221.124C422.237 221.763 422.677 222.335 423.552 222.84L423.96 223.076C424.841 223.584 425.864 223.816 427.03 223.771C428.195 223.726 429.28 223.414 430.284 222.834C430.945 222.453 431.401 222.036 431.654 221.584C431.913 221.128 432.026 220.711 431.994 220.333L435.132 220.036C435.43 220.634 435.329 221.294 434.831 222.016C434.338 222.734 433.519 223.423 432.373 224.085C430.611 225.102 428.726 225.645 426.719 225.712C424.717 225.775 422.953 225.366 421.424 224.483ZM438.687 220.103L428.73 214.354L435.044 210.708C436.333 209.964 437.473 209.56 438.464 209.497C439.448 209.429 440.313 209.611 441.058 210.041C441.705 210.415 442.065 210.798 442.136 211.191C442.214 211.579 442.084 211.972 441.748 212.368L441.777 212.385C442.411 212.131 443.143 212.008 443.972 212.015C444.808 212.019 445.565 212.217 446.245 212.61C447.049 213.073 447.411 213.619 447.334 214.247C447.249 214.872 446.573 215.55 445.303 216.283L438.687 220.103ZM435.297 215.128L438.58 213.232C439.105 212.929 439.384 212.671 439.416 212.458C439.448 212.245 439.296 212.041 438.959 211.847C438.642 211.664 438.305 211.585 437.949 211.611C437.586 211.634 437.143 211.796 436.618 212.099L433.334 213.995L435.297 215.128ZM439.309 217.444L442.855 215.397C443.373 215.098 443.665 214.829 443.729 214.589C443.794 214.35 443.645 214.126 443.282 213.916C442.92 213.707 442.534 213.619 442.126 213.653C441.712 213.683 441.239 213.851 440.708 214.158L437.162 216.205L439.309 217.444ZM445.536 210.562L445.235 210.388C443.72 209.513 443.02 208.496 443.137 207.337C443.26 206.174 444.118 205.133 445.711 204.213C447.317 203.286 449.047 202.8 450.899 202.755C452.751 202.702 454.435 203.121 455.951 204.011L456.99 204.611L447.722 209.962L445.896 208.908L452.599 205.038L452.657 205.071C451.984 204.682 451.249 204.497 450.452 204.516C449.655 204.535 448.742 204.841 447.712 205.436C446.786 205.971 446.33 206.559 446.343 207.203C446.349 207.842 446.789 208.414 447.664 208.919L448.072 209.155C448.953 209.663 449.976 209.895 451.142 209.85C452.308 209.805 453.392 209.493 454.396 208.913C455.057 208.532 455.513 208.115 455.766 207.663C456.025 207.206 456.138 206.789 456.106 206.412L459.244 206.115C459.542 206.713 459.441 207.373 458.943 208.094C458.451 208.812 457.631 209.502 456.485 210.164C454.723 211.181 452.839 211.723 450.831 211.791C448.83 211.854 447.065 211.445 445.536 210.562ZM457.447 203.686L457.145 203.512C455.552 202.592 454.84 201.56 455.008 200.416C455.177 199.272 456.103 198.214 457.787 197.241C459.38 196.321 460.963 195.819 462.537 195.733C464.117 195.643 465.458 195.867 466.559 196.406L466.88 196.568L464.257 198.083L464.033 197.965C463.528 197.703 462.919 197.613 462.207 197.696C461.501 197.774 460.753 198.042 459.963 198.498C459.03 199.036 458.538 199.612 458.486 200.225C458.434 200.831 458.871 201.401 459.798 201.936L460.186 202.16C461.106 202.691 462.094 202.947 463.149 202.929C464.205 202.903 465.206 202.616 466.151 202.071C466.954 201.607 467.417 201.164 467.54 200.741C467.67 200.315 467.498 199.962 467.025 199.681L466.851 199.58L469.454 198.077L469.639 198.184C470.649 198.774 471.08 199.55 470.931 200.511C470.782 201.465 469.911 202.401 468.318 203.321C466.634 204.294 464.801 204.828 462.819 204.925C460.831 205.019 459.04 204.606 457.447 203.686ZM465.967 195.413L463.752 194.134L473.554 188.475L475.769 189.753L472.184 191.823L479.927 196.293L477.294 197.813L469.551 193.343L465.967 195.413ZM484.949 193.394L474.992 187.645L477.644 186.113L483.035 189.226C483.236 189.342 483.443 189.469 483.657 189.608C483.877 189.742 484.088 189.871 484.289 189.995L484.328 189.972C484.237 189.808 484.146 189.651 484.056 189.501C483.971 189.348 483.897 189.166 483.832 188.957L482.589 183.258L485.27 181.71L495.228 187.459L492.585 188.985L487.174 185.861C486.973 185.745 486.769 185.627 486.562 185.508C486.348 185.384 486.141 185.261 485.94 185.137L485.93 185.143C486.008 185.3 486.086 185.45 486.164 185.592C486.241 185.734 486.309 185.911 486.368 186.125L487.64 191.84L484.949 193.394ZM492.167 183.64L491.866 183.466C490.273 182.546 489.561 181.514 489.729 180.37C489.897 179.226 490.823 178.167 492.507 177.195C494.101 176.275 495.684 175.773 497.258 175.687C498.838 175.597 500.179 175.821 501.28 176.36L501.6 176.522L498.977 178.037L498.754 177.919C498.249 177.657 497.64 177.567 496.928 177.65C496.222 177.728 495.474 177.995 494.684 178.452C493.751 178.99 493.259 179.566 493.207 180.179C493.155 180.785 493.592 181.355 494.518 181.89L494.907 182.114C495.827 182.645 496.814 182.901 497.87 182.883C498.926 182.856 499.926 182.57 500.872 182.025C501.675 181.561 502.138 181.118 502.261 180.695C502.391 180.269 502.219 179.916 501.746 179.635L501.571 179.534L504.175 178.031L504.359 178.138C505.37 178.728 505.8 179.504 505.652 180.465C505.503 181.419 504.631 182.355 503.038 183.275C501.354 184.247 499.521 184.782 497.54 184.879C495.551 184.973 493.761 184.56 492.167 183.64ZM501.95 172.08L505.088 173.892L508.216 172.086C509.473 171.36 510.736 170.979 512.005 170.941C513.281 170.9 514.453 171.188 515.522 171.805C516.577 172.415 517.073 173.09 517.008 173.83C516.95 174.567 516.292 175.298 515.036 176.023L509.275 179.349L499.317 173.6L501.95 172.08ZM510.159 173.432L507.225 175.126L509.771 176.595L512.704 174.901C513.242 174.591 513.508 174.307 513.501 174.049C513.488 173.787 513.281 173.54 512.879 173.308C512.491 173.084 512.076 172.972 511.636 172.972C511.195 172.964 510.703 173.118 510.159 173.432ZM525.46 170.005L515.502 164.256L518.155 162.724L523.546 165.837C523.747 165.953 523.954 166.08 524.168 166.219C524.388 166.353 524.599 166.482 524.799 166.606L524.838 166.583C524.748 166.419 524.657 166.262 524.566 166.112C524.482 165.959 524.408 165.778 524.343 165.568L523.099 159.87L525.781 158.322L535.738 164.071L533.096 165.596L527.685 162.472C527.484 162.356 527.28 162.238 527.073 162.119C526.859 161.995 526.652 161.872 526.451 161.749L526.441 161.754C526.519 161.911 526.597 162.061 526.674 162.203C526.752 162.345 526.82 162.523 526.878 162.736L528.151 168.451L525.46 170.005ZM543.16 160.111C541.341 161.161 539.712 161.784 538.274 161.978C536.836 162.173 535.528 161.93 534.349 161.249L534.194 161.16L536.778 159.668L536.924 159.752C537.435 160.047 538.015 160.135 538.662 160.015C539.304 159.892 540.113 159.548 541.091 158.983C541.972 158.475 542.51 158.045 542.704 157.693C542.898 157.342 542.801 157.054 542.412 156.83C542.017 156.601 541.58 156.517 541.101 156.577C540.615 156.633 540.084 156.828 539.508 157.16L537.001 158.608L535.078 157.497L537.341 156.19C537.892 155.872 538.203 155.581 538.274 155.315C538.345 155.042 538.209 154.807 537.866 154.608C537.51 154.41 537.056 154.362 536.506 154.463C535.949 154.56 535.321 154.81 534.621 155.214C533.747 155.719 533.206 156.158 532.999 156.532C532.798 156.902 532.937 157.226 533.416 157.503L533.572 157.592L531.007 159.073L530.852 158.983C529.809 158.381 529.424 157.65 529.696 156.79C529.961 155.927 530.942 155.005 532.639 154.025C534.213 153.116 535.648 152.58 536.943 152.415C538.238 152.243 539.297 152.395 540.12 152.87C540.709 153.21 541.02 153.603 541.052 154.048C541.091 154.489 540.858 154.96 540.353 155.461L540.382 155.478C541.198 155.141 542.043 154.949 542.918 154.9C543.798 154.848 544.585 155.022 545.278 155.422C546.198 155.953 546.473 156.639 546.104 157.48C545.735 158.314 544.754 159.191 543.16 160.111ZM566.136 149.527L563.532 148.024L556.198 152.258L558.801 153.762L556.266 155.225L551.437 152.438L563.843 145.275L568.672 148.063L566.136 149.527ZM550.039 146.874L552.079 148.141C553.283 148.889 554.099 149.461 554.527 149.858C554.948 150.25 555.229 150.593 555.372 150.884L552.759 152.393C552.623 151.97 552.341 151.561 551.913 151.165C551.486 150.761 550.641 150.161 549.378 149.364L545.521 146.924L554.663 141.646L564.601 147.384L561.978 148.899L554.255 144.44L550.039 146.874ZM571.372 148.186L557.354 140.093L559.782 138.691L561.075 139.369L561.104 139.352C560.955 138.96 561.078 138.492 561.473 137.95C561.874 137.404 562.467 136.905 563.251 136.453C564.727 135.6 566.382 135.179 568.215 135.191C570.054 135.198 571.722 135.634 573.218 136.497L573.509 136.666C575.012 137.533 575.789 138.49 575.841 139.537C575.893 140.584 575.216 141.514 573.811 142.325C573.033 142.774 572.185 143.129 571.265 143.391C570.352 143.649 569.539 143.748 568.827 143.688L573.995 146.672L571.372 148.186ZM566.369 142.28C566.965 142.4 567.697 142.389 568.565 142.247C569.439 142.101 570.197 141.843 570.838 141.473C571.771 140.934 572.243 140.399 572.256 139.868C572.276 139.334 571.813 138.793 570.867 138.247L570.478 138.023C569.526 137.473 568.594 137.208 567.681 137.227C566.774 137.242 565.854 137.518 564.922 138.057C564.28 138.427 563.834 138.861 563.581 139.358C563.328 139.855 563.302 140.278 563.503 140.626L566.369 142.28ZM583.467 141.158L581.34 139.919C581.586 139.837 581.848 139.734 582.127 139.61C582.412 139.491 582.693 139.351 582.972 139.19C583.496 138.887 583.856 138.53 584.05 138.118C584.251 137.711 584.04 137.144 583.419 136.419L583.137 136.582L568.759 133.508L571.547 131.898L580.252 133.828C580.601 133.902 580.928 133.998 581.233 134.114C581.537 134.222 581.858 134.344 582.195 134.478L582.233 134.456C581.994 134.265 581.78 134.082 581.592 133.906C581.404 133.73 581.236 133.54 581.087 133.334L577.687 128.353L580.193 126.906L586.527 136.183C587.123 136.991 587.321 137.741 587.12 138.433C586.919 139.124 586.32 139.758 585.323 140.334C584.966 140.54 584.636 140.708 584.332 140.839C584.04 140.97 583.752 141.076 583.467 141.158ZM581.038 126.418L589.296 121.651L591.511 122.93L585.886 126.177L593.629 130.647L590.996 132.167L581.038 126.418ZM595.261 124.119L594.97 123.95C593.441 123.068 592.751 122.042 592.9 120.871C593.049 119.693 593.966 118.618 595.65 117.646C597.333 116.674 599.192 116.147 601.226 116.064C603.259 115.975 605.041 116.371 606.569 117.254L606.86 117.422C608.389 118.304 609.079 119.334 608.93 120.512C608.781 121.683 607.864 122.754 606.18 123.726C604.497 124.698 602.638 125.229 600.604 125.319C598.57 125.401 596.789 125.001 595.261 124.119ZM597.612 122.369L598.001 122.593C598.907 123.117 599.888 123.358 600.944 123.317C602 123.276 603 122.982 603.946 122.436C604.892 121.89 605.4 121.312 605.471 120.703C605.542 120.093 605.125 119.527 604.218 119.003L603.829 118.779C602.923 118.256 601.942 118.014 600.886 118.056C599.83 118.097 598.83 118.39 597.884 118.936C596.938 119.482 596.43 120.06 596.359 120.669C596.287 121.279 596.705 121.845 597.612 122.369ZM603.499 113.451L611.757 108.683L613.972 109.962L608.347 113.21L616.089 117.68L613.457 119.2L603.499 113.451ZM617.722 111.151L617.43 110.983C615.902 110.1 615.212 109.074 615.361 107.904C615.51 106.726 616.426 105.651 618.11 104.678C619.794 103.706 621.653 103.179 623.686 103.097C625.72 103.007 627.501 103.403 629.03 104.286L629.321 104.454C630.85 105.337 631.539 106.367 631.39 107.545C631.241 108.715 630.325 109.786 628.641 110.758C626.957 111.731 625.098 112.262 623.065 112.351C621.031 112.434 619.25 112.034 617.722 111.151ZM620.073 109.401L620.461 109.625C621.368 110.149 622.349 110.39 623.405 110.349C624.46 110.308 625.461 110.014 626.407 109.468C627.352 108.923 627.861 108.345 627.932 107.735C628.003 107.126 627.585 106.559 626.679 106.036L626.29 105.811C625.383 105.288 624.402 105.047 623.346 105.088C622.291 105.129 621.29 105.423 620.345 105.969C619.399 106.514 618.891 107.092 618.819 107.702C618.748 108.311 619.166 108.878 620.073 109.401ZM648.187 99.1482L639.298 99.0865L639.891 97.1851L651.451 97.2636L648.187 99.1482ZM635.908 99.1369L638.123 97.8581L637.958 93.5561L640.901 91.8567L641.144 98.6826L638.132 100.421L635.908 99.1369ZM633.401 96.1867L643.359 101.936L640.736 103.45L630.778 97.7011L633.401 96.1867ZM646.73 94.4031L646.439 94.2348C644.91 93.3524 644.22 92.3259 644.369 91.1556C644.518 89.9777 645.435 88.9027 647.119 87.9305C648.803 86.9583 650.661 86.431 652.695 86.3488C654.729 86.259 656.51 86.6554 658.038 87.5378L658.329 87.7061C659.858 88.5886 660.548 89.6187 660.399 90.7966C660.25 91.967 659.333 93.0383 657.649 94.0105C655.966 94.9827 654.107 95.5136 652.073 95.6034C650.04 95.6856 648.258 95.2855 646.73 94.4031ZM649.081 92.6531L649.47 92.8775C650.376 93.401 651.357 93.6421 652.413 93.601C653.469 93.5599 654.469 93.2664 655.415 92.7204C656.361 92.1745 656.869 91.5968 656.94 90.9873C657.012 90.3778 656.594 89.8113 655.687 89.2878L655.298 89.0635C654.392 88.54 653.411 88.2988 652.355 88.3399C651.299 88.381 650.299 88.6746 649.353 89.2205C648.407 89.7664 647.899 90.3441 647.828 90.9536C647.757 91.5631 648.174 92.1296 649.081 92.6531ZM660.651 83.0115L663.78 85.0083C665.431 86.0665 666.38 86.9321 666.626 87.6052C666.872 88.2782 666.458 88.9251 665.382 89.5458C665.123 89.6954 664.881 89.8169 664.654 89.9104C664.434 90.0076 664.236 90.0768 664.061 90.1179L661.652 88.7269C661.794 88.6895 661.93 88.6447 662.06 88.5923C662.196 88.5362 662.348 88.4596 662.517 88.3623C662.886 88.1492 662.98 87.8968 662.798 87.6052C662.617 87.306 662.041 86.8498 661.069 86.2366L656.105 83.0788L664.994 77.9467L674.952 83.6958L672.329 85.2102L664.586 80.7399L660.651 83.0115ZM672.95 75.9107L676.078 77.9075C677.73 78.9657 678.679 79.8313 678.925 80.5044C679.171 81.1774 678.757 81.8243 677.681 82.445C677.422 82.5946 677.179 82.7161 676.953 82.8096C676.733 82.9068 676.535 82.976 676.36 83.0171L673.951 81.6261C674.093 81.5887 674.229 81.5439 674.359 81.4915C674.495 81.4354 674.647 81.3588 674.816 81.2615C675.185 81.0484 675.279 80.796 675.097 80.5044C674.916 80.2052 674.34 79.749 673.368 79.1358L668.404 75.978L677.293 70.8459L687.25 76.595L684.627 78.1094L676.885 73.6391L672.95 75.9107ZM684.21 72.7641L683.909 72.5903C682.393 71.7153 681.694 70.6982 681.81 69.5391C681.933 68.3762 682.791 67.3348 684.385 66.4149C685.991 65.4876 687.72 65.0015 689.572 64.9566C691.425 64.9043 693.109 65.3231 694.624 66.213L695.664 66.8132L686.396 72.164L684.569 71.1095L691.272 67.2394L691.331 67.2731C690.657 66.8842 689.922 66.6991 689.125 66.7178C688.329 66.7365 687.416 67.0431 686.386 67.6377C685.46 68.1724 685.003 68.7613 685.016 69.4044C685.023 70.0439 685.463 70.616 686.337 71.1208L686.745 71.3563C687.626 71.8649 688.649 72.0967 689.815 72.0518C690.981 72.0069 692.066 71.6947 693.07 71.1151C693.73 70.7337 694.187 70.3168 694.439 69.8644C694.699 69.4082 694.812 68.9913 694.779 68.6136L697.917 68.3163C698.215 68.9146 698.115 69.5746 697.616 70.2962C697.124 71.0142 696.305 71.7041 695.158 72.3659C693.397 73.383 691.512 73.9252 689.504 73.9925C687.503 74.056 685.738 73.6466 684.21 72.7641ZM712.849 64.822L710.245 63.3188L702.911 67.5535L705.514 69.0567L702.979 70.5206L698.151 67.733L710.556 60.5705L715.385 63.3581L712.849 64.822ZM696.752 62.169L698.792 63.4366C699.996 64.1845 700.812 64.7566 701.24 65.1529C701.661 65.5455 701.943 65.8877 702.085 66.1793L699.472 67.6881C699.336 67.2656 699.054 66.8561 698.627 66.4598C698.199 66.0559 697.354 65.4558 696.091 64.6593L692.234 62.2195L701.376 56.9416L711.314 62.6794L708.691 64.1938L700.968 59.7348L696.752 62.169ZM722.321 56.347L719.659 57.8839L709.701 52.1348L712.363 50.598L722.321 56.347ZM726.518 53.924L717.988 53.7221L718.503 51.7758L729.84 52.0058L726.518 53.924ZM714.87 53.5594L716.764 52.4657L716.327 48.3096L719.319 46.582L719.873 53.2173L717.075 54.8327L714.87 53.5594ZM715.462 60.3069L712.179 62.2027L711.78 55.6572L715.113 55.3823L715.462 60.3069ZM714.87 53.5594L717.075 54.8327L714.17 56.5097L702.707 56.1732L705.738 54.4232L712.927 54.6812L714.87 53.5594ZM726.935 50.3063C725.854 49.6819 725.507 48.9209 725.896 48.0235C726.285 47.1261 727.224 46.2474 728.713 45.3873L731.317 43.8954L730.753 43.5701C730.294 43.3046 729.763 43.2111 729.16 43.2896C728.558 43.3607 727.875 43.6168 727.11 44.0581C726.411 44.4619 725.948 44.8377 725.721 45.1854C725.501 45.5294 725.572 45.8061 725.935 46.0155L726.217 46.1782L723.613 47.6814L723.312 47.5075C722.366 46.9616 722.091 46.2567 722.486 45.393C722.881 44.5217 723.811 43.6636 725.274 42.8185C726.731 41.9772 728.163 41.4761 729.568 41.3153C730.974 41.1545 732.253 41.4069 733.406 42.0725L737.923 44.6806C738.337 44.9199 738.788 45.1237 739.273 45.292C739.759 45.4528 740.206 45.5575 740.614 45.6061L740.769 45.6958L738.205 47.1766C737.978 47.1429 737.706 47.0756 737.389 46.9747C737.071 46.8662 736.783 46.7522 736.524 46.6325C736.692 46.984 736.56 47.4608 736.126 48.0628C735.685 48.661 735.009 49.2238 734.095 49.751C732.962 50.4054 731.735 50.8074 730.413 50.9569C729.099 51.1028 727.939 50.8859 726.935 50.3063ZM729.461 48.7022C729.876 48.9415 730.368 49.02 730.938 48.9377C731.508 48.8555 732.143 48.6124 732.842 48.2086C733.567 47.7898 734.079 47.3037 734.377 46.7503C734.675 46.1894 734.562 45.7575 734.037 45.4547L733.114 44.9218L730.821 46.2455C729.967 46.7316 729.41 47.1953 729.15 47.6365C728.891 48.0777 728.995 48.433 729.461 48.7022ZM743.14 42.6895C742.699 42.4352 742.463 42.1342 742.431 41.7865C742.405 41.435 742.657 41.1059 743.188 40.7993C743.726 40.489 744.296 40.3431 744.898 40.3618C745.5 40.3805 746.022 40.517 746.462 40.7713C746.909 41.0293 747.149 41.3322 747.181 41.6799C747.214 42.0277 746.961 42.3567 746.423 42.6671C745.892 42.9737 745.322 43.1195 744.714 43.1046C744.111 43.0859 743.587 42.9475 743.14 42.6895ZM731.841 39.1952L731.472 38.982C730.229 38.2641 729.707 37.4621 729.908 36.5759C730.103 35.6859 730.857 34.8614 732.172 34.1024C733.648 33.2498 735.151 32.7749 736.679 32.6777C738.214 32.5767 739.471 32.8086 740.449 33.3732C741.31 33.8705 741.825 34.3959 741.993 34.9493C742.162 35.4952 742.194 36.1458 742.091 36.9012C741.98 37.5481 742.029 38.0472 742.236 38.3987C742.444 38.7427 742.803 39.0624 743.315 39.3578L743.451 39.4364L740.74 41.0012L740.595 40.9171C739.83 40.4759 739.264 40.0141 738.894 39.5317C738.525 39.0419 738.405 38.4567 738.535 37.7761C738.665 37.2078 738.742 36.7179 738.768 36.3066C738.794 35.8953 738.503 35.5139 737.894 35.1624C737.382 34.867 736.812 34.7399 736.184 34.781C735.562 34.8184 734.963 35.0035 734.387 35.3363C733.83 35.6579 733.506 36.0131 733.415 36.402C733.325 36.7909 733.571 37.1536 734.154 37.4901L734.474 37.6752L731.841 39.1952Z" fill="#4C3B8A"/>
</svg>
