<svg width="328" height="300" viewBox="0 0 328 300" fill="none" xmlns="http://www.w3.org/2000/svg">
<rect x="0.874128" y="0.171497" width="303.318" height="48.3441" rx="24.1721" transform="matrix(0.946085 -0.323917 0.753563 0.657375 -174.307 298.922)" fill="white"/>
<rect x="0.874128" y="0.171497" width="303.318" height="48.3441" rx="24.1721" transform="matrix(0.946085 -0.323917 0.753563 0.657375 -174.307 298.922)" stroke="#DBD8E8" stroke-width="1.0286"/>
<path d="M-118.68 307.652L-129.091 305.167L-127.857 303.802L-115.669 306.621L-118.68 307.652ZM-131.1 304.713L-129.287 304.092L-128.744 299.049L-126.041 298.124L-126.93 305.255L-129.479 306.128L-131.1 304.713ZM-126.463 310.317L-136.382 301.664L-133.953 300.832L-124.034 309.485L-126.463 310.317ZM-117.677 304.776C-118.444 304.107 -118.598 303.442 -118.139 302.783C-117.685 302.12 -116.793 301.561 -115.464 301.106L-113.215 300.336L-113.59 300.009C-113.917 299.724 -114.327 299.564 -114.82 299.528C-115.317 299.489 -115.903 299.584 -116.575 299.815C-117.191 300.026 -117.614 300.253 -117.842 300.497C-118.07 300.735 -118.059 300.963 -117.809 301.18L-117.618 301.347L-119.953 302.146L-120.144 301.98C-120.825 301.386 -120.939 300.774 -120.486 300.144C-120.037 299.51 -119.162 298.971 -117.862 298.526C-116.574 298.085 -115.349 297.914 -114.187 298.012C-113.03 298.107 -112.046 298.509 -111.233 299.219L-108.01 302.03C-107.72 302.283 -107.395 302.514 -107.037 302.723C-106.673 302.929 -106.334 303.083 -106.019 303.185L-105.91 303.28L-108.202 304.065C-108.376 304.003 -108.581 303.908 -108.816 303.779C-109.056 303.645 -109.264 303.513 -109.44 303.38C-109.361 303.684 -109.54 304.04 -109.977 304.449C-110.418 304.854 -111.041 305.194 -111.845 305.469C-112.848 305.813 -113.892 305.941 -114.976 305.854C-116.054 305.766 -116.954 305.406 -117.677 304.776ZM-115.404 303.891C-115.114 304.144 -114.734 304.285 -114.266 304.312C-113.797 304.334 -113.252 304.238 -112.63 304.025C-111.986 303.805 -111.506 303.5 -111.19 303.11C-110.873 302.715 -110.899 302.357 -111.267 302.036L-111.934 301.453L-113.927 302.136C-114.68 302.393 -115.198 302.678 -115.483 302.991C-115.762 303.302 -115.736 303.602 -115.404 303.891ZM-97.6905 300.466L-104.779 299.02L-104.034 297.581L-94.7739 299.467L-97.6905 300.466ZM-107.504 298.513L-105.554 297.845L-105 294.37L-102.365 293.468L-103.272 298.984L-105.923 299.892L-107.504 298.513ZM-109.045 295.755L-101.967 301.93L-104.31 302.732L-111.389 296.558L-109.045 295.755ZM-97.0368 291.644L-88.0476 288.566L-80.9694 294.741L-83.3129 295.543L-88.8174 290.741L-93.111 292.211L-87.6065 297.013L-89.9586 297.819L-97.0368 291.644ZM-82.8206 291.204L-83.0386 291.014C-84.1195 290.071 -84.5091 289.142 -84.2074 288.228C-83.9102 287.31 -83.0175 286.596 -81.5293 286.086C-80.0354 285.575 -78.4676 285.446 -76.8261 285.701C-75.1892 285.951 -73.8302 286.548 -72.7493 287.491L-72.5313 287.681C-71.4458 288.628 -71.054 289.559 -71.3557 290.473C-71.6574 291.387 -72.5552 292.1 -74.0491 292.612C-75.5374 293.121 -77.1 293.251 -78.7369 293C-80.3739 292.75 -81.7351 292.151 -82.8206 291.204ZM-80.6692 290.161L-80.3831 290.411C-79.7427 290.969 -78.9996 291.316 -78.1539 291.452C-77.3081 291.587 -76.4689 291.512 -75.6365 291.227C-74.7983 290.94 -74.306 290.559 -74.1596 290.084C-74.0133 289.609 -74.2603 289.092 -74.9006 288.534L-75.1868 288.284C-75.8271 287.726 -76.5708 287.382 -77.4177 287.252C-78.2635 287.117 -79.1027 287.192 -79.9352 287.477C-80.7619 287.76 -81.2514 288.14 -81.4034 288.617C-81.5543 289.088 -81.3096 289.603 -80.6692 290.161ZM-71.3938 287.292L-71.6118 287.102C-72.7381 286.119 -73.1476 285.183 -72.8403 284.295C-72.5318 283.4 -71.6335 282.698 -70.1452 282.189C-68.7311 281.705 -67.3855 281.555 -66.1082 281.742C-64.8354 281.924 -63.81 282.309 -63.0319 282.898L-62.8105 283.07L-65.154 283.873L-65.3124 283.745C-65.6611 283.461 -66.1206 283.296 -66.6911 283.249C-67.2615 283.201 -67.8975 283.298 -68.5988 283.538C-69.4256 283.821 -69.9019 284.202 -70.0278 284.681C-70.1537 285.16 -69.8919 285.682 -69.2424 286.249L-68.9563 286.499C-68.3068 287.065 -67.561 287.425 -66.7187 287.578C-65.8752 287.725 -65.0372 287.656 -64.2047 287.371C-63.492 287.127 -63.057 286.848 -62.8998 286.535C-62.737 286.22 -62.819 285.92 -63.146 285.635L-63.2687 285.528L-60.9337 284.728L-60.8111 284.835C-60.1071 285.449 -59.8869 286.13 -60.1504 286.877C-60.4128 287.617 -61.251 288.23 -62.6651 288.714C-64.1533 289.224 -65.6988 289.361 -67.3017 289.126C-68.9034 288.886 -70.2674 288.274 -71.3938 287.292ZM-63.338 282.018L-64.9117 280.645L-56.2133 277.667L-54.6396 279.04L-57.8128 280.126L-52.3083 284.928L-54.6518 285.73L-60.1563 280.929L-63.338 282.018ZM-45.5791 286.05L-47.0966 284.716C-46.9006 284.693 -46.6829 284.654 -46.4435 284.6C-46.1996 284.55 -45.9551 284.482 -45.7099 284.399C-45.248 284.24 -44.9044 284.021 -44.679 283.739C-44.4536 283.458 -44.535 282.978 -44.9232 282.3L-45.1713 282.385L-56.1705 277.652L-53.6731 276.797L-47.0939 279.7C-46.8244 279.818 -46.5731 279.947 -46.3401 280.088C-46.1014 280.227 -45.8577 280.38 -45.6089 280.549L-45.5746 280.537C-45.7436 280.341 -45.891 280.157 -46.0169 279.985C-46.1415 279.807 -46.2468 279.625 -46.3327 279.44L-48.3103 274.961L-46.078 274.197L-42.377 282.62C-42.0379 283.332 -42.0042 283.946 -42.276 284.464C-42.5421 284.98 -43.1171 285.389 -44.0009 285.692C-44.3145 285.799 -44.5967 285.882 -44.8475 285.94C-45.0983 285.999 -45.3422 286.035 -45.5791 286.05ZM-45.3253 273.939L-36.3361 270.861L-29.2579 277.036L-31.6014 277.839L-37.106 273.037L-41.3996 274.507L-35.895 279.309L-38.2471 280.114L-45.3253 273.939ZM-27.2308 276.342L-34.3091 270.167L-31.9399 269.356L-28.1385 272.672C-27.9977 272.795 -27.849 272.932 -27.6923 273.082C-27.53 273.231 -27.3864 273.367 -27.2616 273.489L-27.2102 273.472C-27.2633 273.336 -27.3135 273.198 -27.3608 273.06C-27.4025 272.92 -27.4355 272.763 -27.4599 272.589L-27.5607 267.857L-25.1745 267.04L-18.0962 273.215L-20.4569 274.023L-24.2719 270.695C-24.4127 270.572 -24.5603 270.443 -24.7147 270.309C-24.8737 270.17 -25.0207 270.038 -25.1558 269.913L-25.1729 269.919C-25.1301 270.054 -25.0873 270.188 -25.0445 270.322C-25.0062 270.453 -24.98 270.604 -24.9658 270.775L-24.836 275.522L-27.2308 276.342ZM-22.3349 267.979L-23.9086 266.607L-15.2102 263.628L-13.6365 265.001L-16.8097 266.088L-11.3052 270.89L-13.6487 271.692L-19.1532 266.89L-22.3349 267.979ZM-11.5837 262.387L-9.35605 264.33L-6.61053 263.39C-5.48154 263.004 -4.40422 262.894 -3.3786 263.062C-2.34726 263.227 -1.4501 263.643 -0.687096 264.308C0.0622817 264.962 0.352765 265.582 0.184355 266.17C0.0171043 266.751 -0.631019 267.235 -1.76002 267.622L-6.8576 269.367L-13.9358 263.192L-11.5837 262.387ZM-5.24703 264.777L-7.83004 265.661L-6.02472 267.236L-3.44171 266.352C-2.95704 266.186 -2.69953 265.999 -2.66916 265.789C-2.63309 265.579 -2.75812 265.348 -3.04424 265.099C-3.32129 264.857 -3.63395 264.702 -3.98223 264.634C-4.33506 264.561 -4.75666 264.609 -5.24703 264.777ZM3.97832 264.44C3.66494 264.167 3.52528 263.889 3.55933 263.607C3.58883 263.321 3.84022 263.097 4.31348 262.935C4.79815 262.769 5.27947 262.743 5.75745 262.855C6.23658 262.961 6.63283 263.151 6.94621 263.424C7.25959 263.698 7.40152 263.977 7.37201 264.263C7.34821 264.547 7.09682 264.771 6.61786 264.935C6.13889 265.099 5.65757 265.126 5.17389 265.016C4.69022 264.906 4.29169 264.714 3.97832 264.44ZM-4.42139 259.918L-4.66664 259.704C-5.53864 258.943 -5.82366 258.227 -5.52168 257.556C-5.22424 256.88 -4.49677 256.344 -3.33927 255.948C-2.03351 255.501 -0.761317 255.36 0.477307 255.527C1.71709 255.687 2.68442 256.07 3.3793 256.676C3.9788 257.199 4.30104 257.699 4.34603 258.174C4.38647 258.646 4.30031 259.166 4.08754 259.736C3.90126 260.224 3.86851 260.622 3.98928 260.928C4.1112 261.228 4.34929 261.533 4.70354 261.842L4.78529 261.913L2.35624 262.745L2.26768 262.668C1.72268 262.192 1.34104 261.738 1.12278 261.305C0.899973 260.868 0.892583 260.391 1.10061 259.873C1.29123 259.443 1.43439 259.066 1.5301 258.741C1.62127 258.412 1.45567 258.063 1.03329 257.695C0.674497 257.382 0.248622 257.194 -0.244334 257.131C-0.741833 257.064 -1.24432 257.117 -1.7518 257.291C-2.23647 257.457 -2.54425 257.684 -2.67513 257.971C-2.80031 258.257 -2.6676 258.57 -2.27702 258.911L-2.05221 259.107L-4.42139 259.918Z" fill="#4C3B8A"/>
<path d="M103.122 226.22C102.709 225.866 102.113 225.597 101.462 225.47L93.9545 223.992C93.6278 223.929 93.3001 223.942 93.043 224.03C92.7859 224.118 92.6203 224.273 92.5823 224.462C92.5632 224.556 92.5765 224.656 92.6216 224.755C92.6666 224.854 92.7425 224.951 92.8448 225.04C92.9471 225.13 93.0739 225.209 93.2177 225.275C93.3616 225.34 93.5197 225.39 93.683 225.422L99.427 226.544L89.6956 229.876C89.4375 229.964 89.2716 230.12 89.2345 230.309C89.1974 230.498 89.292 230.706 89.4975 230.885C89.7031 231.064 90.0028 231.201 90.3307 231.265C90.6585 231.33 90.9877 231.316 91.2458 231.228L100.977 227.896L100.326 231.217C100.287 231.406 100.381 231.613 100.586 231.793C100.79 231.973 101.09 232.11 101.418 232.175C101.746 232.24 102.075 232.228 102.334 232.14C102.593 232.052 102.76 231.896 102.799 231.707L103.64 227.37C103.716 226.993 103.53 226.579 103.122 226.22Z" fill="#FD8B21"/>
<rect x="0.874128" y="0.171497" width="317.318" height="48.3441" rx="24.1721" transform="matrix(0.946085 -0.323917 0.753563 0.657375 129.709 194.834)" fill="white"/>
<rect x="0.874128" y="0.171497" width="317.318" height="48.3441" rx="24.1721" transform="matrix(0.946085 -0.323917 0.753563 0.657375 129.709 194.834)" stroke="#DBD8E8" stroke-width="1.0286"/>
<path d="M177.553 206.229L167.634 197.576L176.606 194.504L178.221 195.913L171.661 198.159L174.052 200.245L179.748 198.294L181.356 199.697L175.66 201.647L178.358 204.001L185.02 201.719L186.628 203.122L177.553 206.229ZM183.836 199.907L183.618 199.717C182.492 198.734 182.082 197.799 182.39 196.91C182.698 196.016 183.596 195.314 185.085 194.804C186.499 194.32 187.844 194.171 189.122 194.357C190.394 194.539 191.42 194.924 192.198 195.513L192.419 195.686L190.076 196.488L189.917 196.36C189.569 196.077 189.109 195.911 188.539 195.864C187.968 195.817 187.332 195.913 186.631 196.153C185.804 196.436 185.328 196.817 185.202 197.296C185.076 197.775 185.338 198.298 185.987 198.864L186.273 199.114C186.923 199.68 187.669 200.04 188.511 200.193C189.355 200.34 190.193 200.271 191.025 199.986C191.738 199.742 192.173 199.464 192.33 199.151C192.493 198.835 192.411 198.535 192.084 198.25L191.961 198.143L194.296 197.344L194.419 197.451C195.123 198.065 195.343 198.745 195.079 199.492C194.817 200.233 193.979 200.845 192.565 201.329C191.076 201.839 189.531 201.976 187.928 201.742C186.326 201.501 184.962 200.89 183.836 199.907ZM191.892 194.633L190.318 193.26L199.016 190.282L200.59 191.655L197.417 192.742L202.922 197.543L200.578 198.346L195.074 193.544L191.892 194.633ZM202.643 189.041L204.871 190.984L207.616 190.044C208.745 189.657 209.822 189.548 210.848 189.715C211.879 189.881 212.777 190.296 213.54 190.962C214.289 191.616 214.579 192.236 214.411 192.824C214.244 193.405 213.596 193.889 212.467 194.275L207.369 196.021L200.291 189.846L202.643 189.041ZM208.98 191.431L206.397 192.315L208.202 193.89L210.785 193.006C211.27 192.84 211.527 192.652 211.558 192.443C211.594 192.232 211.469 192.002 211.182 191.752C210.905 191.511 210.593 191.356 210.244 191.287C209.892 191.215 209.47 191.263 208.98 191.431ZM219.33 185.239L221.494 187.304C222.668 188.424 223.301 189.275 223.395 189.855C223.494 190.434 223.059 190.889 222.09 191.221C221.862 191.299 221.648 191.358 221.448 191.399C221.253 191.444 221.081 191.467 220.932 191.468L219.229 189.982C219.347 189.975 219.465 189.959 219.581 189.936C219.697 189.913 219.83 189.876 219.978 189.825C220.314 189.71 220.429 189.519 220.322 189.252C220.22 188.984 219.822 188.519 219.127 187.857L215.669 184.581L223.572 181.875L230.65 188.05L228.307 188.852L222.802 184.05L219.33 185.239ZM232.669 187.359L225.591 181.184L227.96 180.373L231.761 183.689C231.902 183.812 232.051 183.948 232.207 184.099C232.37 184.247 232.513 184.383 232.638 184.506L232.689 184.488C232.636 184.352 232.586 184.215 232.539 184.076C232.497 183.936 232.464 183.779 232.44 183.606L232.339 178.873L234.725 178.056L241.803 184.231L239.443 185.039L235.628 181.711C235.487 181.589 235.339 181.46 235.185 181.325C235.026 181.186 234.879 181.055 234.744 180.93L234.727 180.936C234.77 181.07 234.812 181.204 234.855 181.339C234.894 181.469 234.92 181.62 234.934 181.792L235.064 186.539L232.669 187.359ZM246.61 178.315L246.821 178.5C247.389 178.995 248.081 179.318 248.897 179.469C249.713 179.62 250.578 179.539 251.49 179.227C252.396 178.916 252.901 178.528 253.003 178.063C253.106 177.592 252.873 177.109 252.306 176.614L252.095 176.429C251.54 175.946 250.86 175.63 250.055 175.481C249.244 175.328 248.383 175.408 247.47 175.72C246.558 176.033 246.048 176.422 245.941 176.89C245.828 177.353 246.052 177.828 246.61 178.315ZM246.484 174.122C247.892 173.639 249.321 173.542 250.77 173.829C252.224 174.115 253.467 174.707 254.498 175.607L254.716 175.797C255.765 176.712 256.142 177.612 255.846 178.497C255.556 179.379 254.635 180.086 253.084 180.617C251.476 181.168 249.886 181.315 248.314 181.059C246.748 180.801 245.238 180.038 243.785 178.77L243.287 178.336C241.711 176.961 240.857 175.745 240.724 174.687C240.587 173.625 241.302 172.729 242.871 171.999C243.822 171.568 244.345 171.279 244.437 171.131C244.536 170.982 244.51 170.842 244.36 170.711L246.601 169.944C247.229 170.512 247.49 171.024 247.385 171.479C247.285 171.933 246.478 172.51 244.963 173.211C243.861 173.704 243.27 174.221 243.191 174.761C243.113 175.295 243.4 175.889 244.054 176.542L244.148 176.51C244.026 176.05 244.167 175.613 244.573 175.198C244.98 174.777 245.617 174.418 246.484 174.122ZM252.516 171.965L254.868 171.16L257.572 173.52L260.172 172.629L261.746 174.002L259.146 174.892L261.946 177.335L259.594 178.14L252.516 171.965ZM259.924 173.856L259.706 173.666C258.625 172.723 258.229 171.797 258.52 170.886C258.805 169.972 259.684 169.263 261.155 168.759C262.626 168.256 264.177 168.133 265.807 168.391C267.432 168.646 268.786 169.244 269.867 170.187L270.085 170.378C271.17 171.325 271.57 172.255 271.284 173.169C270.994 174.08 270.113 174.787 268.642 175.291C267.171 175.794 265.622 175.919 263.997 175.664C262.367 175.406 261.009 174.803 259.924 173.856ZM262.073 172.823L262.346 173.06C262.995 173.627 263.737 173.98 264.571 174.119C265.401 174.254 266.224 174.182 267.039 173.903C267.849 173.626 268.324 173.254 268.463 172.786C268.604 172.313 268.349 171.794 267.7 171.227L267.427 170.989C266.782 170.427 266.042 170.079 265.207 169.946C264.372 169.807 263.55 169.876 262.741 170.153C261.925 170.432 261.45 170.807 261.315 171.278C261.176 171.745 261.428 172.26 262.073 172.823ZM284.699 171.771L282.866 170.172L276.383 172.392L278.216 173.991L275.958 174.764L272.552 171.792L283.551 168.026L286.957 170.998L284.699 171.771ZM272.281 167.11L273.719 168.447C274.578 169.245 275.146 169.834 275.422 170.213C275.699 170.593 275.868 170.91 275.93 171.165L273.586 171.967C273.555 171.614 273.399 171.243 273.119 170.853C272.839 170.463 272.243 169.84 271.332 168.982L268.646 166.443L276.763 163.664L283.828 169.826L281.484 170.629L275.993 165.839L272.281 167.11ZM293.575 166.506L291.206 167.317L284.127 161.142L286.497 160.331L293.575 166.506ZM297.287 165.235L290.53 163.725L291.227 162.245L300.238 164.225L297.287 165.235ZM288.036 163.098L289.721 162.521L289.995 159.133L292.663 158.22L292.083 163.615L289.603 164.465L288.036 163.098ZM287.494 168.588L284.586 169.584L285.257 164.289L287.962 164.612L287.494 168.588ZM288.036 163.098L289.603 164.465L287.037 165.343L277.918 163.268L280.629 162.34L286.326 163.683L288.036 163.098ZM296.855 161.212L296.637 161.022C295.561 160.083 295.157 159.159 295.426 158.25C295.7 157.34 296.544 156.643 297.959 156.159C299.373 155.674 300.826 155.56 302.318 155.816C303.806 156.068 305.087 156.67 306.161 157.62L306.91 158.274L298.734 161.074L297.419 159.927L303.295 157.915L303.329 157.945C302.847 157.525 302.292 157.262 301.664 157.157C301.031 157.049 300.264 157.148 299.363 157.457C298.554 157.734 298.106 158.13 298.021 158.645C297.932 159.155 298.198 159.682 298.82 160.225L299.113 160.48C299.735 161.023 300.513 161.369 301.447 161.518C302.38 161.668 303.294 161.589 304.19 161.283C304.76 161.087 305.183 160.83 305.458 160.509C305.73 160.184 305.879 159.868 305.908 159.561L308.478 159.839C308.621 160.359 308.436 160.866 307.924 161.361C307.418 161.855 306.666 162.272 305.668 162.614C304.094 163.153 302.501 163.29 300.888 163.026C299.28 162.759 297.936 162.155 296.855 161.212ZM305.048 155.891L303.474 154.518L312.173 151.54L313.746 152.913L310.573 153.999L316.078 158.801L313.734 159.604L308.23 154.802L305.048 155.891ZM321.252 155.814C320.938 155.54 320.799 155.262 320.833 154.98C320.862 154.695 321.113 154.471 321.587 154.308C322.071 154.143 322.553 154.116 323.031 154.228C323.51 154.334 323.906 154.524 324.219 154.797C324.533 155.071 324.675 155.35 324.645 155.636C324.621 155.92 324.37 156.144 323.891 156.308C323.412 156.472 322.931 156.499 322.447 156.389C321.963 156.279 321.565 156.087 321.252 155.814ZM312.852 151.291L312.607 151.077C311.735 150.317 311.45 149.6 311.752 148.929C312.049 148.253 312.776 147.717 313.934 147.321C315.24 146.874 316.512 146.733 317.751 146.9C318.99 147.06 319.958 147.443 320.653 148.049C321.252 148.572 321.574 149.072 321.619 149.547C321.66 150.019 321.574 150.539 321.361 151.109C321.175 151.597 321.142 151.995 321.263 152.301C321.384 152.601 321.623 152.906 321.977 153.215L322.059 153.286L319.63 154.118L319.541 154.041C318.996 153.565 318.614 153.111 318.396 152.678C318.173 152.242 318.166 151.764 318.374 151.246C318.564 150.817 318.708 150.439 318.803 150.114C318.895 149.785 318.729 149.436 318.307 149.068C317.948 148.755 317.522 148.567 317.029 148.504C316.531 148.437 316.029 148.49 315.521 148.664C315.037 148.83 314.729 149.057 314.598 149.344C314.473 149.63 314.606 149.943 314.996 150.284L315.221 150.48L312.852 151.291Z" fill="#4C3B8A"/>
<rect x="0.874128" y="0.171497" width="450.318" height="48.3441" rx="24.1721" transform="matrix(0.946085 -0.323917 0.753563 0.657375 -27.1397 304.714)" fill="white"/>
<rect x="0.874128" y="0.171497" width="450.318" height="48.3441" rx="24.1721" transform="matrix(0.946085 -0.323917 0.753563 0.657375 -27.1397 304.714)" stroke="#DBD8E8" stroke-width="1.0286"/>
<path d="M20.705 316.109L10.7859 307.456L19.758 304.385L21.3726 305.793L14.8124 308.039L17.2036 310.125L22.8999 308.175L24.5077 309.577L18.8114 311.528L21.5091 313.881L28.1719 311.6L29.7797 313.002L20.705 316.109ZM26.9877 309.787L26.7697 309.597C25.6433 308.615 25.2338 307.679 25.5411 306.791C25.8496 305.896 26.7479 305.194 28.2362 304.684C29.6503 304.2 30.9959 304.051 32.2732 304.237C33.546 304.419 34.5714 304.805 35.3495 305.394L35.5709 305.566L33.2274 306.368L33.069 306.241C32.7203 305.957 32.2608 305.792 31.6903 305.744C31.1199 305.697 30.484 305.793 29.7826 306.033C28.9558 306.317 28.4795 306.698 28.3536 307.176C28.2277 307.655 28.4895 308.178 29.139 308.745L29.4251 308.994C30.0746 309.561 30.8205 309.921 31.6628 310.074C32.5062 310.221 33.3442 310.152 34.1767 309.867C34.8894 309.623 35.3244 309.344 35.4816 309.031C35.6444 308.716 35.5624 308.416 35.2354 308.13L35.1127 308.024L37.4477 307.224L37.5703 307.331C38.2743 307.945 38.4945 308.626 38.231 309.372C37.9686 310.113 37.1304 310.726 35.7163 311.21C34.2281 311.719 32.6826 311.857 31.0797 311.622C29.478 311.382 28.114 310.77 26.9877 309.787ZM35.0434 304.514L33.4697 303.141L42.1681 300.163L43.7418 301.536L40.5686 302.622L46.0732 307.424L43.7296 308.226L38.2251 303.424L35.0434 304.514ZM45.7946 298.921L48.0223 300.864L50.7678 299.924C51.8968 299.538 52.9741 299.428 53.9997 299.596C55.0311 299.761 55.9282 300.177 56.6912 300.842C57.4406 301.496 57.7311 302.117 57.5627 302.704C57.3954 303.285 56.7473 303.769 55.6183 304.156L50.5207 305.901L43.4425 299.726L45.7946 298.921ZM52.1313 301.311L49.5483 302.196L51.3536 303.771L53.9366 302.886C54.4213 302.72 54.6788 302.533 54.7092 302.324C54.7452 302.113 54.6202 301.883 54.3341 301.633C54.057 301.391 53.7444 301.236 53.3961 301.168C53.0433 301.096 52.6217 301.143 52.1313 301.311ZM62.4814 295.12L64.6455 297.184C65.8191 298.305 66.4528 299.155 66.5464 299.736C66.6456 300.314 66.2106 300.769 65.2413 301.101C65.0132 301.179 64.7994 301.239 64.5999 301.279C64.405 301.324 64.233 301.347 64.0837 301.348L62.3806 299.863C62.4991 299.855 62.6165 299.84 62.7327 299.817C62.849 299.793 62.9812 299.756 63.1295 299.706C63.4659 299.59 63.5805 299.4 63.4733 299.133C63.3717 298.864 62.9736 298.399 62.2789 297.738L58.8208 294.461L66.7238 291.755L73.802 297.93L71.4585 298.733L65.9539 293.931L62.4814 295.12ZM75.8205 297.239L68.7423 291.064L71.1115 290.253L74.9129 293.569C75.0536 293.692 75.2024 293.829 75.359 293.979C75.5213 294.128 75.6649 294.264 75.7898 294.386L75.8411 294.369C75.7881 294.232 75.7379 294.095 75.6905 293.957C75.6489 293.817 75.6159 293.66 75.5914 293.486L75.4906 288.754L77.8769 287.937L84.9551 294.112L82.5945 294.92L78.7795 291.592C78.6387 291.469 78.4911 291.34 78.3366 291.205C78.1777 291.067 78.0307 290.935 77.8956 290.81L77.8785 290.816C77.9213 290.95 77.9641 291.085 78.0069 291.219C78.0451 291.349 78.0713 291.5 78.0855 291.672L78.2153 296.419L75.8205 297.239ZM89.7619 288.196L89.9731 288.38C90.5408 288.875 91.2327 289.198 92.0488 289.349C92.8649 289.5 93.7292 289.419 94.6415 289.107C95.5481 288.797 96.0524 288.409 96.1543 287.944C96.2573 287.472 96.025 286.989 95.4573 286.494L95.2461 286.31C94.692 285.826 94.0121 285.51 93.2062 285.361C92.3958 285.209 91.5344 285.288 90.6221 285.601C89.7098 285.913 89.1998 286.303 89.0922 286.77C88.98 287.233 89.2033 287.708 89.7619 288.196ZM89.6352 284.002C91.0436 283.52 92.4723 283.422 93.9212 283.71C95.3758 283.995 96.6186 284.588 97.6495 285.487L97.8675 285.677C98.9166 286.592 99.2933 287.492 98.9973 288.377C98.7071 289.26 97.7866 289.967 96.2356 290.498C94.6276 291.048 93.0377 291.195 91.4656 290.939C89.8993 290.681 88.3895 289.918 86.9361 288.65L86.4388 288.216C84.8629 286.842 84.0084 285.625 83.8756 284.567C83.7382 283.505 84.4538 282.609 86.0226 281.879C86.9741 281.449 87.4962 281.16 87.589 281.012C87.6875 280.862 87.6618 280.722 87.5119 280.591L89.7528 279.824C90.3806 280.393 90.6419 280.905 90.5366 281.36C90.437 281.813 89.6296 282.39 88.1145 283.091C87.0125 283.584 86.4218 284.101 86.3424 284.641C86.2641 285.176 86.5519 285.769 87.2056 286.423L87.2997 286.391C87.1772 285.931 87.3188 285.493 87.7247 285.078C88.1317 284.658 88.7685 284.299 89.6352 284.002ZM98.9013 285.166L98.6833 284.976C97.6069 284.037 97.203 283.113 97.4717 282.205C97.7461 281.294 98.5903 280.597 100.004 280.113C101.418 279.629 102.872 279.514 104.364 279.77C105.852 280.022 107.133 280.624 108.207 281.574L108.956 282.228L100.779 285.028L99.4646 283.881L105.341 281.869L105.375 281.899C104.893 281.479 104.338 281.216 103.71 281.111C103.077 281.003 102.31 281.102 101.409 281.411C100.6 281.688 100.152 282.084 100.067 282.599C99.9776 283.109 100.244 283.636 100.866 284.179L101.159 284.434C101.781 284.977 102.559 285.323 103.493 285.473C104.426 285.622 105.34 285.543 106.236 285.237C106.806 285.042 107.229 284.784 107.504 284.463C107.775 284.139 107.925 283.822 107.954 283.515L110.524 283.793C110.667 284.313 110.482 284.82 109.97 285.315C109.464 285.809 108.712 286.226 107.714 286.568C106.14 287.107 104.547 287.244 102.934 286.98C101.326 286.713 99.9822 286.109 98.9013 285.166ZM109.473 281.547L109.255 281.356C108.128 280.374 107.719 279.438 108.026 278.55C108.335 277.655 109.233 276.953 110.721 276.443C112.135 275.959 113.481 275.81 114.758 275.996C116.031 276.179 117.057 276.564 117.835 277.153L118.056 277.325L115.713 278.127L115.554 278C115.205 277.716 114.746 277.551 114.175 277.503C113.605 277.456 112.969 277.552 112.268 277.793C111.441 278.076 110.965 278.457 110.839 278.936C110.713 279.414 110.975 279.937 111.624 280.504L111.91 280.753C112.56 281.32 113.306 281.68 114.148 281.833C114.991 281.98 115.829 281.911 116.662 281.626C117.375 281.382 117.81 281.103 117.967 280.79C118.13 280.475 118.048 280.175 117.721 279.89L117.598 279.783L119.933 278.983L120.055 279.09C120.759 279.704 120.98 280.385 120.716 281.131C120.454 281.872 119.616 282.485 118.201 282.969C116.713 283.478 115.168 283.616 113.565 283.381C111.963 283.141 110.599 282.529 109.473 281.547ZM116.708 274.642L125.697 271.564L132.775 277.739L130.431 278.542L124.927 273.74L120.633 275.21L126.138 280.012L123.786 280.817L116.708 274.642ZM132.394 271.183L134.558 273.248C135.731 274.368 136.365 275.219 136.459 275.799C136.558 276.378 136.123 276.833 135.154 277.165C134.925 277.243 134.712 277.302 134.512 277.343C134.317 277.388 134.145 277.411 133.996 277.412L132.293 275.926C132.411 275.919 132.529 275.904 132.645 275.88C132.761 275.857 132.893 275.82 133.042 275.769C133.378 275.654 133.493 275.463 133.385 275.197C133.284 274.928 132.886 274.463 132.191 273.801L128.733 270.525L136.636 267.819L143.714 273.994L141.371 274.796L135.866 269.994L132.394 271.183ZM143.229 271.628C142.461 270.958 142.307 270.294 142.766 269.635C143.221 268.971 144.112 268.412 145.441 267.957L147.691 267.187L147.316 266.86C146.989 266.575 146.579 266.415 146.086 266.38C145.588 266.34 145.003 266.436 144.33 266.666C143.714 266.877 143.292 267.104 143.063 267.348C142.836 267.586 142.847 267.814 143.097 268.032L143.287 268.198L140.953 268.998L140.762 268.831C140.081 268.237 139.967 267.625 140.42 266.995C140.869 266.362 141.743 265.822 143.043 265.377C144.332 264.936 145.557 264.765 146.718 264.864C147.875 264.959 148.86 265.361 149.673 266.07L152.895 268.881C153.186 269.134 153.51 269.365 153.868 269.574C154.232 269.78 154.571 269.935 154.887 270.036L154.996 270.131L152.703 270.916C152.529 270.854 152.325 270.759 152.089 270.63C151.85 270.497 151.642 270.364 151.466 270.231C151.544 270.535 151.365 270.892 150.929 271.3C150.488 271.705 149.865 272.045 149.061 272.32C148.057 272.664 147.014 272.792 145.93 272.706C144.851 272.617 143.951 272.258 143.229 271.628ZM145.501 270.742C145.792 270.996 146.171 271.136 146.639 271.164C147.108 271.185 147.654 271.089 148.275 270.877C148.919 270.656 149.4 270.351 149.715 269.961C150.032 269.566 150.007 269.208 149.639 268.887L148.971 268.305L146.978 268.987C146.226 269.245 145.707 269.53 145.422 269.842C145.143 270.153 145.17 270.453 145.501 270.742ZM150.338 265.04L148.764 263.667L157.463 260.689L159.036 262.061L155.863 263.148L161.368 267.95L159.024 268.752L153.52 263.95L150.338 265.04ZM158.737 260.252L161.089 259.447L163.794 261.806L168.147 260.316L165.443 257.956L167.786 257.154L174.864 263.329L172.521 264.131L169.721 261.689L165.367 263.179L168.167 265.622L165.815 266.427L158.737 260.252ZM173.022 259.789L172.804 259.599C171.723 258.656 171.333 257.727 171.635 256.813C171.932 255.895 172.825 255.181 174.313 254.671C175.807 254.16 177.375 254.031 179.016 254.286C180.653 254.536 182.012 255.133 183.093 256.076L183.311 256.266C184.396 257.213 184.788 258.144 184.486 259.058C184.185 259.972 183.287 260.685 181.793 261.197C180.305 261.706 178.742 261.836 177.105 261.585C175.468 261.335 174.107 260.736 173.022 259.789ZM175.173 258.746L175.459 258.996C176.099 259.554 176.843 259.901 177.688 260.037C178.534 260.172 179.373 260.097 180.206 259.812C181.044 259.525 181.536 259.144 181.683 258.669C181.829 258.194 181.582 257.677 180.942 257.119L180.655 256.869C180.015 256.31 179.271 255.966 178.424 255.837C177.579 255.702 176.739 255.777 175.907 256.062C175.08 256.345 174.591 256.725 174.439 257.202C174.288 257.673 174.533 258.188 175.173 258.746ZM184.483 255.865L184.265 255.675C183.188 254.736 182.784 253.812 183.053 252.904C183.327 251.993 184.172 251.296 185.586 250.812C187 250.327 188.453 250.213 189.945 250.469C191.433 250.721 192.714 251.323 193.788 252.273L194.537 252.927L186.361 255.727L185.046 254.58L190.922 252.568L190.956 252.598C190.474 252.178 189.92 251.915 189.291 251.81C188.658 251.702 187.891 251.801 186.991 252.11C186.181 252.387 185.734 252.783 185.649 253.298C185.559 253.808 185.825 254.335 186.448 254.878L186.74 255.133C187.363 255.676 188.14 256.022 189.074 256.171C190.007 256.321 190.922 256.242 191.817 255.936C192.387 255.741 192.81 255.483 193.086 255.162C193.357 254.838 193.507 254.521 193.535 254.214L196.105 254.492C196.248 255.012 196.063 255.519 195.551 256.014C195.045 256.508 194.293 256.925 193.295 257.267C191.721 257.806 190.128 257.943 188.515 257.679C186.908 257.412 185.564 256.808 184.483 255.865ZM199.314 250.787L199.096 250.597C198.015 249.654 197.625 248.725 197.927 247.811C198.224 246.893 199.117 246.179 200.605 245.669C202.099 245.158 203.666 245.029 205.308 245.284C206.945 245.534 208.304 246.131 209.385 247.074L209.603 247.264C210.688 248.211 211.08 249.142 210.778 250.056C210.477 250.97 209.579 251.683 208.085 252.195C206.597 252.704 205.034 252.834 203.397 252.583C201.76 252.333 200.399 251.734 199.314 250.787ZM201.465 249.744L201.751 249.994C202.391 250.553 203.134 250.9 203.98 251.035C204.826 251.17 205.665 251.095 206.498 250.81C207.336 250.523 207.828 250.142 207.974 249.667C208.121 249.192 207.874 248.676 207.233 248.117L206.947 247.867C206.307 247.309 205.563 246.965 204.716 246.835C203.871 246.7 203.031 246.775 202.199 247.06C201.372 247.343 200.883 247.723 200.731 248.2C200.58 248.671 200.824 249.186 201.465 249.744ZM213.147 245.951L213.359 246.136C213.926 246.631 214.618 246.954 215.434 247.105C216.251 247.256 217.115 247.175 218.027 246.863C218.934 246.552 219.438 246.164 219.54 245.699C219.643 245.228 219.411 244.745 218.843 244.25L218.632 244.065C218.078 243.582 217.398 243.266 216.592 243.117C215.781 242.964 214.92 243.044 214.008 243.356C213.095 243.669 212.585 244.058 212.478 244.526C212.366 244.989 212.589 245.464 213.147 245.951ZM213.021 241.758C214.429 241.276 215.858 241.178 217.307 241.465C218.761 241.751 220.004 242.343 221.035 243.243L221.253 243.433C222.302 244.348 222.679 245.248 222.383 246.133C222.093 247.015 221.172 247.722 219.621 248.253C218.013 248.804 216.423 248.951 214.851 248.695C213.285 248.437 211.775 247.674 210.322 246.406L209.824 245.972C208.248 244.597 207.394 243.381 207.261 242.323C207.124 241.261 207.839 240.365 209.408 239.635C210.36 239.204 210.882 238.915 210.975 238.768C211.073 238.618 211.047 238.478 210.898 238.347L213.138 237.58C213.766 238.148 214.027 238.66 213.922 239.116C213.823 239.569 213.015 240.146 211.5 240.847C210.398 241.34 209.807 241.857 209.728 242.397C209.65 242.931 209.937 243.525 210.591 244.179L210.685 244.146C210.563 243.686 210.704 243.249 211.11 242.834C211.517 242.413 212.154 242.055 213.021 241.758ZM228.412 248.421L226.895 247.087C227.091 247.064 227.309 247.025 227.548 246.971C227.792 246.921 228.037 246.853 228.282 246.769C228.744 246.611 229.087 246.392 229.313 246.11C229.538 245.829 229.457 245.349 229.068 244.671L228.82 244.756L217.821 240.023L220.319 239.168L226.898 242.071C227.167 242.189 227.419 242.318 227.651 242.459C227.89 242.598 228.134 242.751 228.383 242.92L228.417 242.908C228.248 242.712 228.101 242.528 227.975 242.356C227.85 242.178 227.745 241.996 227.659 241.811L225.681 237.332L227.914 236.568L231.615 244.991C231.954 245.703 231.987 246.317 231.716 246.835C231.449 247.351 230.875 247.76 229.991 248.063C229.677 248.17 229.395 248.253 229.144 248.311C228.893 248.37 228.649 248.406 228.412 248.421ZM232.485 237.055C233.021 237.522 233.574 237.769 234.143 237.795C234.713 237.82 235.337 237.717 236.015 237.485C236.608 237.282 237.079 237.09 237.429 236.91C237.773 236.726 238.162 236.466 238.595 236.13L240.162 237.497C239.77 237.785 239.321 238.055 238.814 238.306C238.313 238.554 237.692 238.806 236.951 239.059C235.691 239.491 234.509 239.634 233.404 239.488C232.3 239.342 231.294 238.872 230.385 238.08L228.444 236.386L230.796 235.581L232.485 237.055ZM237.117 233.417L244.195 239.592L241.851 240.394L234.773 234.219L237.117 233.417ZM242.386 236.04L242.168 235.85C241.092 234.911 240.688 233.987 240.957 233.079C241.231 232.168 242.075 231.471 243.49 230.987C244.904 230.503 246.357 230.388 247.849 230.644C249.337 230.896 250.618 231.498 251.692 232.449L252.441 233.102L244.265 235.902L242.95 234.755L248.826 232.743L248.86 232.773C248.378 232.353 247.823 232.09 247.195 231.985C246.562 231.877 245.795 231.977 244.894 232.285C244.085 232.562 243.637 232.958 243.552 233.473C243.463 233.983 243.729 234.51 244.351 235.053L244.644 235.308C245.266 235.851 246.044 236.197 246.978 236.347C247.911 236.496 248.826 236.417 249.721 236.111C250.291 235.916 250.714 235.658 250.99 235.337C251.261 235.013 251.41 234.697 251.439 234.389L254.009 234.667C254.152 235.187 253.967 235.694 253.455 236.189C252.949 236.683 252.197 237.1 251.199 237.442C249.625 237.981 248.032 238.118 246.419 237.854C244.811 237.588 243.467 236.983 242.386 236.04ZM249.758 229.089L252.11 228.284L254.815 230.643L259.168 229.152L256.464 226.793L258.807 225.991L265.885 232.165L263.542 232.968L260.742 230.525L256.388 232.016L259.188 234.458L256.836 235.264L249.758 229.089ZM267.921 231.468L260.843 225.294L263.212 224.483L267.013 227.799C267.154 227.922 267.303 228.058 267.459 228.209C267.622 228.357 267.765 228.493 267.89 228.616L267.942 228.598C267.888 228.462 267.838 228.324 267.791 228.186C267.749 228.046 267.716 227.889 267.692 227.715L267.591 222.983L269.977 222.166L277.056 228.341L274.695 229.149L270.88 225.821C270.739 225.698 270.591 225.57 270.437 225.435C270.278 225.296 270.131 225.164 269.996 225.04L269.979 225.045C270.022 225.18 270.064 225.314 270.107 225.448C270.146 225.579 270.172 225.73 270.186 225.901L270.316 230.648L267.921 231.468ZM275.23 224.795L275.012 224.605C273.936 223.666 273.532 222.742 273.8 221.834C274.075 220.923 274.919 220.226 276.333 219.742C277.747 219.258 279.2 219.144 280.693 219.4C282.18 219.651 283.461 220.253 284.535 221.204L285.285 221.857L277.108 224.657L275.793 223.51L281.669 221.498L281.703 221.528C281.222 221.108 280.667 220.845 280.039 220.741C279.406 220.632 278.639 220.732 277.738 221.04C276.928 221.317 276.481 221.713 276.396 222.228C276.306 222.738 276.573 223.265 277.195 223.808L277.488 224.063C278.11 224.606 278.888 224.952 279.821 225.102C280.755 225.251 281.669 225.172 282.564 224.866C283.134 224.671 283.557 224.413 283.833 224.092C284.104 223.768 284.254 223.452 284.282 223.144L286.853 223.423C286.995 223.942 286.811 224.449 286.299 224.945C285.792 225.438 285.04 225.855 284.042 226.197C282.469 226.736 280.875 226.873 279.262 226.609C277.655 226.343 276.311 225.738 275.23 224.795ZM290.406 222.554C290.093 222.28 289.953 222.002 289.987 221.72C290.017 221.435 290.268 221.211 290.741 221.049C291.226 220.883 291.707 220.856 292.185 220.968C292.664 221.074 293.061 221.264 293.374 221.537C293.687 221.811 293.829 222.09 293.8 222.376C293.776 222.66 293.525 222.884 293.046 223.048C292.567 223.212 292.085 223.239 291.602 223.129C291.118 223.019 290.719 222.827 290.406 222.554ZM282.006 218.031L281.761 217.817C280.889 217.057 280.604 216.34 280.906 215.669C281.203 214.993 281.931 214.457 283.088 214.061C284.394 213.614 285.666 213.473 286.905 213.64C288.145 213.8 289.112 214.183 289.807 214.789C290.406 215.312 290.729 215.812 290.774 216.287C290.814 216.759 290.728 217.279 290.515 217.849C290.329 218.337 290.296 218.735 290.417 219.041C290.539 219.341 290.777 219.646 291.131 219.955L291.213 220.026L288.784 220.858L288.695 220.781C288.15 220.305 287.769 219.851 287.55 219.418C287.328 218.982 287.32 218.504 287.528 217.986C287.719 217.557 287.862 217.179 287.958 216.854C288.049 216.525 287.883 216.176 287.461 215.808C287.102 215.495 286.676 215.307 286.183 215.244C285.686 215.177 285.183 215.23 284.676 215.404C284.191 215.57 283.883 215.797 283.753 216.084C283.627 216.37 283.76 216.683 284.151 217.024L284.375 217.22L282.006 218.031Z" fill="#4C3B8A"/>
<rect x="0.874128" y="0.171497" width="424.318" height="48.3441" rx="24.1721" transform="matrix(0.946085 -0.323917 0.753563 0.657375 -42.387 366.114)" fill="white"/>
<rect x="0.874128" y="0.171497" width="424.318" height="48.3441" rx="24.1721" transform="matrix(0.946085 -0.323917 0.753563 0.657375 -42.387 366.114)" stroke="#DBD8E8" stroke-width="1.0286"/>
<path d="M5.45764 377.509L-4.46139 368.856L-1.41653 367.813L8.95494 372.29C9.18011 372.389 9.39671 372.491 9.60477 372.597C9.81853 372.7 10.0158 372.806 10.1965 372.916L10.2563 372.895C10.1612 372.757 10.0723 372.613 9.98965 372.465C9.90704 372.317 9.83013 372.167 9.75893 372.014L6.86278 364.979L9.8991 363.939L19.8181 372.592L17.4233 373.412L11.183 367.968C11.0331 367.838 10.8782 367.692 10.7182 367.532C10.5593 367.365 10.4186 367.215 10.2961 367.08L10.1935 367.116C10.3103 367.252 10.4253 367.411 10.5386 367.593C10.653 367.769 10.7452 367.936 10.8152 368.094L13.6172 374.715L11.5559 375.421L1.3771 371.061C1.14624 370.963 0.908612 370.846 0.664223 370.709C0.415292 370.568 0.203324 370.442 0.0283203 370.331L-0.0657627 370.363C0.0921354 370.48 0.272742 370.617 0.476057 370.774C0.680532 370.924 0.855437 371.063 1.00077 371.19L7.45904 376.824L5.45764 377.509ZM17.5051 369.213L17.2871 369.023C16.2061 368.08 15.8165 367.152 16.1182 366.237C16.4154 365.319 17.3081 364.605 18.7963 364.096C20.2903 363.584 21.858 363.456 23.4995 363.71C25.1365 363.961 26.4954 364.557 27.5763 365.5L27.7943 365.691C28.8798 366.637 29.2717 367.568 28.9699 368.482C28.6682 369.397 27.7704 370.109 26.2765 370.621C24.7883 371.13 23.2257 371.26 21.5887 371.009C19.9517 370.759 18.5905 370.16 17.5051 369.213ZM19.6564 368.171L19.9425 368.42C20.5829 368.979 21.326 369.326 22.1718 369.461C23.0175 369.596 23.8567 369.521 24.6892 369.236C25.5274 368.949 26.0196 368.568 26.166 368.093C26.3124 367.619 26.0654 367.102 25.425 366.543L25.1389 366.293C24.4985 365.735 23.7548 365.391 22.9079 365.262C22.0621 365.126 21.223 365.201 20.3905 365.486C19.5637 365.769 19.0743 366.149 18.9222 366.626C18.7713 367.097 19.016 367.612 19.6564 368.171ZM40.2085 365.611L37.8393 366.422L30.7611 360.247L33.1303 359.436L40.2085 365.611ZM43.9205 364.34L37.1637 362.83L37.861 361.35L46.8713 363.33L43.9205 364.34ZM34.6699 362.203L36.3548 361.626L36.6285 358.239L39.297 357.325L38.7171 362.72L36.2368 363.57L34.6699 362.203ZM34.1273 367.693L31.2193 368.689L31.891 363.394L34.5961 363.718L34.1273 367.693ZM34.6699 362.203L36.2368 363.57L33.6709 364.448L24.5516 362.373L27.2629 361.445L32.9593 362.788L34.6699 362.203ZM40.2549 356.997L42.607 356.192L45.3116 358.551L49.665 357.06L46.9605 354.701L49.304 353.899L56.3822 360.073L54.0387 360.876L51.2387 358.433L46.8853 359.924L49.6852 362.366L47.3331 363.172L40.2549 356.997ZM54.5396 356.534L54.3216 356.343C53.2406 355.4 52.851 354.472 53.1527 353.558C53.4499 352.639 54.3426 351.925 55.8308 351.416C57.3248 350.904 58.8925 350.776 60.534 351.03C62.171 351.281 63.5299 351.878 64.6108 352.821L64.8288 353.011C65.9143 353.958 66.3062 354.888 66.0044 355.803C65.7027 356.717 64.8049 357.43 63.311 357.941C61.8228 358.451 60.2602 358.58 58.6232 358.33C56.9862 358.079 55.625 357.48 54.5396 356.534ZM56.6909 355.491L56.977 355.74C57.6174 356.299 58.3605 356.646 59.2063 356.781C60.052 356.916 60.8912 356.842 61.7237 356.557C62.5619 356.27 63.0541 355.889 63.2005 355.414C63.3469 354.939 63.0999 354.422 62.4595 353.863L62.1734 353.614C61.533 353.055 60.7893 352.711 59.9424 352.582C59.0966 352.447 58.2575 352.521 57.425 352.807C56.5982 353.09 56.1087 353.47 55.9567 353.946C55.8058 354.417 56.0505 354.932 56.6909 355.491ZM76.3856 356.651L74.8681 355.317C75.0641 355.294 75.2818 355.255 75.5212 355.201C75.7651 355.15 76.0097 355.083 76.2548 354.999C76.7167 354.841 77.0603 354.621 77.2857 354.34C77.5111 354.059 77.4297 353.579 77.0415 352.901L76.7934 352.986L65.7942 348.253L68.2917 347.398L74.8708 350.301C75.1403 350.418 75.3916 350.547 75.6246 350.688C75.8633 350.827 76.107 350.981 76.3559 351.15L76.3901 351.138C76.2211 350.942 76.0737 350.758 75.9479 350.586C75.8232 350.408 75.7179 350.226 75.632 350.04L73.6544 345.562L75.8867 344.797L79.5877 353.221C79.9268 353.932 79.9605 354.547 79.6887 355.065C79.4226 355.581 78.8476 355.99 77.9638 356.293C77.6502 356.4 77.368 356.483 77.1172 356.541C76.8664 356.599 76.6225 356.636 76.3856 356.651ZM80.4586 345.284C80.9945 345.752 81.5472 345.999 82.1166 346.024C82.686 346.05 83.3099 345.947 83.9885 345.714C84.5815 345.511 85.0526 345.32 85.4018 345.14C85.7464 344.955 86.1352 344.695 86.5681 344.36L88.1349 345.726C87.7432 346.015 87.2941 346.285 86.7874 346.535C86.2865 346.784 85.6654 347.035 84.9242 347.289C83.664 347.721 82.4818 347.863 81.3775 347.717C80.2732 347.571 79.2669 347.102 78.3586 346.31L76.417 344.616L78.7691 343.811L80.4586 345.284ZM85.0898 341.647L92.168 347.821L89.8244 348.624L82.7462 342.449L85.0898 341.647ZM94.2036 347.124L87.1254 340.95L89.4946 340.138L93.2959 343.455C93.4367 343.577 93.5854 343.714 93.7421 343.865C93.9044 344.013 94.048 344.149 94.1729 344.272L94.2242 344.254C94.1711 344.118 94.121 343.98 94.0736 343.842C94.032 343.702 93.9989 343.545 93.9745 343.371L93.8737 338.639L96.26 337.822L103.338 343.997L100.978 344.805L97.1625 341.477C97.0218 341.354 96.8742 341.225 96.7197 341.091C96.5608 340.952 96.4138 340.82 96.2787 340.696L96.2616 340.701C96.3044 340.836 96.3471 340.97 96.3899 341.104C96.4282 341.235 96.4544 341.386 96.4686 341.557L96.5984 346.304L94.2036 347.124ZM99.0995 338.762L97.5258 337.389L106.224 334.411L107.798 335.783L104.625 336.87L110.129 341.672L107.786 342.474L102.281 337.672L99.0995 338.762ZM109.851 333.169L112.078 335.112L114.824 334.172C115.953 333.786 117.03 333.676 118.056 333.844C119.087 334.009 119.984 334.425 120.747 335.09C121.497 335.744 121.787 336.365 121.619 336.952C121.452 337.533 120.803 338.017 119.674 338.404L114.577 340.149L107.499 333.974L109.851 333.169ZM116.187 335.559L113.604 336.444L115.41 338.018L117.993 337.134C118.477 336.968 118.735 336.781 118.765 336.572C118.801 336.361 118.676 336.13 118.39 335.881C118.113 335.639 117.8 335.484 117.452 335.416C117.099 335.344 116.678 335.391 116.187 335.559ZM120.808 333.845L120.59 333.655C119.464 332.672 119.054 331.736 119.362 330.848C119.67 329.953 120.569 329.251 122.057 328.742C123.471 328.258 124.817 328.109 126.094 328.295C127.367 328.477 128.392 328.862 129.17 329.451L129.392 329.623L127.048 330.426L126.89 330.298C126.541 330.015 126.081 329.849 125.511 329.802C124.94 329.754 124.305 329.851 123.603 330.091C122.776 330.374 122.3 330.755 122.174 331.234C122.048 331.713 122.31 332.235 122.96 332.802L123.246 333.052C123.895 333.618 124.641 333.978 125.483 334.131C126.327 334.278 127.165 334.209 127.997 333.924C128.71 333.68 129.145 333.401 129.302 333.088C129.465 332.773 129.383 332.473 129.056 332.188L128.933 332.081L131.268 331.281L131.391 331.388C132.095 332.002 132.315 332.683 132.052 333.43C131.789 334.17 130.951 334.783 129.537 335.267C128.049 335.777 126.503 335.914 124.9 335.679C123.299 335.439 121.935 334.827 120.808 333.845ZM137.182 332.409L134.522 333.32L134.506 329.742L137.113 328.982L137.182 332.409ZM141.373 330.975L139.091 328.984L136.448 329.888L135.864 330.022C134.807 330.313 133.807 330.365 132.865 330.18C131.928 329.994 131.121 329.605 130.444 329.015C129.722 328.385 129.451 327.777 129.629 327.192C129.809 326.601 130.472 326.109 131.618 325.716L136.647 323.994L143.725 330.169L141.373 330.975ZM135.095 328.531L137.592 327.676L135.787 326.101L133.29 326.956C132.771 327.134 132.495 327.333 132.462 327.554C132.431 327.769 132.544 327.989 132.803 328.215C133.071 328.449 133.389 328.605 133.757 328.683C134.124 328.762 134.57 328.711 135.095 328.531ZM150.02 328.014L142.942 321.839L145.311 321.028L149.113 324.344C149.254 324.467 149.402 324.604 149.559 324.754C149.721 324.903 149.865 325.038 149.99 325.161L150.041 325.144C149.988 325.007 149.938 324.87 149.891 324.732C149.849 324.592 149.816 324.435 149.791 324.261L149.691 319.529L152.077 318.712L159.155 324.886L156.794 325.695L152.979 322.367C152.839 322.244 152.691 322.115 152.537 321.98C152.378 321.842 152.231 321.71 152.096 321.585L152.078 321.591C152.121 321.725 152.164 321.86 152.207 321.994C152.245 322.124 152.271 322.275 152.285 322.447L152.415 327.194L150.02 328.014ZM168.325 325.198L158.406 316.545L160.57 315.804L161.502 316.544L161.528 316.535C161.471 316.202 161.643 315.85 162.046 315.481C162.443 315.107 162.984 314.804 163.669 314.569C164.974 314.122 166.364 314.049 167.836 314.351C169.309 314.652 170.572 315.262 171.626 316.181L171.837 316.365C172.895 317.288 173.363 318.174 173.239 319.022C173.121 319.868 172.44 320.503 171.197 320.929C170.519 321.161 169.798 321.312 169.034 321.38C168.272 321.442 167.609 321.394 167.044 321.234L170.669 324.395L168.325 325.198ZM165.285 319.709C165.747 319.904 166.335 320.012 167.049 320.032C167.763 320.053 168.399 319.967 168.958 319.776C169.773 319.497 170.227 319.148 170.32 318.73C170.414 318.306 170.127 317.803 169.459 317.221L169.18 316.977C168.508 316.391 167.807 316.032 167.077 315.901C166.353 315.769 165.581 315.843 164.76 316.124C164.201 316.315 163.785 316.59 163.513 316.948C163.242 317.3 163.158 317.632 163.262 317.944L165.285 319.709ZM174.356 317.15C173.589 316.48 173.434 315.816 173.893 315.157C174.348 314.493 175.24 313.934 176.568 313.479L178.818 312.709L178.443 312.382C178.116 312.097 177.706 311.937 177.213 311.902C176.715 311.862 176.13 311.958 175.457 312.188C174.841 312.399 174.419 312.626 174.19 312.87C173.963 313.108 173.974 313.336 174.224 313.554L174.415 313.72L172.08 314.52L171.889 314.353C171.208 313.759 171.094 313.147 171.547 312.517C171.996 311.884 172.87 311.344 174.17 310.899C175.459 310.458 176.684 310.287 177.845 310.386C179.002 310.481 179.987 310.883 180.8 311.592L184.022 314.403C184.313 314.657 184.637 314.888 184.995 315.096C185.359 315.302 185.699 315.457 186.014 315.558L186.123 315.653L183.83 316.438C183.656 316.376 183.452 316.281 183.216 316.152C182.977 316.019 182.769 315.886 182.593 315.753C182.671 316.057 182.492 316.414 182.056 316.822C181.615 317.227 180.992 317.567 180.188 317.843C179.184 318.186 178.141 318.315 177.057 318.228C175.978 318.139 175.078 317.78 174.356 317.15ZM176.628 316.264C176.919 316.518 177.298 316.658 177.766 316.686C178.235 316.707 178.781 316.611 179.402 316.399C180.047 316.178 180.527 315.873 180.842 315.483C181.159 315.088 181.134 314.73 180.766 314.409L180.098 313.827L178.105 314.509C177.353 314.767 176.834 315.052 176.549 315.364C176.27 315.675 176.297 315.975 176.628 316.264ZM186.251 311.339L186.462 311.524C187.03 312.019 187.722 312.342 188.538 312.493C189.354 312.644 190.218 312.563 191.131 312.251C192.037 311.94 192.541 311.552 192.643 311.087C192.746 310.616 192.514 310.133 191.946 309.638L191.735 309.453C191.181 308.97 190.501 308.654 189.695 308.505C188.885 308.352 188.024 308.432 187.111 308.744C186.199 309.057 185.689 309.446 185.581 309.914C185.469 310.377 185.692 310.852 186.251 311.339ZM186.124 307.146C187.533 306.664 188.961 306.566 190.41 306.853C191.865 307.139 193.108 307.731 194.139 308.631L194.357 308.821C195.406 309.736 195.782 310.636 195.486 311.521C195.196 312.403 194.276 313.11 192.725 313.641C191.117 314.192 189.527 314.339 187.955 314.083C186.388 313.825 184.879 313.062 183.425 311.794L182.928 311.36C181.352 309.985 180.498 308.769 180.365 307.711C180.227 306.649 180.943 305.753 182.512 305.023C183.463 304.592 183.985 304.303 184.078 304.155C184.177 304.006 184.151 303.866 184.001 303.735L186.242 302.968C186.87 303.536 187.131 304.048 187.026 304.503C186.926 304.957 186.119 305.534 184.604 306.235C183.502 306.728 182.911 307.245 182.831 307.785C182.753 308.319 183.041 308.913 183.695 309.566L183.789 309.534C183.666 309.074 183.808 308.637 184.214 308.222C184.621 307.801 185.258 307.442 186.124 307.146ZM195.356 308.321L195.138 308.131C194.057 307.188 193.668 306.26 193.969 305.345C194.267 304.427 195.159 303.713 196.647 303.204C198.141 302.692 199.709 302.564 201.351 302.818C202.988 303.069 204.347 303.665 205.427 304.608L205.645 304.798C206.731 305.745 207.123 306.676 206.821 307.59C206.519 308.505 205.622 309.217 204.128 309.729C202.639 310.238 201.077 310.368 199.44 310.117C197.803 309.867 196.442 309.268 195.356 308.321ZM197.507 307.279L197.794 307.528C198.434 308.087 199.177 308.434 200.023 308.569C200.869 308.704 201.708 308.629 202.54 308.344C203.378 308.057 203.871 307.676 204.017 307.201C204.163 306.726 203.916 306.21 203.276 305.651L202.99 305.401C202.35 304.843 201.606 304.499 200.759 304.37C199.913 304.234 199.074 304.309 198.242 304.594C197.415 304.877 196.925 305.257 196.773 305.734C196.622 306.205 196.867 306.72 197.507 307.279ZM204.404 302.708L202.83 301.335L211.529 298.357L213.102 299.73L209.929 300.816L215.434 305.618L213.09 306.42L207.586 301.618L204.404 302.708ZM217.378 302.42C216.61 301.751 216.456 301.086 216.915 300.427C217.37 299.764 218.261 299.205 219.59 298.75L221.839 297.98L221.464 297.653C221.137 297.368 220.727 297.207 220.234 297.172C219.737 297.133 219.152 297.228 218.479 297.459C217.863 297.669 217.441 297.897 217.212 298.141C216.984 298.378 216.996 298.606 217.245 298.824L217.436 298.991L215.101 299.79L214.91 299.624C214.229 299.029 214.115 298.417 214.569 297.788C215.017 297.154 215.892 296.615 217.192 296.17C218.48 295.728 219.705 295.557 220.867 295.656C222.024 295.751 223.009 296.153 223.822 296.862L227.044 299.673C227.335 299.927 227.659 300.158 228.017 300.366C228.381 300.573 228.72 300.727 229.035 300.829L229.144 300.924L226.852 301.709C226.678 301.647 226.473 301.551 226.238 301.422C225.998 301.289 225.79 301.156 225.614 301.024C225.693 301.328 225.514 301.684 225.077 302.093C224.636 302.498 224.014 302.838 223.21 303.113C222.206 303.457 221.162 303.585 220.078 303.498C219 303.409 218.1 303.05 217.378 302.42ZM219.65 301.535C219.94 301.788 220.32 301.929 220.788 301.956C221.257 301.977 221.802 301.882 222.424 301.669C223.068 301.448 223.548 301.143 223.864 300.754C224.181 300.358 224.155 300 223.788 299.679L223.12 299.097L221.127 299.779C220.374 300.037 219.856 300.322 219.571 300.635C219.292 300.945 219.318 301.245 219.65 301.535ZM224.487 295.832L222.913 294.459L231.611 291.481L233.185 292.854L230.012 293.94L235.516 298.742L233.173 299.545L227.668 294.743L224.487 295.832ZM235.238 290.239L237.465 292.183L240.211 291.243C241.34 290.856 242.417 290.747 243.443 290.914C244.474 291.08 245.371 291.495 246.134 292.161C246.884 292.815 247.174 293.435 247.006 294.022C246.839 294.604 246.19 295.088 245.061 295.474L239.964 297.219L232.886 291.045L235.238 290.239ZM241.574 292.63L238.991 293.514L240.797 295.089L243.38 294.205C243.864 294.039 244.122 293.851 244.152 293.642C244.188 293.431 244.063 293.201 243.777 292.951C243.5 292.71 243.187 292.555 242.839 292.486C242.486 292.414 242.065 292.462 241.574 292.63ZM250.8 292.293C250.486 292.02 250.347 291.742 250.381 291.46C250.41 291.174 250.662 290.95 251.135 290.788C251.62 290.622 252.101 290.595 252.579 290.707C253.058 290.814 253.454 291.003 253.768 291.277C254.081 291.55 254.223 291.83 254.193 292.116C254.17 292.4 253.918 292.624 253.439 292.788C252.96 292.952 252.479 292.979 251.995 292.868C251.512 292.758 251.113 292.566 250.8 292.293ZM242.4 287.771L242.155 287.557C241.283 286.796 240.998 286.08 241.3 285.408C241.597 284.733 242.325 284.197 243.482 283.8C244.788 283.353 246.06 283.213 247.299 283.379C248.539 283.539 249.506 283.923 250.201 284.529C250.8 285.052 251.122 285.551 251.167 286.027C251.208 286.498 251.122 287.019 250.909 287.588C250.723 288.077 250.69 288.474 250.811 288.78C250.933 289.081 251.171 289.385 251.525 289.694L251.607 289.766L249.178 290.597L249.089 290.52C248.544 290.045 248.162 289.591 247.944 289.158C247.721 288.721 247.714 288.244 247.922 287.725C248.113 287.296 248.256 286.919 248.352 286.594C248.443 286.265 248.277 285.916 247.855 285.547C247.496 285.234 247.07 285.046 246.577 284.983C246.08 284.916 245.577 284.97 245.07 285.144C244.585 285.31 244.277 285.536 244.146 285.824C244.021 286.11 244.154 286.423 244.544 286.763L244.769 286.96L242.4 287.771Z" fill="#4C3B8A"/>
</svg>
