<svg width="474" height="220" viewBox="0 0 474 220" fill="none" xmlns="http://www.w3.org/2000/svg">
<rect x="0.874128" y="0.171497" width="303.318" height="48.3441" rx="24.1721" transform="matrix(0.946085 -0.323917 0.753563 0.657375 -109.307 249.922)" fill="white"/>
<rect x="0.874128" y="0.171497" width="303.318" height="48.3441" rx="24.1721" transform="matrix(0.946085 -0.323917 0.753563 0.657375 -109.307 249.922)" stroke="#DBD8E8" stroke-width="1.0286"/>
<path d="M-53.6795 258.652L-64.0906 256.167L-62.8573 254.802L-50.6689 257.621L-53.6795 258.652ZM-66.0999 255.713L-64.2867 255.093L-63.744 250.049L-61.0412 249.124L-61.9297 256.255L-64.4785 257.128L-66.0999 255.713ZM-61.4628 261.317L-71.3818 252.664L-68.9528 251.832L-59.0337 260.485L-61.4628 261.317ZM-52.6765 255.777C-53.4441 255.107 -53.5983 254.443 -53.1392 253.783C-52.6846 253.12 -51.793 252.561 -50.4645 252.106L-48.215 251.336L-48.5897 251.009C-48.9167 250.724 -49.3268 250.564 -49.8198 250.528C-50.3174 250.489 -50.9026 250.585 -51.5755 250.815C-52.1913 251.026 -52.6135 251.253 -52.8422 251.497C-53.0697 251.735 -53.0586 251.963 -52.8088 252.181L-52.618 252.347L-54.953 253.147L-55.1438 252.98C-55.825 252.386 -55.939 251.774 -55.4857 251.144C-55.0369 250.511 -54.1625 249.971 -52.8624 249.526C-51.5738 249.085 -50.3487 248.914 -49.1873 249.013C-48.0305 249.108 -47.0455 249.51 -46.2326 250.219L-43.0103 253.03C-42.7196 253.283 -42.3952 253.514 -42.0372 253.723C-41.6735 253.929 -41.334 254.083 -41.0189 254.185L-40.9099 254.28L-43.2021 255.065C-43.3762 255.003 -43.5808 254.908 -43.8161 254.779C-44.056 254.646 -44.2639 254.513 -44.44 254.38C-44.3614 254.684 -44.5403 255.04 -44.9769 255.449C-45.418 255.854 -46.0406 256.194 -46.8445 256.469C-47.8481 256.813 -48.8919 256.941 -49.9759 256.855C-51.0542 256.766 -51.9544 256.407 -52.6765 255.777ZM-50.4045 254.891C-50.1138 255.145 -49.7345 255.285 -49.2664 255.312C-48.7972 255.334 -48.2519 255.238 -47.6304 255.025C-46.986 254.805 -46.506 254.5 -46.1902 254.11C-45.8733 253.715 -45.8988 253.357 -46.2667 253.036L-46.9343 252.453L-48.9271 253.136C-49.6798 253.393 -50.1985 253.679 -50.4832 253.991C-50.7623 254.302 -50.736 254.602 -50.4045 254.891ZM-32.6905 251.466L-39.7789 250.02L-39.0339 248.582L-29.7739 250.468L-32.6905 251.466ZM-42.5038 249.513L-40.5537 248.845L-39.9996 245.37L-37.3653 244.468L-38.2719 249.984L-40.9233 250.892L-42.5038 249.513ZM-44.0452 246.756L-36.967 252.93L-39.3105 253.733L-46.3887 247.558L-44.0452 246.756ZM-32.0368 242.644L-23.0476 239.566L-15.9694 245.741L-18.3129 246.544L-23.8174 241.742L-28.111 243.212L-22.6065 248.014L-24.9586 248.819L-32.0368 242.644ZM-17.8206 242.204L-18.0386 242.014C-19.1195 241.071 -19.5091 240.142 -19.2074 239.228C-18.9102 238.31 -18.0175 237.596 -16.5293 237.086C-15.0354 236.575 -13.4676 236.446 -11.8261 236.701C-10.1892 236.952 -8.83022 237.548 -7.7493 238.491L-7.5313 238.681C-6.44584 239.628 -6.05397 240.559 -6.35568 241.473C-6.65739 242.387 -7.55521 243.1 -9.04913 243.612C-10.5374 244.121 -12.1 244.251 -13.7369 244C-15.3739 243.75 -16.7351 243.151 -17.8206 242.204ZM-15.6692 241.161L-15.3831 241.411C-14.7427 241.97 -13.9996 242.317 -13.1539 242.452C-12.3081 242.587 -11.4689 242.512 -10.6365 242.227C-9.79826 241.94 -9.30598 241.559 -9.15961 241.084C-9.01325 240.609 -9.26026 240.093 -9.90063 239.534L-10.1868 239.284C-10.8271 238.726 -11.5708 238.382 -12.4177 238.252C-13.2635 238.117 -14.1027 238.192 -14.9352 238.477C-15.7619 238.76 -16.2514 239.14 -16.4034 239.617C-16.5543 240.088 -16.3096 240.603 -15.6692 241.161ZM-6.39375 238.292L-6.61175 238.102C-7.73809 237.119 -8.1476 236.184 -7.84029 235.295C-7.53181 234.4 -6.63346 233.698 -5.14524 233.189C-3.73114 232.705 -2.38546 232.556 -1.10818 232.742C0.164559 232.924 1.18997 233.309 1.96806 233.898L2.18954 234.07L-0.153983 234.873L-0.312412 234.745C-0.66106 234.462 -1.12062 234.296 -1.69108 234.249C-2.26154 234.201 -2.89745 234.298 -3.5988 234.538C-4.42559 234.821 -4.90192 235.202 -5.0278 235.681C-5.15367 236.16 -4.89188 236.683 -4.24242 237.249L-3.9563 237.499C-3.30684 238.065 -2.56095 238.425 -1.71865 238.578C-0.875188 238.725 -0.0372108 238.656 0.795281 238.371C1.50803 238.127 1.94299 237.848 2.10016 237.535C2.26304 237.22 2.18097 236.92 1.85397 236.635L1.73135 236.528L4.06631 235.728L4.18894 235.835C4.8929 236.45 5.11312 237.13 4.8496 237.877C4.58724 238.618 3.74901 239.23 2.33491 239.714C0.846689 240.224 -0.698849 240.361 -2.3017 240.127C-3.9034 239.886 -5.26741 239.274 -6.39375 238.292ZM1.66199 233.018L0.0882966 231.645L8.7867 228.667L10.3604 230.04L7.18723 231.126L12.6917 235.928L10.3482 236.731L4.84371 231.929L1.66199 233.018ZM19.4209 237.05L17.9034 235.716C18.0994 235.693 18.3171 235.655 18.5565 235.6C18.8004 235.55 19.0449 235.483 19.2901 235.399C19.752 235.241 20.0956 235.021 20.321 234.74C20.5464 234.458 20.465 233.979 20.0768 233.301L19.8287 233.385L8.82947 228.652L11.3269 227.797L17.9061 230.7C18.1756 230.818 18.4269 230.947 18.6599 231.088C18.8986 231.227 19.1423 231.381 19.3911 231.549L19.4254 231.537C19.2564 231.342 19.109 231.158 18.9831 230.985C18.8585 230.807 18.7532 230.626 18.6673 230.44L16.6897 225.961L18.922 225.197L22.623 233.62C22.9621 234.332 22.9958 234.946 22.724 235.464C22.4579 235.98 21.8829 236.39 20.9991 236.692C20.6855 236.799 20.4033 236.882 20.1525 236.941C19.9017 236.999 19.6578 237.035 19.4209 237.05ZM19.6747 224.939L28.6639 221.862L35.7421 228.036L33.3986 228.839L27.894 224.037L23.6004 225.507L29.105 230.309L26.7529 231.114L19.6747 224.939ZM37.7692 227.342L30.6909 221.168L33.0601 220.356L36.8615 223.673C37.0023 223.795 37.151 223.932 37.3077 224.083C37.47 224.231 37.6136 224.367 37.7384 224.49L37.7898 224.472C37.7367 224.336 37.6865 224.198 37.6392 224.06C37.5975 223.92 37.5645 223.763 37.5401 223.589L37.4393 218.857L39.8255 218.04L46.9038 224.215L44.5431 225.023L40.7281 221.695C40.5873 221.572 40.4397 221.443 40.2853 221.309C40.1263 221.17 39.9793 221.038 39.8442 220.914L39.8271 220.919C39.8699 221.054 39.9127 221.188 39.9555 221.322C39.9938 221.453 40.02 221.604 40.0342 221.775L40.164 226.522L37.7692 227.342ZM42.6651 218.98L41.0914 217.607L49.7898 214.629L51.3635 216.001L48.1903 217.088L53.6948 221.89L51.3513 222.692L45.8468 217.89L42.6651 218.98ZM53.4163 213.387L55.644 215.33L58.3895 214.39C59.5185 214.004 60.5958 213.894 61.6214 214.062C62.6527 214.227 63.5499 214.643 64.3129 215.308C65.0623 215.962 65.3528 216.583 65.1844 217.17C65.0171 217.751 64.369 218.235 63.24 218.622L58.1424 220.367L51.0642 214.192L53.4163 213.387ZM59.753 215.777L57.17 216.662L58.9753 218.236L61.5583 217.352C62.043 217.186 62.3005 216.999 62.3308 216.79C62.3669 216.579 62.2419 216.348 61.9558 216.099C61.6787 215.857 61.3661 215.702 61.0178 215.634C60.6649 215.562 60.2433 215.609 59.753 215.777ZM68.9783 215.441C68.6649 215.167 68.5253 214.89 68.5593 214.608C68.5888 214.322 68.8402 214.098 69.3135 213.936C69.7982 213.77 70.2795 213.743 70.7574 213.855C71.2366 213.961 71.6328 214.151 71.9462 214.424C72.2596 214.698 72.4015 214.977 72.372 215.263C72.3482 215.547 72.0968 215.771 71.6179 215.935C71.1389 216.099 70.6576 216.126 70.1739 216.016C69.6902 215.906 69.2917 215.714 68.9783 215.441ZM60.5786 210.918L60.3334 210.704C59.4614 209.944 59.1763 209.227 59.4783 208.556C59.7758 207.88 60.5032 207.344 61.6607 206.948C62.9665 206.501 64.2387 206.36 65.4773 206.527C66.7171 206.687 67.6844 207.07 68.3793 207.676C68.9788 208.199 69.301 208.699 69.346 209.174C69.3865 209.646 69.3003 210.166 69.0875 210.736C68.9013 211.224 68.8685 211.622 68.9893 211.928C69.1112 212.228 69.3493 212.533 69.7035 212.842L69.7853 212.913L67.3562 213.745L67.2677 213.668C66.7227 213.192 66.341 212.738 66.1228 212.305C65.9 211.869 65.8926 211.391 66.1006 210.873C66.2912 210.444 66.4344 210.066 66.5301 209.741C66.6213 209.412 66.4557 209.063 66.0333 208.695C65.6745 208.382 65.2486 208.194 64.7557 208.131C64.2582 208.064 63.7557 208.117 63.2482 208.291C62.7635 208.457 62.4558 208.684 62.3249 208.971C62.1997 209.257 62.3324 209.57 62.723 209.911L62.9478 210.107L60.5786 210.918Z" fill="#4C3B8A"/>
<path d="M168.122 177.22C167.709 176.866 167.113 176.597 166.462 176.47L158.954 174.992C158.628 174.928 158.3 174.942 158.043 175.03C157.786 175.118 157.62 175.273 157.582 175.462C157.563 175.556 157.577 175.655 157.622 175.755C157.667 175.854 157.742 175.951 157.845 176.04C157.947 176.13 158.074 176.209 158.218 176.275C158.362 176.34 158.52 176.39 158.683 176.422L164.427 177.544L154.696 180.875C154.437 180.964 154.272 181.12 154.234 181.309C154.197 181.498 154.292 181.705 154.498 181.885C154.703 182.064 155.003 182.201 155.331 182.265C155.659 182.33 155.988 182.316 156.246 182.228L165.977 178.896L165.326 182.217C165.287 182.406 165.381 182.613 165.586 182.793C165.79 182.973 166.09 183.11 166.418 183.175C166.746 183.24 167.075 183.227 167.334 183.14C167.593 183.052 167.76 182.896 167.799 182.707L168.64 178.37C168.716 177.993 168.53 177.579 168.122 177.22Z" fill="#FD8B21"/>
<rect x="0.874128" y="0.171497" width="317.318" height="48.3441" rx="24.1721" transform="matrix(0.946085 -0.323917 0.753563 0.657375 194.709 145.834)" fill="white"/>
<rect x="0.874128" y="0.171497" width="317.318" height="48.3441" rx="24.1721" transform="matrix(0.946085 -0.323917 0.753563 0.657375 194.709 145.834)" stroke="#DBD8E8" stroke-width="1.0286"/>
<path d="M242.553 157.229L232.634 148.576L241.606 145.504L243.221 146.913L236.661 149.159L239.052 151.245L244.748 149.294L246.356 150.697L240.66 152.647L243.358 155.001L250.02 152.719L251.628 154.122L242.553 157.229ZM248.836 150.907L248.618 150.717C247.492 149.734 247.082 148.799 247.39 147.91C247.698 147.016 248.596 146.314 250.085 145.804C251.499 145.32 252.844 145.171 254.122 145.357C255.394 145.539 256.42 145.924 257.198 146.513L257.419 146.686L255.076 147.488L254.917 147.36C254.569 147.077 254.109 146.911 253.539 146.864C252.968 146.817 252.332 146.913 251.631 147.153C250.804 147.436 250.328 147.817 250.202 148.296C250.076 148.775 250.338 149.298 250.987 149.864L251.273 150.114C251.923 150.68 252.669 151.04 253.511 151.193C254.355 151.34 255.193 151.271 256.025 150.986C256.738 150.742 257.173 150.464 257.33 150.151C257.493 149.835 257.411 149.535 257.084 149.25L256.961 149.143L259.296 148.344L259.419 148.451C260.123 149.065 260.343 149.745 260.079 150.492C259.817 151.233 258.979 151.845 257.565 152.329C256.076 152.839 254.531 152.976 252.928 152.742C251.326 152.501 249.962 151.89 248.836 150.907ZM256.892 145.633L255.318 144.26L264.016 141.282L265.59 142.655L262.417 143.742L267.922 148.543L265.578 149.346L260.074 144.544L256.892 145.633ZM267.643 140.041L269.871 141.984L272.616 141.044C273.745 140.657 274.822 140.548 275.848 140.715C276.879 140.881 277.777 141.296 278.54 141.962C279.289 142.616 279.579 143.236 279.411 143.824C279.244 144.405 278.596 144.889 277.467 145.275L272.369 147.021L265.291 140.846L267.643 140.041ZM273.98 142.431L271.397 143.315L273.202 144.89L275.785 144.006C276.27 143.84 276.527 143.652 276.558 143.443C276.594 143.232 276.469 143.002 276.182 142.752C275.905 142.511 275.593 142.356 275.244 142.287C274.892 142.215 274.47 142.263 273.98 142.431ZM284.33 136.239L286.494 138.304C287.668 139.424 288.301 140.275 288.395 140.855C288.494 141.434 288.059 141.889 287.09 142.221C286.862 142.299 286.648 142.358 286.448 142.399C286.253 142.444 286.081 142.467 285.932 142.468L284.229 140.982C284.347 140.975 284.465 140.959 284.581 140.936C284.697 140.913 284.83 140.876 284.978 140.825C285.314 140.71 285.429 140.519 285.322 140.252C285.22 139.984 284.822 139.519 284.127 138.857L280.669 135.581L288.572 132.875L295.65 139.05L293.307 139.852L287.802 135.05L284.33 136.239ZM297.669 138.359L290.591 132.184L292.96 131.373L296.761 134.689C296.902 134.812 297.051 134.948 297.207 135.099C297.37 135.247 297.513 135.383 297.638 135.506L297.689 135.488C297.636 135.352 297.586 135.215 297.539 135.076C297.497 134.936 297.464 134.779 297.44 134.606L297.339 129.873L299.725 129.056L306.803 135.231L304.443 136.039L300.628 132.711C300.487 132.589 300.339 132.46 300.185 132.325C300.026 132.186 299.879 132.055 299.744 131.93L299.727 131.936C299.77 132.07 299.812 132.204 299.855 132.339C299.894 132.469 299.92 132.62 299.934 132.792L300.064 137.539L297.669 138.359ZM311.61 129.315L311.821 129.5C312.389 129.995 313.081 130.318 313.897 130.469C314.713 130.62 315.578 130.539 316.49 130.227C317.396 129.916 317.901 129.528 318.003 129.063C318.106 128.592 317.873 128.109 317.306 127.614L317.095 127.429C316.54 126.946 315.86 126.63 315.055 126.481C314.244 126.328 313.383 126.408 312.47 126.72C311.558 127.033 311.048 127.422 310.941 127.89C310.828 128.353 311.052 128.828 311.61 129.315ZM311.484 125.122C312.892 124.639 314.321 124.542 315.77 124.829C317.224 125.115 318.467 125.707 319.498 126.607L319.716 126.797C320.765 127.712 321.142 128.612 320.846 129.497C320.556 130.379 319.635 131.086 318.084 131.617C316.476 132.168 314.886 132.315 313.314 132.059C311.748 131.801 310.238 131.038 308.785 129.77L308.287 129.336C306.711 127.961 305.857 126.745 305.724 125.687C305.587 124.625 306.302 123.729 307.871 122.999C308.822 122.568 309.345 122.279 309.437 122.131C309.536 121.982 309.51 121.842 309.36 121.711L311.601 120.944C312.229 121.512 312.49 122.024 312.385 122.479C312.285 122.933 311.478 123.51 309.963 124.211C308.861 124.704 308.27 125.221 308.191 125.761C308.113 126.295 308.4 126.889 309.054 127.542L309.148 127.51C309.026 127.05 309.167 126.613 309.573 126.198C309.98 125.777 310.617 125.418 311.484 125.122ZM317.516 122.965L319.868 122.16L322.572 124.52L325.172 123.629L326.746 125.002L324.146 125.892L326.946 128.335L324.594 129.14L317.516 122.965ZM324.924 124.856L324.706 124.666C323.625 123.723 323.229 122.797 323.52 121.886C323.805 120.972 324.684 120.263 326.155 119.759C327.626 119.256 329.177 119.133 330.807 119.391C332.432 119.646 333.786 120.244 334.867 121.187L335.085 121.378C336.17 122.325 336.57 123.255 336.284 124.169C335.994 125.08 335.113 125.787 333.642 126.291C332.171 126.794 330.622 126.919 328.997 126.664C327.367 126.406 326.009 125.803 324.924 124.856ZM327.073 123.823L327.346 124.06C327.995 124.627 328.737 124.98 329.571 125.119C330.401 125.254 331.224 125.182 332.039 124.903C332.849 124.626 333.324 124.254 333.463 123.786C333.604 123.313 333.349 122.794 332.7 122.227L332.427 121.989C331.782 121.427 331.042 121.079 330.207 120.946C329.372 120.807 328.55 120.876 327.741 121.153C326.925 121.432 326.45 121.807 326.315 122.278C326.176 122.745 326.428 123.26 327.073 123.823ZM349.699 122.771L347.866 121.172L341.383 123.392L343.216 124.991L340.958 125.764L337.552 122.792L348.551 119.026L351.957 121.998L349.699 122.771ZM337.281 118.11L338.719 119.447C339.578 120.245 340.146 120.834 340.422 121.213C340.699 121.593 340.868 121.91 340.93 122.165L338.586 122.967C338.555 122.614 338.399 122.243 338.119 121.853C337.839 121.463 337.243 120.84 336.332 119.982L333.646 117.443L341.763 114.664L348.828 120.826L346.484 121.629L340.993 116.839L337.281 118.11ZM358.575 117.506L356.206 118.317L349.127 112.142L351.497 111.331L358.575 117.506ZM362.287 116.235L355.53 114.725L356.227 113.245L365.238 115.225L362.287 116.235ZM353.036 114.098L354.721 113.521L354.995 110.133L357.663 109.22L357.083 114.615L354.603 115.465L353.036 114.098ZM352.494 119.588L349.586 120.584L350.257 115.289L352.962 115.612L352.494 119.588ZM353.036 114.098L354.603 115.465L352.037 116.343L342.918 114.268L345.629 113.34L351.326 114.683L353.036 114.098ZM361.855 112.212L361.637 112.022C360.561 111.083 360.157 110.159 360.426 109.25C360.7 108.34 361.544 107.643 362.959 107.159C364.373 106.674 365.826 106.56 367.318 106.816C368.806 107.068 370.087 107.67 371.161 108.62L371.91 109.274L363.734 112.074L362.419 110.927L368.295 108.915L368.329 108.945C367.847 108.525 367.292 108.262 366.664 108.157C366.031 108.049 365.264 108.148 364.363 108.457C363.554 108.734 363.106 109.13 363.021 109.645C362.932 110.155 363.198 110.682 363.82 111.225L364.113 111.48C364.735 112.023 365.513 112.369 366.447 112.518C367.38 112.668 368.294 112.589 369.19 112.283C369.76 112.087 370.183 111.83 370.458 111.509C370.73 111.184 370.879 110.868 370.908 110.561L373.478 110.839C373.621 111.359 373.436 111.866 372.924 112.361C372.418 112.855 371.666 113.272 370.668 113.614C369.094 114.153 367.501 114.29 365.888 114.026C364.28 113.759 362.936 113.155 361.855 112.212ZM370.048 106.891L368.474 105.518L377.173 102.54L378.746 103.913L375.573 104.999L381.078 109.801L378.734 110.604L373.23 105.802L370.048 106.891ZM386.252 106.814C385.938 106.54 385.799 106.262 385.833 105.98C385.862 105.695 386.113 105.471 386.587 105.308C387.071 105.143 387.553 105.116 388.031 105.228C388.51 105.334 388.906 105.524 389.219 105.797C389.533 106.071 389.675 106.35 389.645 106.636C389.621 106.92 389.37 107.144 388.891 107.308C388.412 107.472 387.931 107.499 387.447 107.389C386.963 107.279 386.565 107.087 386.252 106.814ZM377.852 102.291L377.607 102.077C376.735 101.317 376.45 100.6 376.752 99.9287C377.049 99.2531 377.776 98.7172 378.934 98.3209C380.24 97.8738 381.512 97.7334 382.751 97.8997C383.99 98.06 384.958 98.4432 385.653 99.0494C386.252 99.5724 386.574 100.072 386.619 100.547C386.66 101.019 386.574 101.539 386.361 102.109C386.175 102.597 386.142 102.995 386.263 103.301C386.384 103.601 386.623 103.906 386.977 104.215L387.059 104.286L384.63 105.118L384.541 105.041C383.996 104.565 383.614 104.111 383.396 103.678C383.173 103.242 383.166 102.764 383.374 102.246C383.564 101.817 383.708 101.439 383.803 101.114C383.895 100.785 383.729 100.436 383.307 100.068C382.948 99.7548 382.522 99.5668 382.029 99.5039C381.531 99.437 381.029 99.4904 380.521 99.6642C380.037 99.8301 379.729 100.057 379.598 100.344C379.473 100.63 379.606 100.943 379.996 101.284L380.221 101.48L377.852 102.291Z" fill="#4C3B8A"/>
<path d="M485.383 68.5975C484.97 68.2434 484.374 67.9739 483.723 67.8474L476.216 66.3692C475.889 66.3057 475.561 66.3194 475.304 66.4075C475.047 66.4955 474.882 66.6506 474.844 66.839C474.824 66.9331 474.838 67.0326 474.883 67.132C474.928 67.2313 475.004 67.3284 475.106 67.4176C475.208 67.5069 475.335 67.5866 475.479 67.652C475.623 67.7175 475.781 67.7675 475.944 67.7992L481.688 68.9208L471.957 72.2526C471.699 72.341 471.533 72.497 471.496 72.6863C471.459 72.8756 471.553 73.0827 471.759 73.262C471.964 73.4413 472.264 73.5782 472.592 73.6425C472.92 73.7069 473.249 73.6934 473.507 73.605L483.238 70.2732L482.587 73.594C482.549 73.7831 482.642 73.9904 482.847 74.1701C483.052 74.3499 483.351 74.4874 483.679 74.5524C484.007 74.6175 484.336 74.6047 484.595 74.5169C484.854 74.4291 485.021 74.2735 485.06 74.0844L485.902 69.7475C485.978 69.3699 485.791 68.9563 485.383 68.5975Z" fill="#FD8B21"/>
<rect x="0.874128" y="0.171497" width="450.318" height="48.3441" rx="24.1721" transform="matrix(0.946085 -0.323917 0.753563 0.657375 37.8603 255.714)" fill="white"/>
<rect x="0.874128" y="0.171497" width="450.318" height="48.3441" rx="24.1721" transform="matrix(0.946085 -0.323917 0.753563 0.657375 37.8603 255.714)" stroke="#DBD8E8" stroke-width="1.0286"/>
<path d="M85.7047 267.11L75.7857 258.457L84.7578 255.385L86.3723 256.793L79.8122 259.039L82.2034 261.125L87.8997 259.175L89.5074 260.578L83.8111 262.528L86.5089 264.881L93.1717 262.6L94.7794 264.003L85.7047 267.11ZM91.9874 260.788L91.7694 260.597C90.6431 259.615 90.2336 258.679 90.5409 257.791C90.8494 256.896 91.7477 256.194 93.2359 255.685C94.65 255.2 95.9957 255.051 97.273 255.238C98.5457 255.42 99.5711 255.805 100.349 256.394L100.571 256.566L98.2272 257.369L98.0687 257.241C97.7201 256.957 97.2605 256.792 96.6901 256.745C96.1196 256.697 95.4837 256.794 94.7824 257.034C93.9556 257.317 93.4792 257.698 93.3534 258.177C93.2275 258.656 93.4893 259.178 94.1387 259.745L94.4249 259.995C95.0743 260.561 95.8202 260.921 96.6625 261.074C97.506 261.221 98.3439 261.152 99.1764 260.867C99.8892 260.623 100.324 260.344 100.481 260.031C100.644 259.716 100.562 259.416 100.235 259.131L100.113 259.024L102.447 258.224L102.57 258.331C103.274 258.945 103.494 259.626 103.231 260.372C102.968 261.113 102.13 261.726 100.716 262.21C99.2278 262.719 97.6823 262.857 96.0795 262.622C94.4778 262.382 93.1137 261.77 91.9874 260.788ZM100.043 255.514L98.4695 254.141L107.168 251.163L108.742 252.536L105.568 253.622L111.073 258.424L108.729 259.226L103.225 254.425L100.043 255.514ZM110.794 249.921L113.022 251.865L115.768 250.925C116.897 250.538 117.974 250.429 118.999 250.596C120.031 250.761 120.928 251.177 121.691 251.843C122.44 252.496 122.731 253.117 122.562 253.704C122.395 254.286 121.747 254.769 120.618 255.156L115.52 256.901L108.442 250.727L110.794 249.921ZM117.131 252.311L114.548 253.196L116.353 254.771L118.936 253.886C119.421 253.72 119.679 253.533 119.709 253.324C119.745 253.113 119.62 252.883 119.334 252.633C119.057 252.391 118.744 252.236 118.396 252.168C118.043 252.096 117.621 252.144 117.131 252.311ZM127.481 246.12L129.645 248.184C130.819 249.305 131.453 250.156 131.546 250.736C131.645 251.314 131.21 251.769 130.241 252.101C130.013 252.179 129.799 252.239 129.6 252.28C129.405 252.324 129.233 252.347 129.083 252.349L127.38 250.863C127.499 250.855 127.616 250.84 127.732 250.817C127.849 250.794 127.981 250.757 128.129 250.706C128.466 250.591 128.58 250.4 128.473 250.133C128.371 249.864 127.973 249.399 127.279 248.738L123.821 245.461L131.724 242.756L138.802 248.93L136.458 249.733L130.954 244.931L127.481 246.12ZM140.82 248.239L133.742 242.065L136.111 241.253L139.913 244.57C140.053 244.692 140.202 244.829 140.359 244.98C140.521 245.128 140.665 245.264 140.79 245.386L140.841 245.369C140.788 245.233 140.738 245.095 140.69 244.957C140.649 244.817 140.616 244.66 140.591 244.486L140.49 239.754L142.877 238.937L149.955 245.112L147.594 245.92L143.779 242.592C143.638 242.469 143.491 242.34 143.336 242.206C143.177 242.067 143.03 241.935 142.895 241.81L142.878 241.816C142.921 241.951 142.964 242.085 143.007 242.219C143.045 242.35 143.071 242.501 143.085 242.672L143.215 247.419L140.82 248.239ZM154.762 239.196L154.973 239.38C155.541 239.875 156.232 240.198 157.049 240.349C157.865 240.5 158.729 240.42 159.641 240.107C160.548 239.797 161.052 239.409 161.154 238.944C161.257 238.473 161.025 237.989 160.457 237.494L160.246 237.31C159.692 236.827 159.012 236.511 158.206 236.362C157.396 236.209 156.534 236.289 155.622 236.601C154.71 236.913 154.2 237.303 154.092 237.77C153.98 238.233 154.203 238.709 154.762 239.196ZM154.635 235.002C156.043 234.52 157.472 234.423 158.921 234.71C160.376 234.995 161.618 235.588 162.649 236.487L162.867 236.677C163.916 237.593 164.293 238.492 163.997 239.377C163.707 240.26 162.786 240.967 161.235 241.498C159.627 242.048 158.037 242.196 156.465 241.939C154.899 241.681 153.389 240.918 151.936 239.65L151.439 239.217C149.863 237.842 149.008 236.625 148.875 235.567C148.738 234.506 149.454 233.61 151.022 232.879C151.974 232.449 152.496 232.16 152.589 232.012C152.687 231.862 152.662 231.722 152.512 231.592L154.753 230.824C155.38 231.393 155.642 231.905 155.536 232.36C155.437 232.813 154.629 233.391 153.114 234.091C152.012 234.584 151.422 235.101 151.342 235.641C151.264 236.176 151.552 236.77 152.205 237.423L152.299 237.391C152.177 236.931 152.319 236.493 152.724 236.078C153.131 235.658 153.768 235.299 154.635 235.002ZM163.901 236.166L163.683 235.976C162.607 235.037 162.203 234.113 162.471 233.205C162.746 232.294 163.59 231.597 165.004 231.113C166.418 230.629 167.871 230.515 169.364 230.771C170.851 231.022 172.132 231.624 173.206 232.575L173.956 233.228L165.779 236.028L164.464 234.881L170.34 232.869L170.374 232.899C169.893 232.479 169.338 232.216 168.71 232.112C168.077 232.003 167.31 232.103 166.409 232.411C165.599 232.688 165.152 233.084 165.067 233.599C164.977 234.109 165.244 234.636 165.866 235.179L166.159 235.434C166.781 235.977 167.559 236.323 168.492 236.473C169.426 236.622 170.34 236.543 171.235 236.237C171.806 236.042 172.228 235.784 172.504 235.463C172.775 235.139 172.925 234.823 172.953 234.515L175.524 234.794C175.666 235.313 175.482 235.82 174.97 236.316C174.463 236.809 173.711 237.226 172.713 237.568C171.14 238.107 169.546 238.244 167.933 237.98C166.326 237.714 164.982 237.109 163.901 236.166ZM174.473 232.547L174.255 232.357C173.128 231.374 172.719 230.438 173.026 229.55C173.334 228.655 174.233 227.953 175.721 227.444C177.135 226.959 178.481 226.81 179.758 226.997C181.031 227.179 182.056 227.564 182.834 228.153L183.056 228.325L180.712 229.128L180.554 229C180.205 228.716 179.746 228.551 179.175 228.504C178.605 228.456 177.969 228.553 177.268 228.793C176.441 229.076 175.964 229.457 175.839 229.936C175.713 230.415 175.974 230.937 176.624 231.504L176.91 231.754C177.559 232.32 178.305 232.68 179.148 232.833C179.991 232.98 180.829 232.911 181.662 232.626C182.374 232.382 182.809 232.103 182.966 231.79C183.129 231.475 183.047 231.175 182.72 230.89L182.598 230.783L184.933 229.983L185.055 230.09C185.759 230.704 185.979 231.385 185.716 232.132C185.454 232.872 184.615 233.485 183.201 233.969C181.713 234.479 180.167 234.616 178.565 234.381C176.963 234.141 175.599 233.529 174.473 232.547ZM181.707 225.642L190.696 222.565L197.775 228.739L195.431 229.542L189.927 224.74L185.633 226.21L191.138 231.012L188.785 231.817L181.707 225.642ZM197.393 222.183L199.557 224.248C200.731 225.369 201.365 226.219 201.458 226.8C201.558 227.378 201.123 227.833 200.153 228.165C199.925 228.243 199.711 228.302 199.512 228.343C199.317 228.388 199.145 228.411 198.996 228.412L197.293 226.927C197.411 226.919 197.528 226.904 197.645 226.881C197.761 226.857 197.893 226.82 198.041 226.77C198.378 226.654 198.492 226.463 198.385 226.197C198.284 225.928 197.886 225.463 197.191 224.802L193.733 221.525L201.636 218.819L208.714 224.994L206.37 225.796L200.866 220.994L197.393 222.183ZM208.229 222.628C207.461 221.958 207.307 221.294 207.766 220.635C208.221 219.971 209.112 219.412 210.441 218.958L212.69 218.187L212.316 217.861C211.989 217.575 211.579 217.415 211.085 217.38C210.588 217.34 210.003 217.436 209.33 217.666C208.714 217.877 208.292 218.105 208.063 218.348C207.836 218.586 207.847 218.814 208.097 219.032L208.287 219.198L205.952 219.998L205.762 219.831C205.08 219.237 204.966 218.625 205.42 217.996C205.868 217.362 206.743 216.823 208.043 216.377C209.332 215.936 210.557 215.765 211.718 215.864C212.875 215.959 213.86 216.361 214.673 217.07L217.895 219.881C218.186 220.135 218.51 220.366 218.868 220.574C219.232 220.781 219.571 220.935 219.886 221.036L219.995 221.132L217.703 221.916C217.529 221.855 217.324 221.759 217.089 221.63C216.849 221.497 216.641 221.364 216.465 221.231C216.544 221.535 216.365 221.892 215.928 222.301C215.487 222.705 214.865 223.045 214.061 223.321C213.057 223.664 212.013 223.793 210.929 223.706C209.851 223.617 208.951 223.258 208.229 222.628ZM210.501 221.742C210.791 221.996 211.171 222.136 211.639 222.164C212.108 222.185 212.653 222.089 213.275 221.877C213.919 221.656 214.399 221.351 214.715 220.962C215.032 220.566 215.007 220.208 214.639 219.887L213.971 219.305L211.978 219.987C211.225 220.245 210.707 220.53 210.422 220.843C210.143 221.153 210.169 221.453 210.501 221.742ZM215.338 216.04L213.764 214.667L222.462 211.689L224.036 213.062L220.863 214.148L226.367 218.95L224.024 219.752L218.519 214.95L215.338 216.04ZM223.737 211.252L226.089 210.447L228.793 212.807L233.147 211.316L230.442 208.957L232.786 208.154L239.864 214.329L237.52 215.131L234.721 212.689L230.367 214.179L233.167 216.622L230.815 217.427L223.737 211.252ZM238.021 210.789L237.803 210.599C236.722 209.656 236.333 208.727 236.635 207.813C236.932 206.895 237.824 206.181 239.313 205.671C240.807 205.16 242.374 205.031 244.016 205.286C245.653 205.536 247.012 206.133 248.093 207.076L248.311 207.266C249.396 208.213 249.788 209.144 249.486 210.058C249.185 210.972 248.287 211.685 246.793 212.197C245.305 212.706 243.742 212.836 242.105 212.585C240.468 212.335 239.107 211.736 238.021 210.789ZM240.173 209.746L240.459 209.996C241.099 210.555 241.842 210.901 242.688 211.037C243.534 211.172 244.373 211.097 245.205 210.812C246.044 210.525 246.536 210.144 246.682 209.669C246.829 209.194 246.582 208.677 245.941 208.119L245.655 207.869C245.015 207.311 244.271 206.967 243.424 206.837C242.578 206.702 241.739 206.777 240.907 207.062C240.08 207.345 239.591 207.725 239.438 208.202C239.288 208.673 239.532 209.188 240.173 209.746ZM249.482 206.865L249.264 206.675C248.188 205.736 247.784 204.812 248.053 203.904C248.327 202.993 249.171 202.296 250.585 201.812C252 201.328 253.453 201.214 254.945 201.469C256.433 201.721 257.714 202.323 258.788 203.274L259.537 203.927L251.36 206.727L250.046 205.58L255.922 203.568L255.956 203.598C255.474 203.178 254.919 202.915 254.291 202.811C253.658 202.702 252.891 202.802 251.99 203.11C251.181 203.387 250.733 203.783 250.648 204.298C250.559 204.808 250.825 205.335 251.447 205.878L251.74 206.133C252.362 206.676 253.14 207.022 254.074 207.172C255.007 207.321 255.921 207.242 256.817 206.936C257.387 206.741 257.81 206.483 258.085 206.162C258.357 205.838 258.506 205.522 258.535 205.214L261.105 205.493C261.248 206.012 261.063 206.519 260.551 207.014C260.045 207.508 259.293 207.925 258.295 208.267C256.721 208.806 255.128 208.943 253.515 208.679C251.907 208.413 250.563 207.808 249.482 206.865ZM264.313 201.787L264.095 201.597C263.014 200.654 262.625 199.726 262.926 198.811C263.224 197.893 264.116 197.179 265.605 196.67C267.098 196.158 268.666 196.03 270.308 196.284C271.945 196.535 273.304 197.131 274.385 198.074L274.603 198.265C275.688 199.211 276.08 200.142 275.778 201.056C275.476 201.971 274.579 202.684 273.085 203.195C271.596 203.705 270.034 203.834 268.397 203.583C266.76 203.333 265.399 202.734 264.313 201.787ZM266.465 200.745L266.751 200.994C267.391 201.553 268.134 201.9 268.98 202.035C269.826 202.17 270.665 202.095 271.497 201.81C272.336 201.523 272.828 201.142 272.974 200.667C273.121 200.193 272.874 199.676 272.233 199.117L271.947 198.868C271.307 198.309 270.563 197.965 269.716 197.836C268.87 197.7 268.031 197.775 267.199 198.06C266.372 198.343 265.882 198.723 265.73 199.2C265.579 199.671 265.824 200.186 266.465 200.745ZM278.147 196.952L278.358 197.136C278.926 197.631 279.618 197.954 280.434 198.105C281.25 198.256 282.115 198.175 283.027 197.863C283.933 197.552 284.438 197.165 284.54 196.699C284.643 196.228 284.41 195.745 283.843 195.25L283.631 195.066C283.077 194.582 282.397 194.266 281.592 194.117C280.781 193.964 279.92 194.044 279.007 194.357C278.095 194.669 277.585 195.059 277.478 195.526C277.365 195.989 277.589 196.464 278.147 196.952ZM278.021 192.758C279.429 192.276 280.858 192.178 282.307 192.466C283.761 192.751 285.004 193.343 286.035 194.243L286.253 194.433C287.302 195.348 287.679 196.248 287.383 197.133C287.092 198.016 286.172 198.723 284.621 199.254C283.013 199.804 281.423 199.951 279.851 199.695C278.285 199.437 276.775 198.674 275.321 197.406L274.824 196.972C273.248 195.597 272.394 194.381 272.261 193.323C272.124 192.261 272.839 191.365 274.408 190.635C275.359 190.204 275.882 189.915 275.974 189.768C276.073 189.618 276.047 189.478 275.897 189.347L278.138 188.58C278.766 189.148 279.027 189.66 278.922 190.116C278.822 190.569 278.015 191.146 276.5 191.847C275.398 192.34 274.807 192.857 274.728 193.397C274.649 193.931 274.937 194.525 275.591 195.179L275.685 195.146C275.563 194.686 275.704 194.249 276.11 193.834C276.517 193.413 277.154 193.055 278.021 192.758ZM293.412 199.421L291.895 198.087C292.091 198.064 292.308 198.026 292.548 197.971C292.792 197.921 293.036 197.854 293.282 197.77C293.743 197.612 294.087 197.392 294.312 197.111C294.538 196.829 294.456 196.35 294.068 195.671L293.82 195.756L282.821 191.023L285.318 190.168L291.897 193.071C292.167 193.189 292.418 193.318 292.651 193.459C292.89 193.598 293.134 193.752 293.383 193.92L293.417 193.908C293.248 193.712 293.1 193.528 292.975 193.356C292.85 193.178 292.745 192.997 292.659 192.811L290.681 188.332L292.913 187.568L296.614 195.991C296.953 196.703 296.987 197.317 296.715 197.835C296.449 198.351 295.874 198.76 294.99 199.063C294.677 199.17 294.395 199.253 294.144 199.312C293.893 199.37 293.649 199.406 293.412 199.421ZM297.485 188.055C298.021 188.523 298.574 188.769 299.143 188.795C299.713 188.821 300.337 188.717 301.015 188.485C301.608 188.282 302.079 188.09 302.428 187.91C302.773 187.726 303.162 187.466 303.595 187.13L305.162 188.497C304.77 188.786 304.321 189.055 303.814 189.306C303.313 189.555 302.692 189.806 301.951 190.06C300.691 190.491 299.508 190.634 298.404 190.488C297.3 190.342 296.294 189.873 295.385 189.08L293.444 187.386L295.796 186.581L297.485 188.055ZM302.116 184.417L309.195 190.592L306.851 191.394L299.773 185.219L302.116 184.417ZM307.386 187.04L307.168 186.85C306.092 185.911 305.688 184.987 305.957 184.079C306.231 183.168 307.075 182.471 308.489 181.987C309.903 181.503 311.357 181.389 312.849 181.645C314.337 181.897 315.618 182.498 316.692 183.449L317.441 184.102L309.264 186.902L307.95 185.755L313.825 183.743L313.859 183.773C313.378 183.353 312.823 183.091 312.195 182.986C311.562 182.877 310.795 182.977 309.894 183.285C309.084 183.562 308.637 183.958 308.552 184.473C308.463 184.983 308.729 185.51 309.351 186.053L309.644 186.309C310.266 186.851 311.044 187.197 311.978 187.347C312.911 187.496 313.825 187.418 314.72 187.111C315.291 186.916 315.714 186.658 315.989 186.337C316.26 186.013 316.41 185.697 316.439 185.389L319.009 185.668C319.152 186.187 318.967 186.694 318.455 187.19C317.949 187.683 317.197 188.1 316.199 188.442C314.625 188.981 313.032 189.118 311.419 188.854C309.811 188.588 308.467 187.983 307.386 187.04ZM314.758 180.089L317.11 179.284L319.814 181.643L324.168 180.153L321.463 177.793L323.807 176.991L330.885 183.166L328.542 183.968L325.742 181.525L321.388 183.016L324.188 185.458L321.836 186.264L314.758 180.089ZM332.921 182.469L325.842 176.294L328.212 175.483L332.013 178.799C332.154 178.922 332.303 179.058 332.459 179.209C332.622 179.357 332.765 179.493 332.89 179.616L332.941 179.598C332.888 179.462 332.838 179.325 332.791 179.186C332.749 179.046 332.716 178.889 332.692 178.715L332.591 173.983L334.977 173.166L342.055 179.341L339.695 180.149L335.88 176.821C335.739 176.698 335.591 176.57 335.437 176.435C335.278 176.296 335.131 176.165 334.996 176.04L334.979 176.046C335.021 176.18 335.064 176.314 335.107 176.449C335.145 176.579 335.172 176.73 335.186 176.902L335.316 181.649L332.921 182.469ZM340.23 175.795L340.012 175.605C338.935 174.666 338.531 173.742 338.8 172.834C339.075 171.924 339.919 171.226 341.333 170.742C342.747 170.258 344.2 170.144 345.692 170.4C347.18 170.652 348.461 171.253 349.535 172.204L350.285 172.858L342.108 175.657L340.793 174.51L346.669 172.498L346.703 172.528C346.222 172.108 345.667 171.846 345.038 171.741C344.405 171.632 343.639 171.732 342.738 172.04C341.928 172.318 341.481 172.713 341.396 173.228C341.306 173.739 341.572 174.265 342.195 174.808L342.488 175.064C343.11 175.606 343.888 175.953 344.821 176.102C345.754 176.251 346.669 176.173 347.564 175.866C348.134 175.671 348.557 175.413 348.833 175.092C349.104 174.768 349.254 174.452 349.282 174.144L351.852 174.423C351.995 174.942 351.811 175.449 351.298 175.945C350.792 176.438 350.04 176.856 349.042 177.197C347.468 177.736 345.875 177.873 344.262 177.609C342.655 177.343 341.311 176.738 340.23 175.795ZM355.406 173.554C355.092 173.28 354.953 173.003 354.987 172.721C355.016 172.435 355.268 172.211 355.741 172.049C356.226 171.883 356.707 171.856 357.185 171.968C357.664 172.074 358.06 172.264 358.374 172.538C358.687 172.811 358.829 173.091 358.799 173.377C358.776 173.661 358.524 173.885 358.045 174.049C357.566 174.213 357.085 174.239 356.601 174.129C356.118 174.019 355.719 173.827 355.406 173.554ZM347.006 169.031L346.761 168.817C345.889 168.057 345.604 167.341 345.906 166.669C346.203 165.993 346.931 165.457 348.088 165.061C349.394 164.614 350.666 164.474 351.905 164.64C353.145 164.8 354.112 165.183 354.807 165.79C355.406 166.313 355.728 166.812 355.773 167.287C355.814 167.759 355.728 168.28 355.515 168.849C355.329 169.338 355.296 169.735 355.417 170.041C355.539 170.342 355.777 170.646 356.131 170.955L356.213 171.027L353.784 171.858L353.695 171.781C353.15 171.305 352.768 170.851 352.55 170.419C352.327 169.982 352.32 169.504 352.528 168.986C352.719 168.557 352.862 168.18 352.958 167.854C353.049 167.525 352.883 167.176 352.461 166.808C352.102 166.495 351.676 166.307 351.183 166.244C350.686 166.177 350.183 166.231 349.676 166.404C349.191 166.57 348.883 166.797 348.752 167.085C348.627 167.37 348.76 167.683 349.15 168.024L349.375 168.22L347.006 169.031Z" fill="#4C3B8A"/>
<path d="M454.363 135.397C453.951 135.043 453.355 134.773 452.704 134.647L445.196 133.169C444.869 133.105 444.542 133.119 444.285 133.207C444.028 133.295 443.862 133.45 443.824 133.639C443.805 133.733 443.818 133.832 443.863 133.932C443.908 134.031 443.984 134.128 444.086 134.217C444.189 134.306 444.316 134.386 444.459 134.452C444.603 134.517 444.761 134.567 444.925 134.599L450.669 135.72L440.937 139.052C440.679 139.141 440.513 139.297 440.476 139.486C440.439 139.675 440.534 139.882 440.739 140.062C440.945 140.241 441.245 140.378 441.572 140.442C441.9 140.506 442.229 140.493 442.488 140.405L452.219 137.073L451.567 140.394C451.529 140.583 451.623 140.79 451.827 140.97C452.032 141.149 452.331 141.287 452.659 141.352C452.987 141.417 453.317 141.404 453.576 141.316C453.835 141.229 454.002 141.073 454.04 140.884L454.882 136.547C454.958 136.169 454.772 135.756 454.363 135.397Z" fill="#FD8B21"/>
<rect x="0.874128" y="0.171497" width="424.318" height="48.3441" rx="24.1721" transform="matrix(0.946085 -0.323917 0.753563 0.657375 22.6132 317.114)" fill="white"/>
<rect x="0.874128" y="0.171497" width="424.318" height="48.3441" rx="24.1721" transform="matrix(0.946085 -0.323917 0.753563 0.657375 22.6132 317.114)" stroke="#DBD8E8" stroke-width="1.0286"/>
<path d="M414.518 205.218C414.105 204.864 413.509 204.595 412.859 204.468L405.351 202.99C405.024 202.927 404.697 202.94 404.439 203.028C404.182 203.116 404.017 203.271 403.979 203.46C403.96 203.554 403.973 203.653 404.018 203.753C404.063 203.852 404.139 203.949 404.241 204.038C404.344 204.128 404.47 204.207 404.614 204.273C404.758 204.338 404.916 204.388 405.079 204.42L410.823 205.542L401.092 208.873C400.834 208.962 400.668 209.118 400.631 209.307C400.594 209.496 400.688 209.704 400.894 209.883C401.1 210.062 401.399 210.199 401.727 210.263C402.055 210.328 402.384 210.314 402.642 210.226L412.374 206.894L411.722 210.215C411.684 210.404 411.777 210.611 411.982 210.791C412.187 210.971 412.486 211.108 412.814 211.173C413.142 211.238 413.472 211.226 413.731 211.138C413.99 211.05 414.157 210.894 414.195 210.705L415.037 206.368C415.113 205.991 414.926 205.577 414.518 205.218Z" fill="#FD8B21"/>
<rect x="0.874128" y="0.171497" width="569.318" height="48.3441" rx="24.1721" transform="matrix(0.946085 -0.323917 0.753563 0.657375 441.105 173.832)" fill="white"/>
<rect x="0.874128" y="0.171497" width="569.318" height="48.3441" rx="24.1721" transform="matrix(0.946085 -0.323917 0.753563 0.657375 441.105 173.832)" stroke="#DBD8E8" stroke-width="1.0286"/>
</svg>
