<svg width="606" height="699" viewBox="0 0 606 699" fill="none" xmlns="http://www.w3.org/2000/svg">
<g opacity="0.4">
<path d="M60.199 143.581L49.1977 147.003L170.326 671.823L181.327 668.401L60.199 143.581Z" fill="#BFB3EE"/>
<path d="M39.1951 150.114L28.1938 153.537L149.188 677.776L160.189 674.354L39.1951 150.114Z" fill="#BFB3EE"/>
<path d="M362.278 496.95L272.793 401.945L238.714 412.547L265.166 527.16L166.614 557.817L65.5815 120.066L161.541 90.2107L215.848 325.512L252.907 281.866L304.122 299.627L279.293 192.047L391.581 155.546L345.966 328.002L581.987 566.498L463.434 604.063L362.375 496.92L362.278 496.95Z" fill="#BFB3EE"/>
<path fill-rule="evenodd" clip-rule="evenodd" d="M249.456 267.325L287.642 278.504L261.842 166.72L195.401 187.388L221.201 299.173L249.456 267.325Z" fill="#BFB3EE"/>
<path d="M249.456 267.325L287.642 278.504L261.842 166.72L195.401 187.388L221.201 299.173L249.456 267.325Z" fill="#BFB3EE"/>
</g>
</svg>
