<svg width="390" height="274" viewBox="0 0 390 274" fill="none" xmlns="http://www.w3.org/2000/svg">
<path d="M133.056 267.426L243.366 160.329L208.72 140.353L103.064 248.58L103.052 250.773L133.056 267.426Z" fill="#E3DEFF"/>
<path d="M393.001 197.774L292.277 -178.13L261.983 -195.596L2.66589 -126.113L103.064 248.58L208.72 140.353L357.682 177.797L393.001 197.774Z" fill="#E3DEFF"/>
<path d="M243.366 160.329L393.001 197.774L357.682 177.797L208.72 140.353L243.366 160.329Z" fill="#E3DEFF"/>
<path d="M243.366 160.329L393.001 197.774M243.366 160.329L133.056 267.426L103.052 250.773L103.064 248.58M243.366 160.329L208.72 140.353M393.001 197.774L292.277 -178.13L261.983 -195.596L2.66589 -126.113L103.064 248.58M393.001 197.774L357.682 177.797L208.72 140.353M208.72 140.353L103.064 248.58" stroke="#D9CFFE" stroke-width="3"/>
<path fill-rule="evenodd" clip-rule="evenodd" d="M213.033 142.803L362.113 180.397L261.39 -195.507L2 -126.004L102.723 249.9L213.033 142.803Z" fill="#F2EFF8"/>
<path d="M213.033 142.803L362.113 180.397L261.39 -195.507L2 -126.004L102.723 249.9L213.033 142.803Z" fill="#F2EFF8"/>
<path fill-rule="evenodd" clip-rule="evenodd" d="M213.033 142.803L362.113 180.397L261.39 -195.507L2 -126.004L102.723 249.9L213.033 142.803Z" stroke="#D9CFFE" stroke-width="3"/>
<path d="M213.033 142.803L362.113 180.397L261.39 -195.507L2 -126.004L102.723 249.9L213.033 142.803Z" stroke="#D9CFFE" stroke-width="3"/>
</svg>
