<svg width="214" height="19" viewBox="0 0 214 19" fill="none" xmlns="http://www.w3.org/2000/svg">
<g clip-path="url(#clip0_713_3934)">
<path d="M194.952 9.42437C194.952 10.6757 195.247 11.6303 195.838 12.2883C196.429 12.9356 197.228 13.2808 198.237 13.3239V4.97468C197.228 5.01783 196.429 5.36841 195.838 6.02643C195.247 6.67365 194.952 7.6391 194.952 8.92277V9.42437ZM206.746 8.93895C206.746 7.66607 206.456 6.69523 205.875 6.02643C205.305 5.34684 204.495 4.99086 203.446 4.9585V13.3077C204.495 13.2754 205.305 12.941 205.875 12.3045C206.456 11.6573 206.746 10.7026 206.746 9.44055V8.93895ZM198.237 17.0131C195.609 16.8837 193.531 16.1609 192.004 14.8449C190.476 13.5289 189.712 11.7328 189.712 9.45673V8.93895C189.712 6.66287 190.476 4.86142 192.004 3.5346C193.541 2.197 195.619 1.45808 198.237 1.31785V-6.99902H203.446V1.31785C206.196 1.45808 208.32 2.1916 209.817 3.51842C211.314 4.84524 212.063 6.65747 212.063 8.95513V9.48909C212.063 11.7544 211.309 13.545 209.802 14.8611C208.305 16.1663 206.186 16.8837 203.446 17.0131V23.5825H198.237V17.0131Z" fill="white"/>
<path d="M171.119 23.5822V1.78684H176.222L176.237 3.71234L176.252 3.69616C176.701 3.04894 177.368 2.50419 178.254 2.06191C179.15 1.60885 180.189 1.38232 181.37 1.38232C183.346 1.38232 184.925 2.03495 186.106 3.34019C187.298 4.63464 187.894 6.47385 187.894 8.8578V9.37558C187.894 11.684 187.283 13.5232 186.061 14.8932C184.848 16.2632 183.26 16.9481 181.294 16.9481C180.102 16.9481 179.109 16.7648 178.315 16.398C177.531 16.0312 176.869 15.5512 176.329 14.9579V23.5822H171.119ZM176.329 11.2687C176.553 11.7865 176.93 12.2396 177.459 12.6279C177.989 13.0162 178.625 13.2104 179.369 13.2104C180.479 13.2104 181.299 12.8706 181.829 12.191C182.358 11.5006 182.623 10.6269 182.623 9.56975V8.71218C182.623 7.63346 182.358 6.78128 181.829 6.15563C181.299 5.51919 180.489 5.20097 179.4 5.20097C178.636 5.20097 177.989 5.39513 177.459 5.78347C176.93 6.17181 176.553 6.62487 176.329 7.14265V11.2687Z" fill="white"/>
<path d="M161.815 13.9872C161.815 13.1674 162.07 12.477 162.579 11.9161C163.089 11.3552 163.812 11.0747 164.749 11.0747C165.696 11.0747 166.419 11.3552 166.918 11.9161C167.427 12.477 167.682 13.1728 167.682 14.0034C167.682 14.834 167.427 15.5298 166.918 16.0907C166.419 16.6516 165.696 16.9321 164.749 16.9321C163.801 16.9321 163.073 16.6463 162.564 16.0745C162.065 15.5028 161.815 14.8071 161.815 13.9872Z" fill="white"/>
<path d="M142.614 16.6248V1.78711H147.839V8.87425C147.839 9.27337 147.834 9.59159 147.824 9.82891C147.824 10.0554 147.814 10.3844 147.793 10.8159H147.87C148.033 10.3844 148.14 10.0878 148.191 9.926C148.252 9.7534 148.42 9.37585 148.695 8.79335L152.82 1.78711H158.396V16.6248H153.156V9.47294C153.156 9.05224 153.156 8.73941 153.156 8.53446C153.156 8.31871 153.161 7.9951 153.171 7.56361H153.125C152.962 7.98431 152.85 8.27556 152.789 8.43737C152.738 8.59918 152.57 8.97673 152.285 9.57002L148.191 16.6248H142.614Z" fill="white"/>
<path d="M129.829 16.6248H124.559V1.78711H129.829V16.6248ZM134.81 16.6248L130.318 9.86127L134.336 6.91639L140.982 16.6248H134.81ZM127.217 7.17528H131.143L134.489 1.78711H140.218L134.214 11.1395H127.217V7.17528ZM119.578 16.6248H113.482L120.128 6.91639L124.07 9.86127L119.578 16.6248ZM127.217 7.17528V11.1395H120.067L114.094 1.78711H119.899L123.245 7.17528H127.217Z" fill="white"/>
<path d="M108.104 20.9936V16.6248H99.1821V20.9936H94.3086V12.5311H112.962V20.9936H108.104ZM101.275 5.88082L101.183 8.0814C101.153 8.92279 101.066 9.81273 100.924 10.7512C100.781 11.6897 100.618 12.3369 100.435 12.6929H95.76C96.0248 12.1428 96.2386 11.4362 96.4016 10.5732C96.5646 9.71025 96.6664 8.65851 96.7072 7.41799L96.8905 1.78711H110.915V16.6248H105.675V5.88082H101.275Z" fill="white"/>
<path d="M76.7236 9.40864V8.89086C76.7236 6.58241 77.4875 4.7486 79.0152 3.38942C80.543 2.01945 82.6004 1.33447 85.1873 1.33447C87.7132 1.33447 89.6585 1.99249 91.0233 3.30852C92.3881 4.62455 93.0705 6.426 93.0705 8.71287V10.1853H79.3972V7.48313H88.029V7.46695C88.029 6.77658 87.7998 6.21565 87.3415 5.78416C86.8933 5.34189 86.1447 5.12075 85.0957 5.12075C84.067 5.12075 83.2777 5.43897 82.7277 6.07542C82.1879 6.70107 81.918 7.43999 81.918 8.29217V9.441C81.918 10.6492 82.2082 11.5768 82.7888 12.2241C83.3795 12.8713 84.23 13.1949 85.3401 13.1949C86.1345 13.1949 86.7966 13.0547 87.3262 12.7742C87.8558 12.483 88.2632 12.0946 88.5484 11.6092L92.9636 12.7742C92.4543 14.1118 91.5937 15.1528 90.3817 15.8971C89.1697 16.6414 87.5044 17.0136 85.3859 17.0136C82.6258 17.0136 80.4921 16.3394 78.9847 14.991C77.4773 13.6318 76.7236 11.771 76.7236 9.40864Z" fill="white"/>
<path d="M64.7933 5.88082L64.7628 8.04904C64.6915 11.242 64.2484 13.5181 63.4336 14.8773C62.6188 16.2257 61.3712 16.8999 59.6907 16.8999C59.2731 16.8999 58.9013 16.8837 58.5754 16.8513C58.2597 16.8298 58.005 16.7812 57.8115 16.7057V12.1751C57.9134 12.2075 58.0152 12.2344 58.1171 12.256C58.2291 12.2668 58.3666 12.2722 58.5296 12.2722C59.0694 12.2722 59.487 11.9216 59.7823 11.2205C60.0777 10.5193 60.2406 9.39743 60.2712 7.85487L60.424 1.78711H74.2653V16.6248H69.0252V5.88082H64.7933Z" fill="white"/>
<path d="M46.017 5.88082L45.9864 8.04904C45.9151 11.242 45.4721 13.5181 44.6573 14.8773C43.8425 16.2257 42.5948 16.8999 40.9143 16.8999C40.4967 16.8999 40.1249 16.8837 39.799 16.8513C39.4833 16.8298 39.2287 16.7812 39.0352 16.7057V12.1751C39.137 12.2075 39.2389 12.2344 39.3407 12.256C39.4527 12.2668 39.5902 12.2722 39.7532 12.2722C40.293 12.2722 40.7106 11.9216 41.0059 11.2205C41.3013 10.5193 41.4643 9.39743 41.4948 7.85487L41.6476 1.78711H55.489V16.6248H50.2488V5.88082H46.017Z" fill="white"/>
<path d="M20.0312 9.4244V8.90661C20.0312 6.64132 20.8206 4.8129 22.3993 3.42136C23.9779 2.01903 26.076 1.31787 28.6936 1.31787C31.3213 1.31787 33.4194 2.01903 34.9879 3.42136C36.5665 4.8129 37.3559 6.64132 37.3559 8.90661V9.4244C37.3559 11.7005 36.5665 13.5343 34.9879 14.9258C33.4194 16.3174 31.3213 17.0131 28.6936 17.0131C26.0658 17.0131 23.9626 16.3174 22.384 14.9258C20.8155 13.5343 20.0312 11.7005 20.0312 9.4244ZM25.302 8.71245V9.5862C25.302 10.6433 25.5872 11.5063 26.1575 12.1751C26.7381 12.8331 27.5834 13.1621 28.6936 13.1621C29.8037 13.1621 30.644 12.8331 31.2143 12.1751C31.7949 11.5063 32.0852 10.6379 32.0852 9.57002V8.71245C32.0852 7.67688 31.7949 6.83548 31.2143 6.18826C30.644 5.54103 29.8037 5.21742 28.6936 5.21742C27.5834 5.21742 26.7381 5.54103 26.1575 6.18826C25.5872 6.83548 25.302 7.67688 25.302 8.71245Z" fill="white"/>
<path d="M2.11237 1.37256H1.48828V17.0129H2.11237V1.37256Z" fill="white"/>
<path d="M0.936589 1.36475H0.3125V17.0051H0.936589V1.36475Z" fill="white"/>
<path d="M10.0713 11.226L13.592 17.005H20.0302L14.774 8.81829L19.2254 1.37277L12.9346 1.44663V6.87102L10.4792 5.28595L8.02301 6.79694V1.37256L2.66309 1.37277V17.005H8.16778V11.226H10.0713Z" fill="white"/>
<path fill-rule="evenodd" clip-rule="evenodd" d="M10.4747 4.55163L12.3303 5.6364V0H8.61914V5.6364L10.4747 4.55163Z" fill="#FD8B21"/>
<path d="M10.4747 4.55163L12.3303 5.6364V0H8.61914V5.6364L10.4747 4.55163Z" fill="#FD8B21"/>
</g>
<defs>
<clipPath id="clip0_713_3934">
<rect width="214" height="19" fill="white"/>
</clipPath>
</defs>
</svg>
