<svg width="37" height="36" viewBox="0 0 37 36" fill="none" xmlns="http://www.w3.org/2000/svg">
<g clip-path="url(#clip0_691_687)">
<path d="M36.1255 34.5C36.1255 34.8978 35.9674 35.2793 35.6861 35.5606C35.4048 35.8419 35.0233 36 34.6255 36H1.62546C1.22764 36 0.846109 35.8419 0.564804 35.5606C0.283499 35.2793 0.125464 34.8978 0.125464 34.5C0.125464 34.1021 0.283499 33.7206 0.564804 33.4393C0.846109 33.158 1.22764 33 1.62546 33H34.6255C35.0233 33 35.4048 33.158 35.6861 33.4393C35.9674 33.7206 36.1255 34.1021 36.1255 34.5ZM0.561964 12.828C0.238748 12.2284 0.0890062 11.5507 0.129545 10.8708C0.170083 10.191 0.399298 9.53582 0.791464 8.97896C1.43235 8.03864 2.29063 7.2668 3.29346 6.72896L14.545 0.872961C15.6509 0.297907 16.879 -0.00231934 18.1255 -0.00231934C19.3719 -0.00231934 20.6001 0.297907 21.706 0.872961L32.956 6.73346C33.9588 7.2713 34.8171 8.04314 35.458 8.98346C35.8501 9.54032 36.0793 10.1955 36.1199 10.8753C36.1604 11.5552 36.0107 12.2329 35.6875 12.8325C35.3395 13.4907 34.8176 14.0409 34.1786 14.423C33.5396 14.8052 32.808 15.0048 32.0635 15H31.6255V27H33.1255C33.5233 27 33.9048 27.158 34.1861 27.4393C34.4674 27.7206 34.6255 28.1021 34.6255 28.5C34.6255 28.8978 34.4674 29.2793 34.1861 29.5606C33.9048 29.8419 33.5233 30 33.1255 30H3.12546C2.72764 30 2.34611 29.8419 2.0648 29.5606C1.7835 29.2793 1.62546 28.8978 1.62546 28.5C1.62546 28.1021 1.7835 27.7206 2.0648 27.4393C2.34611 27.158 2.72764 27 3.12546 27H4.62546V15H4.18746C3.4422 15.0046 2.70997 14.8045 2.07065 14.4215C1.43132 14.0385 0.909452 13.4873 0.561964 12.828ZM7.62546 27H12.1255V15H7.62546V27ZM15.1255 15V27H21.1255V15H15.1255ZM28.6255 15H24.1255V27H28.6255V15ZM3.21996 11.4375C3.31408 11.611 3.45413 11.7552 3.62479 11.8545C3.79544 11.9537 3.99011 12.004 4.18746 12H32.0635C32.2608 12.004 32.4555 11.9537 32.6261 11.8545C32.7968 11.7552 32.9369 11.611 33.031 11.4375C33.0995 11.3228 33.1327 11.1905 33.1263 11.057C33.1199 10.9236 33.0742 10.795 32.995 10.6875C32.6315 10.1473 32.1432 9.70277 31.5715 9.39146L20.3215 3.53096C19.6435 3.1791 18.8908 2.99542 18.127 2.99542C17.3631 2.99542 16.6105 3.1791 15.9325 3.53096L4.68246 9.39146C4.11094 9.70377 3.62276 10.1487 3.25896 10.689C3.1796 10.7961 3.13357 10.9242 3.12663 11.0573C3.11969 11.1905 3.15216 11.3227 3.21996 11.4375Z" fill="#FD8B21"/>
</g>
<defs>
<clipPath id="clip0_691_687">
<rect width="36" height="36" fill="white" transform="translate(0.125)"/>
</clipPath>
</defs>
</svg>
