<svg width="37" height="36" viewBox="0 0 37 36" fill="none" xmlns="http://www.w3.org/2000/svg">
<g clip-path="url(#clip0_691_691)">
<path d="M36.0073 24.8745L31.0708 19.938C30.9332 19.7915 30.7676 19.6741 30.5837 19.5929C30.3999 19.5116 30.2016 19.4681 30.0006 19.465C29.7997 19.4619 29.6001 19.4992 29.4139 19.5747C29.2276 19.6502 29.0584 19.7624 28.9163 19.9046C28.7742 20.0467 28.6622 20.216 28.5868 20.4023C28.5114 20.5887 28.4743 20.7882 28.4776 20.9892C28.4808 21.1902 28.5244 21.3884 28.6058 21.5722C28.6872 21.756 28.8047 21.9215 28.9513 22.059L32.3863 25.5C30.519 25.5043 28.6697 25.1349 26.9473 24.4136C25.225 23.6922 23.6643 22.6336 22.3573 21.3C22.2122 21.1664 22.0417 21.0632 21.8559 20.9967C21.6701 20.9302 21.4729 20.9017 21.2759 20.9129C21.0789 20.9241 20.8862 20.9748 20.7091 21.0619C20.5321 21.149 20.3744 21.2708 20.2453 21.42L20.2258 21.45C19.9736 21.7434 19.8445 22.1228 19.8655 22.5091C19.8865 22.8954 20.0558 23.2587 20.3383 23.523C21.913 25.1156 23.7908 26.3765 25.8609 27.2313C27.9309 28.0861 30.1513 28.5175 32.3908 28.5L28.9513 31.9395C28.7946 32.0743 28.6674 32.2401 28.5778 32.4264C28.4881 32.6126 28.438 32.8155 28.4304 33.022C28.4229 33.2286 28.4582 33.4346 28.534 33.6269C28.6098 33.8192 28.7246 33.9938 28.871 34.1396C29.0175 34.2855 29.1926 34.3995 29.3852 34.4745C29.5779 34.5495 29.7839 34.5839 29.9905 34.5755C30.1971 34.5671 30.3997 34.516 30.5856 34.4256C30.7715 34.3352 30.9367 34.2073 31.0708 34.05L36.0073 29.1135C36.5688 28.5511 36.8842 27.7888 36.8842 26.994C36.8842 26.1993 36.5688 25.437 36.0073 24.8745Z" fill="#FD8B21"/>
<path d="M32.3863 10.5L28.9513 13.935C28.922 13.9745 28.895 14.0155 28.8703 14.058C28.6282 14.3531 28.5088 14.73 28.5368 15.1107C28.5648 15.4913 28.7379 15.8467 29.0205 16.1033C29.3031 16.3599 29.6735 16.498 30.0551 16.4892C30.4367 16.4804 30.8003 16.3253 31.0708 16.056L33.6298 13.5L36.0088 11.1225C36.411 10.7171 36.6891 10.2054 36.8106 9.6474C36.932 9.08941 36.8917 8.50835 36.6943 7.9725C36.5485 7.56232 36.3139 7.18943 36.0073 6.8805L31.0708 1.95C30.9338 1.80122 30.7682 1.68165 30.5839 1.5985C30.3996 1.51535 30.2003 1.47033 29.9982 1.46614C29.796 1.46195 29.5951 1.49869 29.4074 1.57413C29.2198 1.64957 29.0494 1.76217 28.9064 1.90516C28.7634 2.04815 28.6508 2.21857 28.5754 2.40618C28.4999 2.59379 28.4632 2.79472 28.4674 2.99689C28.4716 3.19906 28.5166 3.3983 28.5998 3.58262C28.6829 3.76695 28.8025 3.93256 28.9513 4.0695L32.3908 7.5075C24.9913 7.5255 20.9353 11.5185 17.2573 15.7185C13.8793 11.9055 9.87577 8.1 3.10627 7.569L2.38477 7.5C1.98694 7.5 1.60541 7.65804 1.32411 7.93934C1.0428 8.22065 0.884766 8.60218 0.884766 9C0.892446 9.39542 1.05295 9.77251 1.3326 10.0522C1.61226 10.3318 1.98935 10.4923 2.38477 10.5C2.49277 10.5 2.81527 10.5495 2.81527 10.5495C8.65927 10.992 12.0133 14.283 15.2758 18C12.0328 21.699 8.70127 25.05 2.90527 25.44L2.30527 25.4715C1.91042 25.4962 1.54155 25.6767 1.2798 25.9733C1.01805 26.2699 0.88485 26.6584 0.909516 27.0533C0.934181 27.4481 1.11469 27.817 1.41132 28.0787C1.70796 28.3405 2.09642 28.4737 2.49127 28.449C2.72527 28.4385 3.10627 28.4295 3.29377 28.4145C10.8238 27.834 14.9083 23.0145 18.5503 18.801C22.2283 14.55 25.7023 10.527 32.3863 10.5Z" fill="#FD8B21"/>
</g>
<defs>
<clipPath id="clip0_691_691">
<rect width="36" height="36" fill="white" transform="translate(0.875)"/>
</clipPath>
</defs>
</svg>
