<svg width="37" height="36" viewBox="0 0 37 36" fill="none" xmlns="http://www.w3.org/2000/svg">
<g clip-path="url(#clip0_691_700)">
<path d="M33.9613 7.84497L22.9003 2.57547C20.4655 1.12112 17.435 1.09532 14.9758 2.50797L3.79033 7.84497C3.74835 7.86599 3.70483 7.88849 3.66433 7.91247C1.00989 9.43023 0.0883725 12.8125 1.60614 15.4669C2.12061 16.3668 2.87739 17.1041 3.79033 17.595L6.87585 19.065V26.415C6.87768 29.7016 9.01623 32.6052 12.1544 33.582C14.3382 34.2138 16.6026 34.5231 18.8759 34.5C21.1488 34.5255 23.4132 34.2188 25.5974 33.5895C28.7355 32.6128 30.8741 29.7091 30.8759 26.4225V19.062L33.8759 17.628V29.9999C33.8759 30.8284 34.5475 31.4999 35.3759 31.4999C36.2043 31.4999 36.8759 30.8284 36.8759 29.9999V11.9999C36.8859 10.2385 35.4951 8.61137 33.9613 7.84497ZM27.8758 26.4225C27.8766 28.3884 26.6011 30.1273 24.7258 30.717C22.8241 31.2604 20.8535 31.5241 18.8758 31.5C16.8981 31.5241 14.9275 31.2604 13.0258 30.717C11.1505 30.1272 9.87503 28.3884 9.8758 26.4225V20.4945L14.8513 22.8646C16.079 23.5936 17.4811 23.9766 18.9088 23.973C20.2678 23.9827 21.604 23.6229 22.7744 22.9321L27.8758 20.4945V26.4225ZM32.6758 14.8875L21.3628 20.2875C19.7854 21.206 17.8303 21.1799 16.2778 20.22L5.2093 14.955C3.97553 14.2897 3.5147 12.7502 4.18 11.5165C4.405 11.0992 4.74236 10.7534 5.15383 10.518L16.3963 5.14799C17.9742 4.23154 19.9283 4.25748 21.4813 5.21549L32.5423 10.485C33.3557 10.9367 33.8647 11.7896 33.8758 12.72C33.8773 13.6013 33.4235 14.4209 32.6758 14.8875Z" fill="#FD8B21"/>
</g>
<defs>
<clipPath id="clip0_691_700">
<rect width="36" height="36" fill="white" transform="translate(0.875)"/>
</clipPath>
</defs>
</svg>
