<svg width="37" height="36" viewBox="0 0 37 36" fill="none" xmlns="http://www.w3.org/2000/svg">
<g clip-path="url(#clip0_691_696)">
<path d="M11.375 19.5C10.04 19.5 8.73493 19.1041 7.6249 18.3624C6.51487 17.6207 5.6497 16.5665 5.13881 15.3331C4.62792 14.0997 4.49425 12.7425 4.7547 11.4331C5.01515 10.1238 5.65802 8.92104 6.60203 7.97703C7.54603 7.03303 8.74877 6.39015 10.0581 6.1297C11.3675 5.86925 12.7247 6.00292 13.9581 6.51382C15.1915 7.02471 16.2457 7.88987 16.9874 8.9999C17.7291 10.1099 18.125 11.415 18.125 12.75C18.123 14.5396 17.4112 16.2553 16.1458 17.5208C14.8803 18.7862 13.1646 19.498 11.375 19.5ZM11.375 9C10.6333 9 9.9083 9.21994 9.29161 9.63199C8.67493 10.044 8.19428 10.6297 7.91045 11.3149C7.62662 12.0002 7.55236 12.7542 7.69705 13.4816C7.84175 14.209 8.1989 14.8772 8.72335 15.4017C9.2478 15.9261 9.91598 16.2833 10.6434 16.4279C11.3708 16.5726 12.1248 16.4984 12.8101 16.2146C13.4953 15.9307 14.081 15.4501 14.493 14.8334C14.9051 14.2167 15.125 13.4917 15.125 12.75C15.125 11.7554 14.7299 10.8016 14.0267 10.0984C13.3234 9.39509 12.3696 9 11.375 9ZM22.625 34.5V33.75C22.625 30.7663 21.4397 27.9048 19.33 25.7951C17.2202 23.6853 14.3587 22.5 11.375 22.5C8.39131 22.5 5.52983 23.6853 3.42005 25.7951C1.31026 27.9048 0.125 30.7663 0.125 33.75L0.125 34.5C0.125 34.8978 0.283035 35.2794 0.56434 35.5607C0.845644 35.842 1.22718 36 1.625 36C2.02282 36 2.40436 35.842 2.68566 35.5607C2.96696 35.2794 3.125 34.8978 3.125 34.5V33.75C3.125 31.562 3.99419 29.4635 5.54137 27.9164C7.08854 26.3692 9.18696 25.5 11.375 25.5C13.563 25.5 15.6615 26.3692 17.2086 27.9164C18.7558 29.4635 19.625 31.562 19.625 33.75V34.5C19.625 34.8978 19.783 35.2794 20.0643 35.5607C20.3456 35.842 20.7272 36 21.125 36C21.5228 36 21.9044 35.842 22.1857 35.5607C22.467 35.2794 22.625 34.8978 22.625 34.5ZM36.125 27C36.1249 24.973 35.5382 22.9894 34.4356 21.2885C33.3329 19.5877 31.7616 18.2424 29.9112 17.415C28.0608 16.5875 26.0104 16.3134 24.0076 16.6256C22.0048 16.9378 20.1352 17.8231 18.6245 19.1745C18.4757 19.3053 18.3542 19.4643 18.2671 19.6423C18.1801 19.8203 18.1292 20.0138 18.1173 20.2116C18.1055 20.4094 18.1329 20.6076 18.1981 20.7947C18.2633 20.9818 18.3649 21.1542 18.4971 21.3018C18.6293 21.4495 18.7894 21.5694 18.9682 21.6548C19.147 21.7402 19.3409 21.7894 19.5388 21.7994C19.7367 21.8094 19.9347 21.7801 20.1212 21.7132C20.3077 21.6462 20.4791 21.543 20.6255 21.4095C21.7047 20.4444 23.0401 19.8123 24.4706 19.5895C25.9011 19.3667 27.3655 19.5626 28.6871 20.1537C30.0087 20.7448 31.131 21.7058 31.9185 22.9206C32.7059 24.1354 33.125 25.5523 33.125 27C33.125 27.3978 33.283 27.7794 33.5643 28.0607C33.8456 28.342 34.2272 28.5 34.625 28.5C35.0228 28.5 35.4044 28.342 35.6857 28.0607C35.967 27.7794 36.125 27.3978 36.125 27ZM26.375 13.5C25.04 13.5 23.7349 13.1041 22.6249 12.3624C21.5149 11.6207 20.6497 10.5665 20.1388 9.33312C19.6279 8.09972 19.4942 6.74251 19.7547 5.43314C20.0151 4.12377 20.658 2.92104 21.602 1.97703C22.546 1.03303 23.7488 0.390153 25.0581 0.129702C26.3675 -0.130748 27.7247 0.00292468 28.9581 0.513816C30.1915 1.02471 31.2457 1.88987 31.9874 2.9999C32.7291 4.10994 33.125 5.41498 33.125 6.75C33.123 8.53961 32.4112 10.2553 31.1458 11.5208C29.8803 12.7862 28.1646 13.498 26.375 13.5ZM26.375 3C25.6333 3 24.9083 3.21994 24.2916 3.63199C23.6749 4.04405 23.1943 4.62972 22.9105 5.31494C22.6266 6.00016 22.5524 6.75416 22.6971 7.48159C22.8417 8.20902 23.1989 8.87721 23.7234 9.40165C24.2478 9.9261 24.916 10.2833 25.6434 10.4279C26.3708 10.5726 27.1248 10.4984 27.8101 10.2146C28.4953 9.93072 29.081 9.45008 29.493 8.83339C29.9051 8.21671 30.125 7.49168 30.125 6.75C30.125 5.75544 29.7299 4.80161 29.0266 4.09835C28.3234 3.39509 27.3696 3 26.375 3Z" fill="#FD8B21"/>
</g>
<defs>
<clipPath id="clip0_691_696">
<rect width="36" height="36" fill="white" transform="translate(0.125)"/>
</clipPath>
</defs>
</svg>
