<svg width="348" height="233" viewBox="0 0 348 233" fill="none" xmlns="http://www.w3.org/2000/svg">
<g opacity="0.6">
<path d="M108.539 226.413L36.566 -42.1926L18.5502 -57.4567L6.997 -54.2095L79.0504 214.698L97.3057 229.423L108.539 226.413Z" fill="#6A54BA"/>
<path d="M108.539 226.413L36.566 -42.1926L18.5502 -57.4567L6.997 -54.2095L79.0504 214.698L97.3057 229.423L108.539 226.413ZM108.539 226.413L87.3217 209.462" stroke="#4C3B8A" stroke-width="1.53399"/>
<path d="M129.692 220.745L57.7196 -47.8602L39.7039 -63.1243L28.1506 -59.8771L100.204 209.03L118.459 223.755L129.692 220.745Z" fill="#6A54BA"/>
<path d="M129.692 220.745L57.7196 -47.8602L39.7039 -63.1243L28.1506 -59.8771L100.204 209.03L118.459 223.755L129.692 220.745ZM129.692 220.745L108.475 203.794" stroke="#4C3B8A" stroke-width="1.53399"/>
<path d="M452.17 134.191L336.29 165.241L317.937 150.247L246.329 82.9725L212.068 92.1527L238.661 191.401L139.584 217.948L121.27 203.265L49.483 -65.0769L146.077 -91.6253L164.119 -76.3721L186.954 6.15131L215.702 -31.644L267.19 -16.264L242.228 -109.422L235.375 -114.118L348.335 -145.804L365.749 -130.395L319.891 18.942L452.17 134.191Z" fill="#6A54BA"/>
<path d="M319.891 18.942L452.17 134.191L336.29 165.241L317.937 150.247L246.329 82.9725L212.068 92.1527M319.891 18.942L365.749 -130.395L348.335 -145.804L235.375 -114.118L242.228 -109.422L267.19 -16.264L215.702 -31.644L186.954 6.15131L164.119 -76.3721L146.077 -91.6253L49.483 -65.0769L121.27 203.265L139.584 217.948L238.661 191.401M319.891 18.942L298.303 1.08797M238.661 191.401L212.068 92.1527M238.661 191.401L209.326 167.303M212.068 92.1527L187.457 71.7298" stroke="#4C3B8A" stroke-width="1.53399"/>
<path d="M222.516 -33.9123L261.581 -22.0681L241.672 -39.7339L204.33 -49.0576L222.516 -33.9123Z" fill="#6A54BA"/>
<path d="M261.581 -22.0681L235.464 -120.754L217.029 -135.886L150.252 -117.994L176.229 -20.2876L186.737 -10.3074L194.463 -6.01915L222.516 -33.9123L204.33 -49.0576L241.672 -39.7339L261.581 -22.0681Z" fill="#6A54BA"/>
<path d="M222.516 -33.9123L261.581 -22.0681M222.516 -33.9123L194.463 -6.01915L186.737 -10.3074L176.229 -20.2876L150.252 -117.994L217.029 -135.886L235.464 -120.754L261.581 -22.0681M222.516 -33.9123L204.33 -49.0576L241.672 -39.7339L261.581 -22.0681" stroke="#4C3B8A" stroke-width="1.53399"/>
<path d="M39.2695 -63.0075L28.0368 -59.9977L100.009 208.608L111.242 205.598L39.2695 -63.0075Z" fill="#977AD6" stroke="#4C3B8A" stroke-width="1.53399"/>
<path d="M18.0795 -57.478L6.84673 -54.4681L78.8193 214.137L90.0521 211.127L18.0795 -57.478Z" fill="#977AD6" stroke="#4C3B8A" stroke-width="1.53399"/>
<path d="M227.881 67.8256L317.842 150.094L433.722 119.044L301.443 3.79512L347.301 -145.542L234.414 -113.934L259.376 -20.7764L207.888 -36.1564L170.632 1.63886L145.671 -91.519L49.1998 -65.6657L121.135 202.801L220.213 176.254L193.619 77.0058L227.881 67.8256Z" fill="#977AD6" stroke="#4C3B8A" stroke-width="1.53399"/>
</g>
</svg>
