<svg width="360" height="287" viewBox="0 0 360 287" fill="none" xmlns="http://www.w3.org/2000/svg">
<g opacity="0.5">
<path d="M124.802 278.672L41.6107 -31.8038L20.7867 -49.4474L7.4325 -45.694L90.7177 265.131L111.819 282.151L124.802 278.672Z" fill="#D9CFFE"/>
<path d="M124.802 278.672L41.6107 -31.8038L20.7867 -49.4474L7.4325 -45.694L90.7177 265.131L111.819 282.151L124.802 278.672ZM124.802 278.672L100.278 259.078" stroke="#BFB3EE" stroke-width="3"/>
<path d="M149.254 272.12L66.0619 -38.3556L45.2378 -55.9992L31.8837 -52.2458L115.169 258.579L136.27 275.599L149.254 272.12Z" fill="#D9CFFE"/>
<path d="M149.254 272.12L66.0619 -38.3556L45.2378 -55.9992L31.8837 -52.2458L115.169 258.579L136.27 275.599L149.254 272.12ZM149.254 272.12L124.73 252.527" stroke="#BFB3EE" stroke-width="3"/>
<path d="M522.001 172.075L388.058 207.965L366.843 190.634L284.073 112.872L244.472 123.483L275.21 238.202L160.689 268.888L139.52 251.916L56.5432 -58.2554L168.195 -88.9422L189.049 -71.3113L215.443 24.0759L248.672 -19.6109L308.186 -1.83351L279.334 -109.513L271.412 -114.941L401.98 -151.567L422.109 -133.755L369.103 38.8605L522.001 172.075Z" fill="#D9CFFE"/>
<path d="M369.103 38.8605L522.001 172.075L388.058 207.965L366.843 190.634L284.073 112.872L244.472 123.483M369.103 38.8605L422.109 -133.755L401.98 -151.567L271.412 -114.941L279.334 -109.513L308.186 -1.8335L248.672 -19.6109L215.443 24.0759L189.049 -71.3113L168.195 -88.9422L56.5432 -58.2554L139.52 251.916L160.689 268.888L275.21 238.202M369.103 38.8605L344.149 18.2233M275.21 238.202L244.472 123.483M275.21 238.202L241.302 210.348M244.472 123.483L216.025 99.8769" stroke="#BFB3EE" stroke-width="3"/>
<path d="M256.546 -22.2319L301.701 -8.54134L278.688 -28.961L235.526 -39.738L256.546 -22.2319Z" fill="#D9CFFE"/>
<path d="M301.701 -8.54134L271.513 -122.611L250.203 -140.102L173.017 -119.42L203.044 -6.48333L215.19 5.05255L224.12 10.0093L256.546 -22.2319L235.526 -39.738L278.688 -28.961L301.701 -8.54134Z" fill="#D9CFFE"/>
<path d="M256.546 -22.2319L301.701 -8.54134M256.546 -22.2319L224.12 10.0093L215.19 5.05255L203.044 -6.48333L173.017 -119.42L250.203 -140.102L271.513 -122.611L301.701 -8.54134M256.546 -22.2319L235.526 -39.738L278.688 -28.961L301.701 -8.54134" stroke="#BFB3EE" stroke-width="3"/>
<path d="M44.7357 -55.8627L31.752 -52.3837L114.944 258.092L127.927 254.613L44.7357 -55.8627Z" fill="#E3DEFF" stroke="#BFB3EE" stroke-width="3"/>
<path d="M20.2416 -49.4711L7.25781 -45.9921L90.4495 264.484L103.433 261.005L20.2416 -49.4711Z" fill="#E3DEFF" stroke="#BFB3EE" stroke-width="3"/>
<path d="M262.746 95.3649L366.73 190.458L500.674 154.568L347.775 21.3533L400.782 -151.262L270.298 -114.728L299.151 -7.04845L239.637 -24.8259L196.573 18.861L167.721 -88.8184L56.2121 -58.9351L139.361 251.381L253.883 220.695L223.144 105.976L262.746 95.3649Z" fill="#E3DEFF" stroke="#BFB3EE" stroke-width="3"/>
</g>
</svg>
