<svg width="711" height="434" viewBox="0 0 711 434" fill="none" xmlns="http://www.w3.org/2000/svg">
<g opacity="0.6">
<path d="M211.158 612.124L70.4024 86.8176L35.1693 56.9657L12.5749 63.3162L153.488 589.213L189.19 618.01L211.158 612.124Z" fill="#6A54BA"/>
<path d="M211.158 612.124L70.4024 86.8176L35.1693 56.9657L12.5749 63.3162L153.488 589.213L189.19 618.01L211.158 612.124ZM211.158 612.124L169.664 578.973" stroke="#4C3B8A" stroke-width="3"/>
<path d="M252.527 601.04L111.772 75.7335L76.5391 45.8817L53.9446 52.2321L194.858 578.129L230.56 606.926L252.527 601.04Z" fill="#6A54BA"/>
<path d="M252.528 601.04L111.772 75.7335L76.5391 45.8817L53.9446 52.2321L194.858 578.129L230.56 606.926L252.528 601.04ZM252.528 601.04L211.034 567.889" stroke="#4C3B8A" stroke-width="3"/>
<path d="M883.191 431.768L656.567 492.491L620.673 463.169L480.631 331.6L413.627 349.554L465.636 543.651L271.872 595.57L236.056 566.855L95.664 42.0631L284.572 -9.85709L319.855 19.9734L364.512 181.363L420.735 107.447L521.429 137.526L472.612 -44.6614L459.21 -53.846L680.122 -115.814L714.18 -85.6779L624.496 206.377L883.191 431.768Z" fill="#6A54BA"/>
<path d="M624.496 206.377L883.191 431.768L656.567 492.491L620.673 463.169L480.631 331.6L413.627 349.554M624.496 206.377L714.18 -85.6779L680.122 -115.814L459.21 -53.846L472.612 -44.6614L521.429 137.526L420.735 107.447L364.512 181.363L319.855 19.9734L284.572 -9.85709L95.664 42.0631L236.056 566.855L271.872 595.57L465.636 543.651M624.496 206.377L582.276 171.46M465.636 543.651L413.627 349.554M465.636 543.651L408.265 496.523M413.627 349.554L365.497 309.613" stroke="#4C3B8A" stroke-width="3"/>
<path d="M434.062 103.011L510.461 126.175L471.524 91.6259L398.496 73.3917L434.062 103.011Z" fill="#6A54BA"/>
<path d="M510.461 126.175L459.384 -66.8239L423.33 -96.4178L292.736 -61.4252L343.54 129.657L364.088 149.175L379.199 157.561L434.062 103.011L398.496 73.3917L471.524 91.6259L510.461 126.175Z" fill="#6A54BA"/>
<path d="M434.062 103.011L510.461 126.175M434.062 103.011L379.199 157.561L364.088 149.175L343.54 129.657L292.736 -61.4252L423.33 -96.4178L459.384 -66.8239L510.461 126.175M434.062 103.011L398.496 73.3917L471.524 91.6259L510.461 126.175" stroke="#4C3B8A" stroke-width="3"/>
<path d="M75.6897 46.1102L53.7219 51.9965L194.477 577.303L216.445 571.417L75.6897 46.1102Z" fill="#977AD6" stroke="#4C3B8A" stroke-width="3"/>
<path d="M34.2488 56.9242L12.281 62.8105L153.036 588.117L175.004 582.231L34.2488 56.9242Z" fill="#977AD6" stroke="#4C3B8A" stroke-width="3"/>
<path d="M444.553 301.978L620.488 462.869L847.112 402.145L588.417 176.755L678.101 -115.3L457.331 -53.4864L506.148 128.701L405.453 98.6223L332.593 172.538L283.776 -9.64919L95.1102 40.9115L235.793 565.948L429.557 514.029L377.549 319.931L444.553 301.978Z" fill="#977AD6" stroke="#4C3B8A" stroke-width="3"/>
<path fill-rule="evenodd" clip-rule="evenodd" d="M398.679 74.0012L473.757 92.9336L423.032 -96.3742L292.401 -61.3719L343.126 127.936L398.679 74.0012Z" fill="#977AD6"/>
<path d="M398.679 74.0012L473.757 92.9336L423.032 -96.3742L292.401 -61.3719L343.126 127.936L398.679 74.0012Z" fill="#977AD6"/>
<path fill-rule="evenodd" clip-rule="evenodd" d="M398.679 74.0012L473.757 92.9336L423.032 -96.3742L292.401 -61.3719L343.126 127.936L398.679 74.0012Z" stroke="#4C3B8A" stroke-width="3"/>
<path d="M398.679 74.0012L473.757 92.9336L423.032 -96.3742L292.401 -61.3719L343.126 127.936L398.679 74.0012Z" stroke="#4C3B8A" stroke-width="3"/>
</g>
</svg>
