<svg width="409" height="286" viewBox="0 0 409 286" fill="none" xmlns="http://www.w3.org/2000/svg">
<g opacity="0.6">
<path d="M124.506 365.439L41.8969 57.1385L21.2187 39.6186L7.95811 43.3457L90.6598 351.993L111.613 368.894L124.506 365.439Z" fill="#6A54BA"/>
<path d="M124.506 365.439L41.8969 57.1385L21.2187 39.6186L7.95811 43.3457L90.6598 351.993L111.613 368.894L124.506 365.439ZM124.506 365.439L100.154 345.983" stroke="#4C3B8A" stroke-width="3"/>
<path d="M148.786 358.934L66.1767 50.6334L45.4985 33.1135L32.2379 36.8405L114.94 345.488L135.893 362.389L148.786 358.934Z" fill="#6A54BA"/>
<path d="M148.786 358.934L66.1767 50.6334L45.4985 33.1135L32.2379 36.8405L114.94 345.488L135.893 362.389L148.786 358.934ZM148.786 358.934L124.433 339.478" stroke="#4C3B8A" stroke-width="3"/>
<path d="M518.92 259.589L385.915 295.227L364.849 278.018L282.659 200.801L243.335 211.338L273.858 325.253L160.139 355.724L139.119 338.871L56.7229 30.8723L167.592 0.400484L188.3 17.9079L214.509 112.627L247.506 69.246L306.603 86.8989L277.953 -20.0261L270.087 -25.4165L399.74 -61.7852L419.728 -44.0985L367.093 127.308L518.92 259.589Z" fill="#6A54BA"/>
<path d="M367.093 127.308L518.92 259.589L385.915 295.227L364.849 278.018L282.659 200.801L243.335 211.338M367.093 127.308L419.728 -44.0985L399.74 -61.7852L270.087 -25.4165L277.953 -20.0261L306.603 86.8989L247.506 69.246L214.509 112.627L188.3 17.9079L167.592 0.400484L56.7229 30.8723L139.119 338.871L160.139 355.724L273.858 325.253M367.093 127.308L342.314 106.815M273.858 325.253L243.335 211.338M273.858 325.253L240.187 297.594M243.335 211.338L215.087 187.897" stroke="#4C3B8A" stroke-width="3"/>
<path d="M255.327 66.6425L300.166 80.2371L277.314 59.9605L234.454 49.259L255.327 66.6425Z" fill="#6A54BA"/>
<path d="M300.166 80.2371L270.189 -33.0331L249.029 -50.4017L172.384 -29.8647L202.2 82.2807L214.26 93.7358L223.128 98.6578L255.327 66.6425L234.454 49.259L277.314 59.9605L300.166 80.2371Z" fill="#6A54BA"/>
<path d="M255.327 66.6425L300.166 80.2371M255.327 66.6425L223.128 98.6578L214.26 93.7358L202.2 82.2807L172.384 -29.8647L249.029 -50.4017L270.189 -33.0331L300.166 80.2371M255.327 66.6425L234.454 49.259L277.314 59.9605L300.166 80.2371" stroke="#4C3B8A" stroke-width="3"/>
<path d="M45 33.2476L32.1072 36.7022L114.716 345.003L127.609 341.548L45 33.2476Z" fill="#977AD6" stroke="#4C3B8A" stroke-width="3"/>
<path d="M20.6785 39.5942L7.78564 43.0488L90.3946 351.35L103.287 347.895L20.6785 39.5942Z" fill="#977AD6" stroke="#4C3B8A" stroke-width="3"/>
<path d="M261.484 183.415L364.74 277.842L497.745 242.203L345.918 109.922L398.553 -61.4839L268.984 -25.2054L297.634 81.7195L238.537 64.0667L195.776 107.447L167.125 0.522466L56.3978 30.1964L138.964 338.339L252.684 307.868L222.16 193.952L261.484 183.415Z" fill="#977AD6" stroke="#4C3B8A" stroke-width="3"/>
<path fill-rule="evenodd" clip-rule="evenodd" d="M234.561 49.6166L278.624 60.728L248.854 -50.3762L172.187 -29.8334L201.958 81.2708L234.561 49.6166Z" fill="#977AD6"/>
<path d="M234.561 49.6166L278.624 60.728L248.854 -50.3762L172.187 -29.8334L201.958 81.2708L234.561 49.6166Z" fill="#977AD6"/>
<path fill-rule="evenodd" clip-rule="evenodd" d="M234.561 49.6166L278.624 60.728L248.854 -50.3762L172.187 -29.8334L201.958 81.2708L234.561 49.6166Z" stroke="#4C3B8A" stroke-width="3"/>
<path d="M234.561 49.6166L278.624 60.728L248.854 -50.3762L172.187 -29.8334L201.958 81.2708L234.561 49.6166Z" stroke="#4C3B8A" stroke-width="3"/>
</g>
</svg>
