<svg width="388" height="342" viewBox="0 0 388 342" fill="none" xmlns="http://www.w3.org/2000/svg">
<g opacity="0.5">
<path d="M124.802 397.672L41.6107 87.1962L20.7867 69.5526L7.4325 73.306L90.7177 384.131L111.819 401.151L124.802 397.672Z" fill="#D9CFFE"/>
<path d="M124.802 397.672L41.6107 87.1962L20.7867 69.5526L7.4325 73.306L90.7177 384.131L111.819 401.151L124.802 397.672ZM124.802 397.672L100.278 378.078" stroke="#BFB3EE" stroke-width="3"/>
<path d="M149.254 391.12L66.0619 80.6444L45.2378 63.0008L31.8837 66.7542L115.169 377.579L136.27 394.599L149.254 391.12Z" fill="#D9CFFE"/>
<path d="M149.254 391.12L66.0619 80.6444L45.2378 63.0008L31.8837 66.7542L115.169 377.579L136.27 394.599L149.254 391.12ZM149.254 391.12L124.73 371.527" stroke="#BFB3EE" stroke-width="3"/>
<path d="M522.001 291.075L388.058 326.965L366.843 309.634L284.073 231.872L244.472 242.483L275.21 357.202L160.689 387.888L139.52 370.916L56.5432 60.7446L168.195 30.0578L189.049 47.6887L215.443 143.076L248.672 99.3891L308.186 117.166L279.334 9.48713L271.412 4.05872L401.98 -32.5666L422.109 -14.7551L369.103 157.861L522.001 291.075Z" fill="#D9CFFE"/>
<path d="M369.103 157.861L522.001 291.075L388.058 326.965L366.843 309.634L284.073 231.872L244.472 242.483M369.103 157.861L422.109 -14.7551L401.98 -32.5666L271.412 4.05872L279.334 9.48713L308.186 117.166L248.672 99.3891L215.443 143.076L189.049 47.6887L168.195 30.0578L56.5432 60.7446L139.52 370.916L160.689 387.888L275.21 357.202M369.103 157.861L344.149 137.223M275.21 357.202L244.472 242.483M275.21 357.202L241.302 329.348M244.472 242.483L216.025 218.877" stroke="#BFB3EE" stroke-width="3"/>
<path d="M256.546 96.7681L301.701 110.459L278.688 90.039L235.526 79.262L256.546 96.7681Z" fill="#D9CFFE"/>
<path d="M301.701 110.459L271.513 -3.61069L250.203 -21.1018L173.017 -0.419897L203.044 112.517L215.19 124.053L224.12 129.009L256.546 96.7681L235.526 79.262L278.688 90.039L301.701 110.459Z" fill="#D9CFFE"/>
<path d="M256.546 96.7681L301.701 110.459M256.546 96.7681L224.12 129.009L215.19 124.053L203.044 112.517L173.017 -0.419897L250.203 -21.1018L271.513 -3.61069L301.701 110.459M256.546 96.7681L235.526 79.262L278.688 90.039L301.701 110.459" stroke="#BFB3EE" stroke-width="3"/>
<path d="M44.7357 63.1373L31.752 66.6163L114.944 377.092L127.927 373.613L44.7357 63.1373Z" fill="#E3DEFF" stroke="#BFB3EE" stroke-width="3"/>
<path d="M20.2416 69.5289L7.25781 73.0079L90.4495 383.484L103.433 380.005L20.2416 69.5289Z" fill="#E3DEFF" stroke="#BFB3EE" stroke-width="3"/>
<path d="M262.746 214.365L366.73 309.458L500.674 273.568L347.775 140.353L400.782 -32.2623L270.298 4.27218L299.151 111.952L239.637 94.1741L196.573 137.861L167.721 30.1816L56.2121 60.0649L139.361 370.381L253.883 339.695L223.144 224.976L262.746 214.365Z" fill="#E3DEFF" stroke="#BFB3EE" stroke-width="3"/>
<path fill-rule="evenodd" clip-rule="evenodd" d="M235.636 79.623L280.01 90.8127L250.03 -21.0753L172.822 -0.387634L202.803 111.5L235.636 79.623Z" fill="#E3DEFF"/>
<path d="M235.636 79.623L280.01 90.8127L250.03 -21.0753L172.822 -0.387634L202.803 111.5L235.636 79.623Z" fill="#E3DEFF"/>
<path fill-rule="evenodd" clip-rule="evenodd" d="M235.636 79.623L280.01 90.8127L250.03 -21.0753L172.822 -0.387634L202.803 111.5L235.636 79.623Z" stroke="#BFB3EE" stroke-width="3"/>
<path d="M235.636 79.623L280.01 90.8127L250.03 -21.0753L172.822 -0.387634L202.803 111.5L235.636 79.623Z" stroke="#BFB3EE" stroke-width="3"/>
</g>
</svg>
