<svg width="720" height="476" viewBox="0 0 720 476" fill="none" xmlns="http://www.w3.org/2000/svg">
<g opacity="0.5">
<path d="M203.738 653.612L68.3803 148.452L34.4985 119.745L12.7705 125.852L148.28 631.58L182.612 659.273L203.738 653.612Z" fill="#D9CFFE"/>
<path d="M203.738 653.612L68.3803 148.452L34.4985 119.745L12.7705 125.852L148.28 631.58L182.612 659.273L203.738 653.612ZM203.738 653.612L163.836 621.732" stroke="#BFB3EE" stroke-width="3"/>
<path d="M243.523 642.952L108.165 137.792L74.2836 109.085L52.5557 115.192L188.065 620.92L222.397 648.612L243.523 642.952Z" fill="#D9CFFE"/>
<path d="M243.523 642.952L108.165 137.792L74.2836 109.085L52.5557 115.192L188.065 620.92L222.397 648.612L243.523 642.952ZM243.523 642.952L203.621 611.072" stroke="#BFB3EE" stroke-width="3"/>
<path d="M850 480.172L632.067 538.567L597.55 510.369L462.879 383.847L398.445 401.112L448.458 587.765L262.126 637.693L227.684 610.079L92.6753 105.413L274.338 55.4844L308.268 84.1708L351.213 239.371L405.279 168.29L502.112 197.215L455.167 22.0148L442.278 13.1825L654.719 -46.4087L687.47 -17.4286L601.226 263.426L850 480.172Z" fill="#D9CFFE"/>
<path d="M601.226 263.426L850 480.172L632.067 538.567L597.55 510.369L462.879 383.847L398.445 401.112M601.226 263.426L687.47 -17.4286L654.719 -46.4087L442.278 13.1825L455.167 22.0148L502.112 197.215L405.279 168.29L351.213 239.371L308.268 84.1708L274.338 55.4844L92.6753 105.413L227.684 610.079L262.126 637.693L448.458 587.765M601.226 263.426L560.625 229.848M448.458 587.765L398.445 401.112M448.458 587.765L393.288 542.444M398.445 401.112L352.16 362.703" stroke="#BFB3EE" stroke-width="3"/>
<path d="M418.093 164.025L491.563 186.3L454.119 153.076L383.892 135.541L418.093 164.025Z" fill="#D9CFFE"/>
<path d="M491.563 186.3L442.444 0.703354L407.773 -27.7556L282.188 5.89494L331.043 189.649L350.804 208.418L365.335 216.483L418.093 164.025L383.892 135.541L454.119 153.076L491.563 186.3Z" fill="#D9CFFE"/>
<path d="M418.093 164.025L491.563 186.3M418.093 164.025L365.335 216.483L350.804 208.418L331.043 189.649L282.188 5.89494L407.773 -27.7556L442.444 0.703354L491.563 186.3M418.093 164.025L383.892 135.541L454.119 153.076L491.563 186.3" stroke="#BFB3EE" stroke-width="3"/>
<path d="M73.4671 109.306L52.3418 114.967L187.699 620.127L208.824 614.467L73.4671 109.306Z" fill="#E3DEFF" stroke="#BFB3EE" stroke-width="3"/>
<path d="M33.6155 119.707L12.4902 125.367L147.848 630.527L168.973 624.867L33.6155 119.707Z" fill="#E3DEFF" stroke="#BFB3EE" stroke-width="3"/>
<path d="M428.181 355.362L597.369 510.083L815.302 451.688L566.528 234.941L652.773 -45.9133L440.47 13.5301L487.414 188.73L390.582 159.805L320.516 230.886L273.571 55.6861L92.1405 104.308L227.428 609.208L413.761 559.28L363.747 372.627L428.181 355.362Z" fill="#E3DEFF" stroke="#BFB3EE" stroke-width="3"/>
<path fill-rule="evenodd" clip-rule="evenodd" d="M384.069 136.129L456.267 154.335L407.488 -27.7128L281.867 5.94714L330.647 187.995L384.069 136.129Z" fill="#E3DEFF"/>
<path d="M384.069 136.129L456.267 154.335L407.488 -27.7128L281.867 5.94714L330.647 187.995L384.069 136.129Z" fill="#E3DEFF"/>
<path fill-rule="evenodd" clip-rule="evenodd" d="M384.069 136.129L456.267 154.335L407.488 -27.7128L281.867 5.94714L330.647 187.995L384.069 136.129Z" stroke="#BFB3EE" stroke-width="3"/>
<path d="M384.069 136.129L456.267 154.335L407.488 -27.7128L281.867 5.94714L330.647 187.995L384.069 136.129Z" stroke="#BFB3EE" stroke-width="3"/>
</g>
</svg>
