<svg width="250" height="20" viewBox="0 0 250 20" fill="none" xmlns="http://www.w3.org/2000/svg">
<g clip-path="url(#clip0_1813_138)">
<path d="M218.073 9.9206C218.073 11.2378 218.403 12.2427 219.064 12.9353C219.725 13.6166 220.619 13.98 221.747 14.0254V5.23671C220.619 5.28213 219.725 5.65117 219.064 6.34381C218.403 7.0251 218.073 8.04137 218.073 9.3926V9.9206ZM231.265 9.40963C231.265 8.06975 230.941 7.04781 230.291 6.34381C229.653 5.62846 228.748 5.25375 227.574 5.21968V14.0083C228.748 13.9743 229.653 13.6223 230.291 12.9523C230.941 12.2711 231.265 11.2661 231.265 9.93763V9.40963ZM221.747 17.9087C218.807 17.7725 216.483 17.0117 214.774 15.6264C213.065 14.2411 212.211 12.3505 212.211 9.95466V9.40963C212.211 7.01375 213.065 5.11749 214.774 3.72084C216.495 2.31284 218.819 1.53503 221.747 1.38741V-7.36719H227.574V1.38741C230.65 1.53503 233.026 2.30716 234.7 3.70381C236.375 5.10046 237.213 7.00807 237.213 9.42666V9.98873C237.213 12.3732 236.369 14.2582 234.683 15.6434C233.009 17.0174 230.639 17.7725 227.574 17.9087V24.8239H221.747V17.9087Z" fill="#4C3B8A"/>
<path d="M191.414 24.8234V1.88089H197.122L197.139 3.90773L197.156 3.8907C197.657 3.20941 198.404 2.63599 199.395 2.17044C200.397 1.69353 201.559 1.45508 202.881 1.45508C205.091 1.45508 206.857 2.14205 208.179 3.51599C209.512 4.87857 210.178 6.81458 210.178 9.324V9.86904C210.178 12.299 209.495 14.235 208.127 15.6771C206.772 17.1191 204.994 17.8402 202.796 17.8402C201.463 17.8402 200.352 17.6471 199.463 17.2611C198.586 16.875 197.845 16.3697 197.242 15.7452V24.8234H191.414ZM197.242 11.8618C197.492 12.4068 197.914 12.8838 198.506 13.2925C199.099 13.7013 199.811 13.9057 200.642 13.9057C201.884 13.9057 202.801 13.548 203.394 12.8327C203.986 12.1059 204.282 11.1862 204.282 10.0734V9.17071C204.282 8.03522 203.986 7.13819 203.394 6.47961C202.801 5.80967 201.895 5.4747 200.676 5.4747C199.822 5.4747 199.099 5.67909 198.506 6.08786C197.914 6.49664 197.492 6.97354 197.242 7.51858V11.8618Z" fill="#4C3B8A"/>
<path d="M181.008 14.724C181.008 13.861 181.293 13.1343 181.862 12.5439C182.432 11.9534 183.241 11.6582 184.289 11.6582C185.348 11.6582 186.157 11.9534 186.716 12.5439C187.285 13.1343 187.57 13.8667 187.57 14.741C187.57 15.6154 187.285 16.3478 186.716 16.9382C186.157 17.5287 185.348 17.8239 184.289 17.8239C183.229 17.8239 182.415 17.523 181.845 16.9212C181.287 16.3194 181.008 15.587 181.008 14.724Z" fill="#4C3B8A"/>
<path d="M159.527 17.4995V1.88086H165.372V9.34101C165.372 9.76114 165.366 10.0961 165.355 10.3459C165.355 10.5844 165.343 10.9307 165.321 11.3849H165.406C165.588 10.9307 165.708 10.6184 165.765 10.4481C165.833 10.2664 166.021 9.86901 166.329 9.25585L170.943 1.88086H177.181V17.4995H171.319V9.9712C171.319 9.52836 171.319 9.19907 171.319 8.98333C171.319 8.75623 171.325 8.41559 171.336 7.96139H171.285C171.102 8.40423 170.977 8.71081 170.909 8.88113C170.852 9.05146 170.664 9.44888 170.345 10.0734L165.765 17.4995H159.527Z" fill="#4C3B8A"/>
<path d="M145.223 17.4995H139.327V1.88086H145.223V17.4995ZM150.794 17.4995L145.77 10.38L150.264 7.2801L157.698 17.4995H150.794ZM142.301 7.55262H146.693L150.435 1.88086H156.844L150.128 11.7255H142.301V7.55262ZM133.756 17.4995H126.938L134.371 7.2801L138.78 10.38L133.756 17.4995ZM142.301 7.55262V11.7255H134.303L127.621 1.88086H134.115L137.858 7.55262H142.301Z" fill="#4C3B8A"/>
<path d="M120.924 22.0982V17.4995H110.944V22.0982H105.492V13.1903H126.358V22.0982H120.924ZM113.285 6.19003L113.182 8.50643C113.148 9.3921 113.051 10.3289 112.892 11.3168C112.732 12.3046 112.55 12.9859 112.345 13.3606H107.116C107.412 12.7815 107.651 12.0378 107.833 11.1294C108.016 10.221 108.13 9.11391 108.175 7.8081L108.38 1.88086H124.068V17.4995H118.207V6.19003H113.285Z" fill="#4C3B8A"/>
<path d="M85.8223 9.90354V9.35851C85.8223 6.92856 86.6767 4.99823 88.3857 3.56752C90.0946 2.12545 92.3959 1.40442 95.2897 1.40442C98.1151 1.40442 100.291 2.09707 101.818 3.48236C103.344 4.86765 104.108 6.76392 104.108 9.17115V10.7211H88.8129V7.87669H98.4683V7.85966C98.4683 7.13295 98.212 6.5425 97.6993 6.0883C97.198 5.62275 96.3606 5.38998 95.1872 5.38998C94.0365 5.38998 93.1536 5.72495 92.5383 6.39488C91.9345 7.05347 91.6326 7.83128 91.6326 8.72831V9.9376C91.6326 11.2093 91.9573 12.1859 92.6067 12.8672C93.2675 13.5485 94.2188 13.8891 95.4606 13.8891C96.3493 13.8891 97.0898 13.7415 97.6822 13.4463C98.2746 13.1397 98.7304 12.7309 99.0494 12.2199L103.988 13.4463C103.419 14.8543 102.456 15.95 101.1 16.7335C99.7443 17.517 97.8816 17.9087 95.5119 17.9087C92.4244 17.9087 90.0376 17.199 88.3515 15.7797C86.6653 14.349 85.8223 12.3903 85.8223 9.90354Z" fill="#4C3B8A"/>
<path d="M72.4758 6.19003L72.4416 8.47236C72.3619 11.8334 71.8663 14.2293 70.9549 15.66C70.0434 17.0794 68.6478 17.789 66.768 17.789C66.3009 17.789 65.8851 17.772 65.5205 17.7379C65.1673 17.7152 64.8825 17.6641 64.666 17.5846V12.8156C64.7799 12.8497 64.8939 12.878 65.0078 12.9008C65.1331 12.9121 65.2869 12.9178 65.4692 12.9178C66.073 12.9178 66.5401 12.5488 66.8705 11.8107C67.2009 11.0726 67.3832 9.89172 67.4174 8.26797L67.5883 1.88086H83.0712V17.4995H77.2095V6.19003H72.4758Z" fill="#4C3B8A"/>
<path d="M51.4739 6.19003L51.4397 8.47236C51.3599 11.8334 50.8643 14.2293 49.9529 15.66C49.0415 17.0794 47.6459 17.789 45.766 17.789C45.2989 17.789 44.8831 17.772 44.5185 17.7379C44.1653 17.7152 43.8805 17.6641 43.6641 17.5846V12.8156C43.778 12.8497 43.8919 12.878 44.0058 12.9008C44.1312 12.9121 44.285 12.9178 44.4673 12.9178C45.0711 12.9178 45.5382 12.5488 45.8686 11.8107C46.199 11.0726 46.3813 9.89172 46.4154 8.26797L46.5863 1.88086H62.0692V17.4995H56.2076V6.19003H51.4739Z" fill="#4C3B8A"/>
<path d="M22.4062 9.92088V9.37584C22.4062 6.99132 23.2892 5.06667 25.0551 3.60189C26.821 2.12576 29.1679 1.3877 32.0959 1.3877C35.0352 1.3877 37.3821 2.12576 39.1366 3.60189C40.9025 5.06667 41.7855 6.99132 41.7855 9.37584V9.92088C41.7855 12.3168 40.9025 14.2471 39.1366 15.7119C37.3821 17.1766 35.0352 17.909 32.0959 17.909C29.1565 17.909 26.8039 17.1766 25.038 15.7119C23.2835 14.2471 22.4062 12.3168 22.4062 9.92088ZM28.302 9.17146V10.0912C28.302 11.204 28.621 12.1124 29.259 12.8164C29.9084 13.509 30.854 13.8553 32.0959 13.8553C33.3377 13.8553 34.2776 13.509 34.9156 12.8164C35.565 12.1124 35.8897 11.1983 35.8897 10.0742V9.17146C35.8897 8.08139 35.565 7.19571 34.9156 6.51442C34.2776 5.83313 33.3377 5.49248 32.0959 5.49248C30.854 5.49248 29.9084 5.83313 29.259 6.51442C28.621 7.19571 28.302 8.08139 28.302 9.17146Z" fill="#4C3B8A"/>
<path d="M2.36216 1.44531H1.66406V17.9088H2.36216V1.44531Z" fill="#4C3B8A"/>
<path d="M1.04771 1.43652H0.349609V17.9H1.04771V1.43652Z" fill="#4C3B8A"/>
<path d="M11.2653 11.8174L15.2035 17.9006H22.4053L16.5257 9.28293L21.5051 1.44554L14.4682 1.52329V7.23316L11.7216 5.56467L8.9741 7.15519V1.44531L2.97852 1.44554V17.9006H9.13603V11.8174H11.2653Z" fill="#4C3B8A"/>
<path fill-rule="evenodd" clip-rule="evenodd" d="M11.7182 4.79119L13.7938 5.93305V0H9.64258V5.93305L11.7182 4.79119Z" fill="#FD8B21"/>
<path d="M11.7182 4.79119L13.7938 5.93305V0H9.64258V5.93305L11.7182 4.79119Z" fill="#FD8B21"/>
</g>
<defs>
<clipPath id="clip0_1813_138">
<rect width="250" height="20" fill="white"/>
</clipPath>
</defs>
</svg>
