<svg width="36" height="36" viewBox="0 0 36 36" fill="none" xmlns="http://www.w3.org/2000/svg">
<g clip-path="url(#clip0_779_3663)">
<path d="M33.0863 7.84497L22.0253 2.57547C19.5905 1.12112 16.56 1.09532 14.1008 2.50797L2.91533 7.84497C2.87335 7.86599 2.82983 7.88849 2.78933 7.91247C0.134888 9.43023 -0.786628 12.8125 0.731138 15.4669C1.24561 16.3668 2.00239 17.1041 2.91533 17.595L6.00085 19.065V26.415C6.00268 29.7016 8.14123 32.6052 11.2794 33.582C13.4632 34.2138 15.7276 34.5231 18.0009 34.5C20.2738 34.5255 22.5382 34.2188 24.7224 33.5895C27.8605 32.6128 29.9991 29.7091 30.0009 26.4225V19.062L33.0009 17.628V29.9999C33.0009 30.8284 33.6725 31.4999 34.5009 31.4999C35.3293 31.4999 36.0009 30.8284 36.0009 29.9999V11.9999C36.0109 10.2385 34.6201 8.61137 33.0863 7.84497ZM27.0008 26.4225C27.0016 28.3884 25.7261 30.1273 23.8508 30.717C21.9491 31.2604 19.9785 31.5241 18.0008 31.5C16.0231 31.5241 14.0525 31.2604 12.1508 30.717C10.2755 30.1272 9.00003 28.3884 9.0008 26.4225V20.4945L13.9763 22.8646C15.204 23.5936 16.6061 23.9766 18.0338 23.973C19.3928 23.9827 20.729 23.6229 21.8994 22.9321L27.0008 20.4945V26.4225ZM31.8008 14.8875L20.4878 20.2875C18.9104 21.206 16.9553 21.1799 15.4028 20.22L4.3343 14.955C3.10053 14.2897 2.6397 12.7502 3.305 11.5165C3.53 11.0992 3.86736 10.7534 4.27883 10.518L15.5213 5.14799C17.0992 4.23154 19.0533 4.25748 20.6063 5.21549L31.6673 10.485C32.4807 10.9367 32.9897 11.7896 33.0008 12.72C33.0023 13.6013 32.5485 14.4209 31.8008 14.8875Z" fill="#FD8B21"/>
</g>
<defs>
<clipPath id="clip0_779_3663">
<rect width="36" height="36" fill="white"/>
</clipPath>
</defs>
</svg>
