<svg width="36" height="36" viewBox="0 0 36 36" fill="none" xmlns="http://www.w3.org/2000/svg">
<g clip-path="url(#clip0_779_3660)">
<path d="M36.0005 34.4998C36.0005 34.8977 35.8424 35.2792 35.5611 35.5605C35.2798 35.8418 34.8983 35.9998 34.5005 35.9998H1.50046C1.10264 35.9998 0.721109 35.8418 0.439804 35.5605C0.158499 35.2792 0.000464182 34.8977 0.000464182 34.4998C0.000464182 34.102 0.158499 33.7205 0.439804 33.4392C0.721109 33.1579 1.10264 32.9998 1.50046 32.9998H34.5005C34.8983 32.9998 35.2798 33.1579 35.5611 33.4392C35.8424 33.7205 36.0005 34.102 36.0005 34.4998ZM0.436964 12.8278C0.113748 12.2283 -0.0359938 11.5506 0.00454482 10.8707C0.0450835 10.1908 0.274298 9.5357 0.666464 8.97884C1.30735 8.03851 2.16563 7.26668 3.16846 6.72884L14.42 0.872839C15.5259 0.297785 16.754 -0.00244141 18.0005 -0.00244141C19.2469 -0.00244141 20.4751 0.297785 21.581 0.872839L32.831 6.73334C33.8338 7.27118 34.6921 8.04301 35.333 8.98334C35.7251 9.5402 35.9543 10.1953 35.9949 10.8752C36.0354 11.5551 35.8857 12.2328 35.5625 12.8323C35.2145 13.4906 34.6926 14.0407 34.0536 14.4229C33.4146 14.8051 32.683 15.0046 31.9385 14.9998H31.5005V26.9998H33.0005C33.3983 26.9998 33.7798 27.1579 34.0611 27.4392C34.3424 27.7205 34.5005 28.102 34.5005 28.4998C34.5005 28.8977 34.3424 29.2792 34.0611 29.5605C33.7798 29.8418 33.3983 29.9998 33.0005 29.9998H3.00046C2.60264 29.9998 2.22111 29.8418 1.9398 29.5605C1.6585 29.2792 1.50046 28.8977 1.50046 28.4998C1.50046 28.102 1.6585 27.7205 1.9398 27.4392C2.22111 27.1579 2.60264 26.9998 3.00046 26.9998H4.50046V14.9998H4.06246C3.3172 15.0045 2.58497 14.8044 1.94565 14.4214C1.30632 14.0384 0.784452 13.4871 0.436964 12.8278ZM7.50046 26.9998H12.0005V14.9998H7.50046V26.9998ZM15.0005 14.9998V26.9998H21.0005V14.9998H15.0005ZM28.5005 14.9998H24.0005V26.9998H28.5005V14.9998ZM3.09496 11.4373C3.18908 11.6109 3.32913 11.7551 3.49979 11.8543C3.67044 11.9536 3.86511 12.0039 4.06246 11.9998H31.9385C32.1358 12.0039 32.3305 11.9536 32.5011 11.8543C32.6718 11.7551 32.8119 11.6109 32.906 11.4373C32.9745 11.3227 33.0077 11.1903 33.0013 11.0569C32.9949 10.9235 32.9492 10.7949 32.87 10.6873C32.5065 10.1472 32.0182 9.70265 31.4465 9.39134L20.1965 3.53084C19.5185 3.17897 18.7658 2.9953 18.002 2.9953C17.2381 2.9953 16.4855 3.17897 15.8075 3.53084L4.55746 9.39134C3.98594 9.70365 3.49776 10.1486 3.13396 10.6888C3.0546 10.7959 3.00857 10.9241 3.00163 11.0572C2.99469 11.1903 3.02716 11.3226 3.09496 11.4373Z" fill="#FD8B21"/>
</g>
<defs>
<clipPath id="clip0_779_3660">
<rect width="36" height="36" fill="white"/>
</clipPath>
</defs>
</svg>
