<svg width="36" height="36" viewBox="0 0 36 36" fill="none" xmlns="http://www.w3.org/2000/svg">
<g clip-path="url(#clip0_779_3661)">
<path d="M35.1323 24.8745L30.1958 19.938C30.0582 19.7915 29.8926 19.6741 29.7087 19.5929C29.5249 19.5116 29.3266 19.4681 29.1256 19.465C28.9247 19.4619 28.7251 19.4992 28.5389 19.5747C28.3526 19.6502 28.1834 19.7624 28.0413 19.9046C27.8992 20.0467 27.7872 20.216 27.7118 20.4023C27.6364 20.5887 27.5993 20.7882 27.6026 20.9892C27.6058 21.1902 27.6494 21.3884 27.7308 21.5722C27.8122 21.756 27.9297 21.9215 28.0763 22.059L31.5113 25.5C29.644 25.5043 27.7947 25.1349 26.0723 24.4136C24.35 23.6922 22.7893 22.6336 21.4823 21.3C21.3372 21.1664 21.1667 21.0632 20.9809 20.9967C20.7951 20.9302 20.5979 20.9017 20.4009 20.9129C20.2039 20.9241 20.0112 20.9748 19.8341 21.0619C19.6571 21.149 19.4994 21.2708 19.3703 21.42L19.3508 21.45C19.0986 21.7434 18.9695 22.1228 18.9905 22.5091C19.0115 22.8954 19.1808 23.2587 19.4633 23.523C21.038 25.1156 22.9158 26.3765 24.9859 27.2313C27.0559 28.0861 29.2763 28.5175 31.5158 28.5L28.0763 31.9395C27.9196 32.0743 27.7924 32.2401 27.7028 32.4264C27.6131 32.6126 27.563 32.8155 27.5554 33.022C27.5479 33.2286 27.5832 33.4346 27.659 33.6269C27.7348 33.8192 27.8496 33.9938 27.996 34.1396C28.1425 34.2855 28.3176 34.3995 28.5102 34.4745C28.7029 34.5495 28.9089 34.5839 29.1155 34.5755C29.3221 34.5671 29.5247 34.516 29.7106 34.4256C29.8965 34.3352 30.0617 34.2073 30.1958 34.05L35.1323 29.1135C35.6938 28.5511 36.0092 27.7888 36.0092 26.994C36.0092 26.1993 35.6938 25.437 35.1323 24.8745Z" fill="#FD8B21"/>
<path d="M31.5113 10.5L28.0763 13.935C28.047 13.9745 28.02 14.0155 27.9953 14.058C27.7532 14.3531 27.6338 14.73 27.6618 15.1107C27.6898 15.4913 27.8629 15.8467 28.1455 16.1033C28.4281 16.3599 28.7985 16.498 29.1801 16.4892C29.5617 16.4804 29.9253 16.3253 30.1958 16.056L32.7548 13.5L35.1338 11.1225C35.536 10.7171 35.8141 10.2054 35.9356 9.6474C36.057 9.08941 36.0167 8.50835 35.8193 7.9725C35.6735 7.56232 35.4389 7.18943 35.1323 6.8805L30.1958 1.95C30.0588 1.80122 29.8932 1.68165 29.7089 1.5985C29.5246 1.51535 29.3253 1.47033 29.1232 1.46614C28.921 1.46195 28.7201 1.49869 28.5324 1.57413C28.3448 1.64957 28.1744 1.76217 28.0314 1.90516C27.8884 2.04815 27.7758 2.21857 27.7004 2.40618C27.6249 2.59379 27.5882 2.79472 27.5924 2.99689C27.5966 3.19906 27.6416 3.3983 27.7248 3.58262C27.8079 3.76695 27.9275 3.93256 28.0763 4.0695L31.5158 7.5075C24.1163 7.5255 20.0603 11.5185 16.3823 15.7185C13.0043 11.9055 9.00077 8.1 2.23127 7.569L1.50977 7.5C1.11194 7.5 0.73041 7.65804 0.449105 7.93934C0.167801 8.22065 0.00976563 8.60218 0.00976562 9C0.0174458 9.39542 0.177947 9.77251 0.457604 10.0522C0.737261 10.3318 1.11435 10.4923 1.50977 10.5C1.61777 10.5 1.94027 10.5495 1.94027 10.5495C7.78427 10.992 11.1383 14.283 14.4008 18C11.1578 21.699 7.82627 25.05 2.03027 25.44L1.43027 25.4715C1.03542 25.4962 0.666553 25.6767 0.404799 25.9733C0.143046 26.2699 0.00985049 26.6584 0.0345156 27.0533C0.0591808 27.4481 0.239686 27.817 0.536321 28.0787C0.832957 28.3405 1.22142 28.4737 1.61627 28.449C1.85027 28.4385 2.23127 28.4295 2.41877 28.4145C9.94877 27.834 14.0333 23.0145 17.6753 18.801C21.3533 14.55 24.8273 10.527 31.5113 10.5Z" fill="#FD8B21"/>
</g>
<defs>
<clipPath id="clip0_779_3661">
<rect width="36" height="36" fill="white"/>
</clipPath>
</defs>
</svg>
